<?xml version="1.0" encoding="utf-8"?>
<!-- Generator: Adobe Illustrator 15.0.0, SVG Export Plug-In . SVG Version: 6.00 Build 0)  -->
<!DOCTYPE svg PUBLIC "-//W3C//DTD SVG 1.1//EN" "http://www.w3.org/Graphics/SVG/1.1/DTD/svg11.dtd">
<svg version="1.1" id="Layer_1" xmlns="http://www.w3.org/2000/svg" xmlns:xlink="http://www.w3.org/1999/xlink" x="0px" y="0px"
	 width="150.833px" height="51.666px" viewBox="0 0 150.833 51.666" enable-background="new 0 0 150.833 51.666"
	 xml:space="preserve">
<g>
	<path fill="#3D5D90" d="M62.333,41.774c0,0.082-0.104,0.34-0.31,0.773c-0.207,0.434-0.393,0.754-0.557,0.961
		c-0.083,0.123-0.238,0.186-0.465,0.186c-0.227,0-0.402,0.041-0.526,0.123c-1.074,0.66-1.663,1.074-1.765,1.238
		c-0.104,0.164-0.526,0.248-1.269,0.248s-1.466-0.094-2.167-0.279c-0.702-0.186-1.342-0.34-1.919-0.465
		c-0.661-0.123-1.455-0.236-2.384-0.34c-0.929-0.102-1.806-0.258-2.631-0.465c-1.734-0.535-3.127-0.867-4.18-0.99
		s-2.24-0.186-3.561-0.186c-0.908,0-2.333,0.227-4.272,0.682c-1.941,0.455-3.055,0.723-3.344,0.805
		c-0.537,0.082-1.125,0.154-1.765,0.217c-0.641,0.061-1.249,0.113-1.827,0.154c-0.083,0-0.186,0.084-0.31,0.248
		c-0.124,0.166-0.227,0.27-0.31,0.309c-0.331,0.207-0.753,0.373-1.27,0.496c-0.517,0.123-1.001,0.289-1.455,0.496
		c-0.289,0.082-0.661,0.154-1.114,0.217c-0.455,0.061-0.743,0.092-0.867,0.092c-0.124,0-0.475,0.186-1.052,0.557
		c-0.579,0.373-0.991,0.516-1.239,0.434c-0.248-0.123-0.537-0.195-0.867-0.217c-0.331-0.02-0.557-0.029-0.681-0.029
		s-0.207,0.02-0.248,0.061c-0.042,0.041-0.145,0.063-0.31,0.063c-0.124,0-0.641-0.166-1.548-0.496
		c-0.908-0.33-1.424-0.494-1.548-0.494c-0.413,0-0.888-0.166-1.424-0.496c-0.537-0.33-0.827-0.846-0.867-1.547
		c0.578-0.867,1.3-1.465,2.167-1.797c0.867-0.33,1.65-0.701,2.353-1.115c0.165-0.082,0.64-0.236,1.424-0.463
		c0.784-0.227,1.465-0.424,2.043-0.588c0.082-0.041,0.155-0.104,0.217-0.188c0.062-0.082,0.113-0.164,0.155-0.246
		c-0.248-0.207-0.382-0.424-0.403-0.65c-0.021-0.227-0.072-0.443-0.155-0.65c-0.042-0.207-0.104-0.381-0.186-0.527
		c-0.083-0.143-0.124-0.299-0.124-0.463c-0.042-0.082-0.104-0.166-0.186-0.248c-0.083-0.082-0.145-0.145-0.186-0.186
		c-0.208-1.031-0.393-1.744-0.558-2.137c-0.166-0.393-0.248-0.918-0.248-1.578c0-0.125,0.031-0.27,0.093-0.434
		c0.062-0.166,0.093-0.33,0.093-0.496c0-0.66,0.051-1.402,0.155-2.229c0.103-0.826,0.299-1.693,0.588-2.602
		c0.083-0.248,0.144-0.578,0.186-0.99c0.041-0.412,0.082-0.764,0.124-1.053c0.083-0.33,0.195-0.66,0.341-0.99
		c0.144-0.33,0.175-0.66,0.093-0.992c0.33-0.328,0.464-0.68,0.402-1.051c-0.062-0.372,0.175-0.558,0.712-0.558
		c0.124,0,0.341,0.094,0.65,0.279s0.526,0.34,0.65,0.464c0.082,0.042,0.226,0.104,0.433,0.186c0.206,0.083,0.35,0.187,0.434,0.31
		c0.33,0.371,0.67,0.908,1.021,1.611c0.351,0.701,0.588,1.279,0.712,1.732c0.082,0.043,0.155,0.104,0.216,0.186
		c0.062,0.084,0.113,0.166,0.155,0.248c0.083,0.248,0.113,0.518,0.093,0.805c-0.021,0.289-0.052,0.559-0.093,0.805
		c-0.042,0.207-0.031,0.445,0.031,0.713c0.062,0.27,0.133,0.506,0.217,0.713c0,0.041-0.011,0.113-0.031,0.217
		c-0.021,0.104-0.031,0.195-0.031,0.277c0.082,0.041,0.133,0.115,0.155,0.217c0.021,0.104,0.051,0.176,0.093,0.217
		c0.083,0.332,0.165,0.672,0.248,1.021c0.083,0.352,0.145,0.672,0.186,0.961c0.041,0.164,0.041,0.35,0,0.557
		c-0.042,0.207-0.042,0.412,0,0.619c0.041,0.123,0.124,0.227,0.248,0.309c0.124,0.084,0.186,0.166,0.186,0.248
		c0.041,0.125,0.206,0.6,0.495,1.424c0.288,0.826,0.619,1.24,0.991,1.24c0.124,0,0.402-0.072,0.836-0.217s0.794-0.301,1.083-0.465
		c-0.166-0.99-0.351-2.209-0.557-3.654c-0.207-1.443-0.31-2.229-0.31-2.352c0-0.125,0.113-1.084,0.34-2.881
		c0.227-1.795,0.403-3.146,0.526-4.055c0.206-1.073,0.578-2.332,1.115-3.777c0.536-1.445,0.805-2.312,0.805-2.602v-0.681
		c-0.042,0-0.104,0-0.186,0c-0.083,0-0.186,0-0.31,0c-0.083,0-0.402-0.134-0.96-0.402c-0.557-0.269-1.063-0.484-1.517-0.649
		c-0.289-0.125-0.661-0.217-1.114-0.279c-0.455-0.063-0.867-0.093-1.238-0.093c-0.042-0.04-0.104-0.083-0.186-0.124
		c-0.083-0.041-0.166-0.082-0.248-0.123c-0.785-0.207-1.6-0.589-2.446-1.146c-0.847-0.557-1.621-1.145-2.322-1.765v-0.495
		c0.206-0.041,0.434-0.124,0.681-0.248c0.248-0.123,0.454-0.205,0.619-0.248c0.826-0.164,1.651-0.309,2.477-0.433
		c0.825-0.124,1.63-0.288,2.415-0.495c0.288-0.082,0.722-0.258,1.3-0.527c0.577-0.268,1.114-0.464,1.61-0.588
		c1.444-0.453,2.91-0.907,4.396-1.361c1.486-0.454,3.096-0.991,4.83-1.61c0.371-0.124,1.073-0.248,2.105-0.372
		c1.031-0.123,1.61-0.186,1.734-0.186c0.701,0,1.176,0.176,1.424,0.526c0.248,0.352,0.474,0.526,0.681,0.526
		c0.124,0,0.207-0.031,0.248-0.093c0.041-0.062,0.082-0.093,0.124-0.093c0,0.041-0.01,0.114-0.031,0.217
		c-0.021,0.104-0.073,0.196-0.155,0.278c0.454,0.413,0.608,0.796,0.464,1.146c-0.145,0.352-0.052,0.609,0.279,0.773
		c-0.042,0.084-0.104,0.155-0.186,0.217c-0.083,0.063-0.207,0.135-0.372,0.217c0.083,0.125,0.165,0.248,0.248,0.372
		c0.082,0.124,0.124,0.247,0.124,0.372c0,0.123-0.093,0.289-0.278,0.494c-0.186,0.207-0.32,0.414-0.403,0.619
		c-0.042,0.043-0.114,0.084-0.217,0.125c-0.104,0.041-0.196,0.104-0.278,0.186c0.041,0.207,0.133,0.475,0.278,0.805
		c0.145,0.331,0.031,0.66-0.34,0.99c-0.124,0.084-0.279,0.177-0.464,0.279c-0.186,0.104-0.341,0.154-0.464,0.154
		c-0.124,0-0.269-0.02-0.434-0.062c-0.166-0.04-0.31-0.062-0.434-0.062c-0.124,0-0.537,0.083-1.238,0.247
		c-0.702,0.165-1.3,0.31-1.795,0.434c-0.29,0.083-0.579,0.247-0.867,0.495c-0.289,0.248-0.557,0.475-0.805,0.682
		c-0.042,0.123-0.031,0.289,0.031,0.495c0.062,0.207,0.051,0.393-0.031,0.558c0,0.041-0.031,0.113-0.093,0.217
		c-0.062,0.104-0.114,0.217-0.155,0.34c-0.083,0.619-0.155,1.28-0.217,1.982c-0.062,0.701-0.197,1.403-0.403,2.104
		c-0.165,0.661-0.362,1.312-0.588,1.95c-0.228,0.64-0.444,1.291-0.65,1.951l0.186,0.186c0.124,0,0.237-0.063,0.34-0.186
		c0.103-0.123,0.195-0.207,0.279-0.248c1.238-0.205,2.497-0.639,3.777-1.301c1.279-0.659,2.456-1.072,3.529-1.238
		c0.083-0.04,0.155-0.082,0.217-0.123c0.062-0.041,0.113-0.082,0.155-0.125c0.206-0.123,0.516-0.257,0.929-0.402
		c0.412-0.144,0.783-0.217,1.114-0.217c0.083,0,0.372,0.187,0.867,0.559c0.495,0.371,0.887,0.701,1.176,0.99
		c0.041,0.123,0.062,0.248,0.062,0.371c0,0.125-0.021,0.228-0.062,0.31c-0.042,0.041-0.042,0.061,0,0.061
		c0.041,0,0.062,0.063,0.062,0.188l-0.248,0.186c0,0.123,0.021,0.258,0.062,0.402c0.041,0.145,0.083,0.277,0.124,0.402
		c-0.042,0.082-0.062,0.207-0.062,0.371c0,0.166-0.042,0.289-0.124,0.371c-0.248,0.371-0.517,0.775-0.805,1.207
		c-0.29,0.434-0.579,0.816-0.867,1.146c0,0.041-0.011,0.113-0.031,0.217c-0.021,0.104-0.031,0.195-0.031,0.279
		c-0.413,0.246-0.867,0.475-1.362,0.68c-0.496,0.207-0.97,0.393-1.424,0.559c-0.248,0.041-0.506,0.154-0.774,0.34
		c-0.269,0.186-0.547,0.34-0.836,0.465c-0.289,0.082-0.692,0.154-1.208,0.217c-0.517,0.061-0.836,0.092-0.959,0.092
		c-0.124,0-0.382-0.039-0.774-0.123c-0.393-0.082-0.733-0.145-1.022-0.186c-0.166-0.082-0.331-0.176-0.495-0.279
		c-0.166-0.102-0.331-0.195-0.496-0.279c-0.124-0.123-0.258-0.268-0.402-0.432c-0.145-0.166-0.32-0.33-0.526-0.496h-0.372
		c-0.042,0.207-0.083,0.465-0.124,0.773c-0.042,0.311-0.062,0.527-0.062,0.65c0,0.99,0.217,1.93,0.65,2.818
		c0.434,0.887,0.505,1.578,0.217,2.074c0.165,0.164,0.423,0.227,0.774,0.186c0.351-0.041,0.67-0.063,0.96-0.063
		c0.454-0.082,0.938-0.123,1.455-0.123c0.516,0,1.021,0.021,1.517,0.061c0.907,0.043,2.25,0.186,4.025,0.434
		c1.774,0.248,3.508,0.518,5.201,0.805c0.124,0,0.299,0.053,0.526,0.156c0.226,0.104,0.422,0.176,0.588,0.217
		c0.372,0.041,0.774,0.082,1.208,0.123s0.815,0.123,1.146,0.248c0.619,0.207,1.248,0.455,1.889,0.742
		c0.64,0.289,1.27,0.578,1.889,0.867c0.165,0.084,0.464,0.537,0.897,1.363C62.116,40.991,62.333,41.526,62.333,41.774z"/>
</g>
<g>
	<path fill="#3D5D90" d="M96.697,27.974c-0.049,0.146-0.115,0.232-0.201,0.256c-0.086,0.025-0.152,0.063-0.201,0.111
		c0,0.023,0.012,0.061,0.037,0.109c0.023,0.049,0.049,0.098,0.072,0.146c-0.072,0.049-0.152,0.092-0.238,0.129
		s-0.178,0.066-0.275,0.092c-0.023,0.023-0.043,0.043-0.055,0.055s-0.031,0.031-0.055,0.055c-0.098,0.244-0.252,0.367-0.459,0.367
		s-0.398,0.012-0.568,0.037c-0.025,0.023-0.031,0.049-0.018,0.072c0.012,0.025,0.018,0.063,0.018,0.111H94.24
		c-0.049,0-0.178-0.025-0.385-0.074c-0.209-0.049-0.35-0.074-0.422-0.074c-0.195,0-0.6,0.068-1.211,0.203s-0.941,0.213-0.99,0.238
		c-0.171,0.072-0.422,0.207-0.752,0.402c-0.33,0.197-0.593,0.465-0.789,0.809c-0.146,0.244-0.311,0.555-0.494,0.934
		c-0.184,0.381-0.337,0.717-0.459,1.01c-0.073,0.195-0.159,0.447-0.257,0.752c-0.098,0.307-0.171,0.582-0.22,0.826
		c-0.025,0.17-0.025,0.348,0,0.531c0.023,0.184,0.023,0.373,0,0.568c0,0.391,0,0.85,0,1.375s-0.062,1.021-0.184,1.486
		c-0.025,0.098-0.098,0.25-0.221,0.459c-0.122,0.207-0.232,0.396-0.33,0.568c-0.023,0.049-0.066,0.098-0.128,0.146
		s-0.116,0.098-0.165,0.146c-0.024,0.049-0.055,0.141-0.092,0.275s-0.116,0.225-0.238,0.275c-0.025,0-0.055,0-0.092,0
		s-0.08,0.012-0.129,0.035c-0.023,0.025-0.043,0.068-0.055,0.129s-0.043,0.104-0.092,0.129c-0.049,0.049-0.123,0.092-0.22,0.129
		c-0.099,0.035-0.184,0.055-0.257,0.055c-0.049,0-0.092-0.02-0.129-0.055c-0.036-0.037-0.079-0.055-0.128-0.055
		c-0.073,0-0.135,0.035-0.183,0.109c-0.05,0.072-0.099,0.109-0.147,0.109c-0.073,0-0.202-0.104-0.386-0.311
		c-0.183-0.209-0.274-0.326-0.274-0.35c0-0.123,0-0.256,0-0.402c0-0.148-0.024-0.27-0.073-0.367
		c-0.123-0.344-0.215-0.715-0.275-1.119s-0.116-0.801-0.165-1.191c-0.024-0.393-0.062-0.875-0.11-1.449s-0.072-0.898-0.072-0.973
		c0-0.244,0.041-0.654,0.127-1.229s0.239-1.131,0.459-1.67v-0.146c0-0.023-0.024-0.037-0.073-0.037c-0.098,0-0.6,0.191-1.504,0.568
		c-0.905,0.381-1.491,0.605-1.761,0.68c-0.709,0.172-1.438,0.324-2.183,0.459c-0.746,0.135-1.474,0.287-2.183,0.457
		c-0.049,0.025-0.146,0.063-0.293,0.111c-0.146,0.049-0.281,0.098-0.403,0.146c-0.416,0.098-0.844,0.184-1.284,0.256
		c-0.44,0.074-0.905,0.197-1.394,0.367c-0.073,0.025-0.202,0.031-0.385,0.02c-0.183-0.014-0.3-0.02-0.348-0.02
		c-0.074,0-0.19,0.006-0.349,0.02c-0.159,0.012-0.3,0.006-0.422-0.02c-0.073-0.023-0.159-0.066-0.257-0.129
		c-0.098-0.061-0.208-0.09-0.33-0.09v-0.221c0-0.049,0.037-0.115,0.11-0.201c0.074-0.086,0.122-0.215,0.147-0.387
		c0.049-0.049,0.085-0.078,0.11-0.092c0.024-0.012,0.049-0.029,0.073-0.055c0.049-0.121,0.147-0.281,0.293-0.477
		c0.147-0.195,0.269-0.33,0.367-0.404c0-0.047,0-0.109,0-0.182c0-0.074,0.024-0.135,0.073-0.184
		c0.098-0.123,0.238-0.244,0.422-0.367s0.324-0.232,0.422-0.33c0.122-0.123,0.25-0.27,0.385-0.441
		c0.134-0.17,0.25-0.316,0.348-0.439c0.122,0,0.244-0.012,0.367-0.037c0.122-0.023,0.207-0.035,0.256-0.035
		c0.122,0,0.239,0.072,0.349,0.219s0.177,0.221,0.202,0.221c0.074,0,0.306-0.08,0.697-0.238c0.391-0.158,0.709-0.275,0.954-0.35
		c0.464-0.121,1.027-0.25,1.688-0.385c0.66-0.133,1.271-0.275,1.834-0.422c0.195-0.049,0.452-0.146,0.77-0.293
		c0.318-0.146,0.636-0.27,0.954-0.367c0.123-0.049,0.287-0.104,0.496-0.164c0.207-0.061,0.372-0.104,0.494-0.129
		c0.123-0.049,0.258-0.109,0.404-0.184s0.28-0.123,0.403-0.146c0.073-0.049,0.159-0.074,0.257-0.074s0.184-0.012,0.256-0.035
		c0.465-0.123,0.967-0.287,1.504-0.496c0.538-0.207,1.076-0.396,1.615-0.568c0.953-0.27,1.926-0.514,2.916-0.734
		c0.99-0.219,2.01-0.316,3.063-0.293c0.049,0,0.104-0.018,0.164-0.055c0.063-0.037,0.129-0.055,0.203-0.055
		c0.049,0,0.072,0.012,0.072,0.035c0,0.025,0.037,0.037,0.111,0.037c0.049,0,0.121-0.029,0.219-0.092
		c0.098-0.061,0.184-0.092,0.258-0.092c0.023,0,0.049,0,0.072,0c0.049,0,0.104,0.02,0.166,0.057
		c0.061,0.035,0.178,0.127,0.348,0.273c0.146,0.1,0.307,0.172,0.477,0.221c0.172,0.049,0.33,0.109,0.479,0.184
		c0.049,0.025,0.104,0.08,0.164,0.164c0.061,0.086,0.129,0.166,0.201,0.24V27.974z M92.992,23.718
		c-0.098,0.025-0.195,0.055-0.293,0.092s-0.17,0.104-0.219,0.201c-0.025,0.025-0.051,0.086-0.074,0.184
		c-0.025,0.098-0.061,0.184-0.109,0.258c-0.074,0.098-0.178,0.189-0.313,0.275s-0.227,0.189-0.275,0.311
		c-0.244,0-0.557-0.012-0.936-0.037c-0.379-0.023-0.604-0.035-0.678-0.035c-0.049,0-0.257-0.086-0.623-0.258
		c-0.367-0.17-0.661-0.305-0.881-0.402c-0.318-0.123-0.637-0.221-0.954-0.295c-0.317-0.072-0.636-0.158-0.954-0.256
		c-0.049-0.023-0.33-0.109-0.844-0.258c-0.513-0.146-0.88-0.219-1.1-0.219c-0.416,0-0.801,0.037-1.156,0.109
		c-0.354,0.074-0.58,0.135-0.678,0.184c-0.221,0.146-0.459,0.293-0.715,0.439c-0.258,0.148-0.484,0.295-0.68,0.441
		c-0.392,0.342-0.751,0.746-1.082,1.211c-0.33,0.465-0.667,0.904-1.008,1.32c-0.025,0.023-0.068,0.092-0.128,0.201
		c-0.062,0.109-0.128,0.164-0.202,0.164c-0.074,0-0.092-0.004-0.055-0.018c0.037-0.012,0.018-0.018-0.055-0.018
		c-0.049,0-0.263,0.086-0.642,0.256c-0.379,0.172-0.605,0.258-0.678,0.258c-0.049,0-0.245-0.043-0.587-0.129
		c-0.343-0.086-0.538-0.129-0.587-0.129c-0.074,0-0.117,0.014-0.128,0.037c-0.013,0.025-0.043,0.037-0.092,0.037
		c-0.098,0-0.171-0.043-0.22-0.129c-0.049-0.086-0.073-0.166-0.073-0.238c0-0.049,0.024-0.178,0.073-0.385
		c0.049-0.209,0.085-0.361,0.11-0.459c0.122-0.367,0.25-0.758,0.385-1.174s0.324-0.818,0.569-1.211
		c0.122-0.17,0.25-0.391,0.385-0.66c0.134-0.269,0.262-0.488,0.385-0.66c0.171-0.244,0.336-0.471,0.496-0.679
		c0.159-0.208,0.312-0.409,0.458-0.605c0.146-0.171,0.317-0.354,0.513-0.55s0.367-0.379,0.514-0.551
		c0.023-0.049,0.043-0.085,0.055-0.109s0.031-0.049,0.056-0.074c0.538-0.537,1.105-1.148,1.706-1.834
		c0.598-0.684,1.203-1.332,1.814-1.943c0.563-0.563,1.187-1.205,1.871-1.926s1.138-1.389,1.357-2
		c0.024-0.023,0.055-0.066,0.092-0.128c0.037-0.061,0.079-0.116,0.129-0.165c0.072,0.024,0.134,0.055,0.184,0.092
		c0.048,0.037,0.097,0.08,0.146,0.129c0.146,0.072,0.316,0.146,0.514,0.219c0.195,0.074,0.379,0.172,0.55,0.294
		c0.073,0.024,0.14,0.099,0.202,0.22c0.061,0.123,0.104,0.221,0.128,0.294c0.024,0.024,0.056,0.05,0.092,0.073
		c0.036,0.025,0.067,0.049,0.091,0.074c0.074,0.195,0.141,0.409,0.203,0.641c0.061,0.233,0.091,0.521,0.091,0.863
		c0,0.049-0.006,0.232-0.019,0.55c-0.012,0.317-0.043,0.575-0.092,0.771c-0.023,0.098-0.086,0.164-0.184,0.201
		s-0.17,0.104-0.219,0.202c-0.025,0.024-0.031,0.067-0.02,0.128c0.013,0.062,0.006,0.117-0.018,0.166
		c-0.025,0.072-0.086,0.141-0.184,0.201s-0.184,0.116-0.257,0.165c0,0.024-0.013,0.062-0.036,0.11
		c-0.025,0.049-0.037,0.086-0.037,0.109c-0.172,0.146-0.324,0.3-0.459,0.459s-0.25,0.312-0.348,0.459
		c-0.025,0.049-0.092,0.115-0.202,0.201s-0.214,0.152-0.312,0.201c-0.025,0.025-0.055,0.08-0.092,0.166s-0.08,0.152-0.129,0.201
		c0,0.025,0.012,0.043,0.037,0.055c0.023,0.014,0.049,0.031,0.073,0.056c0.636,0.073,1.266,0.165,1.89,0.274
		c0.623,0.11,1.24,0.373,1.852,0.789c0.049,0.025,0.135,0.055,0.258,0.092c0.121,0.037,0.231,0.092,0.33,0.165
		c0.17,0.099,0.391,0.245,0.66,0.44c0.268,0.195,0.5,0.403,0.695,0.623c0.148,0.146,0.313,0.416,0.496,0.807
		C93.012,23.046,93.066,23.401,92.992,23.718z"/>
	<path fill="#3D5D90" d="M134.699,25.515c-0.17-0.049-0.336-0.078-0.494-0.092c-0.16-0.012-0.275-0.018-0.348-0.018
		c-0.123,0-0.178,0.018-0.166,0.055s-0.031,0.105-0.129,0.203c-0.17,0.023-0.342,0.072-0.514,0.146
		c-0.17,0.072-0.33,0.158-0.477,0.256c-0.023,0.025-0.08,0.049-0.164,0.074c-0.086,0.023-0.154,0.061-0.203,0.109
		c-0.023,0.025-0.023,0.068,0,0.129c0.025,0.061,0.037,0.115,0.037,0.164c-0.098,0.025-0.227,0.063-0.385,0.111
		c-0.16,0.049-0.301,0.098-0.422,0.146c-0.025,0-0.049,0.023-0.074,0.072c-0.023,0.051-0.035,0.098-0.035,0.146
		c-0.221,0.074-0.484,0.135-0.789,0.184c-0.307,0.051-0.496,0.074-0.568,0.074c-0.049,0-0.227-0.012-0.533-0.037
		c-0.305-0.023-0.494-0.037-0.568-0.037c-0.049,0-0.086,0-0.109,0c-0.025,0-0.061,0-0.109,0c-0.172-0.098-0.344-0.213-0.514-0.348
		c-0.172-0.135-0.344-0.275-0.514-0.422c-0.025-0.049-0.043-0.123-0.055-0.221c-0.014-0.098-0.043-0.158-0.092-0.184
		c-0.1-0.219-0.246-0.359-0.441-0.422c-0.195-0.061-0.367-0.164-0.514-0.311c-0.023,0-0.035,0.023-0.035,0.072
		c0,0.074,0.029,0.154,0.092,0.238c0.061,0.086,0.104,0.166,0.127,0.238c-0.023,0-0.055,0.014-0.092,0.037
		c-0.035,0.025-0.08,0.037-0.127,0.037c-0.025-0.098-0.08-0.201-0.166-0.313c-0.086-0.109-0.141-0.225-0.164-0.348
		c-0.025-0.342-0.057-0.844-0.092-1.504c-0.037-0.66-0.117-1.149-0.24-1.467c-0.023-0.122-0.061-0.323-0.109-0.604
		s-0.072-0.459-0.072-0.533c0-0.048,0-0.195,0-0.439s0.023-0.563,0.072-0.953c0-0.074,0.037-0.135,0.109-0.184
		c0.074-0.049,0.135-0.146,0.184-0.294c0.049-0.122,0.092-0.269,0.129-0.44c0.037-0.17,0.055-0.293,0.055-0.367
		c0-0.048-0.006-0.092-0.018-0.128c-0.014-0.036-0.043-0.055-0.092-0.055s-0.146,0.086-0.293,0.257
		c-0.146,0.172-0.27,0.318-0.367,0.439c-0.025,0.05-0.049,0.129-0.074,0.238c-0.023,0.111-0.049,0.215-0.072,0.313
		c0,0.049-0.031,0.104-0.092,0.165c-0.063,0.062-0.117,0.116-0.166,0.165c-0.195,0.098-0.422,0.215-0.678,0.349
		c-0.258,0.135-0.508,0.263-0.752,0.385c-0.074,0.024-0.184,0.044-0.33,0.056s-0.281,0.043-0.404,0.092
		c-0.881,0.366-1.535,0.739-1.963,1.118c-0.428,0.38-0.641,0.923-0.641,1.631c0,0.051,0.029,0.191,0.092,0.422
		c0.061,0.234,0.127,0.422,0.201,0.57c0,0.023,0.055,0.072,0.166,0.146c0.109,0.072,0.188,0.109,0.238,0.109
		c0.072,0,0.104-0.012,0.092-0.037c-0.014-0.023,0.018-0.037,0.092-0.037c0.121,0,0.244,0.135,0.365,0.404
		c0.123,0.27,0.195,0.428,0.221,0.477c0.049,0.025,0.109,0.08,0.184,0.166c0.072,0.086,0.146,0.152,0.221,0.201
		c0.023,0.172,0,0.336-0.074,0.496c-0.074,0.158-0.049,0.336,0.074,0.531c0.098-0.049,0.164-0.115,0.201-0.201
		s0.078-0.152,0.129-0.203c0.049,0.098,0.072,0.189,0.072,0.275s0,0.178,0,0.275c-0.023,0-0.072,0-0.146,0
		c-0.072,0-0.135-0.012-0.184-0.037c-0.023,0.025-0.055,0.08-0.092,0.166s-0.043,0.152-0.018,0.201
		c-0.074,0.025-0.172,0.031-0.293,0.018c-0.123-0.012-0.209,0.008-0.258,0.057c-0.098,0.072-0.215,0.232-0.348,0.477
		c-0.135,0.244-0.289,0.367-0.459,0.367c-0.049,0-0.117-0.006-0.201-0.02c-0.086-0.012-0.166-0.018-0.238-0.018
		c-0.465,0-0.979,0.109-1.541,0.33c-0.563,0.219-1.137,0.549-1.725,0.99c-0.391,0.27-0.82,0.531-1.283,0.789
		c-0.465,0.256-0.893,0.52-1.285,0.787c-0.023-0.023-0.055-0.047-0.092-0.072c-0.035-0.023-0.104-0.037-0.201-0.037
		c-0.049,0-0.104,0.025-0.164,0.074c-0.063,0.049-0.117,0.098-0.166,0.146c-0.072,0.049-0.178,0.086-0.313,0.109
		c-0.133,0.025-0.238,0.037-0.311,0.037c-0.074,0-0.166-0.031-0.275-0.092s-0.189-0.178-0.238-0.348
		c-0.049-0.197-0.092-0.453-0.129-0.771c-0.037-0.316-0.055-0.514-0.055-0.586c0-0.049,0.023-0.195,0.074-0.441
		c0.049-0.244,0.109-0.439,0.182-0.586c0.197-0.441,0.459-0.967,0.789-1.578s0.643-1.174,0.936-1.688
		c0.123-0.195,0.318-0.494,0.588-0.898c0.268-0.402,0.525-0.738,0.77-1.008c0.537-0.636,1.1-1.229,1.688-1.779
		c0.586-0.551,1.148-1.107,1.688-1.67c-0.025-0.023-0.031-0.03-0.018-0.018c0.012,0.012-0.02,0.018-0.092,0.018
		c-0.074,0-0.613,0.123-1.615,0.367s-1.748,0.465-2.236,0.66c-0.295,0.098-0.734,0.3-1.322,0.605
		c-0.586,0.306-1.197,0.605-1.834,0.898c-0.219,0.098-0.439,0.244-0.66,0.44c-0.219,0.196-0.451,0.417-0.695,0.661
		c0,0.023,0.023,0.049,0.072,0.072c0.049,0.025,0.086,0.037,0.109,0.037c-0.244,0.221-0.494,0.482-0.752,0.789
		c-0.256,0.305-0.543,0.557-0.861,0.752c-0.074,0.023-0.201,0.049-0.385,0.072c-0.184,0.025-0.313,0.037-0.385,0.037
		c-0.051,0-0.221-0.061-0.514-0.184c-0.295-0.121-0.527-0.232-0.697-0.33c-0.025-0.049-0.055-0.104-0.092-0.164
		s-0.055-0.129-0.055-0.203c0-0.049,0.018-0.195,0.055-0.439s0.104-0.439,0.201-0.588c0.074-0.121,0.195-0.299,0.367-0.531
		c0.17-0.232,0.33-0.422,0.477-0.568c0.074-0.074,0.195-0.141,0.367-0.202c0.17-0.061,0.305-0.14,0.404-0.238
		c0.781-0.636,1.326-1.052,1.631-1.247c0.307-0.195,0.654-0.391,1.047-0.587c0.268-0.147,0.855-0.409,1.76-0.788
		s1.676-0.68,2.311-0.899c0.465-0.146,0.996-0.263,1.596-0.349c0.6-0.085,1.131-0.189,1.596-0.312
		c0.709-0.171,1.217-0.306,1.523-0.403c0.305-0.098,0.873-0.146,1.705-0.146c0.074,0,0.342,0,0.807,0s0.855,0.024,1.174,0.072
		c0.146,0.025,0.318,0.105,0.514,0.239s0.318,0.202,0.367,0.202s0.158-0.043,0.33-0.129c0.17-0.086,0.305-0.141,0.402-0.165
		c0.221-0.122,0.441-0.232,0.662-0.33c0.219-0.098,0.379-0.257,0.477-0.478c0.049-0.097,0.158-0.256,0.33-0.477
		c0.17-0.22,0.305-0.452,0.402-0.697c0.049-0.121,0.092-0.262,0.129-0.422c0.037-0.158,0.066-0.299,0.092-0.422
		c0.074-0.293,0.166-0.598,0.275-0.916s0.238-0.624,0.385-0.918c0.049-0.049,0.104-0.072,0.166-0.072
		c0.061,0,0.115-0.049,0.164-0.147c0.146-0.342,0.336-0.629,0.568-0.862c0.232-0.231,0.459-0.348,0.68-0.348
		c0.293,0,0.514,0.104,0.66,0.312s0.232,0.472,0.256,0.788c0.025,0.025,0.055,0.05,0.092,0.074s0.08,0.049,0.129,0.072
		c0,0.172,0.006,0.381,0.018,0.625s0.031,0.477,0.055,0.696c0.025,0.146,0.057,0.306,0.092,0.478
		c0.037,0.171,0.057,0.293,0.057,0.366c0,0.392-0.105,0.802-0.313,1.229c-0.209,0.429-0.324,0.74-0.35,0.936
		c-0.023,0.294-0.055,0.679-0.09,1.155c-0.037,0.477-0.105,0.898-0.203,1.266c-0.023,0.146-0.043,0.343-0.055,0.587
		c-0.012,0.245-0.018,0.392-0.018,0.44c0,0.22,0.049,0.587,0.146,1.1c0.098,0.514,0.281,0.808,0.551,0.881
		c0.047,0.025,0.072,0.086,0.072,0.184s0.012,0.172,0.037,0.221c0.098,0.171,0.195,0.324,0.293,0.458
		c0.098,0.135,0.207,0.262,0.33,0.385c0.637,0.514,1.125,0.861,1.467,1.045c0.344,0.184,0.783,0.398,1.32,0.643V25.515z
		 M120.945,14.732c0,0.049-0.063,0.195-0.184,0.439c-0.123,0.244-0.281,0.416-0.477,0.514c-0.123,0.073-0.307,0.104-0.551,0.092
		c-0.244-0.012-0.465,0.006-0.66,0.055c-0.221,0.074-0.459,0.141-0.715,0.202c-0.258,0.062-0.508,0.153-0.752,0.274
		c-0.148,0.05-0.355,0.202-0.625,0.459s-0.549,0.483-0.844,0.679c-0.27,0.171-0.549,0.337-0.844,0.495
		c-0.293,0.159-0.574,0.336-0.844,0.531h-0.184c0.172-0.244,0.361-0.488,0.57-0.732c0.207-0.244,0.396-0.465,0.568-0.66
		c0.195-0.244,0.396-0.502,0.605-0.771c0.207-0.269,0.408-0.55,0.604-0.844c-0.512-0.049-0.91-0.109-1.191-0.183
		s-0.666-0.184-1.156-0.331c-0.098-0.048-0.238-0.084-0.42-0.109c-0.184-0.023-0.313-0.037-0.387-0.037
		c-0.072,0-0.104,0.014-0.092,0.037c0.014,0.025-0.018,0.037-0.092,0.037c-0.049,0-0.178-0.024-0.385-0.074
		c-0.207-0.049-0.373-0.085-0.494-0.109c-0.318-0.122-0.717-0.391-1.193-0.807s-0.838-0.808-1.082-1.174
		c-0.049-0.074-0.146-0.141-0.293-0.202s-0.244-0.141-0.293-0.239c-0.049-0.121-0.086-0.244-0.111-0.366
		c-0.023-0.122-0.049-0.244-0.072-0.366c0.049-0.049,0.184-0.11,0.402-0.184c0.221-0.074,0.393-0.11,0.514-0.11
		c0.074,0,0.264,0.036,0.568,0.11c0.307,0.073,0.557,0.146,0.752,0.22c0.197,0.073,0.527,0.238,0.992,0.495
		c0.463,0.257,0.904,0.447,1.32,0.568c0.072,0.025,0.33,0.062,0.77,0.11c0.439,0.05,0.795,0.11,1.064,0.184
		c0.17,0.024,0.385,0.073,0.641,0.146c0.258,0.073,0.422,0.11,0.496,0.11c0.072,0,0.227-0.012,0.459-0.037
		c0.232-0.023,0.385-0.037,0.457-0.037c0.049,0,0.184-0.049,0.404-0.146s0.379-0.146,0.477-0.146c0.074,0,0.203,0.013,0.385,0.037
		c0.184,0.024,0.324,0.061,0.422,0.109c0.074,0.025,0.215,0.117,0.422,0.275c0.209,0.159,0.373,0.313,0.496,0.459
		c0.121,0.146,0.244,0.336,0.367,0.568C120.883,14.505,120.945,14.658,120.945,14.732z M118.486,26.579
		c0-0.049-0.035-0.313-0.109-0.789s-0.109-0.752-0.109-0.824c0-0.074,0.012-0.221,0.035-0.441c0.025-0.219,0.025-0.414,0-0.586
		c-0.195,0.318-0.402,0.629-0.623,0.936c-0.221,0.305-0.416,0.605-0.586,0.898c-0.1,0.172-0.166,0.342-0.203,0.514
		c-0.035,0.172-0.092,0.318-0.164,0.439c-0.049,0.098-0.135,0.197-0.258,0.293c-0.121,0.1-0.184,0.172-0.184,0.221v0.293
		c0.049,0,0.098,0.025,0.148,0.074c0.195-0.049,0.586-0.189,1.174-0.422C118.193,26.952,118.486,26.751,118.486,26.579z
		 M139.176,26.47c0,0.098-0.037,0.232-0.111,0.402c-0.072,0.172-0.158,0.355-0.256,0.551c-0.098,0.172-0.184,0.361-0.258,0.568
		c-0.072,0.209-0.207,0.373-0.402,0.496c-0.244,0.17-0.496,0.305-0.752,0.402c-0.258,0.098-0.52,0.197-0.789,0.293
		c-0.098,0.025-0.227,0.045-0.385,0.057c-0.16,0.012-0.313,0.031-0.459,0.055c-0.023-0.023-0.049-0.061-0.072-0.111
		c-0.025-0.047-0.063-0.096-0.111-0.146c-0.244-0.049-0.537-0.072-0.881-0.072c-0.342,0-0.537,0-0.586,0s-0.221,0.031-0.514,0.092
		s-0.477,0.092-0.551,0.092c-0.072,0-0.262-0.02-0.568-0.055c-0.305-0.037-0.494-0.057-0.568-0.057c-0.023,0-0.385,0.08-1.082,0.238
		c-0.697,0.16-1.205,0.301-1.521,0.422c-0.563,0.246-1.096,0.441-1.596,0.588c-0.502,0.146-0.961,0.256-1.377,0.33
		c-0.146,0.025-0.391,0.117-0.732,0.275c-0.344,0.158-0.648,0.311-0.918,0.459c-0.219,0.098-0.434,0.238-0.641,0.422
		c-0.209,0.182-0.41,0.348-0.605,0.494c-0.098,0.074-0.178,0.166-0.238,0.275c-0.063,0.109-0.129,0.227-0.203,0.348
		c0.025,0.025,0.043,0.037,0.057,0.037c0.012,0,0.055,0,0.127,0c0.074,0,0.313-0.043,0.715-0.129
		c0.404-0.084,0.729-0.139,0.973-0.164c0.049-0.023,0.104-0.061,0.166-0.109c0.061-0.049,0.127-0.074,0.201-0.074
		c0.049,0,0.074,0.012,0.074,0.037c0,0.023,0.035,0.037,0.109,0.037c0.146,0,0.33-0.086,0.551-0.258
		c0.219-0.17,0.354-0.27,0.402-0.293s0.115-0.037,0.203-0.037c0.084,0,0.152-0.012,0.201-0.037c0.195-0.072,0.379-0.189,0.551-0.348
		c0.17-0.158,0.354-0.264,0.549-0.313c0.27-0.072,0.611-0.133,1.027-0.184c0.416-0.049,0.66-0.072,0.734-0.072
		c0.488,0,0.893,0.135,1.209,0.402c0.318,0.27,0.637,0.539,0.955,0.809c0.146,0.098,0.262,0.293,0.348,0.586
		s0.129,0.465,0.129,0.514c0,0.074-0.037,0.299-0.109,0.678c-0.074,0.381-0.135,0.691-0.184,0.936
		c-0.146,0.588-0.258,1.096-0.33,1.523c-0.074,0.428-0.111,0.887-0.111,1.375c0,0.367-0.018,0.844-0.055,1.43
		c-0.037,0.588-0.201,1.102-0.494,1.541c-0.025,0.049-0.025,0.117,0,0.203c0.023,0.084,0.012,0.164-0.037,0.238
		c-0.098,0.268-0.227,0.52-0.385,0.752c-0.16,0.232-0.289,0.471-0.387,0.715c-0.072,0.023-0.17,0.037-0.293,0.037
		s-0.207,0.023-0.256,0.072c-0.221,0.098-0.459,0.221-0.717,0.367c-0.256,0.146-0.482,0.207-0.678,0.184
		c-0.123-0.123-0.27-0.391-0.439-0.807c-0.172-0.416-0.258-0.807-0.258-1.174c0-0.049,0.012-0.203,0.037-0.459
		c0.023-0.256,0.049-0.471,0.074-0.643c0.023-0.146,0.018-0.33-0.02-0.549c-0.037-0.221-0.043-0.416-0.018-0.588
		c0-0.123,0-0.256,0-0.402c0-0.148,0-0.295,0-0.441c0-0.195,0.012-0.422,0.037-0.678c0.023-0.258,0.047-0.52,0.072-0.789
		c0.074-0.367,0.184-0.801,0.33-1.303c0.146-0.5,0.221-0.789,0.221-0.861c0-0.049-0.049-0.129-0.146-0.238
		c-0.098-0.111-0.197-0.166-0.295-0.166c-0.049,0-0.33,0.068-0.844,0.203c-0.512,0.135-0.941,0.225-1.283,0.273
		c-0.023,0.025-0.049,0.057-0.072,0.092c-0.025,0.037-0.063,0.068-0.111,0.092c-0.219,0.123-0.494,0.252-0.824,0.387
		c-0.33,0.133-0.533,0.201-0.605,0.201c-0.074,0-0.117-0.02-0.129-0.055c-0.012-0.037-0.055-0.057-0.129-0.057
		c-0.072,0-0.146,0.02-0.219,0.057c-0.074,0.035-0.146,0.055-0.221,0.055c-0.465,0.023-0.93,0.098-1.395,0.221
		c-0.465,0.121-0.93,0.244-1.393,0.365c-0.172,0.051-0.367,0.117-0.588,0.203s-0.416,0.164-0.586,0.238
		c-0.1,0.049-0.361,0.219-0.789,0.514c-0.428,0.293-0.777,0.439-1.045,0.439h-0.367c-0.098,0-0.209-0.049-0.33-0.146
		c-0.123-0.098-0.184-0.184-0.184-0.258c0-0.049,0.049-0.133,0.146-0.256s0.158-0.232,0.184-0.33c0.023-0.049,0.023-0.115,0-0.201
		c-0.025-0.086-0.037-0.152-0.037-0.203c0.049-0.023,0.115-0.066,0.201-0.127c0.086-0.063,0.141-0.117,0.166-0.166
		c0.049-0.049,0.078-0.104,0.092-0.164c0.012-0.063,0.029-0.117,0.055-0.166c0.049-0.049,0.123-0.098,0.221-0.146
		s0.17-0.098,0.219-0.146c0.123-0.123,0.301-0.318,0.533-0.588c0.232-0.268,0.457-0.5,0.678-0.697
		c0.123-0.096,0.313-0.207,0.568-0.33c0.258-0.121,0.496-0.268,0.715-0.439c0.172-0.121,0.416-0.324,0.734-0.605
		s0.6-0.508,0.844-0.678c0.074-0.074,0.184-0.16,0.33-0.258s0.305-0.184,0.477-0.256c0.855-0.49,1.719-0.918,2.586-1.285
		c0.869-0.365,1.621-0.672,2.256-0.916c0.344-0.123,0.758-0.287,1.248-0.496c0.488-0.207,0.941-0.408,1.357-0.604
		c0.17-0.098,0.359-0.203,0.568-0.313c0.207-0.109,0.408-0.215,0.605-0.313c0.098-0.049,0.238-0.146,0.422-0.293
		s0.359-0.27,0.531-0.367c0.244-0.146,0.551-0.287,0.918-0.422c0.365-0.133,0.586-0.201,0.66-0.201c0.049,0,0.072,0.006,0.072,0.018
		c0,0.014,0.037,0.02,0.111,0.02c0.049,0,0.207-0.068,0.477-0.203c0.268-0.133,0.5-0.25,0.697-0.348
		c0.146-0.049,0.316-0.123,0.512-0.221c0.197-0.098,0.379-0.195,0.551-0.293c0.049-0.049,0.098-0.115,0.146-0.201
		s0.098-0.141,0.146-0.166c0.098-0.098,0.24-0.164,0.422-0.201c0.184-0.037,0.324-0.055,0.422-0.055
		c0.049,0.049,0.105,0.135,0.166,0.256c0.061,0.123,0.141,0.221,0.238,0.293c0.123,0.074,0.25,0.148,0.385,0.221
		c0.135,0.074,0.25,0.16,0.35,0.258c0.023,0.023,0.035,0.066,0.035,0.127c0,0.063,0.014,0.117,0.037,0.166
		c0.049,0.023,0.092,0.049,0.129,0.072c0.037,0.025,0.066,0.037,0.092,0.037c0.049,0.074,0.092,0.166,0.129,0.275
		C139.156,26.267,139.176,26.372,139.176,26.47z M125.383,30.505c-0.072,0-0.129,0.012-0.164,0.035
		c-0.037,0.025-0.068,0.037-0.092,0.037c-0.246-0.023-0.539,0.08-0.881,0.313c-0.344,0.232-0.66,0.482-0.953,0.752
		c0.391-0.123,0.801-0.293,1.229-0.514s0.801-0.428,1.119-0.623H125.383z M125.75,19.096l-0.074-0.036l0.074-0.146l0.072,0.036
		L125.75,19.096z"/>
</g>
</svg>
