<?xml version="1.0" encoding="utf-8"?>
<!-- Generator: Adobe Illustrator 15.0.0, SVG Export Plug-In . SVG Version: 6.00 Build 0)  -->
<!DOCTYPE svg PUBLIC "-//W3C//DTD SVG 1.1//EN" "http://www.w3.org/Graphics/SVG/1.1/DTD/svg11.dtd">
<svg version="1.1" id="Layer_1" xmlns="http://www.w3.org/2000/svg" xmlns:xlink="http://www.w3.org/1999/xlink" x="0px" y="0px"
	 width="150.833px" height="51.666px" viewBox="0 0 150.833 51.666" enable-background="new 0 0 150.833 51.666"
	 xml:space="preserve">
<g>
	<path fill="#13130A" d="M47.343,20.783c0,0.059-0.03,0.19-0.088,0.395c-0.06,0.205-0.073,0.381-0.044,0.526
		c0.088,0.644,0.015,1.222-0.22,1.733s-0.512,0.987-0.834,1.426c-0.146,0.176-0.285,0.41-0.416,0.703
		c-0.132,0.292-0.271,0.541-0.417,0.745c-0.41,0.556-0.93,1.083-1.558,1.58c-0.63,0.497-1.163,1.038-1.603,1.624
		c-0.087,0.117-0.19,0.373-0.307,0.768c-0.117,0.395-0.278,0.724-0.482,0.986c-0.029,0.06-0.096,0.104-0.198,0.133
		s-0.183,0.072-0.241,0.131c-0.205,0.146-0.336,0.293-0.395,0.439s-0.088,0.277-0.088,0.395c0,0.059,0.036,0.154,0.109,0.285
		c0.073,0.132,0.125,0.256,0.154,0.373c0.028,0.059,0.036,0.161,0.021,0.307c-0.015,0.147-0.008,0.279,0.022,0.396
		c0.028,0.088,0.102,0.175,0.219,0.263s0.22,0.133,0.308,0.133c0.116,0,0.256-0.016,0.417-0.045c0.16-0.028,0.285-0.043,0.373-0.043
		c0.087,0,0.248,0.051,0.482,0.152c0.233,0.104,0.438,0.184,0.614,0.242c0.204,0.293,0.65,0.57,1.338,0.834
		c0.688,0.263,1.236,0.775,1.646,1.535c0.059,0.117,0.19,0.257,0.396,0.417c0.204,0.161,0.351,0.329,0.438,0.505
		c0.059,0.117,0.088,0.264,0.088,0.438c0,0.176,0,0.308,0,0.396c0,0.059-0.052,0.24-0.153,0.548
		c-0.104,0.308-0.184,0.563-0.241,0.769c-0.03,0.088-0.037,0.204-0.022,0.351c0.015,0.146,0.007,0.278-0.021,0.396
		c-0.03,0.116-0.066,0.24-0.11,0.373c-0.044,0.131-0.095,0.27-0.153,0.416c-0.088,0.176-0.205,0.352-0.351,0.527
		c-0.147,0.175-0.322,0.32-0.527,0.438c-0.205,0.116-0.453,0.212-0.745,0.285c-0.293,0.072-0.483,0.109-0.571,0.109
		c-0.087,0-0.183-0.015-0.285-0.044s-0.212-0.043-0.329-0.043c-0.088,0-0.3,0.064-0.636,0.197c-0.337,0.131-0.622,0.226-0.855,0.285
		c-0.176,0.028-0.366,0.051-0.571,0.065c-0.204,0.015-0.395,0.051-0.57,0.11c-0.117,0.028-0.256,0.109-0.417,0.24
		c-0.16,0.132-0.314,0.227-0.46,0.285c-0.352,0.117-0.754,0.205-1.207,0.264c-0.454,0.059-0.768,0.205-0.943,0.439
		c0.204,0.379,0.168,0.621-0.109,0.724c-0.278,0.103-0.49,0.153-0.637,0.153c-0.088,0-0.19-0.037-0.307-0.109
		c-0.117-0.074-0.205-0.14-0.264-0.197c-0.117,0.058-0.205,0.153-0.264,0.285c-0.059,0.131-0.161,0.227-0.307,0.285
		c-0.117,0.059-0.301,0.094-0.549,0.109c-0.249,0.015-0.417,0.021-0.505,0.021c-0.204,0-0.409-0.072-0.614-0.219
		s-0.38-0.278-0.526-0.395c-0.059-0.088-0.176-0.176-0.351-0.264c-0.176-0.088-0.293-0.191-0.352-0.307
		c-0.205-0.498-0.38-1.018-0.526-1.559s-0.22-1.09-0.22-1.646c0-0.059,0.015-0.22,0.044-0.482s0.044-0.498,0.044-0.702
		c0-0.088,0.022-0.197,0.066-0.329s0.095-0.241,0.153-0.329c0.059-0.059,0.153-0.16,0.285-0.307s0.212-0.278,0.241-0.396
		c0.234-0.409,0.489-0.95,0.768-1.624c0.278-0.672,0.549-1.213,0.813-1.623c0.321-0.497,0.665-0.98,1.031-1.448
		c0.365-0.468,0.694-0.966,0.987-1.491c0.233-0.352,0.424-0.783,0.57-1.295c0.146-0.512,0.277-0.914,0.395-1.207
		c0.117-0.351,0.264-0.746,0.439-1.185c0.175-0.438,0.336-0.878,0.482-1.316c0.292-0.79,0.475-1.331,0.548-1.624
		c0.073-0.291,0.139-0.672,0.198-1.141c0.116-0.848,0.226-1.879,0.329-3.094c0.102-1.213,0.153-1.864,0.153-1.952
		s-0.022-0.424-0.065-1.009c-0.044-0.586-0.081-1.054-0.11-1.404c0-0.059-0.021-0.117-0.065-0.176s-0.11-0.102-0.197-0.132
		c-0.322,0.03-0.578,0.147-0.769,0.351c-0.19,0.205-0.344,0.322-0.461,0.352c-0.731,0.205-1.346,0.674-1.843,1.404
		c-0.497,0.731-1.053,1.346-1.667,1.843c-0.117,0.06-0.257,0.125-0.417,0.198c-0.161,0.072-0.301,0.109-0.417,0.109
		c-0.059,0-0.161-0.008-0.307-0.022c-0.147-0.015-0.264-0.022-0.352-0.022c-0.117,0-0.344,0.066-0.68,0.198
		c-0.337,0.132-0.505,0.314-0.505,0.548c0,0.117,0.095,0.301,0.285,0.549c0.189,0.249,0.388,0.447,0.593,0.593
		c0.233,0.146,0.489,0.234,0.768,0.263c0.277,0.029,0.533,0.074,0.768,0.132c0.088,0.118,0.176,0.293,0.264,0.526
		c0.088,0.234,0.146,0.454,0.176,0.658c0.028,0.029,0.058,0.06,0.087,0.088c0.029,0.029,0.059,0.074,0.088,0.132
		c0.029,0.06,0.044,0.147,0.044,0.263c0,0.117,0,0.221,0,0.308c0,0.06-0.044,0.264-0.132,0.614c-0.087,0.352-0.161,0.688-0.219,1.01
		c-0.205,0.205-0.49,0.344-0.855,0.416c-0.366,0.074-0.71,0.11-1.031,0.11c-1.083,0-2.15-0.132-3.204-0.396
		c-1.053-0.263-1.901-0.424-2.545-0.482c-0.029-0.028-0.065-0.059-0.109-0.088c-0.044-0.028-0.109-0.043-0.197-0.043
		s-0.19,0.029-0.308,0.088s-0.234,0.102-0.351,0.131c-0.146,0-0.329-0.014-0.549-0.044c-0.22-0.028-0.402-0.015-0.549,0.044
		c-0.292,0.117-0.577,0.417-0.855,0.9c-0.278,0.482-0.52,0.885-0.724,1.206c-0.352,0.497-0.578,0.87-0.681,1.118
		c-0.103,0.25-0.3,0.506-0.592,0.769c-0.029,0-0.066-0.028-0.109-0.088c-0.044-0.058-0.096-0.103-0.154-0.132
		c-0.029,0-0.059,0.037-0.088,0.109c-0.029,0.074-0.087,0.11-0.175,0.11c-0.117,0-0.184-0.022-0.198-0.065
		c-0.015-0.045-0.051-0.066-0.109-0.066c-0.059,0.088-0.117,0.197-0.176,0.33c-0.059,0.131-0.117,0.256-0.175,0.372
		c-0.088,0-0.154-0.022-0.198-0.065c-0.043-0.044-0.109-0.066-0.197-0.066s-0.212,0.016-0.373,0.045s-0.285,0.072-0.373,0.131
		c-0.117,0.029-0.227,0.096-0.329,0.197c-0.103,0.104-0.212,0.227-0.329,0.373c-0.029,0-0.059,0.008-0.087,0.021
		c-0.03,0.016-0.104,0.022-0.22,0.022c-0.088,0-0.19-0.015-0.308-0.044c-0.117-0.028-0.205-0.043-0.263-0.043
		c-0.117,0-0.19-0.096-0.22-0.285c-0.029-0.19-0.234-0.256-0.614-0.198c-0.059-0.204-0.109-0.468-0.153-0.79
		c-0.044-0.321-0.066-0.526-0.066-0.614c0-0.087,0.059-0.372,0.176-0.855c0.116-0.483,0.19-0.855,0.22-1.119
		c0-0.058,0.044-0.138,0.132-0.241c0.087-0.102,0.146-0.212,0.175-0.329c0.322-0.878,0.665-1.827,1.031-2.853
		c0.365-1.023,0.694-1.988,0.987-2.896c0.088-0.233,0.19-0.746,0.308-1.536c0.116-0.789,0.175-1.229,0.175-1.316
		c0-0.116-0.015-0.658-0.043-1.623c-0.03-0.966-0.249-1.448-0.658-1.448c-0.088,0-0.666,0.358-1.733,1.075
		c-1.068,0.717-1.646,1.074-1.733,1.074s-0.308-0.028-0.658-0.088c-0.352-0.058-0.644-0.131-0.878-0.219
		c-0.117-0.029-0.271-0.095-0.461-0.197s-0.358-0.197-0.504-0.285c-0.088-0.059-0.301-0.3-0.637-0.725
		c-0.337-0.424-0.505-0.694-0.505-0.812c0-0.233,0.3-0.636,0.899-1.206s0.958-0.885,1.075-0.943c0.264-0.146,0.585-0.336,0.966-0.57
		c0.38-0.234,0.76-0.439,1.141-0.615c0.059-0.029,0.541-0.365,1.448-1.01c0.906-0.643,1.404-0.979,1.492-1.008
		c0.555-0.498,0.892-0.746,1.009-0.746c0.088,0,0.277,0.015,0.57,0.043c0.292,0.029,0.526,0.074,0.702,0.132
		c0.146,0.03,0.352,0.117,0.614,0.263c0.264,0.147,0.439,0.221,0.526,0.221c0.088,0,0.125-0.016,0.11-0.045
		c-0.016-0.028,0.036-0.043,0.153-0.043c0.059,0,0.321,0.051,0.79,0.153c0.468,0.103,0.877,0.227,1.229,0.372
		c0.146,0.06,0.351,0.162,0.614,0.309s0.453,0.292,0.57,0.438c0.088,0.117,0.153,0.271,0.197,0.461
		c0.044,0.191,0.095,0.373,0.154,0.549c0.146,0.293,0.233,0.482,0.263,0.57s0.044,0.249,0.044,0.482
		c0,0.586-0.081,0.871-0.241,0.855c-0.161-0.014-0.241,0.345-0.241,1.076c0,0.088,0.028,0.548,0.088,1.382
		c0.058,0.833,0.088,1.528,0.088,2.084c0.028,0.03,0.044,0.073,0.044,0.132s0.014,0.117,0.043,0.176
		c0.059,0.293,0.066,0.673,0.022,1.141c-0.044,0.469-0.081,0.907-0.109,1.316c0.087,0.059,0.204,0.117,0.351,0.176
		s0.292,0.103,0.438,0.131c0.439,0.06,0.98,0.125,1.624,0.198c0.643,0.073,1.009,0.109,1.097,0.109c0.204,0,0.453-0.16,0.746-0.482
		c0.292-0.321,0.512-0.541,0.658-0.658c0-0.059-0.015-0.139-0.044-0.241s-0.029-0.197,0-0.285c0.059-0.146,0.146-0.336,0.264-0.57
		c0.116-0.234,0.233-0.453,0.351-0.658c0.352-0.556,0.79-1.098,1.316-1.624s1.023-1.082,1.492-1.667
		c0.116-0.146,0.212-0.33,0.285-0.549c0.072-0.22,0.168-0.388,0.285-0.505c0.234-0.38,0.505-0.724,0.812-1.031
		c0.308-0.308,0.593-0.636,0.856-0.987c0.087-0.146,0.182-0.387,0.285-0.724c0.102-0.336,0.241-0.636,0.417-0.899
		c0.058-0.117,0.175-0.213,0.351-0.285c0.176-0.073,0.292-0.168,0.351-0.285c0.264-0.41,0.534-0.666,0.813-0.769
		c0.277-0.103,0.519-0.212,0.724-0.329c0.176-0.088,0.352-0.256,0.526-0.504c0.176-0.248,0.322-0.373,0.439-0.373
		c0.116,0,0.27,0.065,0.46,0.197c0.19,0.131,0.329,0.197,0.417,0.197c0.117,0,0.352-0.102,0.702-0.307
		c0.352-0.205,0.57-0.308,0.658-0.308s0.153,0.029,0.197,0.088s0.095,0.117,0.154,0.175c0.76,0.352,1.155,0.871,1.185,1.559
		c0.028,0.688,0.146,1.25,0.351,1.689c0.146,0.293,0.308,0.65,0.483,1.074c0.175,0.425,0.292,0.842,0.351,1.251
		c0.233,0.995,0.453,2.245,0.658,3.752C47.239,19.898,47.343,20.695,47.343,20.783z M43.218,39.389
		c0.059-0.234,0.036-0.506-0.066-0.813s-0.197-0.563-0.285-0.768c-0.059-0.205-0.432-0.578-1.118-1.119
		c-0.688-0.541-1.075-0.813-1.163-0.813s-0.345,0.191-0.768,0.571c-0.425,0.38-0.754,0.702-0.987,0.966
		c-0.264,0.292-0.41,0.665-0.439,1.118c-0.029,0.454-0.073,0.812-0.132,1.075c-0.029,0.059-0.059,0.132-0.087,0.219
		c-0.03,0.088-0.044,0.161-0.044,0.221c0,0.087,0.028,0.146,0.088,0.175c0.146,0,0.299,0.022,0.46,0.065
		c0.161,0.045,0.285,0.066,0.373,0.066c0.673,0,1.375-0.104,2.106-0.307c0.73-0.205,1.331-0.366,1.799-0.483
		c0.059-0.028,0.11-0.058,0.154-0.088C43.151,39.447,43.188,39.418,43.218,39.389z"/>
	<path fill="#13130A" d="M88.106,28.725c-0.059,0.176-0.139,0.279-0.241,0.308c-0.103,0.03-0.183,0.073-0.241,0.132
		c0,0.029,0.015,0.073,0.044,0.131c0.029,0.06,0.059,0.117,0.088,0.176c-0.088,0.06-0.184,0.109-0.285,0.154
		c-0.103,0.043-0.213,0.08-0.329,0.109c-0.029,0.029-0.052,0.051-0.066,0.066c-0.015,0.015-0.036,0.037-0.065,0.065
		c-0.117,0.292-0.3,0.438-0.549,0.438c-0.248,0-0.476,0.016-0.68,0.044c-0.029,0.03-0.037,0.06-0.022,0.088
		c0.015,0.029,0.022,0.073,0.022,0.132h-0.614c-0.06,0-0.213-0.029-0.461-0.088c-0.249-0.059-0.417-0.088-0.505-0.088
		c-0.234,0-0.717,0.081-1.447,0.241c-0.732,0.161-1.127,0.257-1.186,0.285c-0.205,0.088-0.504,0.249-0.899,0.483
		c-0.395,0.234-0.709,0.556-0.943,0.965c-0.176,0.293-0.373,0.666-0.592,1.119c-0.22,0.453-0.403,0.855-0.549,1.207
		c-0.088,0.234-0.19,0.533-0.308,0.898c-0.117,0.367-0.205,0.695-0.263,0.988c-0.029,0.205-0.029,0.416,0,0.636
		c0.028,0.22,0.028,0.446,0,0.681c0,0.468,0,1.017,0,1.645c0,0.629-0.073,1.222-0.22,1.777c-0.029,0.117-0.117,0.3-0.264,0.549
		c-0.146,0.248-0.278,0.475-0.395,0.68c-0.029,0.059-0.081,0.117-0.153,0.176c-0.073,0.059-0.14,0.117-0.197,0.176
		c-0.03,0.059-0.066,0.168-0.11,0.329c-0.044,0.16-0.139,0.271-0.285,0.329c-0.029,0-0.065,0-0.109,0s-0.096,0.014-0.153,0.044
		c-0.03,0.028-0.052,0.08-0.066,0.153c-0.015,0.072-0.051,0.124-0.109,0.154c-0.06,0.058-0.146,0.109-0.264,0.152
		c-0.117,0.045-0.219,0.066-0.307,0.066c-0.06,0-0.11-0.021-0.154-0.066c-0.043-0.043-0.095-0.064-0.153-0.064
		c-0.088,0-0.161,0.043-0.219,0.131c-0.06,0.088-0.118,0.132-0.176,0.132c-0.088,0-0.241-0.125-0.461-0.373
		c-0.22-0.249-0.329-0.388-0.329-0.417c0-0.146,0-0.307,0-0.482s-0.029-0.322-0.088-0.439c-0.146-0.41-0.256-0.855-0.329-1.338
		s-0.139-0.959-0.197-1.426c-0.029-0.468-0.073-1.046-0.132-1.733c-0.059-0.687-0.088-1.075-0.088-1.163
		c0-0.292,0.051-0.782,0.154-1.47c0.102-0.687,0.285-1.353,0.548-1.997v-0.176c0-0.028-0.029-0.043-0.088-0.043
		c-0.117,0-0.717,0.227-1.799,0.68c-1.083,0.454-1.784,0.725-2.106,0.813c-0.849,0.205-1.719,0.388-2.61,0.548
		c-0.893,0.161-1.763,0.345-2.611,0.549c-0.059,0.029-0.175,0.073-0.351,0.132s-0.337,0.117-0.482,0.176
		c-0.498,0.117-1.01,0.219-1.536,0.307s-1.083,0.234-1.668,0.438c-0.087,0.03-0.241,0.037-0.46,0.022
		c-0.22-0.015-0.359-0.022-0.417-0.022c-0.088,0-0.228,0.008-0.417,0.022c-0.19,0.015-0.358,0.008-0.505-0.022
		c-0.088-0.028-0.19-0.08-0.307-0.153c-0.117-0.072-0.249-0.109-0.396-0.109v-0.264c0-0.059,0.044-0.139,0.132-0.241
		s0.146-0.256,0.176-0.461c0.058-0.058,0.102-0.095,0.132-0.11c0.028-0.014,0.058-0.035,0.087-0.064
		c0.059-0.146,0.176-0.336,0.352-0.571c0.176-0.233,0.321-0.395,0.438-0.482c0-0.059,0-0.132,0-0.22s0.029-0.16,0.088-0.219
		c0.116-0.146,0.285-0.293,0.505-0.439c0.219-0.146,0.387-0.277,0.505-0.395c0.146-0.146,0.299-0.322,0.46-0.527
		c0.161-0.203,0.3-0.379,0.417-0.525c0.146,0,0.292-0.016,0.439-0.045c0.146-0.028,0.248-0.043,0.307-0.043
		c0.146,0,0.285,0.088,0.417,0.263c0.132,0.176,0.212,0.264,0.241,0.264c0.088,0,0.365-0.095,0.834-0.286
		c0.468-0.189,0.848-0.328,1.141-0.416c0.556-0.146,1.229-0.3,2.019-0.461c0.79-0.16,1.521-0.329,2.194-0.504
		c0.233-0.059,0.541-0.176,0.921-0.352s0.761-0.322,1.141-0.439c0.146-0.058,0.344-0.123,0.593-0.197
		c0.248-0.072,0.445-0.123,0.593-0.153c0.146-0.058,0.307-0.132,0.482-0.22s0.336-0.146,0.482-0.176
		c0.088-0.058,0.19-0.087,0.308-0.087c0.116,0,0.219-0.015,0.307-0.044c0.556-0.146,1.155-0.344,1.8-0.592
		c0.643-0.249,1.286-0.477,1.931-0.681c1.141-0.321,2.304-0.614,3.488-0.878s2.405-0.38,3.664-0.352
		c0.058,0,0.124-0.021,0.197-0.064c0.072-0.045,0.153-0.066,0.241-0.066c0.059,0,0.088,0.016,0.088,0.044
		c0,0.029,0.044,0.044,0.132,0.044c0.058,0,0.146-0.037,0.263-0.109c0.117-0.073,0.22-0.11,0.308-0.11c0.028,0,0.059,0,0.088,0
		c0.058,0,0.124,0.022,0.197,0.065c0.072,0.045,0.212,0.154,0.417,0.33c0.175,0.117,0.365,0.205,0.57,0.263
		c0.204,0.06,0.395,0.132,0.57,0.22c0.059,0.029,0.124,0.096,0.197,0.197c0.073,0.104,0.153,0.197,0.241,0.285V28.725z
		 M83.675,23.635c-0.117,0.029-0.234,0.066-0.351,0.109c-0.117,0.045-0.205,0.125-0.264,0.242c-0.029,0.029-0.059,0.103-0.088,0.219
		c-0.029,0.117-0.073,0.22-0.132,0.308c-0.087,0.117-0.212,0.228-0.373,0.329c-0.161,0.104-0.271,0.227-0.329,0.373
		c-0.292,0-0.665-0.015-1.118-0.044c-0.454-0.028-0.725-0.044-0.813-0.044c-0.059,0-0.307-0.102-0.745-0.307
		c-0.439-0.205-0.79-0.365-1.054-0.483c-0.381-0.146-0.761-0.263-1.141-0.351c-0.381-0.088-0.761-0.189-1.141-0.308
		c-0.06-0.028-0.396-0.132-1.01-0.308c-0.614-0.175-1.053-0.263-1.316-0.263c-0.498,0-0.958,0.044-1.382,0.132
		c-0.425,0.088-0.695,0.161-0.813,0.219c-0.263,0.176-0.548,0.352-0.855,0.527c-0.307,0.176-0.578,0.351-0.812,0.526
		c-0.469,0.41-0.899,0.893-1.295,1.448c-0.395,0.556-0.797,1.082-1.206,1.58c-0.029,0.029-0.081,0.109-0.153,0.24
		c-0.074,0.133-0.154,0.197-0.242,0.197c-0.087,0-0.109-0.006-0.065-0.021c0.044-0.014,0.021-0.021-0.065-0.021
		c-0.06,0-0.315,0.103-0.769,0.307c-0.453,0.205-0.724,0.308-0.812,0.308c-0.059,0-0.293-0.051-0.702-0.153
		c-0.41-0.103-0.644-0.154-0.702-0.154c-0.088,0-0.139,0.016-0.153,0.044c-0.016,0.03-0.052,0.044-0.109,0.044
		c-0.117,0-0.205-0.051-0.264-0.153s-0.088-0.198-0.088-0.285c0-0.059,0.029-0.212,0.088-0.461c0.059-0.248,0.103-0.431,0.132-0.548
		c0.146-0.439,0.3-0.907,0.461-1.404c0.16-0.498,0.387-0.98,0.68-1.449c0.146-0.203,0.3-0.467,0.461-0.789
		c0.16-0.322,0.313-0.585,0.461-0.79c0.204-0.292,0.401-0.563,0.592-0.812s0.373-0.49,0.549-0.725
		c0.176-0.204,0.38-0.424,0.614-0.658c0.233-0.233,0.438-0.453,0.614-0.658c0.029-0.058,0.051-0.102,0.065-0.131
		s0.037-0.059,0.066-0.088c0.643-0.644,1.323-1.375,2.04-2.194c0.717-0.818,1.44-1.594,2.172-2.325
		c0.673-0.673,1.419-1.441,2.238-2.305c0.818-0.861,1.36-1.659,1.624-2.391c0.028-0.029,0.065-0.08,0.109-0.154
		c0.044-0.072,0.095-0.139,0.153-0.197c0.088,0.029,0.16,0.066,0.22,0.109c0.058,0.045,0.116,0.096,0.176,0.154
		c0.175,0.088,0.379,0.176,0.614,0.264c0.233,0.088,0.453,0.205,0.658,0.351c0.087,0.029,0.168,0.117,0.241,0.263
		c0.072,0.147,0.124,0.264,0.153,0.352c0.028,0.029,0.065,0.059,0.109,0.088s0.08,0.059,0.11,0.088
		c0.088,0.234,0.168,0.49,0.241,0.768c0.072,0.278,0.109,0.622,0.109,1.031c0,0.059-0.008,0.278-0.021,0.658
		c-0.016,0.381-0.052,0.688-0.11,0.922c-0.029,0.117-0.103,0.197-0.219,0.241c-0.117,0.044-0.205,0.124-0.264,0.241
		c-0.029,0.029-0.037,0.081-0.021,0.153c0.014,0.073,0.007,0.14-0.022,0.198c-0.029,0.088-0.103,0.168-0.22,0.24
		c-0.117,0.074-0.219,0.14-0.307,0.197c0,0.03-0.016,0.074-0.044,0.133c-0.029,0.059-0.044,0.103-0.044,0.131
		c-0.205,0.176-0.388,0.359-0.549,0.549c-0.161,0.19-0.3,0.373-0.416,0.549c-0.03,0.059-0.11,0.139-0.242,0.241
		c-0.131,0.103-0.256,0.183-0.373,0.241c-0.029,0.029-0.065,0.096-0.109,0.197c-0.044,0.104-0.095,0.184-0.153,0.241
		c0,0.03,0.015,0.052,0.044,0.065c0.028,0.016,0.058,0.037,0.088,0.066c0.76,0.088,1.514,0.197,2.26,0.329s1.484,0.446,2.216,0.943
		c0.059,0.03,0.16,0.065,0.307,0.11c0.146,0.043,0.278,0.109,0.396,0.197c0.204,0.117,0.468,0.293,0.79,0.526
		c0.321,0.234,0.599,0.482,0.833,0.745c0.176,0.176,0.373,0.498,0.593,0.966C83.697,22.831,83.763,23.256,83.675,23.635z"/>
	<path fill="#13130A" d="M133.566,25.785c-0.204-0.059-0.402-0.095-0.592-0.109c-0.19-0.015-0.329-0.022-0.417-0.022
		c-0.146,0-0.213,0.022-0.197,0.065c0.015,0.045-0.037,0.125-0.153,0.242c-0.205,0.029-0.41,0.088-0.615,0.176
		c-0.204,0.088-0.395,0.189-0.57,0.307c-0.029,0.029-0.095,0.059-0.197,0.088s-0.183,0.073-0.241,0.131
		c-0.029,0.03-0.029,0.082,0,0.154c0.028,0.073,0.044,0.139,0.044,0.197c-0.117,0.029-0.271,0.074-0.461,0.132
		c-0.19,0.06-0.358,0.117-0.505,0.175c-0.029,0-0.059,0.03-0.087,0.088c-0.03,0.06-0.044,0.117-0.044,0.176
		c-0.264,0.088-0.578,0.162-0.943,0.22c-0.366,0.06-0.593,0.088-0.681,0.088c-0.059,0-0.271-0.015-0.636-0.044
		c-0.366-0.029-0.593-0.044-0.681-0.044c-0.059,0-0.103,0-0.132,0s-0.073,0-0.132,0c-0.204-0.116-0.409-0.256-0.614-0.417
		c-0.205-0.16-0.409-0.329-0.614-0.504c-0.029-0.059-0.051-0.146-0.065-0.264c-0.016-0.117-0.052-0.189-0.109-0.22
		c-0.117-0.263-0.293-0.431-0.527-0.505c-0.234-0.072-0.438-0.197-0.614-0.373c-0.029,0-0.044,0.029-0.044,0.088
		c0,0.088,0.037,0.184,0.11,0.285c0.072,0.104,0.124,0.197,0.153,0.285c-0.029,0-0.065,0.016-0.109,0.045s-0.096,0.043-0.154,0.043
		c-0.029-0.116-0.095-0.241-0.197-0.373c-0.103-0.131-0.168-0.27-0.197-0.416c-0.029-0.41-0.065-1.01-0.109-1.8
		s-0.14-1.374-0.285-1.755c-0.03-0.146-0.074-0.388-0.132-0.725c-0.06-0.336-0.088-0.548-0.088-0.636c0-0.058,0-0.233,0-0.526
		s0.028-0.673,0.088-1.141c0-0.088,0.044-0.161,0.132-0.22c0.087-0.059,0.16-0.176,0.219-0.351c0.059-0.146,0.11-0.322,0.154-0.527
		c0.043-0.204,0.065-0.352,0.065-0.438c0-0.059-0.008-0.11-0.022-0.153c-0.015-0.045-0.051-0.066-0.109-0.066
		s-0.176,0.104-0.351,0.307c-0.176,0.205-0.322,0.381-0.439,0.527c-0.029,0.059-0.059,0.153-0.088,0.285s-0.059,0.256-0.087,0.373
		c0,0.059-0.037,0.125-0.11,0.197c-0.073,0.073-0.139,0.139-0.197,0.197c-0.234,0.117-0.505,0.257-0.812,0.417
		c-0.308,0.161-0.607,0.315-0.899,0.461c-0.088,0.029-0.22,0.052-0.396,0.065c-0.175,0.016-0.336,0.052-0.482,0.109
		c-1.053,0.439-1.836,0.886-2.348,1.339c-0.512,0.454-0.768,1.104-0.768,1.952c0,0.06,0.036,0.228,0.109,0.506
		c0.073,0.277,0.153,0.504,0.241,0.68c0,0.029,0.066,0.088,0.197,0.176c0.132,0.088,0.227,0.131,0.286,0.131
		c0.087,0,0.124-0.014,0.109-0.043c-0.016-0.029,0.021-0.045,0.109-0.045c0.146,0,0.292,0.162,0.439,0.483
		c0.146,0.322,0.233,0.513,0.263,0.57c0.059,0.029,0.132,0.095,0.22,0.197s0.176,0.183,0.263,0.241c0.029,0.205,0,0.402-0.087,0.593
		c-0.088,0.19-0.06,0.402,0.087,0.636c0.117-0.059,0.198-0.139,0.242-0.24c0.043-0.104,0.094-0.184,0.153-0.242
		c0.058,0.117,0.088,0.227,0.088,0.329s0,0.213,0,0.329c-0.03,0-0.088,0-0.176,0s-0.161-0.014-0.22-0.044
		c-0.029,0.03-0.065,0.096-0.109,0.198c-0.044,0.102-0.052,0.183-0.022,0.24c-0.087,0.029-0.204,0.037-0.351,0.022
		s-0.249,0.007-0.308,0.065c-0.117,0.088-0.256,0.279-0.416,0.57c-0.161,0.293-0.345,0.439-0.549,0.439
		c-0.059,0-0.14-0.007-0.241-0.021c-0.104-0.016-0.197-0.022-0.285-0.022c-0.557,0-1.171,0.132-1.843,0.396
		c-0.674,0.263-1.36,0.658-2.063,1.184c-0.469,0.322-0.98,0.637-1.536,0.943c-0.556,0.308-1.068,0.623-1.536,0.943
		c-0.029-0.028-0.065-0.058-0.109-0.087c-0.044-0.028-0.125-0.044-0.241-0.044c-0.06,0-0.125,0.029-0.197,0.088
		c-0.073,0.059-0.14,0.117-0.198,0.176c-0.087,0.059-0.212,0.103-0.372,0.131c-0.161,0.029-0.286,0.044-0.373,0.044
		c-0.088,0-0.198-0.036-0.329-0.109c-0.132-0.073-0.228-0.212-0.285-0.417c-0.06-0.234-0.11-0.541-0.154-0.922
		c-0.044-0.379-0.065-0.613-0.065-0.701c0-0.059,0.028-0.234,0.088-0.527c0.058-0.292,0.132-0.526,0.219-0.701
		c0.234-0.527,0.549-1.156,0.943-1.888c0.396-0.73,0.769-1.403,1.119-2.019c0.146-0.233,0.38-0.592,0.702-1.074
		c0.321-0.483,0.629-0.885,0.922-1.207c0.643-0.761,1.316-1.471,2.019-2.129s1.374-1.322,2.019-1.996
		c-0.03-0.029-0.037-0.036-0.022-0.021s-0.021,0.021-0.109,0.021s-0.731,0.146-1.931,0.439c-1.2,0.292-2.092,0.556-2.677,0.789
		c-0.352,0.117-0.878,0.359-1.58,0.725s-1.434,0.724-2.193,1.074c-0.264,0.117-0.527,0.293-0.79,0.527
		c-0.264,0.234-0.542,0.498-0.834,0.789c0,0.029,0.029,0.06,0.088,0.088c0.059,0.029,0.103,0.044,0.132,0.044
		c-0.293,0.264-0.593,0.578-0.899,0.944c-0.308,0.365-0.651,0.665-1.031,0.898c-0.088,0.029-0.241,0.06-0.461,0.088
		c-0.22,0.029-0.373,0.044-0.461,0.044c-0.059,0-0.264-0.072-0.614-0.22c-0.351-0.146-0.629-0.277-0.834-0.395
		c-0.029-0.059-0.065-0.124-0.109-0.197c-0.044-0.072-0.065-0.154-0.065-0.241c0-0.059,0.021-0.233,0.065-0.526
		s0.124-0.527,0.241-0.703c0.088-0.146,0.234-0.357,0.438-0.636c0.205-0.277,0.396-0.505,0.571-0.681
		c0.087-0.087,0.233-0.168,0.438-0.24c0.204-0.073,0.365-0.168,0.482-0.285c0.937-0.761,1.587-1.258,1.953-1.492
		c0.365-0.234,0.782-0.468,1.25-0.702c0.322-0.176,1.023-0.489,2.106-0.943c1.082-0.454,2.004-0.812,2.765-1.075
		c0.556-0.176,1.191-0.314,1.908-0.417s1.354-0.226,1.909-0.373c0.849-0.204,1.455-0.365,1.821-0.482
		c0.365-0.116,1.045-0.176,2.04-0.176c0.088,0,0.409,0,0.966,0c0.555,0,1.023,0.03,1.404,0.088c0.175,0.029,0.38,0.125,0.614,0.285
		c0.233,0.161,0.38,0.241,0.438,0.241s0.189-0.051,0.395-0.153s0.366-0.168,0.483-0.198c0.263-0.146,0.526-0.277,0.789-0.395
		c0.264-0.116,0.453-0.307,0.571-0.57c0.058-0.116,0.189-0.307,0.395-0.57c0.204-0.264,0.365-0.541,0.482-0.834
		c0.059-0.146,0.11-0.313,0.153-0.504c0.044-0.19,0.081-0.358,0.11-0.505c0.088-0.351,0.197-0.717,0.329-1.097
		c0.132-0.381,0.285-0.746,0.461-1.098c0.058-0.059,0.124-0.088,0.197-0.088c0.072,0,0.139-0.059,0.197-0.176
		c0.176-0.408,0.401-0.752,0.68-1.031c0.278-0.277,0.549-0.416,0.813-0.416c0.351,0,0.614,0.125,0.79,0.373
		c0.175,0.248,0.277,0.563,0.307,0.943c0.029,0.029,0.065,0.059,0.109,0.088s0.095,0.059,0.154,0.088
		c0,0.205,0.007,0.453,0.021,0.746c0.015,0.292,0.036,0.57,0.066,0.833c0.028,0.176,0.065,0.366,0.109,0.571
		c0.044,0.204,0.065,0.35,0.065,0.438c0,0.469-0.125,0.959-0.373,1.471c-0.249,0.512-0.388,0.885-0.417,1.119
		c-0.029,0.351-0.065,0.812-0.109,1.382s-0.125,1.075-0.241,1.514c-0.029,0.176-0.052,0.41-0.065,0.702
		c-0.016,0.293-0.022,0.469-0.022,0.527c0,0.263,0.059,0.701,0.176,1.316c0.116,0.613,0.336,0.965,0.658,1.053
		c0.059,0.029,0.088,0.103,0.088,0.219c0,0.117,0.014,0.205,0.044,0.264c0.116,0.205,0.233,0.389,0.351,0.549
		c0.116,0.16,0.248,0.314,0.396,0.461c0.76,0.613,1.345,1.031,1.755,1.25c0.409,0.22,0.936,0.477,1.579,0.768V25.785z
		 M117.112,12.885c0,0.059-0.074,0.234-0.22,0.526c-0.146,0.292-0.337,0.497-0.57,0.614c-0.147,0.088-0.366,0.125-0.658,0.109
		c-0.293-0.014-0.557,0.008-0.79,0.066c-0.264,0.088-0.549,0.168-0.855,0.241c-0.308,0.073-0.607,0.183-0.899,0.329
		c-0.176,0.059-0.425,0.241-0.746,0.549c-0.322,0.307-0.658,0.578-1.01,0.811c-0.322,0.205-0.658,0.403-1.009,0.594
		c-0.352,0.189-0.688,0.402-1.01,0.636h-0.219c0.204-0.292,0.431-0.585,0.68-0.878c0.248-0.292,0.476-0.555,0.681-0.789
		c0.233-0.293,0.475-0.6,0.724-0.922c0.248-0.322,0.489-0.658,0.724-1.01c-0.614-0.059-1.09-0.131-1.426-0.219
		c-0.337-0.088-0.797-0.22-1.382-0.395c-0.117-0.059-0.285-0.104-0.505-0.133c-0.22-0.028-0.373-0.043-0.461-0.043
		s-0.125,0.015-0.109,0.043c0.015,0.029-0.022,0.045-0.11,0.045c-0.059,0-0.212-0.029-0.46-0.088
		c-0.249-0.059-0.446-0.103-0.593-0.133c-0.381-0.146-0.855-0.467-1.426-0.965c-0.57-0.497-1.003-0.965-1.295-1.404
		c-0.059-0.088-0.176-0.168-0.351-0.241c-0.176-0.072-0.293-0.168-0.352-0.285c-0.059-0.146-0.103-0.292-0.132-0.438
		s-0.059-0.293-0.087-0.439c0.058-0.058,0.219-0.131,0.482-0.219c0.263-0.088,0.468-0.132,0.614-0.132
		c0.088,0,0.314,0.044,0.68,0.132c0.366,0.088,0.665,0.176,0.9,0.264c0.233,0.088,0.628,0.285,1.185,0.592
		c0.555,0.307,1.082,0.534,1.579,0.68c0.088,0.029,0.396,0.074,0.922,0.133s0.95,0.131,1.272,0.219
		c0.204,0.029,0.461,0.088,0.768,0.176c0.308,0.088,0.505,0.131,0.593,0.131s0.271-0.014,0.549-0.043
		c0.277-0.029,0.46-0.045,0.548-0.045c0.059,0,0.22-0.058,0.483-0.175c0.263-0.116,0.453-0.176,0.57-0.176
		c0.088,0,0.241,0.015,0.46,0.044c0.22,0.029,0.388,0.073,0.505,0.132c0.088,0.029,0.256,0.14,0.505,0.329
		c0.248,0.19,0.445,0.373,0.593,0.549c0.146,0.176,0.292,0.402,0.438,0.68C117.038,12.614,117.112,12.797,117.112,12.885z
		 M114.172,27.058c0-0.058-0.044-0.373-0.132-0.943s-0.132-0.899-0.132-0.987s0.015-0.264,0.044-0.526
		c0.029-0.264,0.029-0.497,0-0.702c-0.234,0.381-0.482,0.754-0.746,1.119c-0.263,0.365-0.497,0.724-0.701,1.074
		c-0.118,0.205-0.198,0.41-0.242,0.615s-0.109,0.381-0.197,0.526c-0.059,0.117-0.161,0.234-0.307,0.351
		c-0.147,0.117-0.22,0.205-0.22,0.264v0.352c0.059,0,0.116,0.029,0.176,0.087c0.233-0.058,0.702-0.226,1.404-0.505
		C113.821,27.504,114.172,27.263,114.172,27.058z M138.92,26.926c0,0.117-0.044,0.279-0.132,0.482
		c-0.087,0.205-0.19,0.425-0.307,0.658c-0.117,0.205-0.22,0.433-0.308,0.681c-0.087,0.249-0.248,0.446-0.482,0.593
		c-0.293,0.205-0.592,0.365-0.899,0.482c-0.307,0.117-0.622,0.234-0.943,0.352c-0.117,0.029-0.271,0.051-0.461,0.064
		c-0.19,0.016-0.373,0.037-0.548,0.066c-0.03-0.029-0.06-0.072-0.088-0.131c-0.03-0.059-0.073-0.117-0.132-0.176
		c-0.293-0.059-0.644-0.088-1.054-0.088c-0.409,0-0.644,0-0.701,0c-0.06,0-0.264,0.037-0.615,0.109
		c-0.351,0.073-0.57,0.109-0.658,0.109c-0.087,0-0.314-0.021-0.68-0.065c-0.366-0.044-0.593-0.065-0.68-0.065
		c-0.03,0-0.461,0.095-1.295,0.285s-1.441,0.358-1.821,0.504c-0.673,0.293-1.31,0.527-1.908,0.703
		c-0.601,0.175-1.148,0.307-1.646,0.395c-0.176,0.029-0.469,0.139-0.878,0.328c-0.41,0.191-0.775,0.373-1.097,0.549
		c-0.264,0.117-0.52,0.285-0.769,0.505c-0.248,0.22-0.49,0.417-0.724,0.593c-0.117,0.088-0.213,0.197-0.285,0.328
		c-0.073,0.133-0.153,0.271-0.241,0.418c0.028,0.029,0.051,0.043,0.065,0.043s0.066,0,0.153,0c0.088,0,0.373-0.051,0.856-0.152
		c0.482-0.104,0.87-0.169,1.162-0.198c0.059-0.028,0.124-0.073,0.198-0.132c0.072-0.059,0.153-0.088,0.241-0.088
		c0.058,0,0.088,0.016,0.088,0.045s0.043,0.043,0.131,0.043c0.176,0,0.396-0.102,0.658-0.307c0.264-0.205,0.424-0.322,0.483-0.352
		c0.058-0.028,0.138-0.043,0.241-0.043c0.102,0,0.183-0.016,0.241-0.045c0.233-0.088,0.453-0.227,0.658-0.416
		c0.204-0.19,0.424-0.314,0.658-0.373c0.321-0.088,0.73-0.16,1.229-0.22c0.497-0.058,0.79-0.088,0.878-0.088
		c0.585,0,1.067,0.161,1.447,0.483s0.761,0.643,1.142,0.965c0.175,0.117,0.313,0.352,0.417,0.702
		c0.102,0.351,0.153,0.556,0.153,0.614c0,0.088-0.044,0.358-0.132,0.812c-0.088,0.454-0.161,0.827-0.22,1.119
		c-0.175,0.702-0.307,1.31-0.395,1.821s-0.132,1.061-0.132,1.645c0,0.439-0.021,1.01-0.065,1.712s-0.241,1.316-0.593,1.843
		c-0.029,0.059-0.029,0.139,0,0.242c0.029,0.102,0.015,0.197-0.044,0.285c-0.117,0.32-0.271,0.621-0.461,0.898
		c-0.19,0.278-0.344,0.563-0.46,0.855c-0.088,0.029-0.205,0.045-0.352,0.045s-0.249,0.028-0.307,0.088
		c-0.264,0.116-0.549,0.263-0.856,0.438c-0.307,0.175-0.577,0.248-0.812,0.22c-0.146-0.146-0.322-0.469-0.526-0.966
		c-0.205-0.497-0.308-0.966-0.308-1.404c0-0.059,0.015-0.241,0.044-0.548c0.029-0.308,0.059-0.564,0.088-0.769
		c0.029-0.175,0.022-0.395-0.021-0.658c-0.044-0.263-0.052-0.497-0.022-0.702c0-0.146,0-0.307,0-0.482s0-0.352,0-0.526
		c0-0.235,0.015-0.505,0.044-0.812c0.029-0.308,0.059-0.621,0.088-0.943c0.088-0.439,0.22-0.959,0.396-1.559
		c0.175-0.6,0.263-0.943,0.263-1.031c0-0.059-0.059-0.153-0.176-0.285c-0.117-0.131-0.234-0.197-0.351-0.197
		c-0.059,0-0.395,0.081-1.01,0.241c-0.614,0.161-1.126,0.271-1.535,0.329c-0.029,0.029-0.06,0.066-0.088,0.109
		c-0.029,0.045-0.073,0.082-0.132,0.11c-0.263,0.146-0.592,0.3-0.987,0.46c-0.395,0.162-0.636,0.242-0.724,0.242
		s-0.14-0.021-0.154-0.066c-0.015-0.043-0.065-0.065-0.153-0.065s-0.176,0.022-0.263,0.065c-0.088,0.045-0.176,0.066-0.264,0.066
		c-0.556,0.029-1.112,0.117-1.667,0.264c-0.557,0.146-1.112,0.292-1.668,0.438c-0.205,0.059-0.438,0.14-0.702,0.241
		c-0.263,0.103-0.498,0.197-0.702,0.285c-0.117,0.059-0.432,0.264-0.943,0.614s-0.929,0.526-1.25,0.526h-0.439
		c-0.117,0-0.249-0.059-0.395-0.176c-0.146-0.116-0.22-0.219-0.22-0.307c0-0.059,0.059-0.16,0.176-0.307
		c0.116-0.146,0.189-0.278,0.22-0.396c0.028-0.058,0.028-0.139,0-0.241c-0.03-0.102-0.044-0.183-0.044-0.241
		c0.058-0.028,0.138-0.081,0.241-0.153c0.102-0.073,0.168-0.139,0.197-0.197c0.059-0.059,0.095-0.125,0.109-0.198
		s0.037-0.138,0.066-0.197c0.058-0.059,0.146-0.116,0.263-0.176c0.117-0.058,0.205-0.116,0.264-0.175
		c0.146-0.146,0.357-0.381,0.636-0.703c0.278-0.321,0.549-0.599,0.813-0.833c0.146-0.116,0.373-0.249,0.68-0.396
		c0.308-0.146,0.593-0.321,0.855-0.526c0.205-0.146,0.497-0.388,0.878-0.724c0.38-0.336,0.717-0.607,1.01-0.813
		c0.087-0.088,0.219-0.189,0.395-0.307s0.365-0.219,0.57-0.307c1.023-0.586,2.055-1.098,3.094-1.536
		c1.038-0.438,1.938-0.804,2.698-1.097c0.409-0.146,0.906-0.344,1.492-0.593c0.585-0.249,1.126-0.489,1.623-0.724
		c0.205-0.117,0.432-0.242,0.681-0.373c0.248-0.133,0.489-0.256,0.724-0.373c0.117-0.059,0.285-0.176,0.505-0.352
		s0.432-0.321,0.637-0.438c0.292-0.176,0.658-0.344,1.097-0.505c0.438-0.16,0.702-0.241,0.79-0.241c0.058,0,0.088,0.007,0.088,0.022
		c0,0.015,0.044,0.021,0.131,0.021c0.059,0,0.249-0.08,0.571-0.241c0.321-0.161,0.599-0.3,0.833-0.417
		c0.176-0.059,0.38-0.146,0.614-0.264c0.234-0.116,0.453-0.233,0.658-0.351c0.059-0.059,0.117-0.139,0.176-0.241
		s0.116-0.168,0.176-0.197c0.116-0.117,0.285-0.197,0.505-0.242c0.219-0.043,0.387-0.065,0.504-0.065
		c0.059,0.06,0.124,0.161,0.197,0.308s0.168,0.263,0.285,0.351c0.146,0.088,0.3,0.175,0.461,0.263s0.3,0.191,0.417,0.308
		c0.029,0.03,0.044,0.081,0.044,0.153c0,0.074,0.015,0.14,0.044,0.197c0.059,0.029,0.109,0.06,0.153,0.088
		c0.044,0.029,0.08,0.045,0.11,0.045c0.058,0.087,0.109,0.197,0.153,0.328C138.898,26.685,138.92,26.81,138.92,26.926z
		 M122.421,31.753c-0.087,0-0.153,0.015-0.197,0.044s-0.081,0.044-0.109,0.044c-0.293-0.028-0.644,0.095-1.054,0.372
		c-0.409,0.279-0.789,0.578-1.141,0.9c0.468-0.146,0.958-0.352,1.47-0.614c0.512-0.264,0.958-0.512,1.339-0.746H122.421z
		 M122.86,18.105l-0.088-0.043l0.088-0.176l0.088,0.044L122.86,18.105z"/>
</g>
</svg>
