<?xml version="1.0" encoding="utf-8"?>
<!-- Generator: Adobe Illustrator 15.0.0, SVG Export Plug-In . SVG Version: 6.00 Build 0)  -->
<!DOCTYPE svg PUBLIC "-//W3C//DTD SVG 1.1//EN" "http://www.w3.org/Graphics/SVG/1.1/DTD/svg11.dtd">
<svg version="1.1" id="Layer_1" xmlns="http://www.w3.org/2000/svg" xmlns:xlink="http://www.w3.org/1999/xlink" x="0px" y="0px"
	 width="512px" height="512px" viewBox="0 0 512 512" enable-background="new 0 0 512 512" xml:space="preserve">
<g id="Layer_2_1_">
	<rect x="0" fill="#FFFFFF" width="512" height="512"/>
</g>
<g>
	<path fill="#DBB335" d="M426.703,254.263c0,92.442-73.386,167.383-163.917,167.383c-90.528,0-163.918-74.94-163.918-167.383
		c0-92.438,73.389-167.378,163.918-167.378C353.318,86.884,426.703,161.825,426.703,254.263z"/>
	<g>
		<path fill="#4A73A4" d="M433.363,227.425c0.556,2.428-0.25,4.703-0.845,3.843c0.965,2.401,1.046,3.691,1.231,4.409
			c0.188,0.72,0.462,0.883,1.748,1.087c1.549,3.145,0.058,6.729-1.231,3.13c0.757,3.05,1.44,6.132,2.042,9.242
			c0.078-1.872,0.131-3.746,0.148-5.624c1.092,0.702,1.066,2.971,1.012,5.256c-0.04,2.291-0.101,4.595,1.123,5.494
			c-0.068-3.422-0.233-6.843-0.49-10.254l0.728,0.475c-0.856-2.301-0.91-6.839-0.785-8.455c0.367,0.217,0.912,0,1.141,1.813
			c-0.511-6.237-1.614-6.948-2.684-7.38c-1.104-0.428-2.209-0.598-3.349-5.543C433.311,225.537,433.4,226.322,433.363,227.425z"/>
		<path fill="#4A73A4" d="M436.556,216.173c-1.159-1.248-2.329-2.471-3.511-3.67c-0.336-2.4-0.716-4.801-1.146-7.197
			c-0.886,0.147-3.061-4.676-2.837-1.044c0.327,0.625,0.964,1.869,1.168,2.958c-1.05-0.133-1.907-2.358-2.729-4.207
			c-0.811-1.854-1.555-3.336-2.184-2.044c2.142,5.197,1.906,6.142,4.33,9.091c1.091,5.06,1.374,8.844,1.114,11.33
			c0.561,1.443,1.796,1.442,2.355,3.332c-0.102-0.421-0.198-0.809-0.298-1.295l2.878-0.715c-0.905-1.521-0.897-3.106-1.325-4.893
			c1.689,2.542,3.324,5.148,4.904,7.82c1.159-1.588,0.971-4.451,0.493-7.336c-0.473-2.888-1.246-5.785-1.084-7.589
			c-0.728,2.356-1.224,1.593-1.544,1.323C436.805,211.757,436.695,211.969,436.556,216.173z"/>
		<path fill="#4A73A4" d="M433.115,224.719l0.041,0.201L433.115,224.719z"/>
		<path fill="#4A73A4" d="M135.258,345.355c0.952,1.298,1.804,1.275,2.222,1.263c-3.474-4.878-6.66-9.958-9.562-15.199
			c-0.429,0.861,1.335,5.883-0.8,3.073c0.004,1.804,3.115,5.531,4.376,5.539l-1.7-0.497c1.74,1.395,2.394,3.054,2.33,4.178
			c-0.062,1.12-0.846,1.689-1.982,0.771l0.211,0.291c3.784,2.228,7.613,4.259,11.463,6.093c-1.133-1.764-2.005-2.116-2.993-2.531
			C137.84,347.918,136.733,347.44,135.258,345.355z"/>
		<path fill="#4A73A4" d="M419.156,281.089c-0.125,2.399,0.084,2.741,0.419,2.523C419.517,282.729,419.396,281.881,419.156,281.089z
			"/>
		<path fill="#4A73A4" d="M144.521,352.121c1.21,0.546,2.422,1.07,3.63,1.582C146.881,352.94,145.596,352.389,144.521,352.121z"/>
		<path fill="#4A73A4" d="M106.689,345.417c-0.09,0.04-0.186,0.045-0.246,0.203l1.738,1.161l-0.023-0.042
			C107.639,346.246,107.153,345.813,106.689,345.417z"/>
		<path fill="#4A73A4" d="M210.581,393.097c0.353,0.088,0.646,0.188,1.072,0.284C211.272,393.256,210.918,393.159,210.581,393.097z"
			/>
		<path fill="#4A73A4" d="M76.689,294.937c1.242,3.07,2.558,6.095,3.946,9.072c-1.142-1.042,0.319,3.431-1.151,1.701
			c0.312,0.688,1.587,3.952,1.736,2.917l-0.593-1.895c1.861,2.143,2.813,2.376,3.807,3.034c1,0.652,2.026,1.737,4.209,5.374
			c-0.261-5.315-2.102-7.061-3.917-9.407c-0.406-0.85-0.687-1.582-0.975-2.321c-1.768-2.268-3.488-4.595-5.168-6.979L76.689,294.937
			z"/>
		<path fill="#4A73A4" d="M373.359,389.036l0.048,0.208C373.433,389.135,373.402,389.077,373.359,389.036z"/>
		<path fill="#4A73A4" d="M373.614,390.086l-0.208-0.845C373.296,389.849,372.133,391.322,373.614,390.086z"/>
		<path fill="#4A73A4" d="M142.483,352.061c0.423-0.191,1.137-0.167,2.039,0.061c-0.901-0.408-1.805-0.826-2.705-1.254
			C142.021,351.188,142.253,351.638,142.483,352.061z"/>
		<path fill="#4A73A4" d="M134.555,350.291c-1.436-1.807-2.838-3.646-4.203-5.516c-0.818-0.481-1.635-0.974-2.446-1.476
			C129.74,345.301,131.73,347.729,134.555,350.291z"/>
		<path fill="#4A73A4" d="M202.066,387.841c2.958,1.303,4.213,1.964,4.477,2.37c0.265,0.399-0.452,0.509-1.395,0.558
			c-1.874,0.092-4.657-0.125-2.035,1.457c3.499,1.206,5.217,0.428,7.469,0.872c-5.029-1.403-4.241-2.358-3.475-3.274
			c0.779-0.961,1.523-1.891-3.235-3.691c2.352-1.565,7.674,0.549,10.636,2.326c1.393,1.774,0.463,1.903-1.049,1.781
			c-1.51-0.109-3.572-0.502-4.431,0.395c3.976,1.2,3.469,0.503,5.55-0.108c2.911,1.375,6.293,1.733,9.244,2.197
			c2.958,0.477,5.498,1.071,6.985,3.102c4.642,0.515,4.578-0.685,7.377-1.407c0.48-1.198-1.11-1.818-2.954-2.471
			c-1.843-0.651-3.944-1.364-4.502-2.523c0.279,0.288,0.826,0.859,0.556,1.158c-1.211-0.471-2.409-0.967-3.601-1.475
			c3.318,1.792-1.142,2.33-3.129,1.94c-1.411-0.342-4.189-1.124-3.592-1.669l2.241,0.143c-1.221-0.791-2.821-0.832-4.436-0.973
			c-1.607-0.147-3.233-0.39-4.375-1.567c0.059-0.584,1.2-0.432,1.48-0.703c-3.706,0.436-6.668-0.845-11.688-1.86
			c1.23-0.34,2.446-0.699,3.652-1.072c-2.354,0.465-5.522-0.474-8.628-2.151c-3.109-1.675-6.136-4.082-8.358-6.354
			c0.349,0.728,1.261,1.626,0.369,1.648c-3.456-1.434-4.774-4.434-2.644-4.585c-2.045-0.107-4.599-2.39-7.182-4.812
			c-2.598-2.417-5.216-4.966-7.917-5.553c-8.383-1.697-16.88-4.307-25.327-7.836c0.832,0.495,1.652,1.073,2.388,1.758
			c-0.215,3.093,0.813,3.874-3.344,2.246c1.704,1.097,2.654,1.049,3.654,1.275c1.006,0.219,2.05,0.714,4.053,2.758
			c-2.327-0.875-4.645,0.416-0.909,4.647c5.727,4.235,11.503,6.48,17.204,8.183c5.719,1.693,11.376,2.855,17.354,4.717
			c-0.26,0.836,1.707,2.428,4.276,4.06c2.57,1.63,5.738,3.271,7.754,4.465c-2.401,0.854-5.793-0.288-9.16-1.787
			c1.939,1.245,5.414,3.165,8.031,4.513L202.066,387.841z"/>
		<path fill="#4A73A4" d="M172.802,376.461c0.178,0.326,0.403,0.612,0.644,0.892C173.376,377.126,173.196,376.848,172.802,376.461z"
			/>
		<path fill="#4A73A4" d="M190.474,385.422c-0.069,0.028-0.081,0.081-0.13,0.133l1.075,0.469
			C191.082,385.821,190.709,385.575,190.474,385.422z"/>
		<path fill="#4A73A4" d="M141.554,357.039c-0.912-0.355-1.405-0.77-2.323-1.135c0.46,0.31,0.975,0.743,1.485,1.147
			C141.272,357.379,141.632,357.455,141.554,357.039z"/>
		<path fill="#4A73A4" d="M142.115,352.96l0.821-0.08c-0.159-0.328-0.3-0.536-0.451-0.819
			C142.128,352.214,141.944,352.489,142.115,352.96z"/>
		<path fill="#4A73A4" d="M247.964,416.177l1.4-0.242C248.537,415.896,248.169,416.008,247.964,416.177z"/>
		<path fill="#4A73A4" d="M214.383,396.08c-2.182-0.702-2.531-0.171-3.103,0.268c-0.567,0.434-1.372,0.794-4.433-0.454l1.737,0.873
			c-2.403-0.371-5.493-1.523-8.573-2.955c-3.09-1.424-6.154-3.141-8.655-4.472c1.038-0.567-2.375-2.752-1.012-3.785
			c-3.479-1.58-6.829-3.336-9.378-3.103c-1.687-1.755-5.483-2.708-7.519-5.102c0.23,0.766-1.125,0.75-1.706,0.973
			c-0.581,0.217-0.404,0.752,2.972,2.518c-0.565-0.255-0.386,0.145-0.948-0.105c1.568,1.975,3.113,2.772,4.674,3.353
			c1.561,0.587,3.145,0.948,4.906,2.048c0.805,1.058-0.255,0.841-1.302,0.539c-1.039-0.307-2.066-0.688-1.169,0.112
			c2.434,1.072,5.797,3.453,8.815,5.066c3.013,1.623,5.619,2.494,6.25,0.851c3.473,1.459,3.621,2.342,4.375,3.414
			c3.496-0.434,8.358,2.08,12.777,3.922c4.397,1.87,8.259,3.093,8.885,0.795c-2.117-0.411-5.4-1.557-8.721-1.66L214.383,396.08z"/>
		<path fill="#4A73A4" d="M147.132,363.172c0.189,0.239,0.47,0.527,0.609,0.743C147.568,363.688,147.345,363.413,147.132,363.172z"
			/>
		<path fill="#4A73A4" d="M128.319,305.418c1.197,0.236,2.383,0.46,3.583,0.666c2.217,4.778,3.647,8.034,5.009,11.162
			c1.376,3.114,2.683,6.104,5.025,10.06c-0.022,0.825-0.813-0.01-1.213-0.436c1.757,2.736,3.805,6.23,6.004,9.367
			c2.188,3.145,4.508,5.928,6.519,7.334c0.612,0.822,1.578,2.426,2.155,3.706c0.583,1.271,0.766,2.23-0.252,1.738
			c0.863,0.597,1.815,1.295,2.507,2.229c-0.646,0.978-1.946-1.751-2.688-1.209c0.545,0.752,0.618,1.169,1.022,1.102
			c-0.874-0.275-1.333,0.652-2.16,0.95c-0.822,0.293-2.062-0.029-4.374-2.959c0.131-1.945,0.99-0.979,1.973,0.057
			c0.985,1.041,2.11,2.141,2.676,0.568c-1.532-1.87-2.216-0.956-2.624-0.892c-1.903-2.471-1.253-2.868-0.637-3.141
			c-1.459-0.378-2.779-4.234-4.824-4.783c-3.621-4.825,1.958-0.968-0.278-4.171c-1.229-0.072-2.462-0.162-3.697-0.27
			c-1.042-1.942-2.045-3.904-2.997-5.884c-2.834-3.85-3.736-2.991-4.845-2.177c-1.077,0.784-2.385,1.549-5.724-3.127
			c2.043,0.613,2.227-4.536,0.736-9.45c0.671,1.382,2.034,3.16,3.383,5.041c1.348,1.884,2.672,3.871,3.234,5.802
			c-0.297-2.982,0.654-1.325,1.826,0.559c1.177,1.89,2.611,3.991,3.025,2.103c-2.446-1.675-4.791-5.595-5.727-9.046l0.756,0.908
			c-0.694-1.734-2.026-2.903-3.319-4.323c-1.285-1.417-2.544-3.086-2.987-5.717c-1.054-2.364-0.09-2.218,0.709-2.05
			C128.908,307.286,127.711,305.646,128.319,305.418z M130.893,310.402c0.337,1.095,0.689,2.182,1.057,3.266
			C132.069,312.731,131.554,311.572,130.893,310.402z"/>
		<path fill="#4A73A4" d="M414.998,161.465c0.144,0.4,0.32,0.855,0.44,1.226C415.416,162.379,415.223,161.932,414.998,161.465z"/>
		<path fill="#4A73A4" d="M106.08,167.178l1.262-2.111C106.783,165.854,106.404,166.544,106.08,167.178z"/>
		<path fill="#4A73A4" d="M132.273,116.259c0.74-1.047,1.494-2.088,2.26-3.124C133.473,114.198,132.814,115.21,132.273,116.259z"/>
		<path fill="#4A73A4" d="M398.438,137.502l-0.06-0.104c-0.166-0.123-0.316-0.196-0.481-0.333L398.438,137.502z"/>
		<path fill="#4A73A4" d="M236.264,71.491c0.587,0.163,1.237,0.289,2.109,0.35C238.231,71.569,237.448,71.457,236.264,71.491z"/>
		<path fill="#4A73A4" d="M131.867,116.84l0.202-0.122c0.062-0.146,0.129-0.307,0.204-0.459L131.867,116.84z"/>
		<path fill="#4A73A4" d="M88.046,186.298c-0.112,0.547-0.214,1.044-0.297,1.646C87.96,187.195,88.018,186.709,88.046,186.298z"/>
		<path fill="#4A73A4" d="M97.081,185.981c-0.137,0.555-0.251,1.093-0.288,1.532L97.081,185.981z"/>
		<path fill="#4A73A4" d="M79.021,269.816l0.719,3.354C79.535,271.51,79.287,270.528,79.021,269.816z"/>
		<path fill="#4A73A4" d="M92.224,193.585c0.067,0.229,0.131,0.456,0.212,0.622C92.498,193.74,92.406,193.476,92.224,193.585z"/>
		<polygon fill="#4A73A4" points="416.534,183.594 416.448,183.423 416.103,183.491 		"/>
		<path fill="#4A73A4" d="M423.436,189.069c0.423,0.821,0.826,1.694,1.233,2.549C424.314,190.632,423.874,189.707,423.436,189.069z"
			/>
		<path fill="#4A73A4" d="M284.523,75.598c0.815,0.519,2.755,1.308,1.75,1.656C287.993,76.877,288.103,75.379,284.523,75.598z"/>
		<path fill="#4A73A4" d="M393.679,178.799c0.565,0.196,1.096,0.542,1.623,0.893C394.435,178.975,393.679,178.356,393.679,178.799z"
			/>
		<path fill="#4A73A4" d="M395.302,179.69c0.434,0.353,0.889,0.735,1.302,1.039C396.191,180.341,395.747,179.991,395.302,179.69z"/>
		<path fill="#4A73A4" d="M262.503,98.591c-0.188-0.198-0.476-0.364-0.87-0.412C261.751,98.575,262.065,98.66,262.503,98.591z"/>
		<path fill="#4A73A4" d="M425.008,193.92c0.415,0.116,2.003,2.947,3.047,4.558c1.048,1.605,1.683,1.936,0.2-3.078
			c1.094-0.163,1.877,1.354,2.528,3.235c0.644,1.883,1.155,4.118,1.786,5.396c-0.067-2.108,1.625,0.597,2.204-0.211
			c-0.64-1.286-1.696-2.712-2.247-4.969c0.627-1.325,2.353,1.856,2.736,4.635c0.172-3.621,2.85,3.735,2.372-1.197
			c-1.81-4.925-3.604-9.032-5.649-12.593c-2.038-3.561-4.346-6.571-7.239-9.223c2.827,5.098,5.746,11.036,6.408,15.86l-2.422-1.292
			c-0.201-5.611-2.57-8.301-4.471-13.198c1.262,3.757,2.391,7.548,3.397,11.358c0.313,5.723-1.193,2.321-2.99-1.581
			C425.01,192.618,425.234,193.555,425.008,193.92z"/>
		<path fill="#4A73A4" d="M406.916,192.864l0.02,0.184c0.118,0.118,0.23,0.278,0.341,0.339L406.916,192.864z"/>
		<path fill="#4A73A4" d="M116.959,266.251l0.779,0.79C117.36,266.362,117.126,266.16,116.959,266.251z"/>
		<path fill="#4A73A4" d="M412.735,183.325l0.004,0.005C412.687,183.272,412.679,183.255,412.735,183.325z"/>
		<path fill="#4A73A4" d="M116.914,245.095c0.048,0.032,0.102,0.065,0.158,0.122C117.016,245.137,116.962,245.134,116.914,245.095z"
			/>
		<path fill="#4A73A4" d="M76.935,235.585c-0.09,0.041-0.175,0.049-0.271,0.155C76.718,236.321,76.83,236.053,76.935,235.585z"/>
		<path fill="#4A73A4" d="M116.741,245.068c0.057,0.002,0.114-0.008,0.173,0.027C116.852,245.076,116.796,245.035,116.741,245.068z"
			/>
		<path fill="#4A73A4" d="M150.608,147.523c0,0-0.468,0.033-1.058,0.224C149.541,148.018,149.834,147.999,150.608,147.523z"/>
		<path fill="#4A73A4" d="M135.15,162.529c-0.135,0.074-0.231,0.106-0.395,0.208L135.15,162.529z"/>
		<path fill="#4A73A4" d="M279.558,66.527c-1.261-0.135-2.213-0.173-3.016-0.15C277.457,66.491,278.453,66.574,279.558,66.527z"/>
		<path fill="#4A73A4" d="M117.071,245.217c0.185,0.224,0.375,0.536,0.6,1.042C117.431,245.701,117.241,245.4,117.071,245.217z"/>
		<path fill="#4A73A4" d="M169.095,118.348l-0.44,0.571c0.133-0.052,0.253-0.119,0.389-0.163L169.095,118.348z"/>
		<path fill="#4A73A4" d="M179.578,113.021c-0.227,0.389-0.266,0.672-0.35,0.957c1.547-1.429,4.082-2.921,6.229-4.272
			c2.148-1.353,3.902-2.596,3.851-3.689c-0.623,0.341-2.689,1.12-4.537,1.647c-1.84,0.529-3.468,0.804-3.215-0.023
			c-2.303,1.892-6.751,3.025-7.913,4.195c4.69-1.699,1.322,1.114-0.973,3.488c-2.771,1.188-0.447-1.65-2.767-0.5
			c-1.849,1.374-3.667,2.783-5.453,4.232c1.646-1.144,3.319-2.246,5.003-3.327l-0.357,2.619l0.385-0.5
			c3.845-3.27,4.459-2.752,5.016-2.348C175.077,115.929,175.597,116.243,179.578,113.021z"/>
		<path fill="#4A73A4" d="M179.228,113.979c-0.461,0.433-0.842,0.847-1.089,1.243C178.91,114.701,179.114,114.342,179.228,113.979z"
			/>
		<path fill="#4A73A4" d="M216.844,100.202c0.458-0.208,0.946-0.459,1.556-0.792C218.109,99.569,217.418,99.875,216.844,100.202z"/>
		<path fill="#4A73A4" d="M125.583,338.905c0.203-0.22-0.181-1.712-0.733-3.053c-0.557-1.339-1.299-2.529-1.924-2.134
			c0.692,1.565,1.398,3.144,2.137,4.718L125.583,338.905z"/>
		<path fill="#4A73A4" d="M325.852,97.284c-0.593-0.299-1.207-0.562-1.834-0.794c-0.16,0.013-0.316,0.037-0.445,0.066
			C323.865,96.912,325.185,97.157,325.852,97.284z"/>
		<path fill="#4A73A4" d="M182.805,106.124c-0.84,0.731-1.139,1.182-1.249,1.515C182.105,107.184,182.574,106.697,182.805,106.124z"
			/>
		<path fill="#4A73A4" d="M324.825,100.676c0.604,0.71,1.459,1.784,1.389,2.374c1.529,0.683,2.92,0.467,4.598,0.951
			C328.968,103.36,326.994,102.307,324.825,100.676z"/>
		<path fill="#4A73A4" d="M330.948,104.034c-0.049-0.007-0.096-0.022-0.138-0.034C330.855,104.02,330.9,104.023,330.948,104.034z"/>
		<path fill="#4A73A4" d="M126.827,342.165c0.357,0.364,0.715,0.744,1.079,1.135l-0.765-0.463l1.78,3.593
			c0.344,0.347,0.711,0.73,1.105,1.234c-0.184-0.187-0.425-0.266-0.628-0.276l0.572,1.157c1.528,0.885,3.653,2.761,5.696,4.517
			c2.039,1.762,3.997,3.406,5.046,3.992c2.365,1.895,4.992,4.367,6.418,6.121c-1.381-1.567-3.419-3.484-3.516-2.3
			c1.055,1.912,1.479,3.672,2.484,5.466c1.003,1.785,2.598,3.62,6.018,5.457c-1.047-1.01-2.075-2.036-3.093-3.076
			c3.06,1.594,6.141,3.074,9.244,4.431c0.784,1.641-0.379,1.144-1.966,0.197c-1.591-0.938-3.559-2.366-4.458-2.424
			c3.263,2.1,5.34,4.928,7.249,7.286c1.896,2.358,3.603,4.227,5.868,4.216c-0.66,1.611-1.79,4.409,2.44,7.338
			c-1.807-3.724,3.18,0.808,1.987-2.635c1.95,0.252,4.21,3.75,5.176,2.856l-0.781,0.313c2.792,3.527,5.478,4.729,7.837,5.119
			c2.37,0.393,4.457-0.027,6.358,0.249c4.578,2.126,7.821,3.812,10.89,5.38c3.065,1.563,5.959,2.996,9.856,4.312
			c-0.108,1.16,0.95,4.904,4.227,5.866c0.99-0.483,3.337-0.303,5.599-0.285c2.262,0.026,4.429-0.093,5.042-0.943
			c-2.74-1.151-3.993-1.108-5.033-0.819c-1.04,0.288-1.848,0.807-3.619,0.483c-2.174-2.874,0.353-1.999-3.025-4.461
			c1.382,0.916,4.918,1.83,8.477,2.715c3.558,0.896,7.138,1.773,8.655,3.092l-1.279-0.012c2.621,1.201,3.979,3.017,5.957,4.396
			c1.97,1.367,4.601,2.346,9.566,1.488c1.567-0.206,3.125-0.444,4.674-0.701c-0.236,0.175-0.285,0.402-0.417,0.563
			c3.711,0.449,5.033,1.118,6.479,1.567c1.44,0.434,3.026,0.667,7.192-0.167c-0.645,0.13-0.242,0.354-0.898,0.472
			c2.365,0.588,4.767,0.291,6.981-0.243c2.223-0.53,4.263-1.319,6.015-1.661c2.283,1.479-0.395,1.651-1.696,2.901
			c4.217,0.09,8.552-0.871,12.339-2.265c3.8-1.386,7.05-3.19,9.343-4.671c1.786-0.022,3.575-0.1,5.374-0.185
			c-2.891,1.385-6.392,3.814-5.25,4.599c2.861-0.921,2.135-1.528,6.291-2.171c-0.453,1.185-1.957,2.536-3.66,4.243
			c4.528-0.081,4.799-1.148,4.779-1.9c-0.017-0.771-0.329-1.247,3.063-0.465c2.697-0.693,3.812-2.626,3.736-3.921
			c1.737,0.066,3.48,0.096,5.235,0.103c0.018-0.851,1.467-1.776,3.355-2.72c1.888-0.947,4.213-1.926,6.02-2.789
			c0.186-0.809-3.602-0.409-4.789,0.688c-0.148-1.286,3.536-3.319,6-4.361c1.113,1.379,5.147-0.503,8.631-2.277
			c3.478-1.769,6.458-3.39,5.994-0.87c5.169-3.386,11.269-7.554,16.582-11.865c5.338-4.279,9.878-8.671,12.394-11.852
			c2.603-1.03,6.562-4.756,5.291-1.363c3.607-3.399,5.591-6.721,7.536-9.953c1.941-3.254,3.844-6.423,7.189-9.94
			c0.844-0.356-2.704,3.438-1.627,3.882c1.494-2.892,3.54-4.934,5.851-7.386c2.295-2.451,4.869-5.314,7.121-9.764
			c-0.834,1.444-0.517,2.229-0.345,2.617c-0.558-0.157,1.222-4.06,2.031-6.546c0.98-1.093-0.626,1.854,0.154,1.382
			c5.62-7.837,8.687-15.905,10.93-24.027c2.232-8.159,3.692-16.381,5.82-25.503c-1.229,5.194,0.337,7.729,1.211,8.036
			c0.484-1.717,0.931-3.443,1.359-5.174c-0.595-2.256,0.244-6.159-0.002-9.582c0.492-0.322,1.202-1.854,1.446-0.128
			c2.016-5.009,1.53-9.303,0.779-13.763c-0.759-4.485-1.758-9.131-1.161-15.459c1.499,5.122,2.769,10.383,3.783,15.76
			c0.642-1.248,1.271-2.509,1.88-3.784c0.521,2.377,0.997,4.779,1.415,7.2c1.699-4.108-0.93-8.002,0.793-8.387
			c0.422,0.922,0.113,3.069,1.016,3.209c0.964-4.04-0.296-4.45-0.492-7.514c1.579,4.09,2.028,10.216,1.745,16.366
			c-0.256,6.158-1.239,12.308-1.801,16.651c-0.038,1.396-0.549-1.33-0.846-1.64c-0.665,3.486-2.193,5.28-2.799,9.71
			c0.646,3.062,1.628-1.74,2.298-3.846c1.148,0.605,0.81,1.673,0.339,4.109c-0.893,0.032-1.929,3.253-3.264,6.713
			c-1.317,3.464-2.94,7.167-4.474,8.259c-2.134,6.153-1.016,6.081,0.092,5.929c0.542-0.081,1.052-0.188,1.067,0.454
			c0.018,0.642-0.444,2.05-1.952,4.93c-1.124,0.908-2.252,1.801-3.388,2.672c-0.943,3.682-2.302,7.832-4.112,11.919
			c-1.797,4.091-4.051,8.112-6.619,11.537l0.953-1.529c-0.03-1.454-1.547-0.087-2.383,0.394c-2.129,2.418-3.589,5.088-5.037,7.413
			c-1.443,2.321-2.875,4.282-4.852,5.165c-1.5,3.474-4.038,7.761-6.982,11.952c-2.94,4.193-6.293,8.267-9.141,11.495
			c-1.708-0.196,0.031-2.421,2.276-5.105c2.256-2.675,4.977-5.874,5.6-7.685c-1.755,1.836-3.547,3.634-5.379,5.392
			c3.365-3.295,3.958-5.339,4.812-8.353c-2.427,2.232-3.65,4.082-4.786,6.003c-1.139,1.915-2.179,3.905-4.317,6.26
			c-0.102-0.848-0.999-0.586-3.197,1.302l0.474,1.818c-0.133-0.069-0.461,0.045-1.219,0.546c-2.654,2.678-5.396,5.29-8.239,7.806
			c2.361-0.851,3.354,0.249,5.709-1.559c-1.443-0.128,0.418-1.813,2.707-3.67c-1.293,2.509,2.815-1.124,3.351-0.406
			c-4.548,3.872-10.275,8.465-13.256,11.07l-1.933-0.556c-4.867,2.888-9.538,6.734-13.131,8.221l0.643-1.314
			c-6.082,2.94-11.659,6.806-17.782,7.789c-4.796,4.044-11.524,8.052-15.825,11.293c-0.999,1.356-5.563,2.088-10.619,2.743
			c-5.063,0.687-10.59,1.273-13.821,3.2c-0.489-0.133,4.493-2.256,6.636-3.483c-4.534,0.582-7.796,3.575-9.531,1.685
			c5.151-0.398,4.94-0.849,4.012-1.274c-0.931-0.443-2.557-0.94-0.345-1.602c-4.687,0.827-9.631,1.749-11.907,2.712
			c3.857-0.383,3.257,0.386,2.646,1.085c-0.615,0.684-1.227,1.278,2.67,0.358c-5.882,2.549-14.426,3.845-21.831,3.103
			c0.074-0.923-0.835-1.324-3.561-1.764l-2.25,1.26c-1.724-0.183-0.035-0.514,1.202-0.896c1.242-0.394,2.028-0.806-1.4-1.155
			c-3.584,1.015-8.94,0.334-13.747-0.313c-4.816-0.64-9.114-1.204-11.039,0.57c-2.548-1.313,0.097-1.237,2.381-1.329
			c2.298-0.099,4.213-0.319,0.368-1.956c2.445-0.354,5.192,0.093,7.577,0.363c2.384,0.275,4.394,0.371,5.253-0.598
			c-4.606,0.143-1.479-1.925-4.378-2.26c-1.718,0.224-3.449,0.433-5.188,0.604l1.102,0.244c-4.362,0.377-9.904-0.328-15.607-1.638
			c-5.711-1.294-11.57-3.188-16.805-4.842c-4.736-0.54-8.9-0.802-13.188-1.568c-4.276-0.78-8.696-2.062-13.702-4.866
			c1.784,0.245-0.182-1.124-1.625-2.411c-1.443-1.3-2.372-2.456,1.271-1.718c-4.013-3.443-8.989-5.072-9.579-4.37
			c3.75,2.693,1.208,1.12,4.314,3.507c-2.843-0.354-7.997-3.678-9.633-5.7c0.912,0.718,0.67,0.291,1.072,0.145
			c-2.076-1.848-2.762-2.01-3.395-1.931c-0.63,0.081-1.194,0.393-2.962-0.592c-0.06-1.004-1.781-2.383-3.758-3.925
			c-1.977-1.536-4.214-3.235-5.347-4.719c-1.827-0.563-3.649-1.163-5.472-1.795c1.582,0.428,0.705-0.517-0.511-1.77
			c-1.219-1.255-2.76-2.847-2.601-3.617c-3.437-1.873-7.042-2.866-10.733-7.447c1.103,0.629,0.386-0.529-0.437-1.997
			c-0.83-1.46-1.763-3.229-1.235-3.749c-2.686-4.195-5.983-6.745-9.15-9.451c-3.152-2.692-6.166-5.546-7.846-10.101
			c0.454,0.064,2.292,1.124,1.12-1.381c-1.521-1.592-3.337-4.917-4.625-6.843l0.072,0.043c-0.034-0.031-0.062-0.05-0.096-0.085
			c-0.631-0.944-1.144-1.473-1.469-1.322c-1.596-1.382-2.968-2.359-4.521-3.811c-1.553-1.453-3.313-3.373-5.563-6.731
			c-1.307,1.255,2.264,7.103,4.168,9.396l2.671,1.415c-0.536,1.668,0.45,3.195,1.605,4.518c1.15,1.329,2.463,2.456,2.58,3.458
			c-2.529-1.239-5.426-4.977-8.206-9.313c-2.787-4.337-5.441-9.253-7.951-12.757c-0.054,2.824,1.022,6.869,2.852,11.227
			c1.811,4.365,4.383,9.021,7.074,13.167c-0.465-1.415-0.912-2.834-1.344-4.25c0.873,1.477,1.756,2.943,2.665,4.396
			c-0.358-1.726-0.69-3.451-0.999-5.173c2.156,4.336,4.782,7.624,7.132,11.29c-2.877-4.237-1.912-7.17-0.698-4.553
			c0.839,2.814,1.903,3.891,3.023,4.695c1.121,0.812,2.304,1.36,3.518,3.121c-1.281-2.019-3.003-4.585-1.078-3.496
			c1.58,4.021,3.069,6.278,4.493,8.443c1.438,2.166,2.813,4.243,4.501,7.894c0.762-1.276,2.368,0.513,4.152,2.49
			c1.779,1.987,3.763,4.151,4.993,3.766c-0.759-0.914-1.517-1.822-2.258-2.747c2.118,1.455,4.25,2.868,6.409,4.221
			c1.642,3.234,0.159,2.589-0.974,2.179c-1.114-0.413-1.904-0.554,1.371,3.744c3.487,3.497,5.765,4.568,7.843,5.406
			c2.093,0.828,4.005,1.417,7.063,3.706c-3.001-0.232-8.708-3.029-13.266-7.353c0.748,1.053,1.499,2.109,2.271,3.151
			c-1.076-0.305-3.201-1.968-5.393-3.99c-2.198-2.014-4.442-4.4-5.911-6.01c3.188,1.923,2.703,1.204,1.284-0.394
			c-1.417-1.6-3.716-4.163-4.231-5.874c-1.606,0.618,1.665,3.903-2.933,0.686c1.7,1.916,2.731,2.965,3.817,4.198
			c1.097,1.223,2.247,2.635,4.339,5.162c-4.702-5.27-7.792-6.723-10.773-8.098c-2.941-1.39-5.755-2.726-9.081-8.132
			c4.125,4.128,0.593-3.017,0.854-4.032c-1.778-2.025-5.23-6.278-6.796-7.948l-0.789,3.003c-2.483-2.762-2.994-5.399-3.667-8.03
			c-0.674-2.646-1.515-5.272-4.598-8.363c-0.874-0.146-0.094,1.544,0.829,3.098c0.913,1.558,1.954,2.976,1.449,2.392
			c-3.568-4.61-4.901-8.414-5.719-12.189c-0.797-3.799-1.084-7.597-2.241-12.561c-0.859-0.258-2.193,0.453-4.679-2.397
			c1.717,0.51,1.398-2.173,3.842,1.112c-0.739-3.323-3.109-6.661-4.615-9.303c0.799,3.449,0.101,2.954-0.987,1.456
			c-1.074-1.496-2.467-4.021-3.066-4.518c-0.912-3.588,1.661,0.648,2.792,2.63c-0.627-2.915,0.305-6.828-2.18-7.808
			c0.69-0.267,2.197,1.415,3.838,3.728c1.636,2.317,3.418,5.26,4.548,7.674c-0.355-1.143-0.689-2.295-1.023-3.443
			c1.559,2.061,1.497,2.563,2.586,5.956c-0.212-3.654,1.125-3.77,2.377-3.405c-0.042,0.497-0.416-0.106-0.46,0.37
			c0.669,2.766,1.882,4.612,2.352,3.708c2.779,1.565-0.333-4.051-0.039-6.171c-0.619-1.282-1.232-2.572-1.815-3.845
			c-3.593-3.838-7.052-7.897-10.373-12.167c-2.317-5.999-1.411-9.179-1.368-14l-1.908-0.979c-0.813-5.502-0.896-10.723,1.699-7.527
			c-0.532,0.271-0.305,0.97-0.207,2.158c0.254,0.117,0.459,0.366,0.646,0.684c0.117,0.097,0.222,0.145,0.333,0.223
			c-1.451-5.685-2.134-9.302-2.244-9.626c1.772,4.809,2.603,4.789,3.305,3.802c0.714-1.002,1.404-2.992,2.992-2.358
			c-0.7-3.188-1.318-6.395-1.852-9.63c-0.527,5.993-1.492,0.222-1.996-1.892c0.832-0.339,0.721-2.311,0.47-4.645
			c-0.25-2.334-0.646-5.032-0.504-6.763l0.347,0.256c0.585-3.192,0.617-8.763,0.47-12.777c-0.291,0.07-1.029-1.221-1.863-2.883
			c-0.829-1.66-1.737-3.697-2.42-5.047c-1.364,6.933-1.597,2.725-2.714,3.176c0.159-0.724,0.327-2.037,0.126-2.215
			c-0.37-1.067-0.785,1.311-1.363,1.458c0.012,7.648,0.055,15.467,2.426,18.524c1.079-2.274-0.976-3.929-0.172-6.488
			c1.458,3.763,1.05,8.473,1.225,14.661l-1.328,2.094c0.36,2.074,0.742,4.142,1.168,6.198c-0.48-1.272-1.05-1.49-1.602-2.214
			c-0.548-0.72-1.092-1.949-1.379-5.261c-0.651,0.45-0.501,2.1-0.192,4.135c0.321,2.039,0.8,4.456,0.777,6.502l2.084,1.871
			c-1.166-0.695-0.313,7.98-2.48,2.003c-0.896-3.29-1.712-6.616-2.439-9.97c-0.361,0.965-0.734,1.942-1.083,2.924
			c-0.343-2.873-0.625-5.754-0.847-8.639l1.054,2.002c-0.925-6.917,0.117-7.962,0.909-8.983c0.855-1.038,1.454-2.03,0.626-8.985
			c-2.061-4.437-2.046-9.251-0.38-17.698c-0.276,6.223,1.506,0.837,2.532,3.305c1.719-6.063,0.253-8.399-0.061-11.795
			c1.485-1.362,2.625-2.284,1.493,3.174c1.191,0.55,1.372-1.267,1.635-3.228c0.258-1.96,0.6-4.066,1.928-4.044
			c0.911-4.476,1.19-7.702,1.128-10.39c-0.047-2.685-0.412-4.823-0.624-7.045c-0.201-2.218-0.256-4.527,0.426-7.511
			c0.685-2.977,2.1-6.645,4.953-11.409l0.652,1.16c2.05-6.666,4.439-11.64,6.957-16.363c2.537-4.727,5.209-9.208,8.337-14.866
			c2.576-2.373,5.204-4.657,7.875-6.854c-0.491,1.029-1.185,3.066-1.4,4.643c-0.214,1.578,0.036,2.687,1.336,1.898
			c-4.932,2.479-6.866,7.364-10.683,11.186c0.349,0.809,1.835-0.793,2.675-1.368c-1.586,2.695-3.423,3.49-4.951,7.394
			c0.578,0.066,3.298-3.586,1.983-0.439c-1.359,1.396-2.715,2.811-4.04,4.26c-1.309,3.576-0.771,4.846-0.502,6.16
			c0.288,1.326,0.296,2.678-1.736,6.562c-0.751-2.057-1.401-6.013-0.254-9.307c-1.004,1.783-0.635,0.459-0.307-0.945
			c0.339-1.396,0.645-2.874-0.566-1.373c-0.281,3.148-1.065,5.175-2.018,7.412c-0.94,2.233-2.058,4.678-2.793,8.578
			c0.041-0.965-0.289-1.35,0.294-3.196c-1.678,3.418-3.262,6.894-4.736,10.424c1.055-1.142,0.634,1.206,0.296,3.783
			c-0.342,2.58-0.591,5.385,0.467,5.132c2.017-5.65,2.636-7.66,3.319-9.882c0.715-2.202,1.47-4.644,4.522-10.751
			c-1.081,3.735-0.957,9.056,0.011,11.776c-0.106,0.086-0.225,0.249-0.387,0.626c1.14,2.521,2.282,0.719,5.39,1.822
			c-0.163-3.169,0.598-5.546,1.558-7.968c0.967-2.425,2.129-4.898,2.94-8.374c-1.107-1.962-3.797,2.821-4.643,6.289
			c0.401-2.08,0.829-4.165,1.308-6.242l0.268,1.461c2.276-4.786,4.754-9.464,7.423-14.021c-1.324,2.697-0.847,4.086-0.831,5.822
			c0.965-1.778,2.306-3.342,3.775-4.952c-1.727-0.424-2.676-1.252-1.683-2.983c5.334-8.702,9.908-12.468,13.604-14.348l0.569-1.019
			c-1.203,0.173-0.835-1.739-0.049-4.143c0.782-2.403,2.003-5.285,2.299-7.084c1.313,1.255,4.167-3.397,6.824-4.965
			c-0.533-2.551-4.09-2.947-7.789-1.219c-1.544,3.338-1.754,4.421-1.628,5.189c0.133,0.769,0.626,1.243,0.692,3.373
			c-1.798,3.296-3.474,6.639-5.047,10.007l0.036-2.982c-3.823,4.133-4.745,9.854-6.369,8.356c0.313-3.287,3.741-6.874,4.255-10.101
			c-0.935,0.858-1.853,1.736-2.772,2.619c0.972-3.333,1.912-3.731,2.978-4.214c1.089-0.479,2.296-1.051,4.113-4.663
			c-3.238,1.217,0.303-0.669,1.48-4.109c-1.373,0.667-3.456,3.54-5.244,5.813c-1.794,2.267-3.346,3.935-3.934,2.034
			c0.656-2.13,3.503-4.485,6.342-6.968c2.836-2.5,5.667-5.117,6.329-8.24l0.086,0.438c2.857-2.955,4.505-5.201,5.598-7.124
			c1.099-1.914,1.638-3.5,2.356-4.995c3.217-1.762,5.814-6.121,8.67-8.739l0.529,0.753c1.281-1.277,2.581-2.54,3.9-3.782
			c-0.929,2.916-4.911,4.016-8.186,7.363l1.572,0.862c-2.646,1.052-4.087,2.796-5.068,4.74c-0.988,1.943-1.511,4.101-2.386,6.073
			c1.504-2.659,4.557-5.553,7.12-8.118c2.558-2.574,4.642-4.838,4.09-6.563c1.316-0.372,2.625-0.736,3.94-1.078l0.973-1.601
			c2.956-0.717,1.982,2.579-1.734,6.262c-0.967,0.271-1.452,0.415-1.475-0.035c-1.336,2.195-2.136,4.609-6.605,8.402l1.636-2.822
			c-5.427,4.946-9.439,10.363-9.812,13.324c7.447-7.366,14.979-14.292,22.545-20.5c-0.172-4.807,1.346-8.661,0.479-12.447
			c2.584-2.318,5.774-4.905,9.095-7.099c3.316-2.201,6.749-4.022,9.686-4.938l-0.129,0.885c2.714-1.136,4.983-2.575,6.795-3.972
			c3.163-0.576-1.001,2.641,1.134,2.11c2.708-1.852,5.474-3.637,8.297-5.351c0.056,0.862-1.792,2.135-4.045,3.479
			c-2.259,1.335-4.924,2.753-6.612,3.726c0.583-0.464,1.771-1.397,1.249-1.365c-2.169,0.759-4.773,2.788-7.129,4.537
			c-2.365,1.746-4.495,3.215-5.961,2.76c-1.658,1.545,2.892-3.901-3.53,0.085c-4.724,2.082-4.844,4.795-4.859,5.657
			c0.232,0.392,2.014-0.489,3.542-1.127c1.53-0.641,2.796-1.049,1.972,0.166c3.13-2.228,3.803-4.08,8.503-5.876
			c-3.269,2.047-6.57,6.422-9.028,6.393c-2.64,2.835-3.031,5.007-2.442,6.194c0.594,1.196,2.169,1.447,3.637,0.558
			c-0.727-0.314,1.766-2.574,3.398-4.192c1.627-1.613,2.328-2.711-2.22-0.758c1.332-1.938,3.709-4.004,6.345-6.012
			c2.631-2.013,5.521-3.956,7.833-5.802l-0.07,0.429c2.048-1.267,4.129-2.484,6.234-3.67c-0.712,0.868-2.473,2.219-2.122,3.057
			c2.576-2.229,5.236-4.391,7.974-6.49c-2.246,1.907-1.322,1.802,0.476,1.191c1.796-0.619,4.512-1.68,5.831-1.816
			c0.455-1.695,3.782-4.075-0.043-3.452c-4.345,0.651-2.033,1.615-5.54,3.223c1.38-1.4,2.789-2.785,4.233-4.15l0.521,0.023
			c0.81-0.973,1.636-1.926,2.474-2.889c3.596-1.259,3.167,0.035,2.915,0.979c-0.239,0.966-0.344,1.566,3.917-0.824l-1.987-1.927
			c5.404-1.675,11.816-2.733,17.775-3.521c5.967-0.802,11.479-1.362,15.297-2.497c-1.955,1.71-2.482,4.08,0.597,4.952
			c-3.341,0.039-9.906,1.332-14.472,2.671c-0.494-0.102,0.779-1.16,2.866-2.233c2.081-1.074,4.986-2.144,7.614-2.315
			c-1.588-1.773-4.776-0.586-7.638,0.649c-2.875,1.226-5.44,2.484-6.242,0.577c-6.709,0.978-8.836,2.751-10.706,4.224
			c-1.874,1.525-3.494,2.779-9.2,3.645c0.503,1.752-2.669,1.988-2.611,3.708c2.092,0.762,5.5-0.619,9.385-2.231
			c3.872-1.619,8.246-3.46,11.873-3.875c-0.648,0.31-1.947,0.944-2.115,1.355c5.082-0.849,7.028-1.7,10.398-3.136l-0.488-0.117
			c2.891-1.534,3.936-1.369,4.693-0.84c0.76,0.532,1.258,1.435,3.128,1.517c1.35-0.531,6.456-0.758,5.465-1.95
			c2.278,0.26,4.54,0.579,6.783,0.928l-0.525-1.996c3.743-0.49,4.652,0.801,7.966-0.652l0.056-1.831
			c-3.153-0.033-6.312,0.021-9.472,0.155c4.723-1.073,1.149-1.908,6.429-2.724c-2.891,1.227-1.811,1.391,0.056,1.465
			c1.867,0.068,4.54,0.113,4.866,0.948c1.271-0.406,2.548-0.787,3.833-1.167l-0.977,0.517c3.058,0.856,3.605-0.775,7.17-0.521
			c-4.172-1.029-7.029-2.29-12.343-0.692c1.923-0.634,4.833-1.299,7.515-1.759c2.681-0.468,5.133-0.743,6.094-0.757
			c4.187-0.687,7.048,0.84,10.887,1.322c-3.739,0.101-3.163,1.554-3.507,2.651c-0.173,0.558-0.564,1.024-1.818,1.248
			c-1.256,0.22-3.361,0.175-6.996-0.188c0.273-0.353,1.453-0.258,1.906-0.031c-0.949-1.189-3.157-1.172-5.495-0.71
			c-2.341,0.47-4.796,1.391-6.34,1.916c0.859,1.313-2.359,1.762,3.163,2.292c-0.914-0.394,0.213-1.196,2.258-1.73
			c2.043-0.541,5.008-0.802,7.636-0.182l-0.989,2.85c2.519,0.165,5.032,0.379,7.538,0.651l-0.714,0.097
			c1.363,1.002,3.355,1.058,5.664,1.081c2.304,0.023,4.927,0.044,7.424,0.934c1.922-0.269,6.413,0.38,9.704,0.729
			c3.284,0.343,5.437,0.283,2.685-1.854c4.233,2.729,8.755,1.481,13.882,2.577c-1.961-0.98-3.945-1.938-5.954-2.847
			c3.99-0.034,5.377,0.201,6.611,0.208c1.237,0.022,2.32-0.181,5.815-0.763c0.369,0.938,1.48,1.994,0.019,2.376
			c4.943,1.705,10.783,4.184,16.102,6.47c5.331,2.272,10.162,4.33,13.437,4.766c3.228,1.825,4.647,3.666,6.427,5.543
			c1.776,1.896,3.926,3.783,8.54,6.118c2.008,0.906,0.142-3.212,5.273,1.432c0.231,0.432-6.569-2.089-0.29,2.146
			c2.83,0.702,5.191,2.892,7.589,5.283c2.409,2.397,4.849,4.99,8.081,6.653c2.229,3.061,6.965,7.378,4.775,7.673
			c-1.906-2.199-4.442-4.636-6.721-6.498c-2.274-1.866-4.278-3.165-5.023-3.251c1.305-0.286-2.511-3.446,1.299-1.301
			c-2.947-3.36-4.284-4.018-5.507-4.587c-1.249-0.554-2.4-1.013-5.324-3.716c-0.839,0.247,2.115,3.947,3.803,4.504
			c-0.72,0.946-3.936-1.184-6.562-2.626c-2.632-1.451-4.582-2.291-2.591,0.838c3.289,2.452,6.111,3.12,8.688,3.988
			c2.56,0.868,4.867,1.945,6.774,5.259c-3.104-0.791-5.823-4.612-10.238-4.833c1.347,1.439,2.671,2.891,3.963,4.364
			c1.45,0.444,2.9,0.909,4.35,1.396l-0.423,0.104c3.19,4.192,5.284,5.368,7.647,6.176c2.341,0.817,4.92,1.259,8.6,4.269
			c-1.278-2.55-0.342-3.039,0.696-3.35c1.024-0.31,2.129-0.428,1.024-2.298c4.744,4.438,7.591,8.306,5.806,9.881
			c-4.668-3.862-5.288-3.482-5.819-3.077c-0.547,0.44-1.03,0.916-5.63-2.131c0.597,1.857-4.227,0.626-0.07,5.354
			c3.033,2.014,3.039,1.313,2.963,0.65c-0.086-0.646-0.239-1.252,2.447,1.155c0.121,0.46,0.25,0.931-0.179,0.977
			c3.099,1.67,2.176,3.168,5.752,5.385l-0.968-0.433c0.985,2.358,2.118,3.158,3.205,3.913c1.072,0.758,2.095,1.474,2.709,3.648
			c0.433-2.42,2.865,1.437,5.264,3.016c-0.949-1.984-1.272-3.812-2.017-6.026c-0.754-2.203-1.938-4.808-4.752-8.146
			c-1.753,0.079-1.937,1.04-4.731-1.22c1.25,1.379,2.481,2.777,3.688,4.197c-0.929-0.801-1.797-1.276-2.71-1.947
			c-0.956-1.522-1.923-3.042-2.928-4.54c2.617,2.227,3.673,2.556,4.479,2.448c0.801-0.099,1.337-0.625,2.834,0.055
			c1.771,2.653,2.632,3.638,3.351,4.368c0.706,0.738,1.264,1.225,2.268,2.97c-0.947,0.451,0.178,3.417,1.769,7.133
			c1.603,3.718,3.623,8.222,4.848,11.634c-0.487-0.999-1.278-2.19-1.634-2.878c-1.914-1.859-1.805-0.868-1.276,0.623
			c0.526,1.496,1.436,3.523,1.235,3.749c0.924,0.899,1.841,1.811,2.747,2.737c-0.47-0.55-1.357-1.161-0.839,0.373
			c1.396,2.112,2.478,2.883,3.571,3.663c1.09,0.78,2.183,1.573,3.485,3.786c-0.855,0.824-4.281-2.233-3.425,0.841
			c-0.202,0.7-0.521,2.106-0.343,4.017c0.174,1.915,0.829,4.328,2.56,7.162c0.581,0.262,1.46,1.748,2.354,3.531
			c-0.156-0.234-0.324-0.541-0.446-0.626c0.156,1.509,0.291,3.016,0.403,4.521c-1.542-1.407-2-3.218-2.488-5.042
			c-0.487-1.82-1.021-3.648-2.653-4.956l-1.802,0.455c-1.154-2.614-3.562-5.766-5.207-6.904c1.631,3.999,2.454,4.596,4.756,8.866
			c-0.797,1.069-2.941-1.672-3.26-2.052l1.243,0.221c-0.482-2.926-1.82-4.688-3.379-6.489c-1.567-1.803-3.35-3.647-4.935-6.806
			c-0.464-0.964-0.021-0.466,0.401-0.431c-2.188-2.056-3.497-4.552-4.928-6.979c-1.426-2.42-2.977-4.771-5.531-6.353l1.829,0.925
			c-2.782-2.687-8.598-7.557-14.649-11.823l-0.577,0.424c0.193,0.882-1.54-1.162-2.304-2.42h0.015
			c-3.057-2.082-6.024-3.965-8.434-5.484c0.329,0.938,0.871,2,1.71,2.998c0.685,0.099,2.03,1.433,3.279,2.521
			c1.245,1.09,2.408,1.931,2.817,0.961c1.17,2.981,5.541,5.639,6.354,7.851c-1.572-3.937,3.171,1.082,4.428,1.055
			c-0.112,1.808,3.676,4.845,2.034,5.356c0.126,0.903-0.278-2.265-2.106-3.08c-1.874-1.258-0.967,0.504-0.164,2.149
			c0.804,1.651,1.495,3.191-0.6,1.475c2.403,2.364,4.709,5.484,6.934,8.69c2.234,3.205,4.383,6.495,6.659,9.218
			c-0.409-1.248-0.833-2.495-1.276-3.739c0.659,1.407,1.918,3.688,2.919,5.748c1.007,2.056,1.751,3.884,1.516,4.296
			c-1.148-1.991-2.323-4.402-3.992-6.831c-0.837,0.368-0.008,1.905,0.886,3.478c0.902,1.568,1.867,3.179,1.425,3.567
			c2.12,2.105,4.198,4.288,6.229,6.549c-0.451-1.172-0.916-2.34-1.391-3.501c0.984,0.861,1.963,3.25,2.848,6.125
			c0.889,2.877,1.684,6.232,2.464,9.037c-1.713-1.193-2.424-3.235-3.149-5.664c-0.721-2.424-1.46-5.243-3.133-7.839
			c-2.628-3.644-1.128,3.434-3.334-0.109c-0.098,1.21,1.021,3.623,2.092,4.617l0.18,1.672c-1.727-1.283-3.248-3.824-4.918-6.526
			c-1.658-2.702-3.485-5.556-5.594-7.462c0.434,0.302,0.852,0.546,1.157,0.555c-1.121-4.065-3.25-7.745-5.892-10.839
			c0.515,2.182,1.348,2.65,2.197,3.566c-0.402,0.406-2.554-2.722-3.852-3.585c1.391,3.497-0.759,1.287,0.128,3.475
			c-1.701-1.764-2.585-3.475-4.003-6.028c-0.133-1.736,1.681,0.383,2.447-0.488c-2.241-2.134-0.817-4.846-4.534-7.695
			c1.579,2.533,0.829,2.577-0.499,1.84c-1.337-0.73-3.3-2.19-4.22-2.74l0.538,0.817c-2.171-0.653-3.175-1.809-3.051-3.561
			c1.938,1.494,3.053,3.564,3.69,2.202c-1.016-1.219-2.06-2.418-3.515-3.539l1.784,0.648c-1.739-1.987-3.524-3.928-5.359-5.819
			c-1.713-0.143-4.347-0.511-6.336-0.07c-0.5-2.075-2.963-3.275-4.501-4.176l0.927,0.208c-0.858-1.543-2.833-3.457-4.765-4.879
			c-1.933-1.426-3.806-2.368-4.379-2.165c-0.63-1.135,3.711,0.305,6.511,0.926c1.405,0.292,2.418,0.354,2.235-0.383
			c-0.188-0.723-1.565-2.274-5.108-4.916c-2.592-2.134-3.942-2.105-5.072-1.75c-1.137,0.361-2.068,1.048-3.897,0.396
			c0,0,0.371-0.145,0.207-0.543c-2.158-1.895-3.145-1.021-5.35-1.909c1.105,1.377,3.07,2.821,3.99,2.91
			c-1.484,0.602-4.702-3.538-7.132-3.789c1.755-0.121,0.747-1.058-0.437-1.899c-1.175-0.848-2.504-1.603-1.282-1.491
			c-2.026-2.092-4.623-3.511-7.108-4.359c-2.489-0.851-4.864-1.136-6.525-1.071c-1.102-2.046-2.671-2.686-4.57-3.242
			c-1.912-0.55-4.141-1.02-6.785-2.715c0.854,0.412,2.606,0.678,3.72,1.46c1.954-0.095,0.576-0.943-0.623-1.649
			c-1.192-0.709-2.188-1.311,0.654-1.007c-1.192-0.192-0.42,0.808,0.79,1.023c2.014,0.63,4.132,0.774,3.968-0.158
			c-1.362-1.159-2.747-2.314-4.165-3.432l1.84,0.313c-2.162-1.671-4.384-3.293-6.666-4.858c-0.319,0.245,0.24,0.908,0.525,1.241
			c-4.188-2.034-8.973-3.478-13.677-4.554c-4.705-1.086-9.327-1.798-13.304-2.597c-1.156,2.255-6.061,1.969-11.568,1.78
			c-5.498-0.224-11.646-0.276-14.805,1.263c1.679-1.398,2.658-3.845,1.569-4.851c1.446-0.203,4.504-2.137,7.854-1.563
			c0.509,0.789,4.531,1.937,1.849,2.652c4.561,0.042,4.31-0.465,3.25-1.257c-1.053-0.786-2.95-1.749-1.514-2.554
			c-5.188-0.14-9.317,0.632-12.891,1.575c-3.576,0.954-6.605,2.097-9.726,2.899l-0.203-0.559c-1.572,0.491-3.128,0.988-4.671,1.526
			c1.958-0.056,2.949,0.637,2.816,1.251c-0.135,0.628-1.365,1.174-3.878,0.989l0.582-0.208c-1.471-0.406-3.644-0.084-5.97,0.457
			c-2.331,0.539-4.809,1.293-6.985,1.66c-0.869,0.726-1.727,1.447-2.57,2.186c-4.291,0.822-5.211-1.922-7.101-3.261
			c-3.448,0.845-5.961,2.228-8.103,3.753c-2.141,1.532-3.916,3.215-5.935,4.786c-1.272-0.199-4.353,0.643-6.538,1.16
			c-2.184,0.515-3.518,0.633-1.298-1.253c-2.67,1.847-2.917,4.225-3.896,6.264c-0.98,2.074-2.641,3.736-8.181,4.77
			c0.583-0.825,1.174-1.648,1.779-2.465c-4.419,2.627-9.296,6.564-13.437,10.194c-4.157,3.627-7.618,6.916-9.813,7.965
			c-0.02-2.917-3.209-1.729-6.91,0.175c-3.701,1.881-7.813,4.534-10.059,3.741c1.083,0.3-1.431,3.467-1.404,4.271
			c-0.968,0.306-2.326,1.083-2.651,2.855c1.688-1.295,2.069,0.018,2.508,0.73c0.453,0.723,0.913,0.857,2.875-2.631
			c-0.445,4.979-1.935,10.125-6.975,16.793l-1.405-1.173c1.463-1.704,2.958-3.374,4.489-5.005c-1.484-0.307,0.755-2.955,1.213-4.437
			c-2.212,2.253-3.427,3.177-4.172,3.409c-0.745,0.231-1.014-0.227-1.254-0.658c-0.244-0.43-0.455-0.833-1.106-0.467
			c-0.649,0.366-1.74,1.504-3.635,4.215c0.221,1.726,0.286,0.763-1.274,3.836c0.856-1.354-0.006-2.321-1.504-0.184
			c-0.06,0.968-0.125,1.923-0.167,2.884c-2.528,1.096-1.922-0.767-1.12-2.656c0.799-1.88,1.793-3.766-0.223-2.729
			c0.878-2.55,2.537-5.764,3.688-8.316c1.142-2.556,1.747-4.487,0.296-4.559c-3.072,3.14-3.368,5.404-3.691,7.628
			c-0.307,2.248-0.651,4.449-3.541,7.891l-1.353,0.26c-1.139,3.031-0.014,4.313-0.064,6.264c-0.563-0.161-1.335,0.302-2.479,1.959
			c-0.561,5.722-1.72,9.007-1.416,14.37c1.806-6.082,3.56-8.246,5.278-10.396c0.875-1.073,1.766-2.143,2.775-3.677
			c1.013-1.536,2.135-3.537,3.569-6.458c-0.249,1.05-1.497,3.547-2.362,6.036c-0.876,2.482-1.369,4.938-0.407,5.787l-1.532-0.999
			c-1.202,4.09-2.248,8.121-4.927,12.56c0.123-1.097,0.252-2.198,0.405-3.299c-0.914,3.373-2.668,5.698-4.129,8.016
			c-1.451,2.309-2.588,4.607-2.053,7.675c0.783-1.758,1.281-3.226,1.442-4.433c-0.509,3.596-2.116,7.696-3.495,11.301
			c0.208,2.828,0.498,5.625,0.864,8.387c-0.884-0.294-2.026,4.562-2.912,1.898c-1.295,2.639-1.373,4.789-1.13,6.653
			c0.243,1.867,0.788,3.457,0.783,5.103c-1.361,2.73-1.41,1.471-1.403-0.618c0.01-2.084,0.152-4.973-1.03-5.487
			c-1.155,3.926-1.755,8.107-1.85,11.869c-0.106,3.765,0.304,7.106,1.021,9.416c0.436-1.628,0.813-2.4,1.246-2.291
			c-0.596,0.206-0.613,3.451-0.668,5.255l1.163,1.262c-0.833,2.973-1.532,2.579-2.396-0.016c-0.284,2.923,2.034,6.302,0.458,9.319
			c-0.82-2.436-0.917-5.268-0.875-7.79c0.043-2.524,0.207-4.741-0.175-6.053c0.364,5.202-0.49,7.783-1.305,10.788
			c-0.396,1.502-0.767,3.104-0.871,5.159c-0.106,2.055,0.044,4.571,0.764,7.85c-0.548,0.226-1.885-1.931-1.628,0.65
			c0.547,2.962,1.226,3.265,1.923,3.055c0.698-0.215,1.443-0.939,2.215-0.113c-1.297-4.396-0.732-6.607,0.567-9.3l1.046,1.116
			c-0.489,0.219-0.281,3.013-0.665,3.885l2.027,0.512c-2.207-0.128-3.362,4.593-1.982,8c1.023-3.78,1.091-2.8,3.412-4.088
			c1.492,2.252,1.13,3.668,0.826,5.194c-0.309,1.514-0.571,3.144,1.198,5.567c-0.78-0.242-2.201-4.868-1.93-0.687
			c0.609,3.396,2.18,2.581,3.215,4.677c-2.341-2.1-3.511-1.146-6.204-3.511c-0.731-3.039-0.81-3.668-0.989-4.26
			c-0.16-0.597-0.418-1.152-1.268-4.125c-0.245,1.786-0.475,3.59-0.658,5.4c-1.218-5.24-2.677-3.542-3.45-3.872
			c-0.186,4.767,0.882,6.392,1.976,7.524c1.117,1.139,2.289,1.814,2.737,4.748c1.851,2.477-0.987-5.439,1.275-1.406
			c0.499,2.701,0.875,2.93,1.385,3.207c0.518,0.273,1.151,0.61,2.343,3.429l-1.074-0.758c-0.533,2.093,1.253,3.512,2.075,5.501
			c0.623,1.045,1.916-0.075,3.438-0.304c1.54-0.232,3.215,0.413,4.864,4.768c-0.63-0.255-0.991-0.306-1.19-0.233
			c-5.809-1.142-11.62-2.617-17.433-4.42c2.98,10.066,7.044,21.475,12.04,32.722c-0.603,1.982-2.213,0.362-3.728-1.667
			c-1.515-2.021-2.906-4.433-3.339-3.8c-0.65-1.806-1.26-3.621-1.85-5.438c0.64-0.106,1.938,2.571,3.139,4.536
			c1.199,1.969,2.215,3.237,2.085,0.467c-2.591-4.254-3.9-7.637-5.302-10.891c-1.393-3.266-2.882-6.4-5.587-10.521
			c-0.966,1.865,0.163,4.842,1.631,8.093c1.458,3.266,3.26,6.778,3.505,10.097c-0.905-2.474-2.072-4.38-3.272-6.228
			c1.857,5.608,4.13,11.539,6.94,17.704l1.358,0.984c-1.898-4.133-3.02-7.063-3.106-7.469c2.411,5.518,6.409,9.076,8.471,8.303
			l-0.447-0.942l1.645,1.487C125.635,339.688,126.228,340.93,126.827,342.165z M419.619,293.37c0.121,0.395,0.288,0.725,0.535,1.001
			C419.895,294.086,419.642,294.272,419.619,293.37z M96.087,231.347c-1.376,8.029-2.455,16.239-2.659,24.121
			c2.095-7.128,4.427-12.896,5.855-14.056c0.718-0.583,1.206-0.024,1.427,2.083c0.237,2.112,0.201,5.775,0.194,11.456l0.319,1.484
			c0.485-2.974,0.606-8.053,0.604-12.864c-0.65-1.981-2.1-6.24-3.29-10.111c-1.213-3.862-2.18-7.308-2.441-7.279
			c-1.417,1.239-0.434,3.515-1.125,6.059L96.087,231.347z M104.046,226.789c1.223-4.275,0.131-3.45-0.591-4.291
			c-0.186,1.564-0.343,3.125-0.491,4.668C103.269,226.618,103.622,226.381,104.046,226.789z M102.56,222.602
			c-0.114,0.492-0.226,0.908-0.381,1.109L102.56,222.602z M107.479,309.005c-0.082-0.184-0.123-0.247-0.197-0.422
			c0.272,1.034,0.563,2.063,0.874,3.138C108.143,311.266,107.953,310.458,107.479,309.005z M106.808,299.69l-1.796-0.609
			l0.647,2.974C106.248,301.528,106.747,301.014,106.808,299.69z M106.607,270.637c-2.094-1.574-2.572-7.592-4.746-7.868
			c-0.577-0.36-0.725,0.936-0.815,2.393c0.058,1.617,0.121,3.345,0.227,5.174c0.322,0.034,0.648,0.369,0.99,0.942
			c0.097-1.821,0.537-3.056,1.927-2.449c-1.245,2.407-0.609,3.4,0.291,4.37c0.91,0.979,2.082,1.941,2.056,4.413
			c0.873,0.661,1.044-0.736,0.938-2.464C107.365,273.419,106.988,271.344,106.607,270.637z M365.865,125.751
			c-0.012,0.235,0.053,0.925,0.179,1.834c-1.125-0.488-2.255-0.959-3.385-1.418c-2.267-2.15-3.956-4.578-5.889-6.616
			c-1.929-2.03-4.104-3.67-7.207-4.091c-1.841-2.009-2.309-3.961-2.872-5.69c1.081,0.759,2.064,1.514,2.836,2.215
			c3.928,1.345,6.17,2.641,7.509,3.784c1.337,1.152,1.776,2.177,2.109,3.161c0.326,0.997,0.553,1.947,1.42,3.023
			C361.441,123.025,362.952,124.206,365.865,125.751z M302.555,89.185c0.68,0.034,1-0.25,1-0.25
			c-15.033,0.284-26.482,0.505-34.091,0.019c0.703,0.826,2.726,1.612,4.936,2.37c2.213,0.75,4.617,1.455,6.149,1.964
			c-0.994,0.494-1.981,0.992-2.959,1.506l-1.604-1.568c-1.657,0.403-3.301,0.848-4.928,1.303c1.272,1.275,5.139,1.282,7.593,2.494
			c0.13-0.157,2.288-0.555,4.747-0.934c2.459-0.387,5.229-0.753,6.479-1.084c-2.129-0.794-4.283-1.555-6.462-2.258
			c0.872,0.369,3.533,0.752,6.417,1.161c2.883,0.398,5.993,0.829,7.78,1.001c0.14-0.436-1.222-1.334-2.783-1.876
			c-1.559-0.544-3.307-0.72-3.862,0.177c-0.242-0.731,1.389-0.773,2.569-0.903c1.173-0.12,1.906-0.348-0.192-1.5
			c2.795-0.192,6.266,0.513,9.447,1.545c3.188,1.025,6.082,2.369,7.881,3.288l-0.046,2.355c3.803,2.181,3.661-1.696,8.087,1.313
			c-3.058-0.899-3.011-0.203-2.805,0.484c0.203,0.699,0.564,1.403-1.807,0.657c1.204,1.344-0.742,2.225,3.908,3.794
			c2.451-0.657,3.5,0.282,4.467,1.241c0.976,0.969,1.875,1.954,4.18,1.554c1.954,1.918-3.248,0.482,1.162,2.958
			c5.883,1.091,6.109,0.037,7.434-1.751c-2.335-1.553-4.067-1.595-5.659-1.559c-1.601,0.042-3.063,0.155-5.012-0.981
			c3.222,0.051,6.476,0.204,9.757,0.468c-1.269-1.229-2.376-1.825-3.388-2.139c1.756,0.595,3.402,0.796,4.952,0.734
			c0.877-0.026,1.683-0.029,2.411,0.008c-4.656-2.491-8.914-4.443-9.301-5.632l1.102-0.66c-1.329-1.668-4.494-2.19-6.095-1.995
			c-4.479-1.705-9.443-1.825-9.995-3.443l2.029-0.334c-2.838-0.812-4.437-1.182-6.203-1.642L302.555,89.185z M129.331,148.62
			c2.631-0.262,5.202-0.625,8.362-2.482c3.189-1.842,6.891-5.207,12.397-11.143l-0.715,1.087c3.732-2.016,6.043-5.263,8.729-8.6
			c2.674-3.312,5.732-6.719,10.555-8.563c-1.515,2.014-2.215,2.961-2.813,4.14c-0.595,1.173-1.1,2.58-2.046,5.509
			c1.066-1.343,2.148-2.684,3.264-3.998c0.186,2.518,3.467-1.43,6.57-3.451c-0.412,1.303-0.799,2.613-1.168,3.917
			c-2.201,0.675-6.84,3.997-6.33,4.358c0.396-0.496-1.562,0.049-4.007,1.258c-2.445,1.2-5.361,3.101-6.855,5.027
			c0.764,0.444,2.862-1.193,4.632-2.236c1.773-1.052,3.146-1.548,2.382,0.955c2.2-3.443,3.664-2.462,6.472-5.463
			c-2.326,3.34,0.673,2.408-0.764,5.171c1.558-1.536,3.153-3.043,4.781-4.517c0.235,0.171-1.477,1.864-2.505,3.339
			c-1.035,1.481-1.408,2.682,1.292,1.834c0.727-1.152,2.629-2.565,4.251-3.838c1.617-1.276,2.955-2.42,2.483-3.205l0.453,0.368
			c2.099-1.219,2.185-2.039,2.437-2.885c0.249-0.837,0.665-1.719,3.49-2.873c-0.418-0.813-1.746-0.756-3.467,0.589
			c-1.309,1.352-0.859,2.532-3.77,4.879c-2.208-0.212,3.816-2.43,0.298-2.937c-0.876-0.123-2.792,1.523-4.346,2.773
			c-1.56,1.243-2.808,2.064-2.524,0.138c1.404-0.903,2.82-1.784,4.249-2.641c-0.97-1.574,2.096-3.562,1.194-4.719
			c2.221-2.315,5.782-2.134,7.679-5.111c0.542-1.682-2.598-2.433,2.525-4.247c2.48,0.157,6.312-1.277,10.098-2.891
			c3.782-1.628,7.537-3.431,9.587-4.44c1.094-0.847,2.203-1.68,3.328-2.501c-0.352-0.472-2.145,0.226-3.597,0.791
			c-1.449,0.565-2.573,0.976-1.644-0.186c1.896-0.92,3.817-1.796,5.755-2.644l-0.224,0.822c2.012-0.555,3.794-1.942,5.506-2.903
			c-1.492,1.825-5.931,2.821-4.445,4.326c2.887-0.613,3.522-0.075,5.964-1.231c-0.518,0.305-0.939,0.631-0.788,0.864
			c2.919-0.491,4.125-1.371,4.774-2.3c0.646-0.927,0.725-1.867,1.367-2.361c2.598-1.952,1-2.15-1.264-2.063
			c-2.259,0.08-5.149,0.489-5.06-0.559c5.646-2.082,11.428-3.849,17.31-5.293c-1.415,0.887-2.805,1.804-2.082,2.454
			c2.24,0.002,2.329,0.376,2.616,0.569c0.287,0.203,0.763,0.224,3.771-0.316c-0.425-1.248,1.426-1.971,3.919-2.572
			c2.494-0.608,5.616-1.07,7.747-1.997c2.137,0.906,2.555,1.057-1.885,1.486c0.67,1.6,6.533,0.495,8.665,0.597
			c1.206-0.479,3.296-0.777,4.625-1.172c-1.796-0.797-1.079-1.914,2.854-2.637l0.231-0.35c-3.223-0.258-7.374-0.734-11.235-0.793
			c-3.858-0.069-7.412,0.284-9.326,1.386l1.046-0.964c-3.836-0.31-7.818,1.06-11.231,2.244c-3.427,1.184-6.313,2.176-8.375,1.023
			c0.02-1.304-1.543,0.078-1.852-1.729c-1.705,0.915-3.391,1.848-5.05,2.816l0.897-1.112c-3.03,0.977-6.025,2.042-8.985,3.188
			l0.13-0.403c-3.766,3.013-6.519,5.551-8.659,7.618c0.296,0.743,0.646,0.854-0.472,1.96c-1.198,0.928-2.181,1.431-3.127,1.735
			c-0.006,0.002-0.006,0.002-0.003,0.011l-0.003-0.009c-2.145,0.714-3.996,0.313-6.725,1.135c2.549-1.34,5.136-2.612,7.756-3.816
			c0.116-1.506-1.113-2.56-5.452-1.615c1.586-0.782,1.841-2.051-0.238-1.28c-0.088,0.408-4.883,3.287-2.497,3.335
			c-3.644,2.054-8.841,3.927-14.275,6.663c-5.429,2.711-11.088,6.306-15.332,11.24c3.166-3.396,1.452-2.647-0.128-1.867
			c-1.556,0.798-2.974,1.603,0.949-1.742c-3.521,1.311-4.418,2.724-5.145,4.294c-0.731,1.58-1.309,3.322-4.145,5.578
			c-0.978-0.184,3.03-2.516,3.358-4.748c-4.967,3.545-8.175,7.702-11.107,11.884c-2.931,4.205-5.593,8.438-9.546,12.655
			l-1.617-0.697C132.02,144.385,130.678,146.448,129.331,148.62z M118.482,168.832c-0.926,2.016-1.829,4.073-2.698,6.181
			c0.127-0.184,0.222-0.367,0.348-0.56c-0.619,2.165-1.201,4.33-1.724,6.503c1.163-1.681,2.473-2.89,3.263-3
			c0.793-0.113,1.046,0.851,0.228,3.526c-0.423-0.727-1.904,0.372-1.427-1.555c-1.281,1.459-3.006,3.982-3.958,6.048
			c-0.958,2.067-1.17,3.629,0.419,3.127c0.292-3.786,1.238-3.847,2.134-3.687c0.912,0.157,1.78,0.522,2.149-2.386
			c0.232,3.412-1.623,5.803-1.997,8.7c-0.162-3.239-3.212-0.597-5.413,3.4c-0.313,1.962-2.412,6.841-2.678,10.15
			c1.832-0.639,1.844,2.261,3.783-2.565c-0.203,1.938-0.758,4.816-2.391,7.785c0.077-1.333,0.533-3.588-0.047-3.594
			c-1.982,1.655-2.583,4.128-3.516,5.33c-0.188,1.104-0.388,2.216-0.549,3.302c0.203-0.288,0.442-0.522,0.706-0.666
			c0.164,1.305,0.337,2.603,0.528,3.893c0.349-4.929,1.2-2.033,2.067-1.775c-1.763-0.535-0.918,2.997-1.176,4.624
			c0.87-1.05,1.739-2.085,2.627-3.102c0.551,1.862-2.582,5.677-0.535,5.16c1.083-3.62,1.769-6.119,2.308-8.565
			c0.545-2.446,0.943-4.839,1.645-8.18c-0.742,0.736-1.485,1.485-2.214,2.243c0.561-3.874,1.563-4.83,2.692-5.833
			c1.138-1.004,2.396-2.066,3.842-6.088c-0.024-1.91,1.138-4.931,2.077-7.586c0.928-2.658,1.623-4.971,0.422-5.641
			c0.146,0.672,1.269-0.3,2.394-1.805c1.121-1.512,2.284-3.544,2.434-5.145c-0.341-2.035,0.658-5.297,1.506-7.761
			c0.843-2.462,1.483-4.154,0.184-3.153c-1.485,2.326-2.125,6.177-4.6,7.323c0.707-1.639,1.429-3.274,2.189-4.895
			c-0.99,0.773-1.967,1.565-2.945,2.368C121.89,169.606,120.651,169.089,118.482,168.832z M84.056,290.256l0.009,0.232
			c-0.008-0.089-0.025-0.173-0.041-0.253L84.056,290.256z"/>
		<path fill="#4A73A4" d="M417.598,186.674c1.204,1.219,2.549,4.936,3.514,3.733c-0.673,0.311-1.36-1.318-2.001-2.666
			C418.476,186.384,417.906,185.309,417.598,186.674z"/>
		<path fill="#4A73A4" d="M418.011,191.554c0.431,0.129,0.891-0.255,1.562,1.373c-0.687-1.466-1.387-2.924-2.117-4.367
			L418.011,191.554z"/>
		<path fill="#4A73A4" d="M410.22,199.511c1.812,1.837,2.895,3.069,3.893,6.641c-1.523,1.185-2.191-0.187-2.978-1.9
			c-0.776-1.717-1.707-3.784-3.56-3.99c0.945,3.168,2.259,5.003,3.604,6.717c1.332,1.716,2.693,3.308,3.541,5.954
			c0.39-1.516,0.031-5.074-0.872-8.149C412.954,201.702,411.536,199.142,410.22,199.511z"/>
		<path fill="#4A73A4" d="M404.939,198.309c0.679,1.039,1.348,2.089,2.003,3.149l0.082-0.41c-0.661-1.061-1.331-2.113-2.017-3.15
			L404.939,198.309z"/>
		<path fill="#4A73A4" d="M380.492,110.791c0.432-1.116-2.373-2.031-3.677-2.727C377.693,108.867,378.778,110.145,380.492,110.791z"
			/>
		<path fill="#4A73A4" d="M395.99,384.608c7.398-8.369,14.021-17.371,19.778-26.86c-2.496,4.087-5.074,7.914-8.162,12.194
			C404.497,374.209,400.88,378.938,395.99,384.608z"/>
		<path fill="#4A73A4" d="M279.406,75.415c4.332-0.113,7.527-0.436,10.759-0.618c3.229-0.174,6.501-0.209,10.928,0.508
			c-5.522-2.369-9.583-2.118-13.29-1.776c-3.735,0.367-7.139,0.831-11.929-0.695C277.07,73.68,278.245,74.538,279.406,75.415z"/>
		<path fill="#4A73A4" d="M283.433,66.815c0.624,1.14-1.176,1.547-2.968,1.929c-1.792,0.368-3.581,0.722-3.002,1.542
			c2.993-0.007,3.737-0.42,4.409-0.772c0.669-0.34,1.267-0.627,3.969-0.196C285.05,68.485,284.247,67.639,283.433,66.815z"/>
		<path fill="#4A73A4" d="M311.712,108.997c-0.817,0.097-1.634,0.21-2.446,0.324l1.807,0.194L311.712,108.997z"/>
		<path fill="#4A73A4" d="M242.514,68.666l0.934-0.583c-1.517-0.063-3.035-0.105-4.56-0.133
			C240.103,68.18,241.313,68.411,242.514,68.666z"/>
		<path fill="#4A73A4" d="M244.385,67.494l-0.937,0.588L244.385,67.494z"/>
		<path fill="#4A73A4" d="M307.592,112.387c0.959,0.481,1.917,0.964,2.866,1.462l1.815-0.372
			C310.717,113.081,309.152,112.73,307.592,112.387z"/>
		<path fill="#4A73A4" d="M281.512,94.971c1.047-0.104,2.099-0.187,3.152-0.27C284.044,94.729,279.941,93.344,281.512,94.971z"/>
		<path fill="#4A73A4" d="M215.344,72.925c-1.353,0.646-2.693,1.307-4.019,1.987l0.489,0.074c1.323-0.673,2.659-1.333,4.004-1.973
			L215.344,72.925z"/>
		<path fill="#4A73A4" d="M257.601,99.77c2.094,1.531-5.866,0.699-1.618,1.945C259.68,101.317,258.16,100.536,257.601,99.77z"/>
		<path fill="#4A73A4" d="M211.339,97.146c-0.496,0.165-0.996,0.407-1.436,0.753C210.476,97.625,210.949,97.369,211.339,97.146z"/>
		<path fill="#4A73A4" d="M211.339,97.146c1.604-0.549,3.398-0.468,4.361-1.258C213.47,95.812,212.814,96.325,211.339,97.146z"/>
		<path fill="#4A73A4" d="M193.611,104.846l1.429-0.556c-1.063,1.393-0.448,0.967,0.534-0.207c1.443-0.738,1.151-1.156,1.181-1.56
			l0.654-0.992c-0.375,0.398-0.7,0.771-0.976,1.09C194.132,103.659,192.79,104.417,193.611,104.846z"/>
		<path fill="#4A73A4" d="M116.576,131.952c4.636-4.715,6.039-5.722,6.738-4.637c2.191-2.186,2.759-3.43,3.031-4.55
			c0.277-1.112,0.263-2.084,1.392-3.621c-2.368,2.636-3.856,4.159-5.437,5.839C120.729,126.672,119.067,128.522,116.576,131.952z"/>
		<path fill="#4A73A4" d="M127.736,119.144l1.655-1.837C128.636,118.009,128.144,118.598,127.736,119.144z"/>
		<path fill="#4A73A4" d="M218.751,109.648c-0.82,0.941-1.624,1.884-2.411,2.835l1.013-0.627L218.751,109.648z"/>
		<path fill="#4A73A4" d="M110.118,139.332c0.784-0.943,1.914-2.552,2.844-3.053C112.146,135.214,109.322,140.269,110.118,139.332z"
			/>
		<path fill="#4A73A4" d="M144.368,136.845c0.956,0.105,3.185-2.853,4.476-3.677C147.208,134.541,144.304,134.188,144.368,136.845z"
			/>
		<path fill="#4A73A4" d="M104.238,157.816c0.669-0.993,2.349-2.11,2.835-0.896c0.173-0.896,0.097-2.129-0.34-2.417
			C106.298,154.216,105.467,154.877,104.238,157.816z"/>
		<path fill="#4A73A4" d="M137.183,144.55l0.857-0.353c0.642-1.176,1.299-2.348,1.97-3.515
			C139.052,141.962,138.102,143.247,137.183,144.55z"/>
		<path fill="#4A73A4" d="M159.918,147.298c0.858-1.934-0.883-1.474-2.378-1.214c-1.479,0.267-2.733,0.305-0.72-2.642
			c-3.746,2.676-3.212,2.961-2.387,3.09c0.832,0.144,1.969,0.187-0.373,2.511C157.065,146.543,159.769,146.601,159.918,147.298z"/>
		<path fill="#4A73A4" d="M154.058,149.042c-0.439,0.359-0.887,0.773-1.332,1.264C153.268,149.808,153.7,149.402,154.058,149.042z"
			/>
		<path fill="#4A73A4" d="M115.156,193.252c0.079-0.639,0.084-1.094,0.065-1.526C115.151,192.228,115.117,192.718,115.156,193.252z"
			/>
		<path fill="#4A73A4" d="M141.872,166.168c0.523-2.069,1.098-4.139,1.716-6.211c-0.627,2.07-2.433,5.143-3.699,7.85
			c-1.278,2.702-2.058,4.99-0.938,5.32c2.095-2.492,3.778-6.016,3.932-7.889L141.872,166.168z"/>
		<path fill="#4A73A4" d="M75.983,222.932l-0.333-3.386c-0.324,1.335-0.642,2.67-0.936,4.014
			C75.228,222.45,76.536,224.804,75.983,222.932z"/>
		<path fill="#4A73A4" d="M74.545,224.338l0.169-0.78C74.633,223.723,74.571,223.969,74.545,224.338z"/>
		<path fill="#4A73A4" d="M119.057,181.672c1.059-1.805,1.746-3.318,2.287-5.189C120.574,176.963,117.881,181.472,119.057,181.672z"
			/>
		<path fill="#4A73A4" d="M76.945,245.991c-0.057-1.773-0.087-3.549-0.091-5.327c-0.084,1.934-0.126,3.868-0.153,5.8L76.945,245.991
			z"/>
		<path fill="#4A73A4" d="M73.641,271.054l-0.34,0.968c0.402,1.469,0.824,2.934,1.256,4.389l0.32-0.985
			C74.447,273.973,74.038,272.519,73.641,271.054z"/>
		<path fill="#4A73A4" d="M117.81,241.676c0.469-2.803-1.278-5.245-1.789-4.551c-0.176,1.857-0.313,3.721-0.427,5.584
			c1.888-1.277,0.051-1.552,0.825-4.737C116.866,239.218,117.329,240.453,117.81,241.676z"/>
		<path fill="#4A73A4" d="M172.642,420.643c-0.978,0.134-3.066-0.916-4.849-2.182c-1.786-1.263-3.257-2.733-3.125-3.316
			c1.132,0.153,4.906,1.909,3.064-0.059c-2.218-0.223-4.444-0.495-6.68-0.811c-2.871-3.019-1.038-2.92,1.946-1.972
			c2.988,0.96,7.211,2.64,9.161,3.178c-3.386-2.205-5.786-3.283-8.273-4.394c-2.48-1.118-5.047-2.274-8.536-4.836
			c1.901,1.72,2.813,3.231,3.575,4.524c-0.453,0.924-2.247,0.049-4.496-1.522c-2.255-1.567-4.932-3.846-7.258-5.62
			c2.368,3.009,0.218,2.284-2.428,1.173c-0.424-0.264-0.753-0.379-1.023-0.421l-0.9-0.378l0.551,0.451
			c-0.184,0.146-0.244,0.464-0.084,1.084c4.241,2.696,6.274,6.35,8.908,8.278c-0.316-2.288,2.003-0.811,4.954,1.322
			c2.948,2.14,6.604,4.898,8.612,5.501c1.39,0.713,2.789,1.407,4.192,2.088l1.522,0.854c0.129,0.485-0.531,0.664-3.183-0.111
			c1.13,0.284,3.292,1.386,5.175,2.224c1.885,0.838,3.48,1.424,3.422,0.791c5.015,2.583,10.15,4.938,15.385,7.056
			c0.436,0.324,0.861,0.68,1.138,1.047c0.625,0.02,0.779-0.104,0.769-0.289c22.897,9.002,47.644,13.346,72.136,12.784
			c-3.637-0.196-6.759-0.984-10.458-1.482c2.822-1.016,1.297-1.158-0.697-1.316c-1.999-0.163-4.477-0.394-3.604-1.383
			c2.514-0.599,6.093-0.227,8.243,0.304c0.812-1.04-2.218-2.032-1.828-3.287c-4.436-0.795-7.03-0.047-9.676,0.754
			c-2.633,0.788-5.318,1.625-9.682,0.666c0.523-1.214,3.342-1.927-2.369-2.553l1.484-0.062c-4.658,0.056-6.313-1.013-7.563-1.694
			c-1.259-0.704-2.114-1.056-5.307,0.036l0.529-1.754c-2.169,0.248-5.239-0.103-8.311-0.698c-3.071-0.591-6.139-1.426-8.358-1.998
			l0.366-0.255c-6.433-0.953-8.178-1.561-10.044-2.279c-1.859-0.771-3.872-1.648-10.672-4.189c2.32,0.264,4.629,0.492,6.935,0.658
			c-4.212-2.695-6.148-1.055-9.304-2.775c0.383-0.22,0.203-1.749,3.375-0.668c-5.701-1.39-11.381-3.076-17.011-5.058
			C168.039,417.128,172.432,419.651,172.642,420.643z"/>
		<path fill="#4A73A4" d="M155.351,406.252c-0.692-0.624-1.506-1.293-2.541-1.986C153.733,405.034,154.552,405.668,155.351,406.252z
			"/>
		<path fill="#4A73A4" d="M271.483,446.906c-1.72,0.085-3.442,0.146-5.164,0.18C267.92,447.172,269.594,447.156,271.483,446.906z"/>
		<path fill="#4A73A4" d="M133.422,392.927c1.583,2.84-2.591-0.666-3.47-0.572c2.659,2.631,5.391,5.187,8.194,7.664
			c0.431-0.559,1.78-0.42,2.035-1.051C137.882,397.009,135.628,394.994,133.422,392.927z"/>
		<path fill="#4A73A4" d="M139.734,403.157c0.609-0.121,1.798,0.324,3.089,0.852c-1.583-1.302-3.135-2.639-4.674-3.991
			C137.825,400.437,138.016,401.258,139.734,403.157z"/>
		<path fill="#4A73A4" d="M163.427,374.043l1.265,1.001l2.211,1.147C165.738,375.49,164.578,374.777,163.427,374.043z"/>
		<path fill="#4A73A4" d="M182.089,391.574c-1.113-1.921-4.643-3.26-5.826-3.75c1.788,1.186,2.248,1.59,2.755,1.976
			C179.524,390.184,180.074,390.555,182.089,391.574z"/>
		<path fill="#4A73A4" d="M183.935,379.199c1.174,0.543,2.358,1.061,3.543,1.565l-0.19-0.368
			C186.168,380.017,185.049,379.617,183.935,379.199z"/>
		<path fill="#4A73A4" d="M307.479,434.291c0.753-0.231,1.485-0.463,2.245-0.715C308.682,433.852,308.014,434.08,307.479,434.291z"
			/>
		<path fill="#4A73A4" d="M266.652,441.622c2.906,0.444,3.905,0.751,3.805,1.053c-0.102,0.305-1.298,0.579-2.751,0.873
			c-2.901,0.586-6.856,1.12-5.007,2.443c2.15-0.297,4.292-0.61,6.421-0.979l-0.523,0.72c2.62-0.154,5.232-0.365,7.84-0.637
			c-1.693-1.081-2.892-1.094-2.619-2.377c5.179-0.084,6.03,0.148,6.551,0.631c0.521,0.457,0.702,1.126,4.631,1.475
			c3.887-0.547,7.759-1.204,11.604-1.998l-0.872,0.544c0.974-0.198,1.374-0.444,1.67-0.709c12.939-2.713,25.561-6.829,37.559-12.225
			c3.098-1.879,1.942-2.015,0.563-2.141c-1.39-0.137-3.006-0.303-0.99-2.174c-3.729,1.631-8.561,3.162-12.455,4.488
			c-3.893,1.343-6.864,2.523-6.836,3.837c0.165-0.412,0.475-1.23-1.19-1.045c-1.305,1.113-2.635,2.206-3.989,3.283
			c1.52-0.177,3.035-0.376,4.555-0.595c-2.004,1.682-6.845,3.437-11.602,4.471c-4.756,1.046-9.38,1.394-10.868,0.971
			c4.302-1.075,5.218-2.096,6.603-2.919c0.689-0.413,1.494-0.792,2.886-1.152s3.366-0.7,6.399-1.13
			c-0.695-0.481-3.104-1.028-0.559-2.039c-6.746,2.113-13.366,3.291-20.048,4.287C280.74,439.566,273.984,440.392,266.652,441.622z"
			/>
		<path fill="#4A73A4" d="M393.039,384.838l0.086,0.238C393.217,384.808,393.209,384.686,393.039,384.838z"/>
		<path fill="#4A73A4" d="M389.493,387.976c-1.05,2.189-2.147,4.375-3.307,6.544c2.62-2.487,5.174-5.041,7.64-7.673l-0.701-1.771
			c-0.322,0.995-2.378,4.292-3.909,4.822L389.493,387.976z"/>
		<path fill="#4A73A4" d="M381.072,400.978c1.927-2.099,2.457-3.506,2.164-4.203c-0.295-0.7-1.408-0.7-2.857-0.072
			c1.613-2.015,2.467-2.052,3.086-2.071c0.613-0.021,1-0.019,1.561-2c-0.538-0.501-1.812,0.457-3.075,1.669
			c-1.268,1.207-2.544,2.668-3.005,3.235L381.072,400.978z"/>
		<path fill="#4A73A4" d="M345.913,423.011l1.014-1.476c-1.181,0.528-2.364,1.054-3.555,1.561L345.913,423.011z"/>
		<path fill="#4A73A4" d="M346.928,421.535c1.169-0.532,2.341-1.068,3.5-1.623c-0.537-0.423-1.063-0.834-1.812-0.913
			L346.928,421.535z"/>
		<path fill="#4A73A4" d="M359.458,415.299c1.465-0.739,3.059-1.612,4.923-2.795C362.753,413.463,361.113,414.391,359.458,415.299z"
			/>
		<path fill="#4A73A4" d="M355.418,417.147l0.246,0.162c1.271-0.654,2.536-1.326,3.795-2.011
			C358.032,416,356.733,416.586,355.418,417.147z"/>
		<path fill="#4A73A4" d="M350.428,419.912c1.227,0.943,2.645,1.944,7.311-1.28l-2.073-1.323
			C353.931,418.206,352.187,419.073,350.428,419.912z"/>
		<path fill="#4A73A4" d="M207.658,394.25c1.183,0.198,2.366,0.378,3.548,0.546l-0.265-0.339c-1.177-0.171-2.358-0.351-3.54-0.548
			L207.658,394.25z"/>
		<path fill="#4A73A4" d="M226.509,401.899c0.908-0.021,1.614-0.127,2.26-0.248C227.841,401.593,227.076,401.646,226.509,401.899z"
			/>
		<path fill="#4A73A4" d="M242.798,395.229c3.678,1.987-5.652,1.1,1.48,2.773c0.485,1.412-3.227,2.685-6.583,1.397
			c0.5-1.184,3.481-0.225,1.594-1.845c-2.517,1.045-3.212-0.122-2.767,1.903c-4.083,0.413-4.809,1.608-7.751,2.194
			c2.459,0.174,6.078,1.242,9.954,1.969c3.867,0.731,7.992,1.103,11.156,0.155c3.549-1.996,1.726-5.278,2.031-8.561
			c-0.209-0.406-2.346-0.859-4.486-1.026C245.284,394.03,243.115,394.177,242.798,395.229z"/>
		<path fill="#4A73A4" d="M237.406,390.971c-1.688-0.496-2.232-0.483-3.343-0.443C234.107,391.691,236.014,390.752,237.406,390.971z
			"/>
		<path fill="#4A73A4" d="M280.313,417.268c0.351-0.492,3.994-1.545,3.084-2.25c-1.839,0.44-3.687,0.859-5.549,1.23
			C279.178,416.198,279.702,416.713,280.313,417.268z"/>
		<path fill="#4A73A4" d="M275.393,416.717l2.456-0.469C277.226,416.27,276.467,416.396,275.393,416.717z"/>
		<path fill="#4A73A4" d="M280.615,417.529c-0.103-0.089-0.192-0.178-0.304-0.263C280.241,417.376,280.27,417.477,280.615,417.529z"
			/>
		<path fill="#4A73A4" d="M373.143,406.909c0.471,0.786,2.506-1.437,3.495-2.57C375.645,405.027,374.13,405.822,373.143,406.909z"/>
		<path fill="#4A73A4" d="M434.446,317.631l1.521-2.177C435.269,316.173,434.909,316.537,434.446,317.631z"/>
		<path fill="#4A73A4" d="M419.132,276.244c-0.165-0.087-0.288-0.267-0.398-0.504C418.817,275.972,418.947,276.145,419.132,276.244z
			"/>
		<path fill="#4A73A4" d="M418.735,275.739c-0.531-1.578,1.13-6.087,0.105-7.859l0.33,0.241c-0.138-1.052-0.288-2.1-0.445-3.147
			c-0.041,1.454-0.229,3.695-0.321,5.796C418.303,272.868,418.305,274.829,418.735,275.739z"/>
	</g>
</g>
<g>
	<path fill="#FFFFFF" d="M397.367,335.006c0,0.438-0.568,1.791-1.698,4.065c-1.137,2.275-2.155,3.959-3.057,5.041
		c-0.456,0.648-1.305,0.975-2.546,0.975c-1.246,0-2.207,0.219-2.886,0.65c-5.888,3.471-9.114,5.641-9.675,6.506
		c-0.566,0.862-2.886,1.299-6.961,1.299s-8.038-0.487-11.883-1.462c-3.852-0.977-7.357-1.789-10.525-2.439
		c-3.622-0.65-7.978-1.245-13.071-1.787c-5.092-0.541-9.905-1.354-14.43-2.44c-9.505-2.814-17.146-4.554-22.918-5.205
		c-5.772-0.65-12.281-0.976-19.523-0.976c-4.981,0-12.789,1.196-23.428,3.577c-10.64,2.387-16.752,3.798-18.333,4.228
		c-2.944,0.437-6.169,0.815-9.676,1.138c-3.512,0.327-6.849,0.601-10.016,0.814c-0.456,0-1.019,0.438-1.699,1.3
		c-0.677,0.87-1.245,1.412-1.696,1.625c-1.815,1.082-4.133,1.951-6.961,2.603c-2.833,0.65-5.489,1.516-7.977,2.601
		c-1.588,0.434-3.624,0.814-6.111,1.139c-2.494,0.326-4.074,0.488-4.753,0.488c-0.677,0-2.605,0.975-5.771,2.927
		c-3.173,1.95-5.433,2.707-6.792,2.274c-1.359-0.649-2.945-1.032-4.754-1.138c-1.814-0.111-3.056-0.163-3.735-0.163
		c-0.679,0-1.136,0.106-1.358,0.327c-0.229,0.213-0.795,0.325-1.698,0.325c-0.68,0-3.513-0.871-8.488-2.602
		c-4.982-1.737-7.81-2.603-8.487-2.603c-2.266,0-4.871-0.869-7.81-2.602c-2.944-1.736-4.53-4.439-4.753-8.129
		c3.167-4.553,7.13-7.693,11.884-9.431c4.752-1.732,9.05-3.684,12.9-5.851c0.901-0.435,3.507-1.246,7.81-2.439
		c4.297-1.19,8.031-2.222,11.203-3.091c0.452-0.212,0.85-0.538,1.19-0.976c0.339-0.432,0.62-0.863,0.85-1.299
		c-1.359-1.084-2.095-2.221-2.208-3.414c-0.116-1.189-0.396-2.327-0.85-3.415c-0.227-1.083-0.568-2.002-1.018-2.763
		c-0.456-0.757-0.678-1.569-0.678-2.439c-0.229-0.433-0.568-0.863-1.019-1.301c-0.456-0.432-0.797-0.756-1.019-0.974
		c-1.135-5.417-2.154-9.157-3.055-11.219c-0.908-2.059-1.359-4.823-1.359-8.292c0-0.65,0.17-1.408,0.509-2.275
		c0.34-0.866,0.508-1.733,0.508-2.604c0-3.464,0.281-7.365,0.85-11.705c0.563-4.333,1.639-8.886,3.225-13.657
		c0.449-1.299,0.791-3.031,1.018-5.202c0.224-2.165,0.451-4.009,0.68-5.528c0.449-1.732,1.072-3.465,1.867-5.202
		c0.791-1.732,0.96-3.465,0.508-5.203c1.81-1.731,2.548-3.576,2.208-5.528c-0.339-1.95,0.96-2.928,3.905-2.928
		c0.677,0,1.869,0.488,3.564,1.464c1.699,0.977,2.887,1.788,3.566,2.439c0.451,0.218,1.24,0.543,2.375,0.976
		c1.13,0.437,1.921,0.974,2.376,1.625c1.809,1.951,3.677,4.771,5.602,8.455c1.922,3.688,3.226,6.721,3.904,9.105
		c0.451,0.218,0.85,0.544,1.188,0.977c0.339,0.436,0.621,0.865,0.849,1.3c0.45,1.3,0.622,2.713,0.509,4.228
		c-0.116,1.519-0.286,2.926-0.509,4.227c-0.227,1.088-0.17,2.334,0.169,3.738c0.34,1.413,0.732,2.657,1.19,3.739
		c0,0.219-0.058,0.601-0.169,1.138c-0.117,0.544-0.171,1.032-0.171,1.463c0.45,0.218,0.732,0.599,0.849,1.139
		c0.113,0.544,0.283,0.924,0.51,1.137c0.45,1.738,0.901,3.526,1.359,5.366c0.449,1.843,0.79,3.526,1.018,5.041
		c0.223,0.868,0.223,1.844,0,2.926c-0.227,1.087-0.227,2.169,0,3.252c0.223,0.65,0.68,1.194,1.359,1.625
		c0.678,0.437,1.02,0.869,1.02,1.301c0.223,0.65,1.128,3.146,2.714,7.478c1.581,4.341,3.396,6.505,5.434,6.505
		c0.678,0,2.207-0.375,4.583-1.139c2.376-0.756,4.355-1.568,5.941-2.439c-0.908-5.203-1.927-11.595-3.056-19.185
		c-1.134-7.585-1.698-11.706-1.698-12.354c0-0.652,0.62-5.69,1.869-15.12c1.24-9.429,2.206-16.528,2.885-21.298
		c1.131-5.635,3.166-12.244,6.111-19.835c2.94-7.586,4.415-12.137,4.415-13.655v-3.577c-0.227,0-0.567,0-1.019,0
		c-0.455,0-1.019,0-1.697,0c-0.455,0-2.207-0.701-5.263-2.113c-3.055-1.408-5.83-2.546-8.319-3.415
		c-1.585-0.651-3.622-1.138-6.109-1.464c-2.496-0.325-4.754-0.487-6.791-0.487c-0.229-0.212-0.569-0.432-1.02-0.651
		c-0.456-0.213-0.908-0.432-1.358-0.649c-4.303-1.082-8.773-3.09-13.411-6.016c-4.642-2.927-8.888-6.015-12.732-9.267v-2.601
		c1.131-0.214,2.375-0.651,3.735-1.302c1.358-0.65,2.488-1.082,3.396-1.301c4.525-0.864,9.049-1.626,13.581-2.276
		c4.524-0.651,8.938-1.513,13.24-2.603c1.581-0.432,3.958-1.351,7.131-2.764c3.167-1.406,6.111-2.438,8.828-3.089
		c7.919-2.383,15.957-4.766,24.107-7.153c8.149-2.383,16.976-5.204,26.482-8.455c2.037-0.651,5.884-1.302,11.544-1.952
		c5.655-0.65,8.827-0.975,9.506-0.975c3.845,0,6.45,0.924,7.81,2.763c1.357,1.845,2.6,2.765,3.733,2.765
		c0.679,0,1.129-0.163,1.359-0.488c0.221-0.326,0.448-0.487,0.678-0.487c0,0.218-0.06,0.599-0.171,1.138
		c-0.114,0.543-0.398,1.031-0.849,1.463c2.487,2.17,3.338,4.177,2.546,6.017c-0.794,1.843-0.287,3.2,1.527,4.064
		c-0.229,0.436-0.566,0.813-1.018,1.137c-0.458,0.325-1.137,0.707-2.037,1.139c0.451,0.65,0.902,1.301,1.358,1.951
		c0.45,0.65,0.679,1.301,0.679,1.951c0,0.651-0.51,1.519-1.527,2.602c-1.019,1.088-1.756,2.171-2.206,3.252
		c-0.229,0.219-0.625,0.438-1.188,0.651c-0.567,0.219-1.079,0.545-1.528,0.977c0.224,1.086,0.732,2.493,1.528,4.228
		c0.788,1.737,0.17,3.47-1.869,5.203c-0.68,0.437-1.527,0.925-2.547,1.462c-1.019,0.544-1.867,0.813-2.545,0.813
		c-0.679,0-1.477-0.106-2.378-0.325c-0.907-0.212-1.695-0.325-2.375-0.325c-0.681,0-2.946,0.437-6.792,1.301
		c-3.85,0.868-7.129,1.626-9.847,2.275c-1.586,0.438-3.172,1.301-4.752,2.601c-1.587,1.301-3.057,2.497-4.414,3.578
		c-0.229,0.649-0.173,1.52,0.17,2.602c0.339,1.088,0.283,2.063-0.17,2.928c0,0.218-0.173,0.598-0.51,1.137
		c-0.339,0.543-0.625,1.139-0.85,1.789c-0.455,3.252-0.848,6.721-1.188,10.405c-0.339,3.688-1.077,7.372-2.206,11.055
		c-0.908,3.471-1.985,6.885-3.226,10.244c-1.247,3.363-2.435,6.778-3.565,10.243l1.019,0.977c0.68,0,1.299-0.326,1.868-0.977
		c0.563-0.651,1.073-1.082,1.526-1.302c6.79-1.082,13.692-3.357,20.712-6.829c7.013-3.465,13.462-5.635,19.351-6.504
		c0.451-0.213,0.851-0.432,1.188-0.65c0.341-0.213,0.621-0.433,0.849-0.651c1.132-0.649,2.829-1.352,5.094-2.113
		c2.261-0.756,4.297-1.138,6.111-1.138c0.451,0,2.038,0.975,4.753,2.928c2.716,1.95,4.864,3.688,6.452,5.203
		c0.223,0.65,0.337,1.3,0.337,1.951s-0.114,1.194-0.337,1.627c-0.228,0.218-0.228,0.325,0,0.325c0.223,0,0.337,0.325,0.337,0.977
		l-1.357,0.977c0,0.65,0.113,1.356,0.34,2.113c0.225,0.762,0.451,1.463,0.68,2.113c-0.229,0.438-0.341,1.089-0.341,1.952
		c0,0.869-0.227,1.519-0.679,1.95c-1.358,1.952-2.833,4.067-4.415,6.342c-1.586,2.277-3.171,4.283-4.753,6.015
		c0,0.218-0.059,0.599-0.17,1.137c-0.117,0.546-0.171,1.032-0.171,1.463c-2.264,1.301-4.754,2.495-7.469,3.578
		c-2.715,1.087-5.32,2.063-7.809,2.926c-1.36,0.219-2.774,0.813-4.246,1.789c-1.475,0.975-2.999,1.787-4.581,2.438
		c-1.586,0.438-3.794,0.813-6.621,1.138c-2.834,0.325-4.582,0.488-5.264,0.488c-0.68,0-2.097-0.213-4.245-0.649
		c-2.153-0.433-4.019-0.756-5.601-0.977c-0.907-0.431-1.814-0.918-2.717-1.463c-0.906-0.538-1.813-1.025-2.716-1.463
		c-0.678-0.65-1.417-1.406-2.206-2.275c-0.796-0.864-1.758-1.731-2.885-2.602h-2.037c-0.229,1.087-0.457,2.438-0.681,4.066
		c-0.227,1.623-0.339,2.76-0.339,3.412c0,5.201,1.188,10.136,3.567,14.794c2.376,4.661,2.77,8.291,1.188,10.893
		c0.903,0.87,2.317,1.194,4.244,0.976c1.92-0.214,3.677-0.326,5.262-0.326c2.49-0.431,5.147-0.649,7.979-0.649
		c2.829,0,5.603,0.11,8.321,0.326c4.975,0.216,12.332,0.975,22.067,2.275c9.729,1.298,19.236,2.712,28.521,4.226
		c0.679,0,1.64,0.275,2.886,0.814c1.242,0.544,2.317,0.925,3.225,1.138c2.037,0.219,4.246,0.438,6.621,0.65
		c2.377,0.22,4.467,0.648,6.281,1.299c3.396,1.089,6.844,2.389,10.356,3.903c3.507,1.521,6.961,3.038,10.354,4.552
		c0.903,0.437,2.548,2.82,4.924,7.153C396.179,330.892,397.367,333.706,397.367,335.006z"/>
</g>
<g id="Layer_2">
	<g>
		<path fill="#FFFFFF" d="M359.205,280.278c-0.044,0.152-0.101,0.242-0.175,0.267c-0.074,0.026-0.137,0.063-0.177,0.113
			c0,0.026,0.012,0.064,0.031,0.115c0.021,0.052,0.042,0.102,0.063,0.149c-0.063,0.055-0.133,0.098-0.208,0.138
			c-0.076,0.038-0.153,0.068-0.24,0.095c-0.021,0.023-0.036,0.045-0.048,0.058c-0.014,0.014-0.025,0.032-0.05,0.059
			c-0.086,0.254-0.218,0.382-0.398,0.382c-0.182,0-0.346,0.014-0.496,0.037c-0.02,0.024-0.026,0.053-0.017,0.078
			c0.012,0.024,0.017,0.063,0.017,0.113h-0.446c-0.043,0-0.152-0.024-0.335-0.077c-0.181-0.05-0.303-0.076-0.367-0.076
			c-0.171,0-0.521,0.069-1.053,0.209c-0.532,0.142-0.819,0.224-0.863,0.25c-0.147,0.076-0.367,0.216-0.653,0.418
			c-0.288,0.206-0.518,0.484-0.687,0.841c-0.127,0.254-0.271,0.578-0.431,0.973c-0.159,0.396-0.293,0.746-0.398,1.049
			c-0.064,0.205-0.141,0.466-0.224,0.782c-0.086,0.319-0.148,0.604-0.19,0.86c-0.023,0.179-0.023,0.364,0,0.554
			c0.019,0.188,0.019,0.387,0,0.591c0,0.408,0,0.884,0,1.431c0,0.548-0.056,1.063-0.16,1.547c-0.021,0.102-0.086,0.261-0.191,0.477
			c-0.107,0.216-0.201,0.412-0.289,0.592c-0.02,0.051-0.059,0.101-0.112,0.152c-0.052,0.051-0.1,0.101-0.142,0.152
			c-0.022,0.05-0.051,0.146-0.081,0.286c-0.031,0.139-0.103,0.234-0.209,0.286c-0.021,0-0.048,0-0.078,0
			c-0.033,0-0.071,0.014-0.113,0.038c-0.022,0.025-0.037,0.069-0.048,0.135c-0.014,0.063-0.038,0.107-0.081,0.135
			c-0.043,0.051-0.106,0.095-0.19,0.135c-0.085,0.038-0.16,0.057-0.226,0.057c-0.041,0-0.077-0.019-0.108-0.057
			c-0.031-0.04-0.07-0.058-0.113-0.058c-0.063,0-0.117,0.036-0.16,0.112c-0.043,0.077-0.085,0.115-0.128,0.115
			c-0.063,0-0.175-0.107-0.334-0.326c-0.159-0.218-0.24-0.338-0.24-0.362c0-0.128,0-0.269,0-0.422c0-0.15-0.021-0.278-0.064-0.38
			c-0.104-0.357-0.185-0.745-0.239-1.163c-0.053-0.421-0.099-0.833-0.143-1.239c-0.021-0.408-0.054-0.912-0.098-1.508
			c-0.042-0.598-0.062-0.938-0.062-1.013c0-0.255,0.036-0.681,0.111-1.279c0.073-0.598,0.209-1.175,0.399-1.735v-0.152
			c0-0.023-0.02-0.038-0.063-0.038c-0.085,0-0.522,0.197-1.309,0.591c-0.788,0.395-1.297,0.631-1.532,0.708
			c-0.617,0.179-1.25,0.337-1.898,0.478c-0.65,0.139-1.281,0.3-1.897,0.476c-0.044,0.025-0.129,0.063-0.254,0.114
			c-0.131,0.052-0.248,0.103-0.354,0.152c-0.361,0.102-0.733,0.19-1.118,0.268c-0.382,0.076-0.787,0.202-1.211,0.381
			c-0.063,0.025-0.176,0.033-0.336,0.02c-0.16-0.012-0.261-0.02-0.303-0.02c-0.064,0-0.167,0.008-0.306,0.02
			c-0.139,0.016-0.262,0.008-0.367-0.02c-0.062-0.026-0.139-0.068-0.223-0.137c-0.084-0.061-0.181-0.094-0.286-0.094v-0.228
			c0-0.051,0.032-0.121,0.095-0.211c0.064-0.09,0.107-0.223,0.129-0.402c0.042-0.05,0.074-0.08,0.097-0.096
			c0.02-0.013,0.042-0.03,0.063-0.056c0.042-0.128,0.127-0.294,0.256-0.499c0.128-0.202,0.232-0.342,0.318-0.418
			c0-0.053,0-0.114,0-0.19c0-0.077,0.021-0.14,0.064-0.19c0.082-0.127,0.207-0.254,0.367-0.382c0.159-0.128,0.281-0.241,0.366-0.344
			c0.106-0.128,0.217-0.28,0.336-0.458c0.116-0.179,0.219-0.33,0.304-0.458c0.106,0,0.212-0.015,0.317-0.038
			c0.107-0.025,0.182-0.038,0.224-0.038c0.106,0,0.208,0.076,0.304,0.228c0.097,0.153,0.155,0.228,0.176,0.228
			c0.063,0,0.266-0.082,0.606-0.247c0.339-0.167,0.619-0.287,0.831-0.362c0.402-0.128,0.893-0.261,1.467-0.401
			c0.573-0.141,1.104-0.286,1.598-0.438c0.17-0.052,0.393-0.154,0.671-0.306c0.275-0.151,0.553-0.279,0.829-0.381
			c0.105-0.054,0.249-0.108,0.432-0.174c0.18-0.061,0.325-0.108,0.431-0.134c0.105-0.051,0.223-0.114,0.351-0.192
			c0.127-0.076,0.244-0.125,0.352-0.15c0.063-0.052,0.138-0.078,0.223-0.078s0.159-0.012,0.224-0.037
			c0.404-0.127,0.841-0.299,1.309-0.514c0.467-0.217,0.937-0.415,1.403-0.592c0.832-0.28,1.677-0.534,2.538-0.763
			c0.862-0.229,1.75-0.329,2.664-0.306c0.042,0,0.091-0.019,0.144-0.059c0.053-0.038,0.11-0.058,0.175-0.058
			c0.042,0,0.064,0.016,0.064,0.038c0,0.023,0.029,0.04,0.096,0.04c0.043,0,0.107-0.032,0.191-0.098
			c0.085-0.063,0.16-0.097,0.223-0.097c0.021,0,0.042,0,0.063,0c0.043,0,0.091,0.021,0.143,0.059
			c0.054,0.038,0.153,0.136,0.304,0.286c0.129,0.102,0.265,0.178,0.417,0.23c0.146,0.049,0.285,0.113,0.413,0.189
			c0.043,0.024,0.089,0.082,0.144,0.172c0.053,0.091,0.111,0.172,0.176,0.248v0.839h0.006V280.278z M355.983,275.852
			c-0.086,0.024-0.172,0.058-0.256,0.095c-0.087,0.039-0.148,0.109-0.19,0.211c-0.023,0.025-0.044,0.091-0.065,0.192
			c-0.02,0.101-0.053,0.188-0.095,0.265c-0.063,0.103-0.155,0.198-0.274,0.288c-0.115,0.089-0.195,0.196-0.237,0.324
			c-0.213,0-0.484-0.014-0.814-0.038c-0.33-0.023-0.527-0.038-0.59-0.038c-0.045,0-0.225-0.09-0.545-0.267
			c-0.319-0.177-0.574-0.319-0.765-0.421c-0.276-0.125-0.555-0.229-0.831-0.305c-0.276-0.076-0.552-0.166-0.828-0.267
			c-0.044-0.023-0.288-0.113-0.735-0.268c-0.446-0.152-0.766-0.229-0.957-0.229c-0.363,0-0.697,0.038-1.004,0.114
			c-0.309,0.076-0.508,0.14-0.593,0.191c-0.191,0.15-0.398,0.305-0.622,0.457c-0.225,0.151-0.422,0.306-0.591,0.458
			c-0.34,0.356-0.655,0.776-0.943,1.259c-0.286,0.482-0.578,0.942-0.874,1.373c-0.022,0.026-0.062,0.096-0.113,0.21
			c-0.056,0.114-0.112,0.174-0.177,0.174c-0.063,0-0.081-0.008-0.048-0.021c0.03-0.013,0.019-0.021-0.049-0.021
			c-0.043,0-0.229,0.093-0.559,0.269c-0.331,0.178-0.527,0.268-0.591,0.268c-0.043,0-0.213-0.046-0.51-0.136
			c-0.299-0.089-0.467-0.135-0.51-0.135c-0.064,0-0.103,0.017-0.112,0.04c-0.013,0.022-0.038,0.038-0.081,0.038
			c-0.086,0-0.148-0.045-0.191-0.136c-0.044-0.09-0.063-0.174-0.063-0.246c0-0.054,0.02-0.184,0.063-0.404
			c0.043-0.214,0.074-0.374,0.098-0.475c0.105-0.384,0.217-0.79,0.336-1.221c0.116-0.434,0.282-0.853,0.493-1.261
			c0.105-0.178,0.218-0.405,0.336-0.686c0.116-0.278,0.228-0.509,0.336-0.688c0.147-0.253,0.292-0.488,0.43-0.704
			c0.141-0.217,0.272-0.429,0.399-0.631c0.129-0.178,0.278-0.368,0.447-0.572c0.17-0.204,0.319-0.394,0.447-0.572
			c0.02-0.05,0.037-0.09,0.047-0.114c0.012-0.022,0.026-0.052,0.05-0.076c0.469-0.558,0.961-1.196,1.484-1.908
			c0.521-0.713,1.049-1.385,1.581-2.022c0.488-0.586,1.031-1.252,1.628-2.002c0.594-0.753,0.987-1.445,1.18-2.082
			c0.02-0.023,0.048-0.067,0.08-0.134c0.03-0.062,0.068-0.12,0.11-0.173c0.064,0.026,0.118,0.059,0.159,0.095
			c0.043,0.04,0.085,0.084,0.13,0.138c0.129,0.074,0.275,0.148,0.445,0.227s0.33,0.179,0.479,0.306
			c0.064,0.024,0.123,0.101,0.176,0.229c0.054,0.13,0.091,0.229,0.111,0.307c0.021,0.023,0.049,0.05,0.079,0.076
			c0.032,0.025,0.06,0.051,0.081,0.077c0.063,0.204,0.122,0.425,0.175,0.667c0.057,0.242,0.081,0.542,0.081,0.896
			c0,0.054-0.007,0.244-0.018,0.572c-0.009,0.332-0.037,0.599-0.08,0.802c-0.02,0.101-0.074,0.173-0.159,0.21
			c-0.086,0.038-0.149,0.108-0.191,0.211c-0.021,0.024-0.025,0.07-0.016,0.134c0.01,0.064,0.003,0.12-0.017,0.173
			c-0.021,0.077-0.075,0.146-0.16,0.21c-0.085,0.062-0.158,0.121-0.225,0.172c0,0.025-0.01,0.064-0.032,0.115
			c-0.02,0.051-0.028,0.089-0.028,0.112c-0.151,0.154-0.283,0.313-0.4,0.479c-0.119,0.166-0.217,0.324-0.305,0.477
			c-0.02,0.052-0.08,0.122-0.176,0.21c-0.097,0.09-0.186,0.158-0.271,0.21c-0.021,0.024-0.049,0.082-0.08,0.173
			c-0.03,0.09-0.067,0.159-0.111,0.21c0,0.025,0.01,0.045,0.031,0.058c0.021,0.015,0.042,0.032,0.063,0.058
			c0.555,0.077,1.101,0.174,1.643,0.286c0.545,0.116,1.08,0.389,1.612,0.82c0.042,0.026,0.117,0.061,0.223,0.097
			c0.106,0.036,0.202,0.094,0.289,0.173c0.146,0.1,0.34,0.255,0.575,0.459c0.232,0.203,0.433,0.419,0.604,0.646
			c0.129,0.15,0.271,0.433,0.432,0.839C355.997,275.151,356.046,275.52,355.983,275.852z"/>
		<path fill="#FFFFFF" d="M392.267,277.721c-0.147-0.05-0.292-0.082-0.43-0.096c-0.139-0.013-0.241-0.02-0.305-0.02
			c-0.106,0-0.154,0.02-0.143,0.058c0.01,0.038-0.028,0.108-0.114,0.21c-0.146,0.025-0.297,0.076-0.445,0.151
			c-0.147,0.078-0.288,0.169-0.415,0.269c-0.02,0.024-0.068,0.052-0.143,0.076c-0.075,0.024-0.135,0.062-0.175,0.114
			c-0.021,0.023-0.021,0.07,0,0.133c0.02,0.064,0.031,0.121,0.031,0.175c-0.086,0.024-0.197,0.063-0.335,0.114
			c-0.141,0.05-0.263,0.101-0.367,0.15c-0.022,0-0.045,0.025-0.065,0.076c-0.02,0.052-0.03,0.103-0.03,0.152
			c-0.191,0.077-0.422,0.142-0.688,0.191c-0.266,0.052-0.43,0.076-0.495,0.076c-0.043,0-0.196-0.014-0.462-0.04
			c-0.267-0.021-0.433-0.036-0.495-0.036c-0.043,0-0.075,0-0.098,0c-0.021,0-0.054,0-0.096,0c-0.149-0.102-0.299-0.224-0.447-0.362
			c-0.149-0.142-0.299-0.287-0.445-0.438c-0.02-0.052-0.037-0.13-0.048-0.229c-0.013-0.102-0.039-0.168-0.082-0.191
			c-0.084-0.229-0.211-0.375-0.383-0.439c-0.171-0.062-0.318-0.171-0.445-0.322c-0.021,0-0.032,0.022-0.032,0.076
			c0,0.075,0.026,0.159,0.081,0.246c0.051,0.093,0.09,0.173,0.111,0.249c-0.021,0-0.05,0.016-0.081,0.039
			c-0.03,0.026-0.067,0.038-0.112,0.038c-0.021-0.102-0.069-0.21-0.144-0.326c-0.073-0.112-0.123-0.234-0.142-0.36
			c-0.021-0.357-0.05-0.88-0.081-1.565c-0.031-0.688-0.101-1.196-0.208-1.524c-0.021-0.13-0.053-0.34-0.098-0.632
			c-0.043-0.292-0.062-0.478-0.062-0.553c0-0.052,0-0.205,0-0.459c0-0.253,0.02-0.585,0.062-0.993c0-0.076,0.031-0.137,0.098-0.189
			c0.063-0.051,0.116-0.152,0.159-0.306c0.044-0.127,0.08-0.279,0.11-0.458c0.032-0.177,0.051-0.306,0.051-0.384
			c0-0.048-0.008-0.095-0.018-0.132c-0.012-0.04-0.037-0.06-0.08-0.06s-0.128,0.092-0.256,0.27
			c-0.126,0.177-0.233,0.328-0.319,0.458c-0.02,0.051-0.042,0.134-0.062,0.248c-0.021,0.114-0.045,0.223-0.063,0.324
			c0,0.051-0.027,0.108-0.082,0.172c-0.053,0.064-0.1,0.12-0.143,0.174c-0.172,0.102-0.368,0.223-0.59,0.362
			c-0.223,0.14-0.443,0.273-0.654,0.401c-0.063,0.025-0.16,0.045-0.287,0.058c-0.129,0.015-0.246,0.044-0.353,0.097
			c-0.766,0.381-1.334,0.77-1.707,1.162c-0.373,0.395-0.559,0.961-0.559,1.7c0,0.051,0.024,0.196,0.081,0.438
			c0.053,0.243,0.11,0.439,0.176,0.592c0,0.025,0.047,0.076,0.142,0.153c0.096,0.074,0.166,0.112,0.208,0.112
			c0.064,0,0.091-0.013,0.081-0.038c-0.013-0.025,0.017-0.036,0.078-0.036c0.108,0,0.214,0.139,0.32,0.419
			c0.107,0.278,0.171,0.444,0.192,0.494c0.043,0.026,0.096,0.085,0.159,0.174c0.063,0.09,0.128,0.159,0.191,0.211
			c0.021,0.178,0,0.351-0.063,0.516c-0.063,0.165-0.043,0.349,0.063,0.553c0.085-0.051,0.143-0.12,0.176-0.209
			c0.032-0.091,0.069-0.16,0.111-0.212c0.042,0.103,0.063,0.198,0.063,0.287c0,0.091,0,0.185,0,0.287c-0.021,0-0.063,0-0.129,0
			c-0.063,0-0.117-0.014-0.16-0.038c-0.021,0.024-0.047,0.082-0.079,0.173c-0.032,0.089-0.038,0.157-0.017,0.21
			c-0.064,0.023-0.148,0.03-0.256,0.019c-0.106-0.013-0.182,0.009-0.224,0.058c-0.086,0.076-0.187,0.24-0.303,0.497
			c-0.118,0.254-0.252,0.381-0.399,0.381c-0.044,0-0.102-0.006-0.177-0.019c-0.074-0.012-0.143-0.02-0.209-0.02
			c-0.403,0-0.851,0.113-1.339,0.344c-0.49,0.23-0.989,0.574-1.499,1.029c-0.342,0.281-0.714,0.555-1.116,0.821
			c-0.406,0.268-0.779,0.54-1.118,0.821c-0.022-0.024-0.051-0.052-0.08-0.077c-0.032-0.024-0.093-0.038-0.177-0.038
			c-0.044,0-0.091,0.025-0.142,0.077c-0.055,0.049-0.103,0.101-0.145,0.15c-0.063,0.054-0.153,0.09-0.272,0.114
			c-0.116,0.024-0.207,0.04-0.27,0.04c-0.064,0-0.146-0.031-0.24-0.098c-0.098-0.062-0.166-0.184-0.209-0.362
			c-0.043-0.206-0.081-0.471-0.113-0.801c-0.032-0.331-0.046-0.534-0.046-0.611c0-0.051,0.021-0.203,0.063-0.457
			c0.043-0.255,0.096-0.459,0.16-0.612c0.171-0.457,0.397-1.006,0.685-1.64c0.286-0.635,0.56-1.221,0.814-1.756
			c0.106-0.204,0.275-0.517,0.511-0.935c0.234-0.42,0.458-0.77,0.67-1.05c0.469-0.662,0.958-1.279,1.468-1.852
			c0.51-0.573,1.001-1.151,1.469-1.735c-0.021-0.024-0.025-0.03-0.016-0.019c0.009,0.014-0.018,0.019-0.082,0.019
			c-0.062,0-0.531,0.128-1.403,0.38c-0.874,0.257-1.522,0.484-1.946,0.688c-0.254,0.103-0.639,0.311-1.148,0.63
			c-0.51,0.317-1.043,0.629-1.597,0.936c-0.191,0.102-0.384,0.254-0.574,0.458c-0.191,0.205-0.395,0.433-0.606,0.687
			c0,0.023,0.021,0.053,0.063,0.076c0.042,0.025,0.073,0.039,0.096,0.039c-0.212,0.229-0.431,0.502-0.653,0.82
			s-0.475,0.58-0.752,0.784c-0.064,0.024-0.176,0.051-0.337,0.076c-0.157,0.023-0.27,0.037-0.335,0.037
			c-0.042,0-0.189-0.063-0.444-0.19c-0.255-0.125-0.459-0.24-0.607-0.344c-0.02-0.051-0.048-0.105-0.081-0.172
			c-0.028-0.062-0.049-0.135-0.049-0.209c0-0.051,0.02-0.206,0.049-0.459c0.033-0.254,0.094-0.459,0.178-0.61
			c0.063-0.128,0.172-0.313,0.319-0.553c0.146-0.243,0.288-0.438,0.415-0.592c0.063-0.076,0.17-0.146,0.319-0.211
			c0.147-0.063,0.265-0.146,0.349-0.25c0.682-0.661,1.155-1.092,1.422-1.296c0.267-0.203,0.568-0.405,0.909-0.61
			c0.232-0.15,0.746-0.426,1.53-0.82c0.787-0.393,1.458-0.706,2.012-0.934c0.403-0.154,0.869-0.275,1.389-0.364
			c0.521-0.089,0.984-0.198,1.389-0.325c0.617-0.177,1.059-0.316,1.322-0.419c0.268-0.102,0.762-0.153,1.487-0.153
			c0.063,0,0.298,0,0.701,0c0.404,0,0.744,0.024,1.021,0.077c0.128,0.025,0.277,0.107,0.446,0.248
			c0.172,0.141,0.276,0.211,0.32,0.211c0.042,0,0.138-0.045,0.288-0.135c0.147-0.091,0.266-0.146,0.35-0.173
			c0.19-0.128,0.383-0.244,0.575-0.344c0.19-0.1,0.328-0.269,0.414-0.498c0.044-0.101,0.139-0.266,0.288-0.494
			c0.149-0.229,0.266-0.471,0.351-0.724c0.043-0.127,0.079-0.272,0.11-0.44c0.033-0.165,0.06-0.312,0.082-0.438
			c0.063-0.305,0.144-0.623,0.237-0.954c0.099-0.331,0.21-0.649,0.338-0.954c0.043-0.049,0.09-0.078,0.143-0.078
			c0.054,0,0.101-0.049,0.145-0.151c0.128-0.354,0.292-0.654,0.493-0.896c0.203-0.24,0.399-0.363,0.59-0.363
			c0.257,0,0.447,0.106,0.574,0.327c0.131,0.215,0.204,0.487,0.225,0.818c0.02,0.025,0.049,0.053,0.08,0.076
			c0.031,0.025,0.068,0.053,0.112,0.077c0,0.18,0.005,0.395,0.018,0.648c0.011,0.256,0.024,0.496,0.048,0.723
			c0.021,0.153,0.048,0.321,0.079,0.498c0.034,0.178,0.049,0.306,0.049,0.383c0,0.406-0.089,0.832-0.271,1.276
			c-0.183,0.446-0.282,0.771-0.305,0.975c-0.02,0.306-0.047,0.707-0.08,1.204c-0.031,0.494-0.091,0.935-0.176,1.314
			c-0.021,0.154-0.036,0.358-0.048,0.612c-0.013,0.254-0.018,0.408-0.018,0.457c0,0.229,0.043,0.61,0.128,1.145
			c0.085,0.533,0.244,0.84,0.48,0.916c0.041,0.024,0.063,0.089,0.063,0.191c0,0.1,0.013,0.177,0.032,0.228
			c0.084,0.179,0.172,0.337,0.255,0.478c0.085,0.14,0.179,0.273,0.287,0.4c0.553,0.534,0.978,0.898,1.275,1.087
			c0.3,0.188,0.683,0.413,1.15,0.67v0.225h0.005l0,0H392.267z M380.299,266.504c0,0.05-0.053,0.203-0.159,0.458
			s-0.243,0.434-0.416,0.533c-0.104,0.076-0.265,0.108-0.478,0.094c-0.214-0.012-0.404,0.009-0.576,0.059
			c-0.189,0.076-0.396,0.146-0.622,0.21c-0.223,0.063-0.443,0.16-0.654,0.286c-0.127,0.052-0.308,0.21-0.542,0.479
			c-0.235,0.268-0.479,0.502-0.733,0.706c-0.234,0.178-0.479,0.35-0.734,0.516c-0.257,0.165-0.501,0.349-0.733,0.551h-0.16
			c0.147-0.252,0.313-0.506,0.494-0.761c0.179-0.254,0.345-0.483,0.495-0.687c0.171-0.253,0.346-0.521,0.526-0.802
			c0.181-0.278,0.355-0.572,0.526-0.877c-0.445-0.05-0.793-0.114-1.038-0.19c-0.244-0.075-0.579-0.189-1.005-0.344
			c-0.085-0.05-0.208-0.088-0.367-0.112c-0.16-0.027-0.271-0.038-0.335-0.038s-0.094,0.011-0.081,0.038
			c0.013,0.024-0.017,0.038-0.081,0.038c-0.043,0-0.152-0.026-0.333-0.076c-0.182-0.051-0.327-0.091-0.432-0.115
			c-0.277-0.127-0.622-0.406-1.037-0.841c-0.416-0.431-0.729-0.837-0.944-1.221c-0.043-0.074-0.127-0.144-0.254-0.208
			c-0.129-0.062-0.214-0.145-0.255-0.249c-0.045-0.127-0.074-0.253-0.097-0.381c-0.021-0.128-0.043-0.255-0.063-0.383
			c0.044-0.05,0.16-0.114,0.351-0.189c0.191-0.077,0.341-0.114,0.447-0.114c0.063,0,0.229,0.037,0.495,0.114
			c0.266,0.075,0.482,0.151,0.652,0.229c0.173,0.074,0.46,0.248,0.864,0.514c0.403,0.267,0.787,0.465,1.148,0.591
			c0.063,0.025,0.288,0.064,0.671,0.114c0.384,0.052,0.69,0.114,0.926,0.19c0.147,0.023,0.335,0.078,0.558,0.152
			c0.223,0.077,0.369,0.115,0.431,0.115c0.064,0,0.197-0.016,0.399-0.04c0.202-0.022,0.335-0.037,0.399-0.037
			c0.043,0,0.16-0.051,0.35-0.152c0.192-0.103,0.332-0.152,0.418-0.152c0.062,0,0.174,0.014,0.334,0.038
			c0.16,0.025,0.282,0.063,0.367,0.114c0.063,0.023,0.187,0.121,0.367,0.287c0.18,0.166,0.325,0.326,0.432,0.477
			s0.212,0.349,0.318,0.591C380.248,266.268,380.299,266.428,380.299,266.504z M378.161,278.829c0-0.052-0.031-0.325-0.097-0.82
			c-0.063-0.498-0.097-0.784-0.097-0.858c0-0.077,0.011-0.229,0.033-0.46c0.019-0.228,0.019-0.432,0-0.61
			c-0.173,0.33-0.352,0.656-0.544,0.973c-0.19,0.318-0.362,0.632-0.512,0.935c-0.085,0.178-0.142,0.359-0.174,0.534
			c-0.032,0.179-0.079,0.332-0.146,0.46c-0.041,0.103-0.116,0.205-0.222,0.305c-0.107,0.102-0.159,0.18-0.159,0.229v0.305
			c0.042,0,0.085,0.024,0.127,0.077c0.171-0.052,0.512-0.197,1.021-0.439C377.906,279.216,378.161,279.006,378.161,278.829z
			 M396.16,278.715c0,0.101-0.03,0.24-0.097,0.417c-0.063,0.18-0.137,0.37-0.223,0.572c-0.087,0.18-0.159,0.376-0.223,0.595
			c-0.063,0.216-0.181,0.386-0.352,0.514c-0.213,0.179-0.429,0.318-0.654,0.42c-0.223,0.101-0.452,0.206-0.687,0.305
			c-0.084,0.025-0.195,0.044-0.336,0.059c-0.138,0.015-0.271,0.029-0.398,0.058c-0.019-0.024-0.044-0.063-0.063-0.114
			c-0.021-0.052-0.054-0.102-0.097-0.151c-0.213-0.053-0.467-0.078-0.766-0.078c-0.3,0-0.469,0-0.511,0s-0.19,0.033-0.446,0.098
			c-0.253,0.062-0.412,0.094-0.479,0.094c-0.062,0-0.227-0.019-0.495-0.057c-0.265-0.037-0.431-0.057-0.495-0.057
			c-0.02,0-0.334,0.081-0.941,0.247s-1.047,0.313-1.324,0.438c-0.489,0.255-0.952,0.457-1.389,0.61
			c-0.437,0.152-0.834,0.269-1.197,0.345c-0.128,0.023-0.342,0.12-0.64,0.286c-0.297,0.165-0.561,0.324-0.793,0.477
			c-0.191,0.102-0.381,0.248-0.56,0.439c-0.182,0.188-0.357,0.36-0.527,0.515c-0.085,0.077-0.154,0.172-0.208,0.286
			s-0.111,0.236-0.177,0.364c0.021,0.025,0.037,0.039,0.05,0.039c0.012,0,0.05,0,0.112,0s0.27-0.046,0.622-0.135
			c0.35-0.09,0.633-0.146,0.847-0.175c0.043-0.022,0.09-0.062,0.144-0.112c0.054-0.052,0.111-0.077,0.175-0.077
			c0.043,0,0.064,0.014,0.064,0.038c0,0.023,0.029,0.039,0.095,0.039c0.126,0,0.286-0.09,0.479-0.268
			c0.192-0.177,0.308-0.28,0.352-0.305c0.043-0.026,0.1-0.039,0.177-0.039c0.074,0,0.131-0.013,0.174-0.038
			c0.171-0.076,0.329-0.196,0.479-0.363c0.148-0.165,0.309-0.271,0.479-0.322c0.232-0.079,0.532-0.142,0.896-0.191
			c0.361-0.052,0.573-0.078,0.636-0.078c0.428,0,0.777,0.142,1.053,0.42c0.276,0.28,0.557,0.561,0.832,0.839
			c0.128,0.103,0.228,0.306,0.304,0.61c0.074,0.307,0.112,0.483,0.112,0.534c0,0.076-0.032,0.312-0.097,0.708
			c-0.063,0.395-0.116,0.717-0.16,0.973c-0.129,0.61-0.224,1.14-0.287,1.584c-0.064,0.444-0.098,0.922-0.098,1.43
			c0,0.383-0.016,0.879-0.048,1.489c-0.033,0.61-0.176,1.145-0.431,1.603c-0.02,0.051-0.02,0.121,0,0.21
			c0.021,0.089,0.012,0.173-0.031,0.248c-0.086,0.279-0.196,0.541-0.337,0.783c-0.138,0.24-0.25,0.488-0.335,0.744
			c-0.061,0.025-0.146,0.038-0.254,0.038c-0.108,0-0.182,0.025-0.225,0.078c-0.19,0.101-0.398,0.228-0.623,0.381
			c-0.222,0.151-0.42,0.216-0.59,0.189c-0.106-0.128-0.234-0.406-0.384-0.838c-0.147-0.433-0.223-0.839-0.223-1.222
			c0-0.052,0.011-0.21,0.03-0.478c0.021-0.267,0.045-0.488,0.063-0.666c0.021-0.154,0.019-0.345-0.015-0.572
			c-0.032-0.229-0.039-0.435-0.019-0.613c0-0.126,0-0.265,0-0.418c0-0.152,0-0.305,0-0.458c0-0.206,0.01-0.44,0.03-0.708
			c0.021-0.266,0.044-0.541,0.063-0.821c0.063-0.381,0.159-0.831,0.287-1.354c0.129-0.521,0.191-0.821,0.191-0.896
			c0-0.051-0.043-0.136-0.128-0.249c-0.084-0.114-0.17-0.172-0.255-0.172c-0.043,0-0.287,0.067-0.734,0.209
			c-0.446,0.141-0.818,0.237-1.116,0.286c-0.021,0.026-0.045,0.059-0.063,0.097c-0.021,0.04-0.055,0.07-0.099,0.097
			c-0.189,0.128-0.43,0.262-0.716,0.401c-0.288,0.14-0.464,0.21-0.525,0.21c-0.064,0-0.103-0.021-0.114-0.06
			c-0.011-0.036-0.047-0.056-0.11-0.056c-0.063,0-0.129,0.02-0.191,0.056c-0.063,0.038-0.129,0.06-0.189,0.06
			c-0.406,0.024-0.811,0.101-1.215,0.229s-0.809,0.255-1.213,0.38c-0.147,0.054-0.32,0.123-0.509,0.212
			c-0.192,0.089-0.363,0.172-0.512,0.248c-0.086,0.053-0.314,0.229-0.687,0.534s-0.674,0.457-0.908,0.457h-0.32
			c-0.086,0-0.181-0.05-0.288-0.151c-0.107-0.101-0.159-0.188-0.159-0.267c0-0.051,0.042-0.14,0.128-0.267
			c0.085-0.128,0.139-0.242,0.16-0.344c0.021-0.051,0.021-0.121,0-0.21s-0.03-0.158-0.03-0.212c0.043-0.023,0.1-0.067,0.175-0.133
			c0.073-0.063,0.122-0.12,0.144-0.172c0.042-0.051,0.068-0.108,0.079-0.173c0.012-0.065,0.027-0.119,0.05-0.173
			c0.041-0.053,0.105-0.103,0.189-0.151c0.084-0.052,0.148-0.102,0.191-0.153c0.106-0.127,0.261-0.331,0.464-0.608
			c0.201-0.28,0.399-0.522,0.592-0.725c0.104-0.102,0.271-0.216,0.495-0.345c0.223-0.128,0.43-0.279,0.621-0.458
			c0.148-0.127,0.363-0.338,0.64-0.63c0.274-0.293,0.521-0.528,0.733-0.707c0.063-0.077,0.159-0.165,0.287-0.268
			c0.128-0.101,0.266-0.19,0.414-0.266c0.746-0.509,1.495-0.955,2.25-1.336c0.755-0.384,1.409-0.699,1.963-0.954
			c0.298-0.128,0.66-0.298,1.084-0.515c0.428-0.216,0.819-0.426,1.182-0.63c0.148-0.102,0.313-0.21,0.496-0.326
			c0.18-0.114,0.355-0.223,0.527-0.324c0.083-0.051,0.207-0.151,0.366-0.305c0.16-0.152,0.312-0.278,0.464-0.38
			c0.211-0.154,0.479-0.303,0.795-0.44c0.319-0.14,0.512-0.21,0.576-0.21c0.042,0,0.063,0.007,0.063,0.021
			c0,0.012,0.031,0.018,0.098,0.018c0.043,0,0.18-0.068,0.414-0.208c0.233-0.141,0.434-0.263,0.606-0.366
			c0.127-0.048,0.274-0.126,0.445-0.226c0.172-0.103,0.331-0.205,0.479-0.307c0.044-0.051,0.085-0.12,0.127-0.212
			c0.046-0.088,0.087-0.145,0.13-0.17c0.086-0.103,0.208-0.174,0.368-0.211c0.158-0.036,0.28-0.06,0.366-0.06
			c0.044,0.054,0.092,0.144,0.144,0.269c0.055,0.128,0.121,0.229,0.209,0.306c0.104,0.076,0.218,0.152,0.336,0.229
			c0.114,0.076,0.217,0.165,0.302,0.267c0.021,0.023,0.032,0.068,0.032,0.134c0,0.064,0.01,0.121,0.032,0.171
			c0.042,0.026,0.08,0.054,0.11,0.078c0.032,0.023,0.06,0.039,0.081,0.039c0.042,0.076,0.079,0.171,0.111,0.286
			C396.144,278.504,396.16,278.611,396.16,278.715z M384.161,282.913c-0.063,0-0.11,0.011-0.143,0.037
			c-0.032,0.023-0.061,0.038-0.08,0.038c-0.212-0.024-0.469,0.081-0.766,0.324c-0.298,0.241-0.572,0.5-0.828,0.782
			c0.338-0.125,0.694-0.305,1.068-0.533c0.371-0.229,0.695-0.445,0.974-0.647L384.161,282.913L384.161,282.913z M384.48,271.045
			l-0.061-0.038l0.061-0.152l0.064,0.038L384.48,271.045z"/>
	</g>
</g>
</svg>
