<?xml version="1.0" encoding="utf-8"?>
<!-- Generator: Adobe Illustrator 15.0.0, SVG Export Plug-In . SVG Version: 6.00 Build 0)  -->
<!DOCTYPE svg PUBLIC "-//W3C//DTD SVG 1.1//EN" "http://www.w3.org/Graphics/SVG/1.1/DTD/svg11.dtd">
<svg version="1.1" id="Layer_1" xmlns="http://www.w3.org/2000/svg" xmlns:xlink="http://www.w3.org/1999/xlink" x="0px" y="0px"
	 width="512px" height="512px" viewBox="0 0 512 512" enable-background="new 0 0 512 512" xml:space="preserve">
<g id="Layer_2_1_">
	<rect x="0" fill="#FFFFFF" width="512" height="512"/>
</g>
<g>
	<path fill="#DBB335" d="M430.8,254.218c0,94.66-75.146,171.399-167.85,171.399c-92.701,0-167.852-76.739-167.852-171.399
		c0-94.657,75.15-171.396,167.852-171.396C355.654,82.822,430.8,159.562,430.8,254.218z"/>
	<g>
		<path fill="#4A73A4" d="M437.62,226.736c0.569,2.486-0.256,4.816-0.866,3.935c0.989,2.459,1.072,3.779,1.262,4.514
			c0.191,0.738,0.473,0.905,1.789,1.114c1.586,3.22,0.06,6.891-1.261,3.205c0.776,3.123,1.476,6.279,2.091,9.464
			c0.08-1.917,0.135-3.836,0.153-5.759c1.118,0.719,1.091,3.042,1.036,5.383c-0.041,2.345-0.104,4.705,1.15,5.626
			c-0.07-3.504-0.239-7.007-0.502-10.5l0.744,0.486c-0.877-2.356-0.931-7.003-0.803-8.657c0.376,0.222,0.933,0,1.168,1.857
			c-0.523-6.387-1.654-7.115-2.748-7.558c-1.131-0.438-2.262-0.612-3.429-5.676C437.567,224.803,437.658,225.607,437.62,226.736z"/>
		<path fill="#4A73A4" d="M440.889,215.214c-1.186-1.278-2.385-2.531-3.595-3.759c-0.343-2.458-0.732-4.916-1.172-7.369
			c-0.908,0.151-3.134-4.788-2.906-1.07c0.335,0.64,0.988,1.914,1.197,3.03c-1.076-0.137-1.954-2.415-2.794-4.308
			c-0.83-1.899-1.592-3.416-2.237-2.094c2.194,5.322,1.952,6.289,4.435,9.309c1.117,5.182,1.407,9.057,1.14,11.602
			c0.575,1.478,1.839,1.477,2.413,3.412c-0.105-0.432-0.203-0.829-0.305-1.327l2.946-0.732c-0.927-1.557-0.919-3.181-1.356-5.01
			c1.729,2.603,3.404,5.272,5.021,8.007c1.188-1.626,0.994-4.558,0.506-7.512c-0.484-2.957-1.276-5.924-1.11-7.771
			c-0.745,2.413-1.253,1.632-1.581,1.355C441.145,210.692,441.032,210.909,440.889,215.214z"/>
		<path fill="#4A73A4" d="M437.366,223.965l0.042,0.206L437.366,223.965z"/>
		<path fill="#4A73A4" d="M132.361,347.496c0.974,1.329,1.847,1.306,2.275,1.293c-3.557-4.995-6.819-10.197-9.791-15.563
			c-0.439,0.881,1.367,6.023-0.819,3.146c0.004,1.847,3.189,5.664,4.481,5.672l-1.74-0.509c1.781,1.428,2.451,3.127,2.386,4.278
			c-0.064,1.147-0.867,1.73-2.03,0.79l0.216,0.297c3.875,2.282,7.796,4.361,11.738,6.24c-1.16-1.807-2.052-2.168-3.064-2.593
			C135.005,350.12,133.871,349.631,132.361,347.496z"/>
		<path fill="#4A73A4" d="M423.072,281.687c-0.128,2.458,0.086,2.807,0.429,2.585C423.442,283.366,423.318,282.498,423.072,281.687z
			"/>
		<path fill="#4A73A4" d="M141.846,354.424c1.239,0.559,2.48,1.097,3.718,1.62C144.263,355.263,142.948,354.698,141.846,354.424z"/>
		<path fill="#4A73A4" d="M103.107,347.56c-0.092,0.041-0.191,0.045-0.252,0.208l1.779,1.188l-0.023-0.043
			C104.079,348.408,103.581,347.964,103.107,347.56z"/>
		<path fill="#4A73A4" d="M209.491,396.383c0.362,0.09,0.662,0.193,1.098,0.291C210.199,396.546,209.837,396.447,209.491,396.383z"
			/>
		<path fill="#4A73A4" d="M72.387,295.867c1.271,3.144,2.619,6.241,4.041,9.29c-1.17-1.067,0.326,3.513-1.179,1.742
			c0.32,0.705,1.625,4.047,1.778,2.987l-0.608-1.94c1.905,2.195,2.88,2.433,3.899,3.107c1.023,0.668,2.075,1.779,4.31,5.504
			c-0.267-5.444-2.152-7.231-4.012-9.634c-0.415-0.87-0.703-1.62-0.998-2.377c-1.81-2.321-3.572-4.705-5.292-7.146L72.387,295.867z"
			/>
		<path fill="#4A73A4" d="M376.175,392.226l0.05,0.212C376.251,392.326,376.22,392.267,376.175,392.226z"/>
		<path fill="#4A73A4" d="M376.437,393.3l-0.213-0.864C376.112,393.057,374.92,394.566,376.437,393.3z"/>
		<path fill="#4A73A4" d="M139.759,354.362c0.434-0.196,1.164-0.171,2.088,0.062c-0.923-0.418-1.849-0.846-2.771-1.283
			C139.286,353.468,139.524,353.929,139.759,354.362z"/>
		<path fill="#4A73A4" d="M131.642,352.55c-1.471-1.85-2.906-3.733-4.304-5.648c-0.838-0.493-1.674-0.997-2.505-1.51
			C126.71,347.44,128.748,349.927,131.642,352.55z"/>
		<path fill="#4A73A4" d="M200.773,391.001c3.029,1.334,4.314,2.011,4.584,2.427c0.271,0.409-0.463,0.521-1.429,0.571
			c-1.919,0.094-4.769-0.128-2.084,1.492c3.583,1.236,5.343,0.438,7.648,0.893c-5.149-1.437-4.342-2.415-3.557-3.353
			c0.798-0.984,1.559-1.936-3.314-3.78c2.409-1.603,7.859,0.562,10.892,2.382c1.427,1.817,0.475,1.949-1.074,1.824
			c-1.546-0.112-3.658-0.514-4.537,0.404c4.071,1.229,3.551,0.515,5.683-0.111c2.981,1.408,6.445,1.775,9.466,2.25
			c3.028,0.488,5.63,1.097,7.152,3.176c4.754,0.527,4.688-0.7,7.555-1.441c0.492-1.227-1.137-1.862-3.024-2.53
			c-1.888-0.667-4.039-1.396-4.611-2.584c0.286,0.295,0.846,0.88,0.57,1.186c-1.241-0.482-2.467-0.99-3.688-1.51
			c3.398,1.835-1.169,2.387-3.204,1.987c-1.444-0.349-4.29-1.151-3.679-1.709l2.295,0.146c-1.25-0.81-2.888-0.852-4.542-0.995
			c-1.645-0.152-3.31-0.4-4.479-1.606c0.06-0.598,1.228-0.442,1.515-0.72c-3.794,0.446-6.828-0.865-11.967-1.905
			c1.259-0.348,2.505-0.716,3.74-1.098c-2.41,0.476-5.655-0.485-8.836-2.203c-3.184-1.715-6.283-4.18-8.559-6.506
			c0.358,0.745,1.291,1.666,0.378,1.688c-3.539-1.468-4.888-4.54-2.707-4.695c-2.094-0.11-4.709-2.447-7.354-4.927
			c-2.66-2.475-5.342-5.085-8.108-5.686c-8.584-1.738-17.285-4.41-25.934-8.024c0.851,0.507,1.691,1.1,2.445,1.8
			c-0.22,3.167,0.833,3.968-3.424,2.301c1.745,1.123,2.718,1.073,3.741,1.305c1.031,0.224,2.1,0.732,4.151,2.824
			c-2.383-0.896-4.757,0.426-0.931,4.759c5.864,4.337,11.779,6.636,17.616,8.379c5.857,1.735,11.65,2.924,17.771,4.83
			c-0.267,0.856,1.747,2.487,4.379,4.157c2.632,1.669,5.876,3.349,7.94,4.572c-2.459,0.874-5.932-0.295-9.38-1.829
			c1.986,1.274,5.544,3.24,8.224,4.62L200.773,391.001z"/>
		<path fill="#4A73A4" d="M170.807,379.348c0.182,0.334,0.412,0.628,0.659,0.913C171.394,380.029,171.209,379.744,170.807,379.348z"
			/>
		<path fill="#4A73A4" d="M188.903,388.524c-0.071,0.029-0.083,0.083-0.133,0.136l1.1,0.48
			C189.525,388.933,189.143,388.681,188.903,388.524z"/>
		<path fill="#4A73A4" d="M138.809,359.46c-0.934-0.364-1.439-0.788-2.379-1.162c0.471,0.317,0.998,0.762,1.52,1.176
			C138.52,359.809,138.888,359.886,138.809,359.46z"/>
		<path fill="#4A73A4" d="M139.382,355.283l0.841-0.082c-0.163-0.336-0.308-0.549-0.462-0.839
			C139.396,354.52,139.207,354.801,139.382,355.283z"/>
		<path fill="#4A73A4" d="M247.772,420.017l1.433-0.247C248.359,419.729,247.982,419.844,247.772,420.017z"/>
		<path fill="#4A73A4" d="M213.385,399.438c-2.234-0.719-2.592-0.175-3.177,0.274c-0.581,0.444-1.405,0.813-4.539-0.465l1.779,0.894
			c-2.461-0.38-5.625-1.56-8.779-3.026c-3.164-1.458-6.302-3.216-8.862-4.579c1.062-0.581-2.433-2.818-1.036-3.876
			c-3.563-1.618-6.993-3.416-9.604-3.177c-1.727-1.796-5.615-2.773-7.699-5.224c0.235,0.784-1.151,0.768-1.747,0.996
			c-0.595,0.223-0.413,0.77,3.043,2.578c-0.578-0.261-0.396,0.148-0.971-0.107c1.606,2.021,3.188,2.838,4.786,3.432
			c1.599,0.601,3.221,0.971,5.025,2.097c0.824,1.083-0.262,0.861-1.333,0.552c-1.064-0.314-2.116-0.704-1.197,0.115
			c2.492,1.099,5.936,3.536,9.027,5.188c3.085,1.663,5.754,2.554,6.4,0.871c3.557,1.494,3.708,2.398,4.48,3.497
			c3.58-0.445,8.558,2.129,13.084,4.015c4.503,1.915,8.457,3.167,9.097,0.814c-2.168-0.421-5.529-1.594-8.929-1.7L213.385,399.438z"
			/>
		<path fill="#4A73A4" d="M144.52,365.74c0.193,0.245,0.481,0.54,0.624,0.761C144.966,366.27,144.739,365.987,144.52,365.74z"/>
		<path fill="#4A73A4" d="M125.255,306.601c1.226,0.241,2.441,0.47,3.669,0.681c2.271,4.893,3.734,8.227,5.129,11.43
			c1.409,3.189,2.747,6.251,5.146,10.301c-0.023,0.845-0.833-0.01-1.243-0.446c1.799,2.802,3.897,6.38,6.149,9.592
			c2.24,3.22,4.616,6.07,6.675,7.51c0.627,0.842,1.616,2.484,2.207,3.795c0.597,1.302,0.784,2.284-0.258,1.78
			c0.884,0.611,1.858,1.326,2.567,2.282c-0.662,1.001-1.993-1.793-2.753-1.238c0.559,0.771,0.633,1.197,1.047,1.128
			c-0.894-0.282-1.364,0.668-2.212,0.973c-0.842,0.3-2.111-0.03-4.478-3.03c0.133-1.992,1.013-1.002,2.02,0.058
			c1.009,1.066,2.161,2.192,2.74,0.582c-1.568-1.915-2.268-0.979-2.686-0.913c-1.949-2.53-1.283-2.937-0.652-3.216
			c-1.495-0.387-2.846-4.336-4.94-4.898c-3.708-4.941,2.005-0.991-0.284-4.271c-1.259-0.074-2.522-0.166-3.786-0.276
			c-1.068-1.988-2.095-3.998-3.07-6.025c-2.902-3.942-3.825-3.063-4.96-2.229c-1.103,0.804-2.443,1.586-5.862-3.202
			c2.092,0.628,2.28-4.645,0.754-9.677c0.688,1.415,2.083,3.236,3.465,5.162c1.38,1.929,2.736,3.964,3.311,5.942
			c-0.303-3.055,0.67-1.358,1.871,0.571c1.205,1.935,2.673,4.087,3.097,2.153c-2.505-1.715-4.906-5.728-5.864-9.263l0.774,0.93
			c-0.711-1.776-2.075-2.973-3.398-4.427c-1.316-1.451-2.606-3.16-3.059-5.854c-1.079-2.421-0.092-2.271,0.727-2.099
			C125.859,308.514,124.633,306.833,125.255,306.601z M127.892,311.704c0.345,1.121,0.706,2.234,1.082,3.344
			C129.095,314.089,128.569,312.902,127.892,311.704z"/>
		<path fill="#4A73A4" d="M418.815,159.193c0.146,0.41,0.328,0.876,0.451,1.255C419.242,160.129,419.044,159.671,418.815,159.193z"
			/>
		<path fill="#4A73A4" d="M102.483,165.043l1.292-2.162C103.203,163.687,102.815,164.394,102.483,165.043z"/>
		<path fill="#4A73A4" d="M129.304,112.902c0.758-1.072,1.53-2.139,2.314-3.199C130.533,110.792,129.859,111.828,129.304,112.902z"
			/>
		<path fill="#4A73A4" d="M401.857,134.655l-0.062-0.107c-0.17-0.126-0.323-0.201-0.493-0.341L401.857,134.655z"/>
		<path fill="#4A73A4" d="M235.791,67.06c0.602,0.167,1.267,0.296,2.159,0.358C237.805,67.139,237.003,67.025,235.791,67.06z"/>
		<path fill="#4A73A4" d="M128.889,113.497l0.206-0.125c0.063-0.15,0.133-0.315,0.209-0.47L128.889,113.497z"/>
		<path fill="#4A73A4" d="M84.016,184.622c-0.115,0.56-0.22,1.07-0.305,1.685C83.928,185.541,83.988,185.043,84.016,184.622z"/>
		<path fill="#4A73A4" d="M93.268,184.298c-0.141,0.568-0.258,1.119-0.295,1.568L93.268,184.298z"/>
		<path fill="#4A73A4" d="M74.775,270.144l0.736,3.435C75.301,271.878,75.047,270.873,74.775,270.144z"/>
		<path fill="#4A73A4" d="M88.294,192.084c0.069,0.234,0.134,0.467,0.218,0.636C88.574,192.242,88.481,191.972,88.294,192.084z"/>
		<polygon fill="#4A73A4" points="420.387,181.853 420.299,181.678 419.946,181.747 		"/>
		<path fill="#4A73A4" d="M427.455,187.46c0.432,0.841,0.845,1.735,1.262,2.61C428.354,189.06,427.904,188.113,427.455,187.46z"/>
		<path fill="#4A73A4" d="M285.207,71.265c0.835,0.532,2.822,1.34,1.792,1.696C288.762,72.575,288.873,71.041,285.207,71.265z"/>
		<path fill="#4A73A4" d="M396.984,176.943c0.579,0.2,1.122,0.554,1.662,0.914C397.757,177.123,396.984,176.489,396.984,176.943z"/>
		<path fill="#4A73A4" d="M398.646,177.856c0.443,0.361,0.91,0.753,1.333,1.064C399.556,178.522,399.102,178.163,398.646,177.856z"
			/>
		<path fill="#4A73A4" d="M262.659,94.81c-0.192-0.203-0.487-0.373-0.89-0.422C261.89,94.794,262.21,94.881,262.659,94.81z"/>
		<path fill="#4A73A4" d="M429.065,192.427c0.425,0.119,2.051,3.018,3.12,4.667c1.072,1.644,1.723,1.982,0.204-3.152
			c1.12-0.167,1.923,1.386,2.59,3.313c0.658,1.928,1.183,4.216,1.829,5.525c-0.069-2.159,1.663,0.611,2.257-0.216
			c-0.655-1.317-1.737-2.778-2.301-5.089c0.642-1.357,2.408,1.901,2.802,4.746c0.176-3.708,2.918,3.825,2.429-1.226
			c-1.854-5.043-3.692-9.249-5.785-12.895c-2.087-3.646-4.451-6.729-7.414-9.444c2.896,5.221,5.884,11.301,6.563,16.241
			l-2.481-1.323c-0.206-5.746-2.631-8.5-4.578-13.515c1.292,3.847,2.449,7.729,3.48,11.631c0.319,5.86-1.222,2.377-3.063-1.619
			C429.067,191.094,429.295,192.053,429.065,192.427z"/>
		<path fill="#4A73A4" d="M410.538,191.345l0.021,0.188c0.12,0.121,0.235,0.285,0.349,0.348L410.538,191.345z"/>
		<path fill="#4A73A4" d="M113.623,266.493l0.798,0.809C114.033,266.607,113.794,266.4,113.623,266.493z"/>
		<path fill="#4A73A4" d="M416.496,181.577l0.004,0.006C416.448,181.524,416.44,181.506,416.496,181.577z"/>
		<path fill="#4A73A4" d="M113.576,244.83c0.05,0.033,0.105,0.067,0.163,0.125C113.682,244.873,113.626,244.87,113.576,244.83z"/>
		<path fill="#4A73A4" d="M72.639,235.092c-0.093,0.042-0.18,0.05-0.278,0.159C72.416,235.845,72.531,235.571,72.639,235.092z"/>
		<path fill="#4A73A4" d="M113.4,244.803c0.058,0.002,0.117-0.008,0.177,0.027C113.514,244.81,113.456,244.768,113.4,244.803z"/>
		<path fill="#4A73A4" d="M148.079,144.917c0,0-0.479,0.033-1.083,0.229C146.987,145.423,147.286,145.404,148.079,144.917z"/>
		<path fill="#4A73A4" d="M132.25,160.282c-0.138,0.076-0.236,0.109-0.404,0.213L132.25,160.282z"/>
		<path fill="#4A73A4" d="M280.123,61.977c-1.291-0.138-2.265-0.177-3.088-0.154C277.973,61.94,278.992,62.025,280.123,61.977z"/>
		<path fill="#4A73A4" d="M113.738,244.955c0.189,0.229,0.383,0.549,0.614,1.068C114.107,245.45,113.912,245.142,113.738,244.955z"
			/>
		<path fill="#4A73A4" d="M167.01,115.041l-0.45,0.585c0.136-0.054,0.259-0.122,0.398-0.167L167.01,115.041z"/>
		<path fill="#4A73A4" d="M177.744,109.587c-0.232,0.398-0.272,0.688-0.358,0.98c1.584-1.463,4.18-2.992,6.379-4.375
			c2.199-1.386,3.995-2.659,3.943-3.778c-0.637,0.349-2.754,1.147-4.645,1.687c-1.885,0.542-3.552,0.823-3.292-0.024
			c-2.359,1.937-6.913,3.098-8.103,4.296c4.803-1.74,1.354,1.14-0.996,3.572c-2.838,1.216-0.458-1.69-2.833-0.513
			c-1.893,1.407-3.755,2.85-5.584,4.334c1.686-1.171,3.399-2.299,5.123-3.406l-0.366,2.682l0.395-0.512
			c3.937-3.349,4.566-2.818,5.136-2.404C173.136,112.564,173.668,112.886,177.744,109.587z"/>
		<path fill="#4A73A4" d="M177.386,110.567c-0.472,0.443-0.862,0.867-1.115,1.273C177.061,111.306,177.27,110.939,177.386,110.567z"
			/>
		<path fill="#4A73A4" d="M215.906,96.46c0.468-0.213,0.968-0.471,1.593-0.811C217.2,95.812,216.492,96.125,215.906,96.46z"/>
		<path fill="#4A73A4" d="M122.454,340.892c0.208-0.226-0.185-1.754-0.751-3.126c-0.57-1.371-1.33-2.591-1.97-2.186
			c0.709,1.604,1.431,3.219,2.188,4.831L122.454,340.892z"/>
		<path fill="#4A73A4" d="M327.529,93.471c-0.608-0.306-1.237-0.575-1.878-0.813c-0.164,0.014-0.325,0.038-0.456,0.068
			C325.494,93.091,326.845,93.342,327.529,93.471z"/>
		<path fill="#4A73A4" d="M181.049,102.524c-0.86,0.749-1.166,1.21-1.278,1.551C180.332,103.609,180.813,103.111,181.049,102.524z"
			/>
		<path fill="#4A73A4" d="M326.478,96.945c0.617,0.727,1.494,1.827,1.422,2.431c1.565,0.699,2.99,0.478,4.708,0.973
			C330.719,99.694,328.699,98.615,326.478,96.945z"/>
		<path fill="#4A73A4" d="M332.747,100.384c-0.049-0.007-0.097-0.023-0.14-0.035C332.652,100.369,332.698,100.373,332.747,100.384z"
			/>
		<path fill="#4A73A4" d="M123.728,344.229c0.365,0.374,0.732,0.762,1.104,1.163l-0.783-0.475l1.823,3.679
			c0.353,0.355,0.729,0.748,1.132,1.264c-0.188-0.191-0.435-0.272-0.643-0.283l0.586,1.185c1.564,0.906,3.741,2.827,5.833,4.625
			c2.087,1.804,4.092,3.488,5.167,4.089c2.421,1.939,5.112,4.471,6.572,6.267c-1.414-1.605-3.501-3.568-3.601-2.355
			c1.08,1.958,1.515,3.76,2.544,5.597c1.028,1.828,2.66,3.707,6.162,5.588c-1.072-1.034-2.125-2.085-3.167-3.15
			c3.133,1.632,6.288,3.148,9.466,4.537c0.803,1.68-0.389,1.171-2.014,0.202c-1.628-0.961-3.643-2.423-4.565-2.482
			c3.342,2.15,5.469,5.047,7.423,7.462c1.941,2.414,3.689,4.327,6.009,4.316c-0.676,1.65-1.833,4.515,2.499,7.514
			c-1.851-3.813,3.256,0.827,2.035-2.698c1.997,0.258,4.311,3.84,5.3,2.925l-0.8,0.321c2.859,3.612,5.609,4.842,8.025,5.242
			c2.427,0.402,4.564-0.028,6.511,0.255c4.687,2.177,8.009,3.903,11.151,5.509c3.139,1.6,6.103,3.068,10.093,4.415
			c-0.11,1.188,0.973,5.022,4.328,6.007c1.014-0.495,3.417-0.31,5.734-0.292c2.316,0.028,4.535-0.095,5.163-0.966
			c-2.806-1.179-4.089-1.135-5.155-0.838c-1.064,0.294-1.891,0.825-3.706,0.494c-2.225-2.943,0.362-2.047-3.097-4.568
			c1.415,0.938,5.036,1.874,8.679,2.78c3.644,0.917,7.31,1.816,8.864,3.166l-1.31-0.012c2.684,1.23,4.074,3.089,6.1,4.502
			c2.016,1.4,4.711,2.402,9.796,1.524c1.604-0.211,3.2-0.455,4.786-0.718c-0.242,0.179-0.292,0.412-0.427,0.577
			c3.801,0.46,5.153,1.145,6.635,1.605c1.474,0.444,3.097,0.683,7.363-0.171c-0.659,0.133-0.247,0.363-0.919,0.483
			c2.422,0.602,4.881,0.298,7.149-0.249c2.276-0.543,4.365-1.351,6.159-1.701c2.338,1.514-0.405,1.691-1.738,2.971
			c4.319,0.092,8.757-0.892,12.635-2.319c3.892-1.419,7.22-3.267,9.568-4.782c1.829-0.024,3.661-0.103,5.503-0.19
			c-2.96,1.418-6.545,3.906-5.376,4.709c2.929-0.943,2.185-1.565,6.442-2.223c-0.465,1.213-2.004,2.597-3.748,4.345
			c4.637-0.083,4.914-1.176,4.893-1.946c-0.016-0.789-0.336-1.277,3.136-0.476c2.763-0.71,3.904-2.689,3.826-4.015
			c1.78,0.068,3.565,0.098,5.362,0.105c0.017-0.871,1.502-1.819,3.435-2.785c1.934-0.97,4.315-1.972,6.164-2.856
			c0.191-0.828-3.687-0.419-4.903,0.705c-0.152-1.317,3.62-3.399,6.144-4.466c1.139,1.412,5.271-0.515,8.837-2.332
			c3.562-1.811,6.614-3.471,6.138-0.891c5.293-3.467,11.539-7.735,16.981-12.15c5.465-4.382,10.115-8.879,12.69-12.136
			c2.665-1.055,6.72-4.87,5.419-1.396c3.693-3.481,5.725-6.882,7.717-10.192c1.987-3.332,3.935-6.577,7.361-10.179
			c0.864-0.365-2.768,3.521-1.666,3.975c1.53-2.961,3.625-5.052,5.991-7.563c2.351-2.51,4.987-5.442,7.292-9.998
			c-0.853,1.479-0.528,2.282-0.352,2.68c-0.572-0.161,1.251-4.157,2.08-6.703c1.004-1.119-0.642,1.899,0.157,1.415
			c5.756-8.025,8.896-16.287,11.192-24.604c2.287-8.355,3.782-16.774,5.96-26.115c-1.258,5.319,0.345,7.914,1.241,8.229
			c0.496-1.758,0.953-3.526,1.392-5.298c-0.609-2.31,0.25-6.307-0.003-9.812c0.504-0.33,1.232-1.898,1.482-0.13
			c2.063-5.13,1.566-9.527,0.798-14.094c-0.777-4.593-1.8-9.35-1.19-15.83c1.536,5.245,2.835,10.633,3.874,16.139
			c0.658-1.279,1.302-2.57,1.926-3.876c0.533,2.434,1.021,4.894,1.448,7.374c1.741-4.208-0.952-8.195,0.813-8.588
			c0.432,0.943,0.116,3.142,1.04,3.285c0.986-4.137-0.304-4.557-0.504-7.694c1.616,4.188,2.076,10.461,1.787,16.759
			c-0.262,6.306-1.269,12.603-1.845,17.051c-0.039,1.431-0.561-1.362-0.866-1.679c-0.68,3.57-2.245,5.407-2.865,9.944
			c0.661,3.134,1.667-1.783,2.353-3.939c1.175,0.62,0.829,1.713,0.346,4.208c-0.913,0.033-1.974,3.331-3.342,6.874
			c-1.348,3.547-3.01,7.339-4.581,8.457c-2.184,6.301-1.04,6.227,0.095,6.071c0.555-0.083,1.077-0.192,1.093,0.465
			c0.017,0.657-0.455,2.099-1.999,5.048c-1.151,0.93-2.306,1.844-3.469,2.736c-0.966,3.77-2.358,8.02-4.211,12.206
			c-1.841,4.188-4.148,8.306-6.778,11.813l0.975-1.566c-0.03-1.489-1.584-0.089-2.439,0.403c-2.181,2.476-3.675,5.21-5.158,7.591
			c-1.478,2.377-2.945,4.385-4.968,5.289c-1.536,3.557-4.136,7.947-7.151,12.239c-3.01,4.294-6.443,8.465-9.359,11.771
			c-1.749-0.201,0.031-2.479,2.331-5.228c2.31-2.739,5.096-6.015,5.733-7.869c-1.796,1.88-3.631,3.721-5.507,5.521
			c3.446-3.374,4.052-5.467,4.926-8.553c-2.485,2.286-3.738,4.18-4.9,6.147c-1.166,1.961-2.231,3.999-4.422,6.41
			c-0.103-0.868-1.022-0.6-3.273,1.333l0.485,1.862c-0.137-0.071-0.473,0.045-1.248,0.559c-2.719,2.742-5.526,5.417-8.438,7.993
			c2.418-0.871,3.435,0.255,5.846-1.596c-1.477-0.131,0.429-1.856,2.773-3.758c-1.325,2.569,2.882-1.151,3.43-0.416
			c-4.657,3.965-10.521,8.668-13.573,11.336l-1.979-0.569c-4.985,2.957-9.767,6.896-13.447,8.418l0.658-1.346
			c-6.227,3.011-11.938,6.969-18.209,7.976c-4.911,4.141-11.8,8.245-16.205,11.564c-1.022,1.389-5.697,2.138-10.874,2.809
			c-5.184,0.703-10.843,1.304-14.152,3.277c-0.501-0.136,4.601-2.31,6.795-3.567c-4.644,0.596-7.983,3.661-9.761,1.725
			c5.276-0.408,5.06-0.869,4.109-1.305c-0.954-0.454-2.619-0.963-0.354-1.641c-4.799,0.848-9.861,1.792-12.192,2.778
			c3.95-0.392,3.335,0.395,2.709,1.111c-0.63,0.7-1.256,1.309,2.733,0.367c-6.022,2.61-14.771,3.937-22.354,3.177
			c0.076-0.945-0.855-1.356-3.646-1.807l-2.305,1.29c-1.764-0.186-0.035-0.525,1.231-0.917c1.271-0.403,2.077-0.825-1.434-1.183
			c-3.671,1.039-9.155,0.342-14.077-0.32c-4.932-0.655-9.333-1.233-11.304,0.584c-2.609-1.344,0.1-1.267,2.439-1.361
			c2.352-0.101,4.313-0.327,0.377-2.003c2.504-0.362,5.316,0.095,7.759,0.372c2.441,0.282,4.499,0.38,5.378-0.612
			c-4.716,0.146-1.514-1.971-4.483-2.314c-1.76,0.229-3.531,0.443-5.312,0.619l1.127,0.25c-4.466,0.385-10.141-0.336-15.981-1.677
			c-5.849-1.325-11.848-3.264-17.208-4.958c-4.85-0.553-9.113-0.821-13.505-1.606c-4.379-0.799-8.904-2.111-14.031-4.983
			c1.827,0.251-0.187-1.151-1.664-2.469c-1.478-1.331-2.429-2.515,1.301-1.759c-4.11-3.526-9.205-5.194-9.809-4.475
			c3.841,2.758,1.236,1.146,4.418,3.591c-2.911-0.363-8.188-3.766-9.864-5.837c0.933,0.735,0.686,0.298,1.097,0.148
			c-2.126-1.892-2.828-2.058-3.475-1.977c-0.646,0.083-1.223,0.402-3.033-0.606c-0.062-1.028-1.825-2.44-3.849-4.019
			c-2.024-1.573-4.315-3.313-5.476-4.832c-1.87-0.577-3.736-1.191-5.602-1.838c1.619,0.438,0.722-0.529-0.524-1.812
			c-1.248-1.285-2.826-2.915-2.663-3.704c-3.519-1.918-7.211-2.935-10.991-7.626c1.129,0.644,0.396-0.542-0.447-2.045
			c-0.85-1.495-1.806-3.306-1.265-3.839c-2.75-4.296-6.127-6.907-9.37-9.678c-3.227-2.757-6.313-5.679-8.034-10.343
			c0.465,0.066,2.347,1.151,1.146-1.414c-1.556-1.63-3.417-5.035-4.735-7.007l0.074,0.044c-0.035-0.032-0.063-0.051-0.098-0.087
			c-0.647-0.967-1.171-1.508-1.504-1.354c-1.635-1.415-3.039-2.416-4.629-3.902c-1.591-1.488-3.393-3.454-5.696-6.893
			c-1.338,1.285,2.318,7.273,4.268,9.622l2.735,1.449c-0.548,1.708,0.461,3.271,1.644,4.626c1.178,1.361,2.522,2.515,2.642,3.541
			c-2.59-1.27-5.556-5.096-8.403-9.536c-2.853-4.441-5.572-9.475-8.141-13.063c-0.055,2.892,1.047,7.034,2.92,11.496
			c1.854,4.47,4.488,9.237,7.244,13.483c-0.477-1.449-0.934-2.902-1.376-4.352c0.893,1.512,1.798,3.014,2.728,4.502
			c-0.367-1.767-0.707-3.534-1.022-5.297c2.208,4.44,4.896,7.807,7.303,11.561c-2.947-4.339-1.958-7.342-0.715-4.662
			c0.859,2.882,1.949,3.984,3.095,4.808c1.148,0.83,2.36,1.393,3.603,3.196c-1.313-2.067-3.075-4.695-1.105-3.58
			c1.619,4.117,3.143,6.429,4.601,8.646c1.473,2.218,2.881,4.345,4.609,8.083c0.781-1.308,2.425,0.524,4.252,2.55
			c1.822,2.035,3.854,4.251,5.113,3.856c-0.778-0.936-1.554-1.866-2.313-2.813c2.169,1.49,4.353,2.936,6.563,4.322
			c1.681,3.312,0.163,2.651-0.997,2.231c-1.141-0.423-1.951-0.567,1.404,3.834c3.57,3.581,5.903,4.678,8.031,5.536
			c2.144,0.848,4.102,1.451,7.233,3.795c-3.074-0.239-8.917-3.102-13.584-7.529c0.765,1.077,1.535,2.159,2.325,3.227
			c-1.102-0.313-3.279-2.015-5.523-4.086c-2.251-2.063-4.549-4.506-6.052-6.154c3.264,1.968,2.767,1.233,1.314-0.403
			c-1.451-1.638-3.805-4.263-4.333-6.015c-1.645,0.632,1.705,3.997-3.003,0.702c1.741,1.962,2.797,3.036,3.909,4.299
			c1.123,1.252,2.301,2.698,4.444,5.286c-4.815-5.396-7.98-6.884-11.033-8.292c-3.011-1.423-5.892-2.791-9.298-8.327
			c4.223,4.227,0.607-3.089,0.874-4.129c-1.821-2.075-5.356-6.429-6.959-8.139l-0.808,3.075c-2.543-2.828-3.065-5.529-3.755-8.223
			c-0.69-2.709-1.551-5.399-4.708-8.564c-0.894-0.149-0.096,1.581,0.849,3.172c0.934,1.595,2.001,3.047,1.483,2.449
			c-3.653-4.721-5.018-8.616-5.856-12.482c-0.817-3.89-1.111-7.78-2.295-12.863c-0.88-0.263-2.246,0.465-4.791-2.455
			c1.758,0.523,1.431-2.224,3.934,1.14c-0.757-3.403-3.183-6.821-4.725-9.526c0.818,3.532,0.103,3.025-1.011,1.491
			c-1.1-1.532-2.526-4.117-3.14-4.626c-0.933-3.674,1.701,0.664,2.86,2.693c-0.643-2.985,0.312-6.992-2.233-7.995
			c0.707-0.273,2.25,1.449,3.931,3.817c1.675,2.373,3.5,5.386,4.657,7.858c-0.363-1.17-0.706-2.35-1.048-3.526
			c1.596,2.11,1.533,2.625,2.649,6.099c-0.218-3.742,1.152-3.86,2.434-3.487c-0.043,0.509-0.425-0.11-0.471,0.379
			c0.685,2.832,1.926,4.722,2.408,3.797c2.846,1.603-0.341-4.148-0.04-6.319c-0.634-1.313-1.262-2.634-1.86-3.937
			c-3.678-3.93-7.22-8.087-10.621-12.459c-2.373-6.143-1.445-9.399-1.401-14.336l-1.953-1.003
			c-0.833-5.634-0.918-10.981,1.739-7.708c-0.545,0.278-0.312,0.993-0.212,2.21c0.261,0.12,0.471,0.375,0.661,0.7
			c0.119,0.099,0.228,0.148,0.341,0.228c-1.485-5.82-2.185-9.525-2.298-9.857c1.815,4.924,2.665,4.904,3.384,3.893
			c0.732-1.026,1.438-3.064,3.064-2.416c-0.717-3.263-1.35-6.547-1.897-9.86c-0.54,6.137-1.527,0.227-2.044-1.937
			c0.852-0.347,0.738-2.367,0.482-4.756s-0.662-5.153-0.517-6.925l0.355,0.263c0.6-3.269,0.632-8.974,0.482-13.084
			c-0.298,0.071-1.054-1.25-1.908-2.952c-0.849-1.7-1.779-3.786-2.479-5.168c-1.396,7.099-1.635,2.79-2.779,3.252
			c0.162-0.741,0.335-2.086,0.129-2.268c-0.379-1.093-0.804,1.342-1.396,1.493c0.013,7.832,0.057,15.838,2.485,18.969
			c1.104-2.329-0.999-4.023-0.176-6.644c1.492,3.853,1.075,8.676,1.254,15.012l-1.36,2.144c0.369,2.124,0.76,4.241,1.197,6.346
			c-0.493-1.302-1.076-1.525-1.641-2.266c-0.561-0.737-1.118-1.996-1.412-5.387c-0.667,0.461-0.514,2.15-0.197,4.234
			c0.329,2.087,0.819,4.563,0.796,6.658l2.134,1.916c-1.194-0.712-0.321,8.171-2.54,2.05c-0.918-3.369-1.753-6.774-2.498-10.209
			c-0.37,0.989-0.752,1.99-1.109,2.994c-0.352-2.941-0.641-5.891-0.867-8.845l1.079,2.05c-0.947-7.082,0.12-8.153,0.93-9.198
			c0.876-1.063,1.49-2.079,0.642-9.201c-2.11-4.543-2.095-9.473-0.389-18.123c-0.283,6.372,1.542,0.857,2.593,3.384
			c1.761-6.208,0.26-8.601-0.062-12.078c1.52-1.395,2.687-2.339,1.529,3.25c1.22,0.563,1.404-1.297,1.674-3.305
			c0.263-2.007,0.614-4.164,1.973-4.142c0.933-4.583,1.219-7.886,1.156-10.639c-0.048-2.749-0.422-4.939-0.639-7.214
			c-0.206-2.271-0.262-4.636,0.437-7.691c0.701-3.048,2.15-6.804,5.072-11.683l0.668,1.188c2.098-6.826,4.546-11.919,7.124-16.756
			c2.597-4.84,5.334-9.429,8.537-15.223c2.638-2.43,5.328-4.769,8.064-7.018c-0.503,1.054-1.214,3.14-1.433,4.754
			c-0.22,1.616,0.037,2.751,1.368,1.944c-5.05,2.539-7.03,7.541-10.94,11.454c0.358,0.828,1.88-0.812,2.74-1.401
			c-1.624,2.76-3.505,3.574-5.071,7.571c0.592,0.067,3.378-3.672,2.032-0.45c-1.392,1.429-2.781,2.878-4.137,4.362
			c-1.34,3.662-0.789,4.962-0.514,6.308c0.295,1.358,0.303,2.742-1.777,6.719c-0.77-2.106-1.435-6.157-0.261-9.53
			c-1.028,1.825-0.65,0.47-0.314-0.968c0.346-1.429,0.66-2.943-0.58-1.406c-0.288,3.224-1.091,5.299-2.067,7.59
			c-0.963,2.287-2.107,4.79-2.86,8.784c0.042-0.988-0.296-1.383,0.301-3.273c-1.718,3.5-3.34,7.059-4.85,10.674
			c1.08-1.169,0.649,1.235,0.304,3.874c-0.351,2.642-0.606,5.514,0.478,5.255c2.066-5.786,2.7-7.844,3.399-10.119
			c0.732-2.255,1.505-4.755,4.631-11.009c-1.107,3.825-0.98,9.273,0.011,12.059c-0.108,0.088-0.23,0.255-0.396,0.641
			c1.167,2.581,2.337,0.736,5.518,1.866c-0.167-3.245,0.613-5.679,1.596-8.159c0.99-2.484,2.181-5.016,3.011-8.575
			c-1.134-2.009-3.889,2.889-4.754,6.44c0.41-2.13,0.849-4.265,1.339-6.392l0.274,1.496c2.331-4.901,4.868-9.691,7.602-14.358
			c-1.356,2.762-0.867,4.184-0.851,5.962c0.988-1.821,2.362-3.422,3.865-5.071c-1.767-0.434-2.74-1.282-1.722-3.055
			c5.462-8.911,10.145-12.767,13.93-14.692l0.583-1.043c-1.231,0.177-0.855-1.781-0.049-4.242c0.8-2.461,2.05-5.412,2.354-7.254
			c1.345,1.285,4.268-3.479,6.987-5.084c-0.545-2.612-4.188-3.018-7.975-1.248c-1.581,3.418-1.797,4.527-1.667,5.314
			c0.136,0.787,0.64,1.273,0.709,3.454c-1.842,3.375-3.558,6.798-5.168,10.247l0.036-3.054c-3.915,4.232-4.858,10.091-6.521,8.557
			c0.32-3.366,3.831-7.039,4.357-10.343c-0.957,0.879-1.898,1.778-2.839,2.682c0.995-3.413,1.958-3.821,3.05-4.315
			c1.115-0.491,2.35-1.076,4.212-4.775c-3.317,1.246,0.309-0.685,1.515-4.208c-1.405,0.683-3.538,3.625-5.369,5.953
			c-1.838,2.321-3.426,4.029-4.028,2.083c0.672-2.181,3.588-4.593,6.494-7.135c2.904-2.56,5.803-5.24,6.481-8.438l0.087,0.448
			c2.926-3.026,4.614-5.326,5.733-7.295c1.125-1.96,1.677-3.584,2.412-5.115c3.294-1.804,5.954-6.268,8.879-8.948l0.542,0.771
			c1.311-1.308,2.642-2.601,3.993-3.873c-0.951,2.986-5.028,4.112-8.382,7.54l1.61,0.883c-2.709,1.077-4.186,2.863-5.19,4.854
			c-1.012,1.99-1.547,4.2-2.443,6.218c1.54-2.722,4.666-5.685,7.291-8.312c2.619-2.636,4.753-4.954,4.188-6.721
			c1.348-0.381,2.689-0.754,4.034-1.104l0.997-1.639c3.027-0.734,2.03,2.641-1.776,6.412c-0.99,0.278-1.486,0.425-1.511-0.036
			c-1.368,2.248-2.187,4.72-6.763,8.604l1.675-2.89c-5.558,5.065-9.666,10.612-10.047,13.644
			c7.626-7.543,15.338-14.635,23.086-20.992c-0.176-4.922,1.378-8.869,0.49-12.746c2.646-2.374,5.912-5.023,9.313-7.269
			c3.396-2.254,6.91-4.119,9.918-5.057l-0.133,0.906c2.78-1.163,5.103-2.637,6.958-4.067c3.24-0.59-1.025,2.704,1.162,2.161
			c2.772-1.896,5.605-3.724,8.496-5.479c0.056,0.883-1.835,2.186-4.143,3.562c-2.313,1.367-5.042,2.819-6.77,3.815
			c0.597-0.475,1.813-1.431,1.278-1.398c-2.221,0.777-4.888,2.855-7.3,4.646c-2.422,1.788-4.602,3.292-6.104,2.826
			c-1.699,1.582,2.961-3.995-3.616,0.087c-4.837,2.132-4.96,4.91-4.975,5.793c0.237,0.402,2.062-0.501,3.627-1.154
			c1.566-0.656,2.863-1.074,2.019,0.17c3.205-2.281,3.895-4.178,8.707-6.017c-3.346,2.096-6.727,6.576-9.244,6.546
			c-2.703,2.903-3.103,5.127-2.501,6.343c0.609,1.225,2.221,1.482,3.725,0.571c-0.744-0.322,1.807-2.636,3.479-4.293
			c1.666-1.652,2.384-2.776-2.273-0.776c1.364-1.984,3.799-4.1,6.497-6.156c2.694-2.061,5.654-4.051,8.021-5.941l-0.071,0.439
			c2.098-1.297,4.229-2.544,6.384-3.758c-0.73,0.889-2.532,2.272-2.173,3.13c2.638-2.282,5.361-4.496,8.165-6.646
			c-2.3,1.953-1.353,1.845,0.487,1.22c1.84-0.634,4.621-1.72,5.971-1.859c0.466-1.736,3.873-4.173-0.044-3.535
			c-4.449,0.667-2.082,1.654-5.673,3.3c1.413-1.434,2.857-2.852,4.335-4.25l0.534,0.024c0.829-0.996,1.675-1.972,2.533-2.958
			c3.681-1.289,3.242,0.036,2.984,1.003c-0.245,0.989-0.352,1.604,4.011-0.844l-2.035-1.973c5.533-1.715,12.099-2.799,18.201-3.606
			c6.11-0.821,11.755-1.395,15.664-2.557c-2.002,1.751-2.542,4.178,0.611,5.071c-3.422,0.04-10.143,1.364-14.819,2.735
			c-0.506-0.104,0.798-1.188,2.934-2.287c2.131-1.1,5.106-2.195,7.797-2.371c-1.626-1.816-4.89-0.6-7.821,0.665
			c-2.944,1.255-5.57,2.543-6.392,0.59c-6.87,1.001-9.047,2.817-10.962,4.326c-1.919,1.561-3.579,2.845-9.421,3.732
			c0.514,1.794-2.734,2.036-2.674,3.797c2.141,0.78,5.632-0.634,9.61-2.285c3.965-1.658,8.444-3.543,12.157-3.968
			c-0.664,0.317-1.993,0.967-2.166,1.388c5.205-0.869,7.198-1.741,10.648-3.211l-0.5-0.119c2.961-1.571,4.03-1.402,4.806-0.861
			c0.778,0.545,1.288,1.469,3.203,1.553c1.382-0.544,6.61-0.776,5.595-1.997c2.333,0.266,4.65,0.593,6.947,0.95l-0.538-2.044
			c3.833-0.502,4.763,0.82,8.157-0.668l0.056-1.875c-3.228-0.034-6.462,0.021-9.699,0.159c4.836-1.099,1.177-1.954,6.583-2.789
			c-2.96,1.256-1.854,1.424,0.057,1.5c1.912,0.07,4.648,0.116,4.982,0.971c1.302-0.416,2.61-0.806,3.926-1.195l-1,0.529
			c3.131,0.877,3.692-0.794,7.342-0.533c-4.273-1.054-7.198-2.345-12.639-0.709c1.969-0.649,4.948-1.33,7.695-1.801
			c2.745-0.479,5.255-0.761,6.24-0.775c4.287-0.704,7.217,0.86,11.147,1.353c-3.829,0.103-3.238,1.591-3.591,2.715
			c-0.176,0.571-0.578,1.049-1.862,1.278c-1.285,0.225-3.441,0.179-7.164-0.193c0.28-0.361,1.488-0.264,1.952-0.032
			c-0.971-1.218-3.232-1.2-5.626-0.727c-2.397,0.482-4.911,1.424-6.492,1.962c0.88,1.345-2.416,1.804,3.238,2.347
			c-0.935-0.403,0.219-1.225,2.313-1.772c2.092-0.553,5.128-0.821,7.818-0.186l-1.012,2.918c2.579,0.169,5.153,0.388,7.718,0.667
			l-0.73,0.099c1.395,1.026,3.435,1.083,5.8,1.107c2.359,0.024,5.045,0.045,7.601,0.956c1.969-0.275,6.568,0.389,9.938,0.746
			c3.363,0.351,5.567,0.29,2.749-1.898c4.335,2.795,8.965,1.517,14.215,2.639c-2.008-1.004-4.04-1.984-6.097-2.915
			c4.086-0.035,5.506,0.206,6.769,0.213c1.268,0.023,2.376-0.185,5.956-0.781c0.377,0.96,1.515,2.042,0.018,2.433
			c5.063,1.746,11.042,4.284,16.488,6.625c5.459,2.327,10.407,4.434,13.759,4.88c3.306,1.869,4.76,3.754,6.581,5.676
			c1.82,1.941,4.021,3.874,8.745,6.265c2.057,0.928,0.146-3.289,5.401,1.466c0.236,0.442-6.728-2.139-0.297,2.197
			c2.897,0.719,5.315,2.961,7.77,5.41c2.467,2.455,4.965,5.11,8.276,6.813c2.282,3.134,7.132,7.555,4.889,7.857
			c-1.952-2.252-4.548-4.747-6.881-6.654c-2.33-1.911-4.381-3.241-5.145-3.329c1.337-0.293-2.57-3.529,1.331-1.332
			c-3.018-3.441-4.388-4.114-5.64-4.697c-1.279-0.567-2.458-1.037-5.452-3.805c-0.858,0.253,2.166,4.042,3.895,4.612
			c-0.737,0.969-4.03-1.212-6.72-2.689c-2.694-1.486-4.691-2.346-2.652,0.858c3.368,2.511,6.258,3.195,8.895,4.084
			c2.621,0.889,4.985,1.992,6.938,5.385c-3.179-0.81-5.963-4.723-10.485-4.949c1.379,1.474,2.736,2.96,4.059,4.469
			c1.484,0.455,2.97,0.931,4.454,1.429l-0.433,0.106c3.267,4.293,5.411,5.497,7.831,6.324c2.397,0.837,5.038,1.289,8.805,4.371
			c-1.308-2.611-0.349-3.112,0.713-3.43c1.05-0.317,2.181-0.438,1.05-2.353c4.857,4.544,7.772,8.505,5.944,10.118
			c-4.779-3.955-5.415-3.566-5.959-3.151c-0.559,0.451-1.054,0.938-5.764-2.182c0.611,1.902-4.328,0.641-0.073,5.482
			c3.107,2.062,3.113,1.345,3.035,0.666c-0.088-0.662-0.246-1.282,2.505,1.183c0.124,0.471,0.256,0.953-0.182,1
			c3.173,1.71,2.227,3.244,5.889,5.514l-0.991-0.443c1.01,2.415,2.169,3.234,3.282,4.007c1.098,0.776,2.146,1.509,2.775,3.736
			c0.442-2.478,2.933,1.471,5.39,3.088c-0.972-2.032-1.303-3.903-2.065-6.171c-0.772-2.256-1.985-4.923-4.866-8.342
			c-1.795,0.081-1.984,1.065-4.846-1.249c1.28,1.412,2.541,2.844,3.777,4.298c-0.952-0.82-1.84-1.307-2.776-1.994
			c-0.978-1.559-1.969-3.115-2.997-4.649c2.68,2.28,3.761,2.617,4.587,2.507c0.819-0.101,1.368-0.64,2.901,0.056
			c1.815,2.717,2.696,3.725,3.432,4.473c0.723,0.756,1.294,1.254,2.321,3.041c-0.969,0.462,0.183,3.499,1.812,7.304
			c1.64,3.807,3.71,8.419,4.964,11.913c-0.499-1.023-1.31-2.243-1.673-2.947c-1.96-1.904-1.849-0.889-1.308,0.638
			c0.539,1.532,1.471,3.608,1.266,3.839c0.945,0.921,1.885,1.854,2.812,2.803c-0.48-0.563-1.389-1.189-0.858,0.381
			c1.429,2.163,2.537,2.953,3.656,3.751c1.117,0.799,2.236,1.611,3.57,3.877c-0.876,0.844-4.384-2.287-3.507,0.861
			c-0.207,0.717-0.533,2.157-0.352,4.113c0.179,1.961,0.85,4.432,2.621,7.334c0.596,0.268,1.496,1.79,2.412,3.616
			c-0.161-0.24-0.333-0.554-0.458-0.641c0.161,1.545,0.298,3.088,0.414,4.629c-1.579-1.441-2.048-3.295-2.548-5.163
			c-0.499-1.863-1.046-3.735-2.717-5.074l-1.846,0.466c-1.182-2.677-3.646-5.904-5.331-7.07c1.67,4.094,2.513,4.706,4.869,9.079
			c-0.815,1.095-3.012-1.712-3.338-2.101l1.274,0.226c-0.494-2.996-1.865-4.801-3.46-6.645c-1.606-1.846-3.43-3.735-5.053-6.969
			c-0.476-0.987-0.021-0.477,0.41-0.441c-2.24-2.105-3.58-4.661-5.046-7.147c-1.46-2.478-3.048-4.886-5.664-6.505l1.873,0.947
			c-2.848-2.751-8.803-7.738-15.001-12.107l-0.591,0.434c0.199,0.903-1.577-1.19-2.358-2.478h0.015
			c-3.13-2.132-6.169-4.06-8.636-5.616c0.337,0.961,0.892,2.048,1.751,3.07c0.7,0.101,2.079,1.467,3.357,2.581
			c1.276,1.116,2.466,1.977,2.885,0.984c1.198,3.053,5.675,5.774,6.507,8.039c-1.61-4.031,3.247,1.108,4.533,1.08
			c-0.114,1.851,3.765,4.961,2.083,5.485c0.13,0.925-0.284-2.319-2.156-3.154c-1.919-1.288-0.99,0.516-0.168,2.201
			c0.822,1.691,1.53,3.268-0.614,1.51c2.461,2.421,4.822,5.616,7.099,8.899c2.288,3.282,4.489,6.651,6.82,9.439
			c-0.419-1.278-0.854-2.555-1.307-3.829c0.675,1.441,1.964,3.777,2.988,5.886c1.032,2.105,1.793,3.977,1.553,4.399
			c-1.177-2.039-2.38-4.508-4.089-6.995c-0.856,0.377-0.008,1.951,0.907,3.561c0.924,1.606,1.912,3.255,1.459,3.653
			c2.171,2.156,4.299,4.391,6.379,6.706c-0.462-1.2-0.937-2.396-1.424-3.585c1.008,0.882,2.01,3.328,2.916,6.272
			c0.911,2.946,1.725,6.381,2.524,9.254c-1.754-1.222-2.483-3.313-3.226-5.8c-0.737-2.482-1.495-5.369-3.208-8.027
			c-2.69-3.731-1.154,3.516-3.414-0.112c-0.099,1.239,1.045,3.71,2.143,4.728l0.183,1.712c-1.767-1.314-3.326-3.916-5.036-6.683
			c-1.697-2.767-3.568-5.69-5.727-7.641c0.444,0.309,0.872,0.559,1.184,0.568c-1.147-4.163-3.328-7.931-6.032-11.099
			c0.526,2.234,1.38,2.714,2.249,3.652c-0.411,0.416-2.614-2.787-3.943-3.671c1.424,3.581-0.778,1.318,0.131,3.558
			c-1.743-1.806-2.647-3.558-4.099-6.173c-0.137-1.778,1.721,0.392,2.506-0.5c-2.295-2.185-0.837-4.962-4.644-7.88
			c1.617,2.594,0.85,2.639-0.51,1.884c-1.37-0.748-3.379-2.243-4.322-2.806l0.552,0.837c-2.224-0.669-3.251-1.852-3.124-3.646
			c1.983,1.53,3.126,3.65,3.778,2.255c-1.04-1.248-2.108-2.476-3.598-3.624l1.827,0.664c-1.781-2.035-3.61-4.022-5.488-5.959
			c-1.754-0.146-4.452-0.523-6.489-0.072c-0.511-2.125-3.033-3.354-4.608-4.276l0.949,0.213c-0.879-1.58-2.901-3.54-4.88-4.996
			c-1.978-1.46-3.896-2.425-4.483-2.217c-0.646-1.162,3.8,0.312,6.667,0.948c1.438,0.299,2.475,0.363,2.289-0.392
			c-0.193-0.74-1.604-2.329-5.232-5.034c-2.653-2.185-4.037-2.156-5.193-1.792c-1.164,0.37-2.118,1.073-3.991,0.405
			c0,0,0.38-0.148,0.212-0.556c-2.21-1.94-3.22-1.046-5.479-1.955c1.133,1.41,3.145,2.889,4.087,2.98
			c-1.52,0.616-4.815-3.623-7.304-3.88c1.797-0.124,0.766-1.083-0.446-1.945c-1.203-0.868-2.564-1.641-1.313-1.527
			c-2.076-2.142-4.735-3.595-7.28-4.464c-2.548-0.871-4.98-1.163-6.681-1.097c-1.128-2.095-2.736-2.75-4.68-3.32
			c-1.958-0.563-4.24-1.044-6.948-2.78c0.874,0.422,2.669,0.694,3.808,1.495c2.001-0.097,0.59-0.966-0.637-1.689
			c-1.221-0.726-2.242-1.342,0.67-1.031c-1.221-0.197-0.43,0.827,0.809,1.048c2.062,0.645,4.231,0.793,4.063-0.162
			c-1.395-1.187-2.813-2.37-4.265-3.514l1.884,0.321c-2.214-1.711-4.489-3.372-6.826-4.975c-0.328,0.251,0.246,0.93,0.538,1.271
			c-4.289-2.083-9.189-3.561-14.005-4.663c-4.819-1.112-9.551-1.841-13.623-2.659c-1.185,2.309-6.206,2.016-11.846,1.823
			c-5.631-0.229-11.926-0.283-15.16,1.293c1.719-1.432,2.722-3.937,1.606-4.967c1.482-0.208,4.613-2.188,8.042-1.601
			c0.522,0.808,4.641,1.983,1.894,2.716c4.67,0.043,4.413-0.476,3.328-1.287c-1.078-0.805-3.021-1.791-1.551-2.616
			c-5.312-0.143-9.541,0.647-13.199,1.613c-3.662,0.977-6.764,2.147-9.959,2.969l-0.208-0.572c-1.609,0.503-3.203,1.012-4.783,1.563
			c2.005-0.057,3.019,0.652,2.884,1.281c-0.138,0.643-1.398,1.202-3.971,1.013l0.596-0.213c-1.506-0.416-3.732-0.086-6.114,0.468
			c-2.386,0.552-4.924,1.324-7.153,1.7c-0.89,0.743-1.769,1.482-2.632,2.238c-4.393,0.842-5.336-1.968-7.271-3.339
			c-3.532,0.865-6.105,2.281-8.297,3.843c-2.193,1.569-4.01,3.292-6.077,4.901c-1.303-0.204-4.457,0.658-6.695,1.188
			c-2.236,0.527-3.602,0.648-1.329-1.283c-2.734,1.891-2.987,4.326-3.989,6.414c-1.004,2.124-2.704,3.826-8.378,4.884
			c0.597-0.845,1.202-1.688,1.822-2.524c-4.525,2.69-9.519,6.722-13.759,10.439c-4.257,3.714-7.801,7.082-10.049,8.156
			c-0.021-2.987-3.286-1.77-7.076,0.179c-3.79,1.926-8,4.643-10.3,3.831c1.108,0.307-1.465,3.55-1.438,4.373
			c-0.991,0.313-2.382,1.109-2.715,2.924c1.729-1.326,2.119,0.018,2.569,0.748c0.464,0.74,0.934,0.878,2.944-2.694
			c-0.455,5.099-1.981,10.368-7.142,17.196l-1.438-1.201c1.498-1.745,3.029-3.455,4.597-5.126c-1.52-0.314,0.773-3.025,1.242-4.543
			c-2.266,2.307-3.51,3.253-4.273,3.491c-0.762,0.237-1.038-0.232-1.284-0.674c-0.25-0.441-0.466-0.853-1.133-0.478
			c-0.665,0.375-1.782,1.54-3.722,4.316c0.226,1.767,0.293,0.781-1.305,3.928c0.877-1.386-0.006-2.377-1.54-0.188
			c-0.062,0.991-0.129,1.969-0.171,2.953c-2.589,1.122-1.968-0.785-1.146-2.72c0.818-1.925,1.836-3.856-0.229-2.795
			c0.9-2.611,2.598-5.902,3.776-8.516c1.17-2.617,1.79-4.595,0.304-4.668c-3.145,3.215-3.448,5.534-3.779,7.811
			c-0.315,2.302-0.667,4.556-3.626,8.081l-1.386,0.266c-1.166,3.104-0.014,4.416-0.065,6.414c-0.577-0.165-1.367,0.309-2.539,2.006
			c-0.575,5.859-1.761,9.223-1.45,14.715c1.849-6.228,3.646-8.444,5.405-10.645c0.895-1.099,1.808-2.194,2.842-3.765
			c1.037-1.573,2.186-3.622,3.655-6.613c-0.255,1.075-1.533,3.632-2.419,6.181c-0.898,2.542-1.402,5.056-0.417,5.926l-1.569-1.023
			c-1.231,4.188-2.302,8.316-5.045,12.861c0.126-1.123,0.258-2.251,0.415-3.378c-0.936,3.454-2.733,5.835-4.229,8.208
			c-1.485,2.364-2.65,4.718-2.102,7.859c0.801-1.8,1.311-3.303,1.476-4.539c-0.521,3.682-2.167,7.881-3.579,11.572
			c0.213,2.896,0.51,5.76,0.885,8.588c-0.905-0.301-2.075,4.671-2.982,1.944c-1.326,2.702-1.406,4.904-1.157,6.813
			c0.249,1.912,0.807,3.54,0.802,5.225c-1.394,2.796-1.444,1.506-1.437-0.633c0.01-2.134,0.156-5.092-1.054-5.619
			c-1.183,4.02-1.797,8.302-1.895,12.154c-0.108,3.855,0.312,7.277,1.046,9.642c0.446-1.667,0.833-2.458,1.276-2.346
			c-0.61,0.211-0.627,3.534-0.684,5.381l1.19,1.292c-0.853,3.044-1.568,2.641-2.454-0.016c-0.291,2.993,2.083,6.453,0.47,9.542
			c-0.84-2.494-0.939-5.394-0.896-7.976c0.044-2.585,0.212-4.855-0.179-6.199c0.373,5.327-0.502,7.97-1.336,11.047
			c-0.405,1.538-0.785,3.179-0.892,5.283c-0.108,2.104,0.045,4.681,0.782,8.037c-0.561,0.232-1.93-1.976-1.667,0.667
			c0.561,3.033,1.255,3.343,1.969,3.128c0.715-0.221,1.478-0.962,2.269-0.116c-1.328-4.502-0.75-6.767,0.581-9.523l1.071,1.144
			c-0.501,0.223-0.287,3.084-0.681,3.977l2.076,0.524c-2.26-0.13-3.443,4.703-2.03,8.192c1.048-3.871,1.118-2.868,3.494-4.186
			c1.528,2.306,1.158,3.756,0.846,5.318c-0.316,1.552-0.585,3.22,1.227,5.702c-0.799-0.248-2.254-4.985-1.977-0.703
			c0.624,3.477,2.233,2.643,3.292,4.788c-2.397-2.149-3.595-1.173-6.352-3.594c-0.749-3.112-0.829-3.756-1.013-4.363
			c-0.164-0.61-0.429-1.179-1.299-4.223c-0.251,1.829-0.486,3.676-0.674,5.53c-1.247-5.366-2.741-3.627-3.533-3.965
			c-0.19,4.881,0.903,6.546,2.024,7.706c1.144,1.166,2.343,1.857,2.802,4.861c1.896,2.536-1.01-5.571,1.306-1.439
			c0.511,2.765,0.896,3,1.418,3.283c0.53,0.28,1.179,0.624,2.399,3.512l-1.099-0.777c-0.546,2.143,1.283,3.596,2.125,5.633
			c0.637,1.07,1.962-0.077,3.52-0.311c1.577-0.238,3.292,0.423,4.981,4.882c-0.646-0.261-1.015-0.313-1.219-0.239
			c-5.948-1.169-11.899-2.68-17.852-4.526c3.052,10.308,7.213,21.99,12.329,33.507c-0.617,2.03-2.266,0.371-3.817-1.707
			c-1.551-2.069-2.976-4.539-3.419-3.891c-0.666-1.849-1.29-3.708-1.894-5.568c0.655-0.109,1.984,2.633,3.214,4.645
			c1.228,2.016,2.269,3.315,2.135,0.478c-2.653-4.356-3.993-7.82-5.429-11.152c-1.426-3.344-2.952-6.554-5.721-10.774
			c-0.989,1.91,0.167,4.959,1.67,8.287c1.493,3.344,3.338,6.941,3.589,10.339c-0.927-2.533-2.121-4.485-3.351-6.377
			c1.901,5.743,4.229,11.816,7.106,18.129l1.391,1.008c-1.943-4.232-3.092-7.232-3.181-7.648c2.469,5.65,6.563,9.294,8.674,8.502
			l-0.458-0.965l1.685,1.523C122.507,341.692,123.115,342.964,123.728,344.229z M423.546,294.263
			c0.124,0.404,0.295,0.742,0.548,1.025C423.829,294.996,423.57,295.187,423.546,294.263z M92.25,230.752
			c-1.409,8.221-2.513,16.629-2.722,24.699c2.145-7.299,4.533-13.205,5.996-14.393c0.735-0.597,1.234-0.025,1.461,2.134
			c0.243,2.162,0.206,5.914,0.199,11.731l0.326,1.52c0.497-3.045,0.621-8.246,0.618-13.173c-0.666-2.029-2.15-6.389-3.369-10.354
			c-1.242-3.954-2.232-7.483-2.5-7.453c-1.45,1.269-0.444,3.599-1.151,6.204L92.25,230.752z M100.4,226.085
			c1.252-4.378,0.133-3.533-0.606-4.394c-0.19,1.601-0.351,3.199-0.503,4.78C99.605,225.909,99.966,225.667,100.4,226.085z
			 M98.878,221.797c-0.117,0.504-0.231,0.929-0.39,1.135L98.878,221.797z M103.915,310.273c-0.084-0.188-0.126-0.252-0.202-0.432
			c0.278,1.059,0.577,2.113,0.895,3.213C104.595,312.588,104.401,311.761,103.915,310.273z M103.229,300.735l-1.839-0.624
			l0.662,3.045C102.655,302.617,103.166,302.09,103.229,300.735z M103.023,270.984c-2.145-1.612-2.634-7.774-4.86-8.056
			c-0.59-0.37-0.742,0.957-0.835,2.449c0.06,1.656,0.124,3.425,0.233,5.298c0.33,0.035,0.664,0.378,1.013,0.965
			c0.1-1.864,0.55-3.129,1.974-2.508c-1.274,2.466-0.624,3.482,0.298,4.476c0.932,1.001,2.132,1.987,2.104,4.518
			c0.894,0.677,1.07-0.754,0.961-2.523C103.798,273.833,103.412,271.708,103.023,270.984z M368.501,122.622
			c-0.011,0.241,0.054,0.947,0.184,1.878c-1.152-0.5-2.31-0.983-3.467-1.452c-2.32-2.202-4.051-4.688-6.029-6.775
			c-1.976-2.079-4.203-3.759-7.38-4.189c-1.886-2.057-2.364-4.056-2.942-5.827c1.108,0.777,2.115,1.55,2.905,2.268
			c4.021,1.377,6.317,2.704,7.688,3.875c1.369,1.18,1.82,2.229,2.16,3.237c0.334,1.02,0.567,1.994,1.455,3.096
			C363.971,119.83,365.52,121.04,368.501,122.622z M303.672,85.178c0.696,0.035,1.025-0.256,1.025-0.256
			c-15.394,0.291-27.119,0.517-34.91,0.019c0.721,0.845,2.791,1.651,5.054,2.426c2.267,0.769,4.729,1.49,6.298,2.012
			c-1.019,0.506-2.029,1.016-3.03,1.542l-1.643-1.606c-1.697,0.413-3.381,0.868-5.047,1.334c1.304,1.305,5.263,1.313,7.776,2.553
			c0.132-0.16,2.342-0.568,4.861-0.956c2.518-0.396,5.354-0.771,6.634-1.11c-2.181-0.814-4.386-1.592-6.617-2.313
			c0.892,0.378,3.618,0.771,6.571,1.189c2.952,0.408,6.137,0.849,7.967,1.026c0.142-0.446-1.251-1.366-2.85-1.922
			c-1.597-0.557-3.387-0.737-3.955,0.182c-0.248-0.749,1.422-0.792,2.631-0.925c1.201-0.123,1.952-0.357-0.197-1.536
			c2.862-0.197,6.416,0.525,9.673,1.582c3.266,1.05,6.229,2.426,8.071,3.366l-0.047,2.412c3.893,2.233,3.749-1.736,8.28,1.345
			c-3.131-0.921-3.083-0.208-2.872,0.496c0.208,0.716,0.578,1.436-1.85,0.673c1.234,1.376-0.759,2.278,4.002,3.885
			c2.51-0.672,3.584,0.289,4.575,1.271c0.999,0.993,1.919,2.001,4.28,1.592c2.001,1.964-3.326,0.493,1.189,3.029
			c6.025,1.118,6.256,0.038,7.613-1.793c-2.391-1.59-4.165-1.633-5.795-1.597c-1.64,0.043-3.137,0.159-5.132-1.004
			c3.299,0.052,6.631,0.209,9.99,0.479c-1.299-1.258-2.433-1.869-3.469-2.19c1.798,0.609,3.485,0.815,5.072,0.752
			c0.897-0.027,1.722-0.03,2.468,0.008c-4.767-2.551-9.128-4.55-9.523-5.767l1.128-0.676c-1.361-1.708-4.603-2.242-6.241-2.043
			c-4.587-1.746-9.67-1.868-10.236-3.525l2.078-0.342c-2.906-0.831-4.543-1.21-6.351-1.681L303.672,85.178z M126.292,146.039
			c2.695-0.268,5.326-0.639,8.563-2.542c3.265-1.886,7.055-5.331,12.694-11.41l-0.732,1.113c3.821-2.064,6.188-5.389,8.938-8.806
			c2.738-3.391,5.87-6.881,10.809-8.769c-1.552,2.062-2.269,3.032-2.88,4.239c-0.61,1.202-1.126,2.642-2.096,5.642
			c1.092-1.375,2.2-2.748,3.343-4.094c0.19,2.578,3.55-1.464,6.727-3.533c-0.421,1.334-0.818,2.675-1.196,4.01
			c-2.254,0.692-7.004,4.093-6.481,4.463c0.405-0.508-1.6,0.05-4.104,1.288c-2.504,1.229-5.49,3.176-7.019,5.148
			c0.782,0.455,2.93-1.221,4.743-2.289c1.815-1.077,3.221-1.585,2.439,0.977c2.253-3.526,3.752-2.521,6.627-5.594
			c-2.382,3.42,0.69,2.465-0.782,5.295c1.596-1.573,3.229-3.116,4.896-4.625c0.241,0.175-1.512,1.909-2.566,3.419
			c-1.059,1.517-1.441,2.747,1.323,1.878c0.744-1.179,2.693-2.627,4.354-3.93c1.655-1.307,3.025-2.478,2.543-3.282l0.464,0.377
			c2.149-1.248,2.237-2.087,2.495-2.954c0.255-0.858,0.68-1.76,3.573-2.942c-0.428-0.832-1.788-0.774-3.55,0.603
			c-1.341,1.385-0.88,2.593-3.86,4.997c-2.262-0.217,3.907-2.488,0.305-3.007c-0.898-0.126-2.86,1.56-4.451,2.84
			c-1.596,1.272-2.875,2.114-2.585,0.141c1.439-0.925,2.888-1.827,4.351-2.704c-0.993-1.612,2.147-3.647,1.223-4.833
			c2.274-2.371,5.921-2.185,7.863-5.233c0.556-1.723-2.66-2.492,2.586-4.349c2.539,0.161,6.463-1.308,10.34-2.96
			c3.873-1.667,7.718-3.513,9.817-4.546c1.12-0.868,2.256-1.721,3.407-2.561c-0.36-0.483-2.196,0.231-3.682,0.81
			c-1.484,0.579-2.635,0.999-1.684-0.19c1.942-0.943,3.909-1.84,5.894-2.707l-0.23,0.842c2.061-0.568,3.885-1.989,5.639-2.973
			c-1.528,1.868-6.073,2.889-4.552,4.43c2.956-0.628,3.607-0.077,6.108-1.261c-0.531,0.312-0.962,0.646-0.807,0.885
			c2.989-0.503,4.225-1.404,4.889-2.355c0.661-0.95,0.742-1.912,1.399-2.418c2.66-1.999,1.023-2.202-1.294-2.113
			c-2.313,0.081-5.272,0.501-5.182-0.572c5.782-2.132,11.703-3.941,17.726-5.42c-1.448,0.908-2.872,1.847-2.132,2.513
			c2.294,0.002,2.385,0.385,2.679,0.583c0.294,0.208,0.781,0.229,3.861-0.324c-0.435-1.278,1.46-2.018,4.014-2.634
			c2.554-0.623,5.751-1.096,7.933-2.045c2.188,0.928,2.616,1.082-1.93,1.522c0.685,1.638,6.689,0.507,8.873,0.611
			c1.234-0.491,3.375-0.796,4.735-1.201c-1.84-0.816-1.105-1.96,2.922-2.7l0.236-0.359c-3.299-0.264-7.549-0.752-11.503-0.812
			c-3.951-0.07-7.59,0.291-9.55,1.419l1.071-0.987c-3.928-0.317-8.006,1.085-11.501,2.297c-3.509,1.213-6.465,2.228-8.575,1.048
			c0.02-1.335-1.58,0.079-1.897-1.77c-1.746,0.937-3.472,1.892-5.171,2.884l0.918-1.139c-3.102,1-6.169,2.091-9.2,3.265l0.133-0.413
			c-3.856,3.085-6.675,5.684-8.866,7.801c0.303,0.76,0.662,0.874-0.484,2.007c-1.226,0.951-2.233,1.466-3.202,1.777
			c-0.007,0.003-0.007,0.003-0.003,0.012l-0.004-0.009c-2.196,0.731-4.091,0.32-6.885,1.162c2.61-1.372,5.259-2.674,7.942-3.907
			c0.119-1.542-1.14-2.621-5.583-1.654c1.624-0.8,1.886-2.1-0.243-1.31c-0.091,0.418-5,3.366-2.557,3.415
			c-3.731,2.103-9.053,4.021-14.618,6.823c-5.559,2.776-11.354,6.457-15.699,11.509c3.241-3.477,1.486-2.711-0.132-1.911
			c-1.593,0.817-3.045,1.641,0.972-1.784c-3.606,1.342-4.525,2.789-5.269,4.397c-0.749,1.618-1.34,3.401-4.244,5.711
			c-1.001-0.188,3.103-2.576,3.439-4.861c-5.086,3.63-8.372,7.886-11.374,12.169c-3.001,4.306-5.727,8.64-9.776,12.959l-1.655-0.714
			C129.045,141.703,127.671,143.816,126.292,146.039z M115.183,166.737c-0.948,2.064-1.873,4.17-2.763,6.329
			c0.13-0.188,0.228-0.376,0.357-0.574c-0.634,2.217-1.23,4.434-1.766,6.66c1.19-1.722,2.532-2.959,3.342-3.073
			c0.812-0.115,1.071,0.871,0.233,3.611c-0.433-0.744-1.95,0.381-1.461-1.593c-1.311,1.495-3.078,4.078-4.053,6.194
			c-0.982,2.116-1.199,3.716,0.429,3.202c0.299-3.877,1.268-3.939,2.186-3.775c0.933,0.161,1.822,0.535,2.2-2.443
			c0.238,3.493-1.661,5.942-2.045,8.908c-0.166-3.317-3.289-0.611-5.543,3.482c-0.32,2.01-2.47,7.006-2.742,10.394
			c1.876-0.654,1.888,2.316,3.874-2.627c-0.208,1.985-0.776,4.932-2.448,7.972c0.079-1.366,0.546-3.675-0.048-3.681
			c-2.03,1.695-2.646,4.227-3.601,5.458c-0.192,1.131-0.397,2.269-0.562,3.381c0.208-0.295,0.453-0.534,0.722-0.681
			c0.168,1.336,0.345,2.665,0.541,3.986c0.358-5.047,1.229-2.082,2.117-1.817c-1.805-0.548-0.941,3.068-1.204,4.734
			c0.89-1.075,1.781-2.135,2.69-3.176c0.563,1.906-2.644,5.813-0.548,5.283c1.109-3.707,1.812-6.265,2.363-8.771
			c0.558-2.505,0.966-4.955,1.684-8.376c-0.76,0.754-1.521,1.521-2.267,2.297c0.575-3.967,1.6-4.946,2.757-5.972
			c1.165-1.029,2.453-2.116,3.935-6.234c-0.025-1.956,1.165-5.05,2.127-7.768c0.95-2.722,1.662-5.091,0.432-5.776
			c0.15,0.688,1.299-0.307,2.452-1.848c1.147-1.549,2.338-3.629,2.492-5.268c-0.35-2.084,0.674-5.424,1.542-7.947
			c0.863-2.522,1.518-4.254,0.188-3.229c-1.52,2.382-2.177,6.325-4.71,7.498c0.724-1.678,1.463-3.352,2.241-5.012
			c-1.013,0.792-2.013,1.603-3.015,2.424C118.672,167.53,117.404,167,115.183,166.737z M79.931,291.074l0.009,0.239
			c-0.008-0.093-0.026-0.178-0.042-0.26L79.931,291.074z"/>
		<path fill="#4A73A4" d="M421.477,185.007c1.233,1.248,2.609,5.054,3.598,3.822c-0.69,0.319-1.393-1.349-2.049-2.73
			C422.376,184.71,421.791,183.609,421.477,185.007z"/>
		<path fill="#4A73A4" d="M421.9,190.004c0.44,0.132,0.912-0.262,1.599,1.405c-0.704-1.501-1.42-2.994-2.168-4.471L421.9,190.004z"
			/>
		<path fill="#4A73A4" d="M413.921,198.152c1.856,1.881,2.964,3.143,3.987,6.8c-1.56,1.213-2.245-0.191-3.049-1.945
			c-0.795-1.759-1.748-3.875-3.646-4.086c0.968,3.244,2.314,5.123,3.691,6.878c1.364,1.757,2.757,3.387,3.626,6.097
			c0.398-1.552,0.032-5.196-0.894-8.345C416.722,200.396,415.27,197.774,413.921,198.152z"/>
		<path fill="#4A73A4" d="M408.513,196.921c0.695,1.064,1.381,2.139,2.052,3.225l0.084-0.42c-0.678-1.086-1.364-2.164-2.066-3.225
			L408.513,196.921z"/>
		<path fill="#4A73A4" d="M383.481,107.303c0.441-1.143-2.431-2.08-3.766-2.792C380.614,105.333,381.725,106.641,383.481,107.303z"
			/>
		<path fill="#4A73A4" d="M399.351,387.691c7.575-8.57,14.357-17.788,20.253-27.504c-2.557,4.184-5.196,8.103-8.359,12.486
			C408.062,377.042,404.358,381.884,399.351,387.691z"/>
		<path fill="#4A73A4" d="M279.968,71.077c4.436-0.115,7.707-0.446,11.017-0.632c3.306-0.178,6.657-0.214,11.189,0.52
			c-5.654-2.426-9.812-2.169-13.608-1.819c-3.825,0.376-7.311,0.851-12.215-0.712C277.575,69.301,278.78,70.179,279.968,71.077z"/>
		<path fill="#4A73A4" d="M284.092,62.272c0.639,1.167-1.204,1.584-3.039,1.975c-1.835,0.377-3.667,0.739-3.074,1.579
			c3.064-0.007,3.827-0.43,4.514-0.791c0.686-0.348,1.297-0.642,4.065-0.2C285.747,63.982,284.926,63.115,284.092,62.272z"/>
		<path fill="#4A73A4" d="M313.049,105.466c-0.837,0.099-1.673,0.215-2.505,0.332l1.851,0.198L313.049,105.466z"/>
		<path fill="#4A73A4" d="M242.192,64.167l0.956-0.597c-1.554-0.064-3.109-0.108-4.669-0.136
			C239.722,63.669,240.961,63.905,242.192,64.167z"/>
		<path fill="#4A73A4" d="M244.108,62.967l-0.959,0.602L244.108,62.967z"/>
		<path fill="#4A73A4" d="M308.83,108.937c0.983,0.492,1.963,0.987,2.936,1.497l1.858-0.381
			C312.031,109.648,310.427,109.288,308.83,108.937z"/>
		<path fill="#4A73A4" d="M282.124,91.103c1.073-0.106,2.15-0.192,3.229-0.277C284.717,90.856,280.516,89.437,282.124,91.103z"/>
		<path fill="#4A73A4" d="M214.369,68.528c-1.384,0.661-2.757,1.338-4.115,2.035l0.501,0.075c1.355-0.689,2.723-1.364,4.101-2.02
			L214.369,68.528z"/>
		<path fill="#4A73A4" d="M257.64,96.017c2.143,1.568-6.007,0.716-1.656,1.992C259.769,97.602,258.213,96.802,257.64,96.017z"/>
		<path fill="#4A73A4" d="M210.268,93.331c-0.508,0.169-1.02,0.417-1.471,0.771C209.384,93.821,209.868,93.558,210.268,93.331z"/>
		<path fill="#4A73A4" d="M210.268,93.331c1.642-0.562,3.479-0.479,4.466-1.288C212.45,91.964,211.779,92.489,210.268,93.331z"/>
		<path fill="#4A73A4" d="M192.115,101.215l1.462-0.569c-1.087,1.426-0.459,0.99,0.547-0.212c1.478-0.756,1.179-1.184,1.209-1.597
			l0.67-1.016c-0.384,0.408-0.717,0.789-0.999,1.116C192.648,100,191.274,100.776,192.115,101.215z"/>
		<path fill="#4A73A4" d="M113.231,128.971c4.747-4.828,6.183-5.859,6.899-4.748c2.244-2.238,2.825-3.512,3.104-4.659
			c0.284-1.139,0.269-2.135,1.424-3.708c-2.424,2.699-3.948,4.258-5.567,5.979C117.484,123.565,115.782,125.46,113.231,128.971z"/>
		<path fill="#4A73A4" d="M124.658,115.856l1.696-1.882C125.58,114.694,125.076,115.297,124.658,115.856z"/>
		<path fill="#4A73A4" d="M217.858,106.133c-0.84,0.963-1.663,1.929-2.469,2.903l1.037-0.642L217.858,106.133z"/>
		<path fill="#4A73A4" d="M106.617,136.529c0.803-0.966,1.96-2.613,2.913-3.126C108.695,132.312,105.802,137.488,106.617,136.529z"
			/>
		<path fill="#4A73A4" d="M141.69,133.982c0.978,0.108,3.26-2.921,4.583-3.765C144.598,131.622,141.624,131.261,141.69,133.982z"/>
		<path fill="#4A73A4" d="M100.597,155.457c0.685-1.017,2.405-2.161,2.903-0.917c0.177-0.917,0.1-2.18-0.348-2.475
			C102.706,151.77,101.855,152.447,100.597,155.457z"/>
		<path fill="#4A73A4" d="M134.332,141.872l0.878-0.361c0.657-1.205,1.33-2.404,2.018-3.6
			C136.246,139.222,135.274,140.537,134.332,141.872z"/>
		<path fill="#4A73A4" d="M157.613,144.686c0.878-1.981-0.905-1.509-2.436-1.243c-1.514,0.273-2.799,0.312-0.737-2.705
			c-3.836,2.74-3.289,3.032-2.445,3.164c0.853,0.147,2.017,0.191-0.381,2.571C154.692,143.913,157.46,143.972,157.613,144.686z"/>
		<path fill="#4A73A4" d="M151.613,146.472c-0.45,0.368-0.909,0.792-1.364,1.294C150.803,147.256,151.245,146.841,151.613,146.472z"
			/>
		<path fill="#4A73A4" d="M111.777,191.743c0.081-0.654,0.086-1.12,0.066-1.563C111.772,190.694,111.737,191.196,111.777,191.743z"
			/>
		<path fill="#4A73A4" d="M139.134,164.009c0.536-2.119,1.124-4.238,1.758-6.36c-0.643,2.119-2.491,5.266-3.788,8.038
			c-1.309,2.766-2.108,5.11-0.96,5.448c2.145-2.552,3.868-6.161,4.026-8.079L139.134,164.009z"/>
		<path fill="#4A73A4" d="M71.663,222.135l-0.341-3.468c-0.332,1.367-0.658,2.735-0.958,4.111
			C70.891,221.641,72.23,224.052,71.663,222.135z"/>
		<path fill="#4A73A4" d="M70.191,223.575l0.173-0.798C70.281,222.945,70.217,223.197,70.191,223.575z"/>
		<path fill="#4A73A4" d="M115.772,179.885c1.084-1.849,1.788-3.398,2.342-5.314C117.324,175.063,114.567,179.68,115.772,179.885z"
			/>
		<path fill="#4A73A4" d="M72.649,245.747c-0.059-1.816-0.089-3.634-0.093-5.455c-0.087,1.981-0.13,3.961-0.157,5.94L72.649,245.747
			z"/>
		<path fill="#4A73A4" d="M69.266,271.411l-0.349,0.992c0.412,1.503,0.844,3.003,1.286,4.493l0.328-1.01
			C70.09,274.401,69.672,272.911,69.266,271.411z"/>
		<path fill="#4A73A4" d="M114.494,241.329c0.481-2.87-1.308-5.371-1.832-4.66c-0.18,1.902-0.321,3.81-0.437,5.718
			c1.932-1.308,0.052-1.589,0.845-4.851C113.528,238.812,114.002,240.076,114.494,241.329z"/>
		<path fill="#4A73A4" d="M170.643,424.59c-1.001,0.138-3.14-0.938-4.966-2.234c-1.828-1.293-3.335-2.799-3.2-3.396
			c1.159,0.157,5.023,1.955,3.138-0.06c-2.272-0.228-4.551-0.506-6.84-0.83c-2.94-3.091-1.063-2.99,1.993-2.019
			c3.059,0.983,7.384,2.703,9.381,3.254c-3.467-2.258-5.925-3.362-8.472-4.499c-2.54-1.145-5.168-2.328-8.74-4.952
			c1.946,1.761,2.881,3.309,3.661,4.633c-0.464,0.946-2.301,0.05-4.605-1.559c-2.308-1.605-5.049-3.938-7.431-5.755
			c2.425,3.081,0.222,2.339-2.487,1.201c-0.433-0.27-0.77-0.388-1.047-0.431l-0.922-0.387l0.564,0.463
			c-0.188,0.148-0.25,0.474-0.086,1.109c4.343,2.761,6.425,6.502,9.122,8.477c-0.324-2.343,2.051-0.83,5.073,1.354
			c3.018,2.191,6.762,5.017,8.818,5.633c1.424,0.73,2.855,1.441,4.293,2.138l1.559,0.874c0.132,0.497-0.544,0.68-3.259-0.114
			c1.157,0.291,3.371,1.419,5.299,2.277c1.93,0.858,3.563,1.458,3.503,0.81c5.136,2.645,10.394,5.056,15.754,7.225
			c0.447,0.332,0.882,0.696,1.165,1.072c0.64,0.021,0.798-0.106,0.788-0.296c23.447,9.218,48.787,13.666,73.867,13.091
			c-3.724-0.201-6.921-1.008-10.708-1.518c2.888-1.04,1.328-1.186-0.714-1.348c-2.047-0.167-4.584-0.403-3.691-1.416
			c2.575-0.613,6.24-0.232,8.441,0.311c0.831-1.065-2.272-2.081-1.872-3.366c-4.542-0.813-7.198-0.048-9.908,0.772
			c-2.697,0.807-5.446,1.664-9.914,0.682c0.536-1.243,3.421-1.973-2.426-2.614l1.519-0.063c-4.769,0.057-6.465-1.037-7.745-1.735
			c-1.289-0.721-2.165-1.081-5.434,0.037l0.542-1.796c-2.221,0.254-5.365-0.105-8.51-0.715c-3.145-0.605-6.286-1.46-8.559-2.046
			l0.375-0.261c-6.587-0.976-8.374-1.598-10.285-2.334c-1.903-0.79-3.965-1.688-10.928-4.29c2.376,0.27,4.741,0.504,7.102,0.675
			c-4.314-2.761-6.296-1.081-9.527-2.843c0.392-0.225,0.208-1.791,3.456-0.684c-5.838-1.423-11.655-3.15-17.419-5.179
			C165.929,420.991,170.427,423.575,170.643,424.59z"/>
		<path fill="#4A73A4" d="M152.937,409.854c-0.709-0.639-1.542-1.324-2.602-2.034C151.28,408.607,152.117,409.256,152.937,409.854z"
			/>
		<path fill="#4A73A4" d="M271.855,451.484c-1.762,0.087-3.526,0.149-5.288,0.184C268.206,451.756,269.92,451.74,271.855,451.484z"
			/>
		<path fill="#4A73A4" d="M130.481,396.209c1.621,2.908-2.654-0.682-3.554-0.586c2.723,2.694,5.521,5.312,8.391,7.848
			c0.441-0.572,1.823-0.43,2.084-1.075C135.048,400.389,132.74,398.326,130.481,396.209z"/>
		<path fill="#4A73A4" d="M136.945,406.686c0.624-0.124,1.84,0.332,3.163,0.871c-1.621-1.333-3.21-2.702-4.786-4.087
			C134.99,403.899,135.186,404.74,136.945,406.686z"/>
		<path fill="#4A73A4" d="M161.206,376.872l1.295,1.025l2.265,1.175C163.573,378.354,162.385,377.624,161.206,376.872z"/>
		<path fill="#4A73A4" d="M180.316,394.824c-1.14-1.967-4.754-3.338-5.966-3.84c1.83,1.214,2.302,1.628,2.821,2.023
			C177.69,393.4,178.253,393.78,180.316,394.824z"/>
		<path fill="#4A73A4" d="M182.206,382.152c1.202,0.556,2.414,1.086,3.628,1.603l-0.195-0.377
			C184.492,382.989,183.347,382.58,182.206,382.152z"/>
		<path fill="#4A73A4" d="M308.714,438.566c0.772-0.237,1.522-0.474,2.3-0.732C309.947,438.116,309.263,438.35,308.714,438.566z"/>
		<path fill="#4A73A4" d="M266.908,446.073c2.976,0.455,3.999,0.769,3.896,1.078c-0.104,0.312-1.329,0.593-2.817,0.894
			c-2.971,0.6-7.021,1.147-5.127,2.502c2.202-0.304,4.394-0.625,6.575-1.003l-0.536,0.737c2.682-0.158,5.357-0.374,8.028-0.652
			c-1.734-1.107-2.961-1.12-2.683-2.434c5.303-0.086,6.175,0.152,6.708,0.646c0.535,0.468,0.719,1.153,4.743,1.51
			c3.979-0.56,7.945-1.233,11.881-2.046l-0.892,0.557c0.997-0.203,1.406-0.455,1.71-0.726c13.25-2.778,26.174-6.992,38.46-12.518
			c3.172-1.924,1.988-2.063,0.575-2.192c-1.423-0.14-3.077-0.31-1.014-2.226c-3.818,1.67-8.765,3.238-12.754,4.596
			c-3.986,1.375-7.029,2.584-7,3.929c0.169-0.422,0.487-1.26-1.218-1.07c-1.336,1.14-2.699,2.259-4.085,3.362
			c1.555-0.181,3.107-0.385,4.664-0.609c-2.052,1.722-7.009,3.519-11.88,4.578c-4.87,1.071-9.606,1.427-11.129,0.994
			c4.404-1.101,5.343-2.146,6.761-2.989c0.706-0.423,1.53-0.811,2.955-1.179c1.425-0.37,3.447-0.718,6.553-1.158
			c-0.712-0.493-3.178-1.053-0.573-2.088c-6.908,2.164-13.686,3.371-20.528,4.39C281.333,443.968,274.415,444.813,266.908,446.073z"
			/>
		<path fill="#4A73A4" d="M396.328,387.926l0.088,0.244C396.51,387.896,396.502,387.771,396.328,387.926z"/>
		<path fill="#4A73A4" d="M392.698,391.139c-1.076,2.242-2.2,4.48-3.386,6.701c2.682-2.547,5.298-5.162,7.822-7.857l-0.718-1.813
			c-0.33,1.019-2.434,4.395-4.003,4.938L392.698,391.139z"/>
		<path fill="#4A73A4" d="M384.074,404.453c1.972-2.149,2.515-3.59,2.215-4.304c-0.301-0.717-1.442-0.717-2.925-0.074
			c1.652-2.063,2.526-2.101,3.16-2.121c0.628-0.02,1.023-0.018,1.597-2.048c-0.55-0.512-1.854,0.468-3.148,1.709
			c-1.299,1.237-2.606,2.732-3.077,3.313L384.074,404.453z"/>
		<path fill="#4A73A4" d="M348.072,427.015l1.038-1.511c-1.209,0.541-2.421,1.079-3.641,1.599L348.072,427.015z"/>
		<path fill="#4A73A4" d="M349.111,425.504c1.197-0.545,2.396-1.094,3.584-1.662c-0.55-0.433-1.088-0.854-1.856-0.935
			L349.111,425.504z"/>
		<path fill="#4A73A4" d="M361.942,419.118c1.5-0.757,3.132-1.651,5.041-2.862C365.316,417.238,363.635,418.188,361.942,419.118z"/>
		<path fill="#4A73A4" d="M357.805,421.011l0.252,0.166c1.302-0.67,2.597-1.358,3.886-2.059
			C360.482,419.836,359.151,420.437,357.805,421.011z"/>
		<path fill="#4A73A4" d="M352.695,423.842c1.255,0.966,2.708,1.991,7.486-1.311l-2.123-1.355
			C356.282,422.095,354.495,422.983,352.695,423.842z"/>
		<path fill="#4A73A4" d="M206.499,397.564c1.211,0.204,2.423,0.387,3.633,0.559l-0.271-0.347c-1.205-0.174-2.415-0.359-3.625-0.561
			L206.499,397.564z"/>
		<path fill="#4A73A4" d="M225.802,405.397c0.93-0.021,1.652-0.13,2.314-0.253C227.166,405.083,226.383,405.138,225.802,405.397z"/>
		<path fill="#4A73A4" d="M242.482,398.566c3.765,2.036-5.788,1.126,1.515,2.84c0.497,1.447-3.303,2.749-6.741,1.431
			c0.512-1.212,3.565-0.23,1.632-1.889c-2.577,1.071-3.289-0.125-2.833,1.949c-4.181,0.423-4.924,1.647-7.938,2.248
			c2.519,0.177,6.224,1.271,10.194,2.015c3.96,0.749,8.183,1.129,11.424,0.159c3.633-2.044,1.767-5.405,2.08-8.766
			c-0.215-0.416-2.403-0.88-4.594-1.051C245.028,397.339,242.806,397.489,242.482,398.566z"/>
		<path fill="#4A73A4" d="M236.961,394.206c-1.728-0.508-2.286-0.495-3.424-0.454C233.582,394.944,235.535,393.982,236.961,394.206z
			"/>
		<path fill="#4A73A4" d="M280.897,421.134c0.358-0.504,4.09-1.582,3.158-2.304c-1.884,0.451-3.775,0.88-5.683,1.26
			C279.735,420.039,280.272,420.566,280.897,421.134z"/>
		<path fill="#4A73A4" d="M275.859,420.57l2.514-0.48C277.736,420.112,276.958,420.242,275.859,420.57z"/>
		<path fill="#4A73A4" d="M281.206,421.402c-0.104-0.09-0.196-0.182-0.31-0.269C280.824,421.245,280.853,421.348,281.206,421.402z"
			/>
		<path fill="#4A73A4" d="M375.954,410.527c0.483,0.805,2.567-1.471,3.579-2.632C378.517,408.6,376.965,409.414,375.954,410.527z"/>
		<path fill="#4A73A4" d="M438.729,319.106l1.558-2.229C439.572,317.613,439.204,317.986,438.729,319.106z"/>
		<path fill="#4A73A4" d="M423.047,276.726c-0.169-0.089-0.295-0.273-0.407-0.516C422.725,276.447,422.858,276.624,423.047,276.726z
			"/>
		<path fill="#4A73A4" d="M422.641,276.209c-0.545-1.616,1.156-6.233,0.108-8.048l0.337,0.247c-0.14-1.077-0.294-2.15-0.456-3.222
			c-0.042,1.488-0.234,3.783-0.329,5.934C422.199,273.269,422.201,275.278,422.641,276.209z"/>
	</g>
</g>
<g>
	<path fill="#FFFFFF" d="M400.76,336.898c0,0.449-0.582,1.834-1.738,4.164c-1.164,2.33-2.207,4.053-3.13,5.161
		c-0.468,0.664-1.337,0.998-2.608,0.998c-1.276,0-2.259,0.224-2.955,0.666c-6.029,3.554-9.333,5.776-9.907,6.662
		c-0.58,0.884-2.955,1.33-7.128,1.33s-8.23-0.499-12.168-1.497c-3.943-1-7.534-1.832-10.777-2.498
		c-3.709-0.666-8.169-1.275-13.386-1.83c-5.214-0.554-10.142-1.386-14.775-2.499c-9.734-2.882-17.558-4.662-23.468-5.329
		c-5.911-0.666-12.576-0.999-19.992-0.999c-5.102,0-13.097,1.224-23.99,3.662c-10.896,2.444-17.155,3.889-18.773,4.329
		c-3.015,0.447-6.317,0.835-9.908,1.165c-3.596,0.335-7.013,0.615-10.256,0.834c-0.467,0-1.043,0.448-1.739,1.331
		c-0.694,0.891-1.276,1.446-1.738,1.664c-1.858,1.108-4.232,1.998-7.127,2.665c-2.901,0.666-5.622,1.552-8.168,2.663
		c-1.626,0.444-3.711,0.834-6.258,1.166c-2.554,0.334-4.172,0.5-4.867,0.5c-0.694,0-2.668,0.998-5.91,2.997
		c-3.249,1.997-5.563,2.773-6.954,2.329c-1.391-0.665-3.015-1.056-4.868-1.165c-1.857-0.114-3.129-0.167-3.824-0.167
		c-0.695,0-1.163,0.11-1.391,0.335c-0.234,0.218-0.814,0.333-1.739,0.333c-0.696,0-3.597-0.891-8.691-2.664
		c-5.102-1.779-7.997-2.665-8.691-2.665c-2.32,0-4.987-0.89-7.997-2.664c-3.015-1.778-4.639-4.546-4.867-8.324
		c3.243-4.662,7.301-7.878,12.169-9.656c4.866-1.775,9.266-3.773,13.21-5.992c0.923-0.445,3.591-1.276,7.997-2.498
		c4.4-1.218,8.224-2.275,11.472-3.165c0.462-0.217,0.87-0.551,1.218-0.999c0.347-0.442,0.635-0.884,0.87-1.33
		c-1.391-1.11-2.145-2.274-2.26-3.496c-0.119-1.218-0.407-2.383-0.87-3.497c-0.233-1.108-0.582-2.05-1.042-2.829
		c-0.467-0.775-0.695-1.607-0.695-2.498c-0.234-0.443-0.582-0.884-1.043-1.332c-0.467-0.442-0.816-0.774-1.044-0.997
		c-1.162-5.547-2.205-9.377-3.128-11.488c-0.929-2.108-1.391-4.939-1.391-8.491c0-0.666,0.174-1.442,0.521-2.33
		c0.348-0.887,0.521-1.775,0.521-2.666c0-3.547,0.288-7.542,0.87-11.986c0.576-4.437,1.679-9.099,3.303-13.984
		c0.46-1.33,0.809-3.104,1.042-5.327c0.229-2.216,0.462-4.105,0.696-5.661c0.46-1.774,1.098-3.548,1.912-5.326
		c0.81-1.774,0.983-3.549,0.521-5.328c1.853-1.773,2.609-3.662,2.26-5.661c-0.347-1.997,0.984-2.998,3.999-2.998
		c0.694,0,1.913,0.5,3.65,1.499c1.739,1,2.956,1.831,3.651,2.498c0.462,0.224,1.27,0.557,2.433,0.999
		c1.157,0.447,1.967,0.998,2.433,1.665c1.853,1.998,3.765,4.885,5.737,8.658c1.967,3.777,3.302,6.882,3.998,9.323
		c0.462,0.224,0.87,0.558,1.217,1c0.347,0.446,0.635,0.886,0.869,1.331c0.461,1.331,0.636,2.779,0.521,4.329
		c-0.119,1.555-0.293,2.997-0.521,4.328c-0.233,1.114-0.174,2.39,0.173,3.828c0.348,1.447,0.75,2.722,1.218,3.828
		c0,0.226-0.059,0.616-0.174,1.166c-0.119,0.557-0.174,1.057-0.174,1.498c0.461,0.224,0.75,0.613,0.869,1.166
		c0.115,0.557,0.29,0.946,0.522,1.164c0.461,1.78,0.923,3.611,1.392,5.495c0.46,1.887,0.808,3.611,1.042,5.162
		c0.228,0.889,0.228,1.888,0,2.996c-0.233,1.113-0.233,2.221,0,3.331c0.228,0.665,0.696,1.222,1.391,1.663
		c0.695,0.448,1.044,0.89,1.044,1.332c0.229,0.666,1.156,3.221,2.78,7.658c1.619,4.444,3.477,6.66,5.564,6.66
		c0.694,0,2.26-0.384,4.693-1.166c2.434-0.774,4.46-1.606,6.084-2.497c-0.929-5.328-1.972-11.873-3.128-19.646
		c-1.162-7.766-1.739-11.987-1.739-12.651c0-0.668,0.635-5.827,1.913-15.482c1.271-9.656,2.259-16.925,2.954-21.809
		c1.159-5.77,3.243-12.538,6.258-20.311c3.011-7.768,4.521-12.429,4.521-13.983v-3.663c-0.233,0-0.581,0-1.043,0
		c-0.466,0-1.043,0-1.738,0c-0.466,0-2.26-0.718-5.389-2.164c-3.129-1.442-5.97-2.607-8.519-3.497
		c-1.623-0.667-3.709-1.165-6.256-1.499c-2.555-0.333-4.868-0.499-6.954-0.499c-0.234-0.217-0.582-0.442-1.044-0.667
		c-0.466-0.218-0.929-0.442-1.39-0.665c-4.406-1.108-8.985-3.164-13.734-6.16c-4.753-2.997-9.1-6.16-13.037-9.49v-2.663
		c1.158-0.219,2.433-0.667,3.824-1.333c1.391-0.665,2.548-1.108,3.478-1.332c4.634-0.885,9.267-1.665,13.907-2.331
		c4.633-0.667,9.153-1.55,13.558-2.665c1.618-0.442,4.053-1.384,7.302-2.83c3.243-1.44,6.257-2.496,9.04-3.163
		c8.109-2.44,16.34-4.88,24.685-7.325c8.345-2.44,17.382-5.328,27.117-8.657c2.086-0.667,6.026-1.333,11.822-1.999
		c5.791-0.666,9.039-0.999,9.733-0.999c3.938,0,6.606,0.947,7.997,2.83c1.391,1.889,2.662,2.831,3.823,2.831
		c0.696,0,1.157-0.167,1.392-0.5c0.227-0.334,0.46-0.499,0.694-0.499c0,0.223-0.06,0.613-0.174,1.165
		c-0.118,0.556-0.409,1.055-0.87,1.498c2.547,2.222,3.418,4.277,2.608,6.161c-0.814,1.888-0.294,3.277,1.563,4.162
		c-0.233,0.447-0.58,0.833-1.042,1.165c-0.468,0.333-1.164,0.724-2.086,1.166c0.462,0.666,0.924,1.332,1.392,1.998
		c0.461,0.666,0.694,1.332,0.694,1.998c0,0.667-0.521,1.555-1.563,2.664c-1.043,1.114-1.798,2.223-2.26,3.33
		c-0.234,0.224-0.64,0.448-1.216,0.666c-0.581,0.224-1.104,0.558-1.564,1c0.228,1.113,0.75,2.553,1.564,4.329
		c0.808,1.779,0.174,3.554-1.914,5.328c-0.695,0.447-1.563,0.947-2.607,1.498c-1.043,0.557-1.912,0.833-2.607,0.833
		c-0.694,0-1.511-0.109-2.434-0.333c-0.93-0.218-1.737-0.333-2.433-0.333s-3.016,0.447-6.954,1.332
		c-3.942,0.889-7.301,1.665-10.083,2.33c-1.624,0.448-3.248,1.332-4.866,2.663c-1.625,1.332-3.13,2.556-4.521,3.663
		c-0.233,0.665-0.176,1.556,0.174,2.664c0.348,1.115,0.29,2.113-0.174,2.998c0,0.224-0.176,0.613-0.521,1.165
		c-0.348,0.556-0.641,1.166-0.87,1.832c-0.466,3.33-0.868,6.882-1.216,10.654c-0.348,3.777-1.104,7.549-2.26,11.321
		c-0.93,3.554-2.032,7.05-3.303,10.489c-1.276,3.444-2.493,6.941-3.65,10.489l1.043,1c0.695,0,1.33-0.334,1.913-1
		c0.575-0.667,1.099-1.108,1.563-1.333c6.953-1.108,14.021-3.438,21.209-6.993c7.18-3.548,13.785-5.77,19.815-6.66
		c0.462-0.218,0.87-0.442,1.217-0.666c0.348-0.218,0.636-0.443,0.869-0.667c1.158-0.665,2.896-1.384,5.216-2.164
		c2.314-0.774,4.399-1.165,6.258-1.165c0.461,0,2.086,0.998,4.867,2.998c2.781,1.997,4.98,3.777,6.606,5.328
		c0.229,0.666,0.346,1.331,0.346,1.998c0,0.667-0.117,1.223-0.346,1.666c-0.232,0.224-0.232,0.333,0,0.333
		c0.229,0,0.346,0.333,0.346,1l-1.391,1c0,0.666,0.116,1.389,0.349,2.164c0.229,0.78,0.462,1.498,0.695,2.164
		c-0.233,0.448-0.348,1.115-0.348,1.999c0,0.889-0.233,1.555-0.696,1.997c-1.39,1.999-2.9,4.164-4.52,6.494
		c-1.624,2.331-3.247,4.386-4.867,6.159c0,0.223-0.06,0.613-0.174,1.164c-0.12,0.559-0.175,1.057-0.175,1.499
		c-2.318,1.332-4.868,2.554-7.649,3.663c-2.78,1.113-5.448,2.112-7.996,2.997c-1.392,0.223-2.84,0.831-4.347,1.832
		c-1.51,0.997-3.072,1.83-4.692,2.495c-1.624,0.448-3.884,0.833-6.779,1.165c-2.902,0.334-4.692,0.5-5.391,0.5
		c-0.695,0-2.146-0.218-4.346-0.665c-2.205-0.443-4.116-0.774-5.736-1c-0.928-0.441-1.857-0.94-2.782-1.498
		c-0.928-0.551-1.855-1.05-2.78-1.497c-0.694-0.666-1.451-1.441-2.26-2.331c-0.814-0.885-1.8-1.773-2.953-2.664h-2.087
		c-0.234,1.114-0.468,2.496-0.696,4.164c-0.233,1.662-0.347,2.826-0.347,3.494c0,5.326,1.217,10.38,3.652,15.149
		c2.433,4.774,2.836,8.49,1.216,11.154c0.926,0.891,2.373,1.223,4.347,0.999c1.966-0.218,3.765-0.334,5.388-0.334
		c2.549-0.441,5.27-0.665,8.17-0.665c2.897,0,5.737,0.114,8.52,0.334c5.095,0.221,12.629,0.998,22.598,2.33
		c9.962,1.33,19.698,2.777,29.205,4.328c0.694,0,1.679,0.281,2.955,0.834c1.271,0.556,2.373,0.946,3.302,1.165
		c2.086,0.223,4.347,0.448,6.78,0.666c2.434,0.224,4.573,0.664,6.432,1.33c3.477,1.114,7.007,2.445,10.604,3.996
		c3.592,1.557,7.128,3.111,10.604,4.661c0.924,0.447,2.608,2.889,5.042,7.325C399.543,332.686,400.76,335.567,400.76,336.898z"/>
</g>
<g id="Layer_2">
	<g>
		<path fill="#FFFFFF" d="M361.683,280.858c-0.045,0.155-0.104,0.248-0.18,0.272c-0.076,0.027-0.139,0.065-0.18,0.116
			c0,0.027,0.011,0.066,0.032,0.118c0.021,0.053,0.043,0.104,0.064,0.154c-0.064,0.055-0.136,0.099-0.213,0.14
			c-0.078,0.039-0.157,0.07-0.246,0.097c-0.021,0.025-0.037,0.046-0.049,0.059c-0.013,0.014-0.026,0.033-0.05,0.06
			c-0.088,0.26-0.224,0.391-0.409,0.391c-0.185,0-0.353,0.014-0.507,0.038c-0.021,0.025-0.028,0.054-0.017,0.08
			c0.012,0.025,0.017,0.064,0.017,0.116h-0.457c-0.044,0-0.157-0.025-0.343-0.079c-0.186-0.051-0.311-0.078-0.376-0.078
			c-0.176,0-0.534,0.071-1.078,0.215c-0.545,0.144-0.839,0.228-0.884,0.255c-0.151,0.078-0.376,0.221-0.669,0.429
			c-0.296,0.21-0.53,0.495-0.703,0.86c-0.13,0.26-0.278,0.593-0.442,0.997c-0.163,0.404-0.299,0.763-0.408,1.073
			c-0.065,0.21-0.143,0.477-0.228,0.802c-0.088,0.326-0.153,0.618-0.196,0.88c-0.023,0.183-0.023,0.373,0,0.567
			c0.02,0.194,0.02,0.396,0,0.606c0,0.417,0,0.905,0,1.465s-0.056,1.088-0.164,1.583c-0.021,0.104-0.088,0.267-0.196,0.489
			c-0.109,0.22-0.206,0.422-0.296,0.605c-0.019,0.052-0.059,0.104-0.114,0.156c-0.054,0.052-0.103,0.103-0.146,0.157
			c-0.022,0.051-0.051,0.148-0.083,0.293c-0.032,0.141-0.104,0.239-0.213,0.293c-0.022,0-0.049,0-0.081,0
			c-0.034,0-0.073,0.013-0.116,0.039c-0.022,0.025-0.038,0.07-0.049,0.137c-0.013,0.065-0.039,0.111-0.083,0.138
			c-0.044,0.052-0.109,0.097-0.195,0.138c-0.087,0.039-0.163,0.058-0.23,0.058c-0.042,0-0.079-0.019-0.112-0.058
			c-0.032-0.041-0.071-0.059-0.116-0.059c-0.064,0-0.119,0.037-0.163,0.115c-0.045,0.08-0.088,0.118-0.132,0.118
			c-0.064,0-0.179-0.11-0.342-0.333c-0.163-0.224-0.246-0.346-0.246-0.371c0-0.131,0-0.276,0-0.432c0-0.154-0.02-0.286-0.065-0.39
			c-0.108-0.366-0.19-0.762-0.245-1.191c-0.055-0.431-0.102-0.853-0.147-1.269c-0.021-0.418-0.054-0.933-0.099-1.544
			c-0.043-0.612-0.064-0.96-0.064-1.037c0-0.261,0.037-0.696,0.114-1.309c0.076-0.613,0.214-1.204,0.41-1.778v-0.156
			c0-0.024-0.021-0.039-0.065-0.039c-0.087,0-0.534,0.202-1.34,0.606s-1.328,0.646-1.568,0.724c-0.633,0.183-1.28,0.346-1.944,0.489
			c-0.666,0.143-1.313,0.307-1.944,0.488c-0.045,0.025-0.132,0.063-0.26,0.117c-0.133,0.052-0.253,0.104-0.362,0.155
			c-0.37,0.104-0.751,0.195-1.144,0.274c-0.391,0.078-0.806,0.208-1.241,0.39c-0.064,0.026-0.179,0.034-0.343,0.021
			c-0.164-0.013-0.268-0.021-0.311-0.021c-0.065,0-0.171,0.008-0.312,0.021c-0.142,0.015-0.268,0.007-0.376-0.021
			c-0.064-0.026-0.142-0.07-0.229-0.139c-0.086-0.063-0.184-0.097-0.293-0.097v-0.233c0-0.052,0.033-0.124,0.098-0.215
			c0.065-0.093,0.109-0.229,0.132-0.412c0.043-0.051,0.076-0.083,0.098-0.098c0.021-0.014,0.043-0.032,0.066-0.058
			c0.043-0.131,0.13-0.301,0.261-0.51c0.131-0.208,0.239-0.35,0.327-0.429c0-0.054,0-0.116,0-0.195s0.02-0.142,0.065-0.195
			c0.085-0.13,0.213-0.26,0.376-0.391c0.163-0.13,0.288-0.247,0.376-0.352c0.108-0.131,0.222-0.287,0.344-0.469
			c0.119-0.182,0.223-0.338,0.31-0.469c0.11,0,0.217-0.014,0.326-0.039c0.11-0.026,0.186-0.039,0.229-0.039
			c0.108,0,0.213,0.078,0.311,0.233c0.098,0.158,0.159,0.233,0.179,0.233c0.065,0,0.273-0.084,0.621-0.253
			c0.348-0.171,0.634-0.294,0.852-0.371c0.412-0.131,0.914-0.267,1.502-0.411c0.587-0.144,1.131-0.293,1.636-0.448
			c0.173-0.053,0.402-0.157,0.686-0.313c0.282-0.155,0.567-0.286,0.85-0.39c0.107-0.055,0.255-0.111,0.441-0.177
			c0.185-0.063,0.333-0.111,0.442-0.138c0.108-0.052,0.228-0.117,0.359-0.196c0.13-0.078,0.25-0.129,0.359-0.155
			c0.065-0.052,0.142-0.079,0.229-0.079s0.163-0.013,0.228-0.039c0.414-0.13,0.862-0.305,1.34-0.526
			c0.479-0.222,0.959-0.425,1.438-0.606c0.851-0.286,1.716-0.547,2.598-0.781c0.883-0.235,1.792-0.337,2.729-0.313
			c0.043,0,0.093-0.019,0.146-0.06c0.055-0.039,0.114-0.059,0.18-0.059c0.043,0,0.065,0.016,0.065,0.039
			c0,0.024,0.031,0.041,0.098,0.041c0.045,0,0.11-0.033,0.196-0.1c0.087-0.063,0.164-0.098,0.229-0.098c0.02,0,0.043,0,0.064,0
			c0.044,0,0.094,0.02,0.147,0.059c0.055,0.039,0.156,0.139,0.31,0.293c0.132,0.104,0.272,0.182,0.427,0.236
			c0.151,0.05,0.292,0.116,0.424,0.194c0.044,0.025,0.091,0.084,0.146,0.176c0.054,0.093,0.115,0.176,0.18,0.254v0.86H361.683
			L361.683,280.858z M358.382,276.324c-0.088,0.025-0.176,0.059-0.262,0.097c-0.088,0.04-0.152,0.112-0.195,0.216
			c-0.023,0.026-0.045,0.093-0.066,0.197c-0.021,0.104-0.054,0.194-0.098,0.272c-0.064,0.104-0.158,0.202-0.28,0.294
			c-0.118,0.091-0.2,0.201-0.243,0.332c-0.218,0-0.496-0.014-0.834-0.039c-0.338-0.024-0.54-0.039-0.605-0.039
			c-0.046,0-0.229-0.092-0.557-0.273s-0.588-0.327-0.784-0.431c-0.283-0.128-0.567-0.235-0.85-0.312
			c-0.283-0.077-0.566-0.17-0.849-0.273c-0.045-0.024-0.295-0.116-0.753-0.274c-0.457-0.155-0.783-0.234-0.979-0.234
			c-0.372,0-0.714,0.039-1.029,0.118c-0.315,0.077-0.519,0.142-0.606,0.195c-0.196,0.154-0.408,0.312-0.638,0.469
			c-0.229,0.154-0.431,0.312-0.604,0.468c-0.349,0.366-0.671,0.795-0.966,1.289c-0.293,0.494-0.593,0.965-0.896,1.406
			c-0.022,0.027-0.062,0.098-0.116,0.216c-0.056,0.116-0.114,0.177-0.18,0.177c-0.064,0-0.083-0.007-0.049-0.021
			c0.031-0.013,0.018-0.021-0.05-0.021c-0.044,0-0.235,0.094-0.572,0.274c-0.339,0.182-0.54,0.274-0.606,0.274
			c-0.044,0-0.218-0.046-0.521-0.139c-0.307-0.091-0.479-0.138-0.523-0.138c-0.065,0-0.104,0.017-0.114,0.041
			c-0.014,0.024-0.039,0.039-0.083,0.039c-0.088,0-0.152-0.046-0.196-0.139c-0.045-0.091-0.065-0.177-0.065-0.252
			c0-0.055,0.021-0.188,0.065-0.413c0.044-0.22,0.076-0.383,0.099-0.487c0.109-0.392,0.223-0.808,0.345-1.25
			c0.118-0.444,0.288-0.873,0.505-1.291c0.107-0.181,0.223-0.415,0.344-0.702c0.119-0.285,0.233-0.521,0.343-0.704
			c0.152-0.26,0.299-0.501,0.441-0.722c0.143-0.222,0.278-0.438,0.409-0.646c0.132-0.182,0.284-0.377,0.458-0.585
			c0.174-0.21,0.326-0.404,0.458-0.587c0.02-0.051,0.037-0.092,0.048-0.116c0.012-0.024,0.026-0.054,0.051-0.079
			c0.479-0.571,0.984-1.224,1.519-1.954c0.534-0.729,1.074-1.418,1.619-2.071c0.5-0.6,1.057-1.282,1.667-2.05
			c0.609-0.77,1.012-1.479,1.208-2.131c0.021-0.025,0.049-0.07,0.082-0.138c0.032-0.063,0.071-0.122,0.114-0.177
			c0.065,0.027,0.121,0.06,0.163,0.098c0.044,0.041,0.087,0.086,0.133,0.14c0.131,0.077,0.282,0.153,0.456,0.233
			c0.173,0.08,0.337,0.182,0.49,0.312c0.065,0.026,0.126,0.104,0.18,0.235c0.054,0.132,0.092,0.234,0.114,0.313
			c0.021,0.024,0.05,0.051,0.081,0.078c0.033,0.026,0.06,0.053,0.083,0.079c0.064,0.209,0.125,0.436,0.179,0.684
			c0.057,0.248,0.083,0.554,0.083,0.918c0,0.054-0.007,0.249-0.018,0.585c-0.01,0.34-0.038,0.613-0.082,0.821
			c-0.021,0.104-0.076,0.177-0.163,0.216c-0.088,0.038-0.153,0.11-0.196,0.215c-0.022,0.025-0.027,0.072-0.016,0.137
			c0.01,0.066,0.003,0.124-0.018,0.177c-0.021,0.079-0.077,0.149-0.164,0.215c-0.087,0.064-0.162,0.124-0.229,0.177
			c0,0.025-0.011,0.065-0.033,0.117c-0.021,0.053-0.03,0.092-0.03,0.115c-0.154,0.158-0.29,0.321-0.41,0.49
			c-0.121,0.17-0.222,0.333-0.311,0.489c-0.021,0.052-0.082,0.124-0.18,0.214c-0.1,0.092-0.19,0.163-0.278,0.216
			c-0.022,0.025-0.05,0.083-0.082,0.176c-0.032,0.092-0.07,0.163-0.115,0.215c0,0.026,0.011,0.047,0.033,0.06
			c0.021,0.014,0.043,0.032,0.065,0.058c0.567,0.079,1.127,0.178,1.682,0.293c0.557,0.119,1.105,0.398,1.651,0.84
			c0.043,0.027,0.119,0.062,0.228,0.099s0.207,0.096,0.295,0.177c0.151,0.103,0.348,0.261,0.589,0.47
			c0.239,0.208,0.444,0.429,0.619,0.662c0.132,0.155,0.278,0.444,0.443,0.86C358.398,275.608,358.448,275.985,358.382,276.324z"/>
		<path fill="#FFFFFF" d="M395.537,278.238c-0.151-0.051-0.298-0.083-0.44-0.098c-0.142-0.013-0.246-0.02-0.312-0.02
			c-0.109,0-0.158,0.02-0.146,0.059c0.011,0.039-0.028,0.111-0.116,0.215c-0.15,0.026-0.305,0.079-0.456,0.155
			c-0.152,0.08-0.295,0.173-0.425,0.275c-0.021,0.025-0.07,0.053-0.147,0.078s-0.137,0.063-0.178,0.118
			c-0.022,0.023-0.022,0.071,0,0.135c0.019,0.066,0.032,0.124,0.032,0.179c-0.089,0.025-0.202,0.064-0.344,0.117
			c-0.143,0.051-0.268,0.103-0.376,0.155c-0.022,0-0.046,0.025-0.066,0.077c-0.021,0.053-0.031,0.105-0.031,0.156
			c-0.197,0.079-0.432,0.146-0.705,0.196c-0.272,0.053-0.44,0.078-0.506,0.078c-0.044,0-0.202-0.014-0.473-0.041
			c-0.273-0.022-0.443-0.037-0.508-0.037c-0.044,0-0.077,0-0.099,0s-0.055,0-0.098,0c-0.153-0.104-0.307-0.228-0.458-0.371
			c-0.153-0.145-0.307-0.294-0.456-0.449c-0.021-0.053-0.038-0.133-0.05-0.235c-0.013-0.104-0.039-0.172-0.083-0.196
			c-0.087-0.235-0.217-0.383-0.393-0.45c-0.174-0.063-0.326-0.175-0.456-0.33c-0.021,0-0.033,0.024-0.033,0.078
			c0,0.077,0.027,0.163,0.083,0.252c0.053,0.095,0.092,0.177,0.114,0.255c-0.022,0-0.05,0.016-0.083,0.04
			c-0.031,0.027-0.069,0.039-0.115,0.039c-0.021-0.104-0.07-0.215-0.146-0.334c-0.076-0.116-0.126-0.241-0.146-0.369
			c-0.021-0.366-0.051-0.9-0.083-1.603c-0.031-0.704-0.102-1.225-0.213-1.562c-0.021-0.132-0.053-0.347-0.099-0.646
			c-0.044-0.298-0.064-0.489-0.064-0.566c0-0.053,0-0.21,0-0.47c0-0.259,0.021-0.599,0.064-1.016c0-0.078,0.032-0.141,0.099-0.195
			c0.065-0.052,0.119-0.156,0.163-0.313c0.045-0.13,0.082-0.285,0.114-0.469c0.033-0.181,0.051-0.312,0.051-0.392
			c0-0.05-0.007-0.099-0.017-0.136c-0.013-0.04-0.038-0.061-0.082-0.061s-0.131,0.094-0.263,0.276
			c-0.129,0.181-0.238,0.337-0.326,0.469c-0.021,0.052-0.043,0.137-0.064,0.254c-0.021,0.117-0.045,0.229-0.064,0.332
			c0,0.052-0.027,0.111-0.083,0.176c-0.055,0.066-0.103,0.123-0.147,0.177c-0.175,0.105-0.376,0.229-0.604,0.372
			c-0.228,0.143-0.453,0.28-0.67,0.411c-0.064,0.026-0.163,0.046-0.294,0.06c-0.132,0.014-0.252,0.045-0.36,0.098
			c-0.784,0.39-1.366,0.788-1.748,1.191s-0.573,0.983-0.573,1.739c0,0.053,0.026,0.202,0.083,0.449
			c0.054,0.249,0.114,0.45,0.18,0.607c0,0.025,0.049,0.078,0.146,0.155s0.17,0.116,0.213,0.116c0.065,0,0.092-0.013,0.083-0.039
			c-0.013-0.025,0.016-0.038,0.08-0.038c0.11,0,0.218,0.143,0.328,0.43c0.109,0.286,0.175,0.455,0.196,0.506
			c0.044,0.028,0.099,0.087,0.163,0.178c0.065,0.092,0.132,0.163,0.196,0.216c0.021,0.183,0,0.359-0.064,0.528
			c-0.065,0.169-0.045,0.357,0.064,0.566c0.087-0.052,0.147-0.122,0.18-0.215c0.033-0.092,0.071-0.163,0.114-0.216
			c0.043,0.105,0.066,0.203,0.066,0.294c0,0.092,0,0.189,0,0.293c-0.023,0-0.066,0-0.133,0c-0.064,0-0.119-0.013-0.164-0.039
			c-0.021,0.026-0.048,0.084-0.08,0.178c-0.033,0.091-0.039,0.161-0.018,0.215c-0.065,0.024-0.152,0.032-0.262,0.019
			c-0.109-0.013-0.186,0.008-0.229,0.06c-0.088,0.078-0.19,0.246-0.31,0.508c-0.121,0.26-0.257,0.39-0.409,0.39
			c-0.045,0-0.103-0.006-0.18-0.019s-0.147-0.021-0.214-0.021c-0.413,0-0.871,0.117-1.371,0.353
			c-0.502,0.235-1.014,0.588-1.536,1.054c-0.349,0.288-0.731,0.568-1.143,0.841c-0.416,0.274-0.798,0.554-1.145,0.84
			c-0.022-0.024-0.051-0.052-0.082-0.078c-0.033-0.025-0.094-0.039-0.18-0.039c-0.045,0-0.094,0.026-0.146,0.078
			c-0.056,0.052-0.104,0.104-0.147,0.155c-0.065,0.054-0.158,0.092-0.28,0.117c-0.119,0.026-0.212,0.041-0.276,0.041
			c-0.065,0-0.148-0.032-0.246-0.1c-0.1-0.063-0.17-0.188-0.214-0.371c-0.044-0.21-0.083-0.482-0.115-0.82
			c-0.033-0.339-0.048-0.547-0.048-0.626c0-0.051,0.021-0.208,0.064-0.468c0.044-0.261,0.098-0.471,0.164-0.626
			c0.175-0.469,0.408-1.031,0.702-1.681c0.293-0.649,0.572-1.25,0.834-1.797c0.108-0.209,0.282-0.528,0.522-0.957
			c0.24-0.43,0.47-0.788,0.687-1.075c0.479-0.678,0.98-1.31,1.503-1.896c0.521-0.587,1.024-1.178,1.503-1.777
			c-0.021-0.025-0.026-0.031-0.016-0.019c0.01,0.014-0.018,0.019-0.083,0.019c-0.064,0-0.545,0.131-1.438,0.39
			c-0.894,0.262-1.558,0.495-1.993,0.705c-0.26,0.104-0.653,0.317-1.176,0.644c-0.522,0.325-1.068,0.645-1.634,0.958
			c-0.197,0.104-0.394,0.26-0.588,0.469c-0.197,0.21-0.405,0.443-0.621,0.703c0,0.025,0.021,0.054,0.064,0.078
			c0.043,0.027,0.075,0.04,0.099,0.04c-0.218,0.234-0.442,0.514-0.669,0.84c-0.229,0.326-0.487,0.593-0.771,0.803
			c-0.065,0.025-0.179,0.052-0.344,0.078c-0.162,0.024-0.277,0.038-0.343,0.038c-0.043,0-0.195-0.063-0.455-0.194
			c-0.262-0.13-0.471-0.246-0.622-0.353c-0.021-0.052-0.05-0.109-0.083-0.176c-0.03-0.064-0.05-0.137-0.05-0.214
			c0-0.053,0.019-0.211,0.05-0.47c0.033-0.26,0.095-0.47,0.181-0.625c0.066-0.131,0.176-0.32,0.327-0.566
			c0.151-0.249,0.295-0.449,0.425-0.607c0.065-0.077,0.174-0.148,0.327-0.215c0.152-0.064,0.272-0.15,0.358-0.256
			c0.697-0.677,1.182-1.118,1.456-1.327c0.272-0.208,0.581-0.415,0.931-0.625c0.238-0.155,0.763-0.436,1.566-0.84
			c0.807-0.403,1.493-0.723,2.06-0.956c0.414-0.158,0.89-0.282,1.422-0.373c0.535-0.091,1.008-0.203,1.422-0.333
			c0.632-0.181,1.084-0.325,1.355-0.429c0.273-0.105,0.779-0.157,1.522-0.157c0.065,0,0.305,0,0.718,0
			c0.414,0,0.763,0.025,1.046,0.079c0.131,0.026,0.283,0.111,0.456,0.254c0.177,0.144,0.283,0.216,0.328,0.216
			c0.043,0,0.142-0.046,0.295-0.138c0.151-0.092,0.272-0.149,0.358-0.176c0.196-0.131,0.392-0.25,0.589-0.353
			c0.196-0.102,0.336-0.274,0.424-0.51c0.045-0.102,0.143-0.272,0.295-0.506c0.153-0.235,0.272-0.482,0.359-0.741
			c0.044-0.13,0.081-0.28,0.114-0.451c0.033-0.169,0.06-0.319,0.084-0.449c0.064-0.312,0.146-0.638,0.243-0.977
			c0.1-0.339,0.215-0.665,0.345-0.977c0.044-0.05,0.092-0.08,0.146-0.08c0.056,0,0.103-0.05,0.148-0.155
			c0.131-0.363,0.299-0.67,0.505-0.918c0.208-0.246,0.409-0.372,0.605-0.372c0.262,0,0.458,0.11,0.588,0.335
			c0.133,0.22,0.209,0.499,0.229,0.838c0.021,0.026,0.05,0.054,0.082,0.078c0.032,0.027,0.07,0.054,0.115,0.079
			c0,0.183,0.005,0.404,0.018,0.664c0.012,0.262,0.025,0.508,0.05,0.741c0.02,0.156,0.049,0.328,0.08,0.509
			c0.035,0.182,0.051,0.313,0.051,0.392c0,0.416-0.092,0.853-0.278,1.308c-0.186,0.456-0.289,0.789-0.311,0.998
			c-0.021,0.312-0.049,0.723-0.082,1.232c-0.032,0.506-0.094,0.957-0.181,1.346c-0.021,0.158-0.037,0.367-0.049,0.627
			s-0.017,0.417-0.017,0.468c0,0.234,0.044,0.625,0.131,1.172c0.086,0.546,0.25,0.859,0.492,0.938
			c0.042,0.025,0.063,0.092,0.063,0.196c0,0.103,0.013,0.181,0.033,0.233c0.086,0.183,0.176,0.345,0.261,0.489
			c0.087,0.143,0.184,0.28,0.294,0.41c0.567,0.547,1.001,0.919,1.307,1.113s0.698,0.423,1.177,0.685v0.231h0.005V278.238z
			 M383.283,266.752c0,0.051-0.054,0.208-0.164,0.468c-0.109,0.262-0.249,0.445-0.425,0.547c-0.108,0.078-0.272,0.111-0.49,0.097
			c-0.218-0.012-0.414,0.008-0.589,0.059c-0.195,0.078-0.407,0.15-0.637,0.216c-0.229,0.064-0.454,0.163-0.67,0.293
			c-0.131,0.052-0.316,0.215-0.556,0.489c-0.24,0.274-0.491,0.514-0.751,0.724c-0.24,0.181-0.49,0.357-0.752,0.527
			c-0.262,0.169-0.512,0.357-0.751,0.565h-0.164c0.152-0.259,0.321-0.519,0.506-0.78c0.184-0.26,0.354-0.495,0.507-0.703
			c0.176-0.259,0.354-0.533,0.539-0.821c0.186-0.285,0.364-0.585,0.539-0.898c-0.456-0.05-0.811-0.117-1.062-0.195
			c-0.25-0.077-0.593-0.194-1.03-0.352c-0.087-0.051-0.213-0.09-0.376-0.115c-0.164-0.027-0.278-0.039-0.342-0.039
			c-0.066,0-0.096,0.012-0.083,0.039c0.012,0.025-0.017,0.039-0.083,0.039c-0.044,0-0.157-0.027-0.341-0.078
			c-0.187-0.052-0.335-0.093-0.443-0.118c-0.284-0.13-0.636-0.416-1.061-0.86c-0.427-0.442-0.747-0.858-0.968-1.25
			c-0.044-0.077-0.13-0.148-0.26-0.214c-0.132-0.063-0.218-0.148-0.26-0.255c-0.046-0.13-0.077-0.259-0.099-0.39
			c-0.022-0.131-0.044-0.26-0.065-0.391c0.044-0.052,0.164-0.117,0.359-0.195c0.195-0.079,0.349-0.117,0.458-0.117
			c0.063,0,0.233,0.038,0.507,0.117c0.271,0.078,0.494,0.156,0.668,0.235c0.176,0.077,0.47,0.254,0.884,0.526
			c0.414,0.273,0.806,0.477,1.176,0.606c0.065,0.025,0.295,0.065,0.688,0.117c0.392,0.053,0.707,0.117,0.948,0.194
			c0.15,0.025,0.343,0.08,0.57,0.156c0.229,0.079,0.378,0.118,0.442,0.118c0.065,0,0.202-0.015,0.409-0.04
			c0.207-0.024,0.343-0.039,0.409-0.039c0.043,0,0.163-0.052,0.358-0.156c0.197-0.104,0.339-0.155,0.427-0.155
			c0.064,0,0.179,0.014,0.343,0.039c0.163,0.025,0.288,0.064,0.376,0.116c0.064,0.025,0.19,0.124,0.376,0.294
			c0.184,0.17,0.333,0.334,0.441,0.488c0.11,0.155,0.217,0.358,0.327,0.606C383.231,266.51,383.283,266.674,383.283,266.752z
			 M381.093,279.373c0-0.052-0.031-0.333-0.099-0.84c-0.063-0.51-0.098-0.803-0.098-0.879c0-0.079,0.011-0.235,0.033-0.471
			c0.02-0.233,0.02-0.442,0-0.624c-0.177,0.338-0.359,0.671-0.557,0.996c-0.195,0.325-0.371,0.646-0.523,0.957
			c-0.088,0.182-0.146,0.367-0.179,0.547c-0.033,0.182-0.081,0.34-0.148,0.471c-0.042,0.104-0.119,0.209-0.228,0.311
			c-0.109,0.105-0.163,0.184-0.163,0.235v0.313c0.043,0,0.087,0.024,0.13,0.078c0.176-0.053,0.524-0.202,1.047-0.449
			C380.831,279.77,381.093,279.555,381.093,279.373z M399.525,279.256c0,0.103-0.032,0.246-0.1,0.427
			c-0.063,0.184-0.14,0.379-0.227,0.586c-0.089,0.184-0.164,0.386-0.229,0.609c-0.064,0.222-0.185,0.396-0.359,0.526
			c-0.218,0.183-0.44,0.327-0.67,0.43c-0.229,0.104-0.463,0.211-0.703,0.313c-0.086,0.025-0.201,0.045-0.344,0.059
			c-0.142,0.014-0.277,0.031-0.408,0.059c-0.02-0.025-0.045-0.064-0.065-0.116c-0.021-0.054-0.054-0.105-0.098-0.156
			c-0.218-0.054-0.479-0.08-0.785-0.08c-0.306,0-0.479,0-0.522,0s-0.195,0.034-0.457,0.1c-0.26,0.063-0.423,0.097-0.49,0.097
			c-0.064,0-0.233-0.02-0.507-0.059c-0.272-0.038-0.442-0.058-0.507-0.058c-0.021,0-0.343,0.083-0.965,0.253s-1.071,0.32-1.355,0.45
			c-0.501,0.26-0.976,0.467-1.422,0.625c-0.447,0.155-0.855,0.274-1.227,0.352c-0.131,0.024-0.349,0.123-0.654,0.293
			c-0.305,0.169-0.574,0.332-0.813,0.488c-0.196,0.104-0.389,0.254-0.573,0.45c-0.185,0.194-0.365,0.37-0.54,0.527
			c-0.087,0.079-0.158,0.177-0.213,0.294c-0.054,0.116-0.114,0.241-0.18,0.372c0.021,0.026,0.038,0.039,0.05,0.039s0.051,0,0.116,0
			c0.063,0,0.276-0.046,0.636-0.137c0.359-0.092,0.649-0.15,0.868-0.178c0.043-0.024,0.091-0.064,0.146-0.116
			c0.056-0.053,0.114-0.079,0.18-0.079c0.044,0,0.065,0.014,0.065,0.039c0,0.024,0.03,0.04,0.098,0.04
			c0.129,0,0.293-0.092,0.489-0.274c0.197-0.181,0.315-0.286,0.36-0.312c0.044-0.027,0.103-0.04,0.181-0.04
			c0.076,0,0.135-0.013,0.179-0.039c0.175-0.078,0.337-0.201,0.49-0.372c0.152-0.169,0.316-0.278,0.49-0.33
			c0.239-0.081,0.545-0.145,0.917-0.196c0.37-0.053,0.587-0.08,0.652-0.08c0.437,0,0.796,0.145,1.078,0.43
			c0.282,0.288,0.569,0.575,0.851,0.859c0.131,0.105,0.234,0.313,0.312,0.626c0.076,0.313,0.114,0.494,0.114,0.547
			c0,0.078-0.032,0.318-0.099,0.724c-0.065,0.404-0.119,0.735-0.164,0.996c-0.131,0.625-0.228,1.167-0.294,1.622
			s-0.099,0.944-0.099,1.464c0,0.392-0.017,0.9-0.05,1.525c-0.033,0.626-0.18,1.173-0.44,1.641c-0.021,0.052-0.021,0.124,0,0.215
			c0.021,0.091,0.011,0.177-0.033,0.254c-0.088,0.286-0.201,0.554-0.344,0.803c-0.142,0.246-0.256,0.5-0.343,0.762
			c-0.063,0.025-0.151,0.039-0.261,0.039s-0.185,0.025-0.229,0.079c-0.196,0.103-0.409,0.233-0.638,0.39
			c-0.228,0.156-0.431,0.221-0.605,0.195c-0.109-0.131-0.24-0.416-0.392-0.859c-0.152-0.443-0.229-0.859-0.229-1.251
			c0-0.052,0.011-0.215,0.032-0.489c0.021-0.272,0.045-0.5,0.064-0.682c0.022-0.158,0.02-0.353-0.015-0.586
			c-0.033-0.235-0.04-0.445-0.018-0.627c0-0.13,0-0.272,0-0.428c0-0.157,0-0.313,0-0.47c0-0.211,0.01-0.45,0.03-0.725
			c0.022-0.272,0.045-0.553,0.066-0.84c0.065-0.391,0.163-0.852,0.293-1.387c0.132-0.534,0.197-0.842,0.197-0.918
			c0-0.052-0.044-0.139-0.131-0.255c-0.087-0.117-0.175-0.176-0.262-0.176c-0.044,0-0.294,0.07-0.752,0.214
			c-0.457,0.145-0.838,0.243-1.142,0.293c-0.022,0.027-0.046,0.06-0.065,0.099c-0.021,0.041-0.055,0.072-0.1,0.099
			c-0.195,0.131-0.441,0.269-0.734,0.411c-0.295,0.143-0.474,0.215-0.538,0.215c-0.065,0-0.104-0.021-0.116-0.06
			c-0.012-0.038-0.049-0.058-0.113-0.058c-0.065,0-0.132,0.02-0.197,0.058c-0.064,0.039-0.131,0.06-0.194,0.06
			c-0.415,0.026-0.829,0.104-1.243,0.235c-0.414,0.13-0.828,0.26-1.242,0.388c-0.152,0.055-0.328,0.126-0.522,0.217
			c-0.196,0.091-0.372,0.176-0.523,0.254c-0.088,0.054-0.322,0.235-0.703,0.547s-0.691,0.469-0.93,0.469h-0.328
			c-0.088,0-0.186-0.052-0.295-0.156c-0.11-0.103-0.163-0.193-0.163-0.273c0-0.052,0.043-0.143,0.131-0.272
			c0.087-0.131,0.141-0.248,0.164-0.353c0.02-0.052,0.02-0.124,0-0.215c-0.022-0.091-0.031-0.162-0.031-0.217
			c0.043-0.023,0.101-0.069,0.178-0.136c0.075-0.064,0.125-0.123,0.148-0.176c0.043-0.052,0.069-0.111,0.081-0.177
			c0.011-0.066,0.027-0.122,0.051-0.177c0.042-0.053,0.108-0.104,0.194-0.155c0.086-0.053,0.151-0.104,0.195-0.157
			c0.11-0.129,0.268-0.339,0.476-0.623c0.206-0.287,0.409-0.535,0.605-0.742c0.107-0.104,0.279-0.221,0.507-0.353
			c0.229-0.131,0.44-0.285,0.637-0.469c0.151-0.13,0.372-0.345,0.654-0.644c0.281-0.301,0.533-0.541,0.751-0.725
			c0.065-0.079,0.163-0.169,0.294-0.273c0.132-0.104,0.272-0.196,0.425-0.273c0.763-0.521,1.53-0.978,2.304-1.368
			c0.773-0.392,1.443-0.716,2.009-0.977c0.306-0.131,0.676-0.305,1.111-0.527c0.437-0.221,0.839-0.436,1.21-0.645
			c0.152-0.104,0.321-0.215,0.507-0.333c0.184-0.117,0.365-0.229,0.54-0.333c0.085-0.051,0.212-0.155,0.375-0.312
			c0.165-0.155,0.32-0.285,0.475-0.389c0.217-0.158,0.491-0.309,0.815-0.451c0.327-0.143,0.524-0.215,0.589-0.215
			c0.043,0,0.065,0.007,0.065,0.021c0,0.013,0.032,0.019,0.099,0.019c0.044,0,0.184-0.071,0.424-0.213
			c0.24-0.145,0.445-0.27,0.621-0.375c0.13-0.05,0.282-0.13,0.456-0.232c0.176-0.104,0.339-0.21,0.491-0.313
			c0.045-0.053,0.087-0.123,0.13-0.217c0.046-0.091,0.088-0.148,0.132-0.175c0.088-0.104,0.213-0.178,0.377-0.216
			c0.162-0.037,0.287-0.06,0.375-0.06c0.045,0.054,0.095,0.146,0.148,0.274c0.055,0.131,0.124,0.235,0.214,0.313
			c0.107,0.078,0.222,0.157,0.343,0.235c0.118,0.078,0.222,0.169,0.31,0.274c0.021,0.024,0.032,0.07,0.032,0.136
			s0.011,0.124,0.033,0.176c0.043,0.026,0.082,0.054,0.114,0.079c0.033,0.025,0.06,0.04,0.083,0.04
			c0.043,0.078,0.081,0.176,0.114,0.293C399.507,279.04,399.525,279.15,399.525,279.256z M387.238,283.554
			c-0.065,0-0.114,0.013-0.147,0.039c-0.032,0.024-0.061,0.039-0.082,0.039c-0.217-0.025-0.479,0.083-0.783,0.332
			c-0.306,0.247-0.587,0.513-0.849,0.801c0.347-0.128,0.711-0.312,1.094-0.546c0.381-0.235,0.713-0.456,0.997-0.663L387.238,283.554
			L387.238,283.554z M387.564,271.402l-0.063-0.039l0.063-0.156l0.065,0.039L387.564,271.402z"/>
	</g>
</g>
</svg>
