<?xml version="1.0" encoding="utf-8"?>
<!-- Generator: Adobe Illustrator 15.0.0, SVG Export Plug-In . SVG Version: 6.00 Build 0)  -->
<!DOCTYPE svg PUBLIC "-//W3C//DTD SVG 1.1//EN" "http://www.w3.org/Graphics/SVG/1.1/DTD/svg11.dtd">
<svg version="1.1" id="Layer_1" xmlns="http://www.w3.org/2000/svg" xmlns:xlink="http://www.w3.org/1999/xlink" x="0px" y="0px"
	 width="512px" height="512px" viewBox="0 0 512 512" enable-background="new 0 0 512 512" xml:space="preserve">
<g id="Layer_1_2_">
	<g id="Layer_1_1_">
		<g>
			<path fill="#DBB335" d="M477.936,253.73c0,120.186-95.413,217.615-213.108,217.615c-117.697,0-213.112-97.43-213.112-217.615
				c0-120.18,95.414-217.612,213.11-217.612S477.936,133.551,477.936,253.73z"/>
			<g>
				<path fill="#4A73A4" d="M486.593,218.838c0.723,3.156-0.324,6.114-1.102,4.996c1.256,3.122,1.362,4.797,1.604,5.731
					c0.242,0.938,0.599,1.148,2.271,1.415c2.014,4.088,0.073,8.749-1.603,4.069c0.986,3.965,1.873,7.972,2.654,12.015
					c0.104-2.433,0.171-4.871,0.194-7.312c1.42,0.913,1.385,3.862,1.315,6.835c-0.051,2.976-0.133,5.974,1.461,7.143
					c-0.091-4.45-0.305-8.896-0.641-13.332l0.944,0.618c-1.112-2.992-1.181-8.893-1.019-10.991c0.477,0.281,1.185,0,1.481,2.358
					c-0.664-8.108-2.099-9.034-3.487-9.596c-1.438-0.557-2.871-0.777-4.354-7.206C486.526,216.385,486.641,217.404,486.593,218.838z
					"/>
				<path fill="#4A73A4" d="M490.74,204.209c-1.506-1.623-3.024-3.214-4.563-4.773c-0.437-3.121-0.929-6.241-1.485-9.355
					c-1.154,0.191-3.979-6.08-3.688-1.36c0.425,0.812,1.254,2.429,1.52,3.848c-1.367-0.173-2.479-3.065-3.548-5.47
					c-1.056-2.411-2.021-4.337-2.843-2.658c2.789,6.757,2.479,7.985,5.632,11.819c1.418,6.579,1.787,11.5,1.447,14.73
					c0.729,1.876,2.335,1.875,3.062,4.331c-0.132-0.548-0.257-1.051-0.384-1.685l3.738-0.93c-1.177-1.977-1.166-4.038-1.723-6.361
					c2.196,3.305,4.322,6.694,6.373,10.166c1.511-2.065,1.267-5.787,0.646-9.537c-0.615-3.755-1.621-7.522-1.411-9.866
					c-0.945,3.063-1.589,2.071-2.007,1.72C491.068,198.468,490.924,198.743,490.74,204.209z"/>
				<path fill="#4A73A4" d="M486.27,215.32l0.054,0.262L486.27,215.32z"/>
				<path fill="#4A73A4" d="M99.024,372.161c1.236,1.688,2.347,1.658,2.889,1.642c-4.518-6.342-8.658-12.944-12.433-19.761
					c-0.558,1.119,1.735,7.649-1.041,3.998c0.005,2.344,4.051,7.19,5.689,7.199l-2.209-0.646c2.263,1.813,3.109,3.973,3.03,5.435
					c-0.083,1.457-1.103,2.195-2.577,1.002l0.271,0.38c4.92,2.896,9.897,5.534,14.903,7.92c-1.473-2.293-2.605-2.752-3.892-3.292
					C102.38,375.492,100.941,374.871,99.024,372.161z"/>
				<path fill="#4A73A4" d="M468.119,288.607c-0.16,3.121,0.11,3.563,0.547,3.281C468.592,290.739,468.435,289.637,468.119,288.607z
					"/>
				<path fill="#4A73A4" d="M111.066,380.955c1.572,0.711,3.148,1.395,4.724,2.058C114.135,382.021,112.465,381.303,111.066,380.955
					z"/>
				<path fill="#4A73A4" d="M61.881,372.242c-0.116,0.053-0.242,0.057-0.319,0.264l2.258,1.509l-0.028-0.054
					C63.115,373.319,62.483,372.755,61.881,372.242z"/>
				<path fill="#4A73A4" d="M196.951,434.229c0.459,0.112,0.841,0.245,1.395,0.368C197.85,434.435,197.391,434.313,196.951,434.229z
					"/>
				<path fill="#4A73A4" d="M22.877,306.611c1.615,3.989,3.326,7.925,5.13,11.795c-1.486-1.354,0.414,4.46-1.496,2.212
					c0.406,0.896,2.064,5.138,2.257,3.794l-0.771-2.464c2.419,2.786,3.653,3.088,4.949,3.943c1.301,0.851,2.636,2.261,5.474,6.989
					c-0.341-6.913-2.733-9.182-5.094-12.231c-0.527-1.105-0.893-2.059-1.27-3.019c-2.297-2.947-4.534-5.975-6.719-9.073
					L22.877,306.611z"/>
				<path fill="#4A73A4" d="M408.58,428.951l0.063,0.268C408.675,429.078,408.638,429.003,408.58,428.951z"/>
				<path fill="#4A73A4" d="M408.91,430.314l-0.271-1.099C408.5,430.007,406.986,431.924,408.91,430.314z"/>
				<path fill="#4A73A4" d="M108.416,380.878c0.551-0.25,1.476-0.216,2.647,0.077c-1.172-0.53-2.348-1.07-3.518-1.628
					C107.815,379.742,108.117,380.328,108.416,380.878z"/>
				<path fill="#4A73A4" d="M98.111,378.577c-1.867-2.351-3.688-4.739-5.465-7.17c-1.063-0.627-2.126-1.269-3.182-1.918
					C91.848,372.09,94.436,375.248,98.111,378.577z"/>
				<path fill="#4A73A4" d="M185.882,427.396c3.846,1.693,5.479,2.553,5.82,3.079c0.344,0.521-0.591,0.662-1.814,0.727
					c-2.438,0.12-6.055-0.162-2.646,1.896c4.548,1.569,6.781,0.558,9.709,1.135c-6.538-1.823-5.515-3.063-4.518-4.258
					c1.013-1.25,1.979-2.458-4.208-4.8c3.061-2.036,9.979,0.713,13.83,3.025c1.813,2.307,0.604,2.472-1.364,2.313
					c-1.964-0.143-4.646-0.648-5.762,0.516c5.17,1.559,4.509,0.651,7.216-0.143c3.784,1.787,8.185,2.252,12.021,2.855
					c3.846,0.62,7.146,1.393,9.082,4.031c6.035,0.67,5.951-0.89,9.592-1.828c0.624-1.561-1.443-2.365-3.839-3.213
					c-2.397-0.85-5.129-1.772-5.854-3.28c0.362,0.373,1.074,1.116,0.725,1.505c-1.574-0.611-3.134-1.258-4.684-1.916
					c4.313,2.329-1.483,3.028-4.067,2.521c-1.833-0.441-5.445-1.46-4.672-2.17l2.913,0.188c-1.586-1.028-3.667-1.081-5.767-1.264
					c-2.089-0.195-4.202-0.511-5.686-2.039c0.074-0.762,1.558-0.563,1.923-0.915c-4.818,0.565-8.669-1.1-15.193-2.419
					c1.599-0.442,3.181-0.91,4.748-1.396c-3.06,0.604-7.179-0.614-11.217-2.798c-4.044-2.176-7.979-5.307-10.868-8.261
					c0.457,0.945,1.64,2.114,0.481,2.145c-4.493-1.862-6.207-5.765-3.438-5.962c-2.658-0.142-5.979-3.105-9.337-6.256
					c-3.378-3.146-6.782-6.458-10.295-7.218c-10.899-2.207-21.946-5.604-32.926-10.188c1.08,0.646,2.146,1.396,3.104,2.285
					c-0.277,4.021,1.061,5.036-4.348,2.92c2.217,1.426,3.452,1.364,4.751,1.658c1.309,0.284,2.665,0.928,5.269,3.585
					c-3.023-1.139-6.039,0.54-1.182,6.041c7.445,5.506,14.956,8.425,22.365,10.639c7.438,2.202,14.792,3.713,22.563,6.132
					c-0.341,1.088,2.217,3.157,5.561,5.277c3.342,2.12,7.461,4.252,10.08,5.806c-3.123,1.11-7.532-0.373-11.91-2.319
					c2.521,1.618,7.039,4.112,10.438,5.864L185.882,427.396z"/>
				<path fill="#4A73A4" d="M147.836,412.601c0.229,0.427,0.521,0.799,0.837,1.159C148.581,413.467,148.345,413.103,147.836,412.601
					z"/>
				<path fill="#4A73A4" d="M170.812,424.252c-0.091,0.038-0.104,0.105-0.169,0.173l1.396,0.608
					C171.601,424.769,171.116,424.45,170.812,424.252z"/>
				<path fill="#4A73A4" d="M107.21,387.35c-1.188-0.462-1.828-1-3.021-1.475c0.6,0.402,1.268,0.968,1.931,1.494
					C106.844,387.793,107.312,387.892,107.21,387.35z"/>
				<path fill="#4A73A4" d="M107.936,382.047l1.068-0.103c-0.207-0.431-0.393-0.698-0.587-1.066
					C107.956,381.077,107.715,381.435,107.936,382.047z"/>
				<path fill="#4A73A4" d="M245.553,464.236l1.819-0.315C246.299,463.87,245.821,464.016,245.553,464.236z"/>
				<path fill="#4A73A4" d="M201.895,438.107c-2.837-0.912-3.291-0.223-4.033,0.351c-0.736,0.563-1.782,1.03-5.763-0.592
					l2.259,1.135c-3.125-0.48-7.143-1.979-11.146-3.843c-4.018-1.853-8.002-4.082-11.252-5.813c1.348-0.737-3.089-3.577-1.315-4.922
					c-4.523-2.054-8.878-4.337-12.192-4.034c-2.192-2.277-7.132-3.521-9.775-6.631c0.298,0.995-1.462,0.976-2.219,1.266
					c-0.755,0.282-0.522,0.976,3.862,3.272c-0.732-0.333-0.502,0.188-1.231-0.138c2.039,2.564,4.047,3.604,6.075,4.355
					c2.027,0.763,4.089,1.233,6.381,2.663c1.047,1.374-0.333,1.094-1.692,0.699c-1.352-0.396-2.686-0.894-1.52,0.146
					c3.163,1.396,7.537,4.487,11.462,6.589c3.917,2.107,7.307,3.239,8.126,1.104c4.516,1.898,4.71,3.048,5.688,4.439
					c4.546-0.563,10.865,2.705,16.612,5.099c5.717,2.431,10.736,4.021,11.549,1.035c-2.752-0.536-7.02-2.022-11.336-2.158
					L201.895,438.107z"/>
				<path fill="#4A73A4" d="M114.46,395.324c0.245,0.311,0.609,0.688,0.792,0.966C115.028,395.996,114.74,395.639,114.46,395.324z"
					/>
				<path fill="#4A73A4" d="M90,320.24c1.557,0.305,3.101,0.595,4.658,0.86c2.883,6.213,4.738,10.444,6.514,14.513
					c1.788,4.051,3.486,7.937,6.533,13.077c-0.03,1.071-1.059-0.014-1.578-0.565c2.285,3.557,4.948,8.101,7.808,12.181
					c2.844,4.085,5.859,7.705,8.477,9.534c0.797,1.067,2.051,3.154,2.802,4.817c0.758,1.65,0.995,2.897-0.326,2.26
					c1.122,0.774,2.36,1.683,3.259,2.896c-0.842,1.272-2.529-2.273-3.496-1.568c0.709,0.978,0.806,1.52,1.33,1.431
					c-1.136-0.357-1.729,0.848-2.81,1.235c-1.068,0.382-2.682-0.038-5.688-3.85c0.17-2.526,1.286-1.271,2.564,0.073
					c1.279,1.354,2.743,2.782,3.479,0.738c-1.99-2.431-2.879-1.242-3.408-1.159c-2.477-3.211-1.631-3.727-0.828-4.081
					c-1.896-0.492-3.612-5.505-6.271-6.219c-4.709-6.273,2.545-1.259-0.359-5.424c-1.6-0.097-3.201-0.21-4.807-0.352
					c-1.355-2.522-2.659-5.076-3.896-7.648c-3.686-5.006-4.857-3.89-6.297-2.828c-1.399,1.021-3.103,2.014-7.443-4.064
					c2.656,0.796,2.895-5.897,0.959-12.288c0.873,1.8,2.646,4.11,4.396,6.557c1.754,2.448,3.477,5.032,4.205,7.545
					c-0.386-3.878,0.852-1.727,2.375,0.724c1.53,2.457,3.396,5.19,3.934,2.735c-3.184-2.177-6.229-7.272-7.445-11.762l0.982,1.18
					c-0.901-2.255-2.636-3.773-4.313-5.62c-1.672-1.842-3.31-4.013-3.883-7.434c-1.371-3.072-0.118-2.884,0.922-2.663
					C90.768,322.667,89.211,320.533,90,320.24z M93.349,326.719c0.438,1.421,0.897,2.835,1.373,4.246
					C94.876,329.746,94.209,328.239,93.349,326.719z"/>
				<path fill="#4A73A4" d="M462.717,133.083c0.188,0.521,0.417,1.113,0.57,1.593C463.262,134.272,463.008,133.69,462.717,133.083z"
					/>
				<path fill="#4A73A4" d="M61.088,140.51l1.641-2.746C62.003,138.788,61.511,139.686,61.088,140.51z"/>
				<path fill="#4A73A4" d="M95.143,74.31c0.963-1.362,1.942-2.716,2.938-4.061C96.702,71.63,95.846,72.946,95.143,74.31z"/>
				<path fill="#4A73A4" d="M441.186,101.929l-0.079-0.136c-0.215-0.16-0.409-0.256-0.625-0.433L441.186,101.929z"/>
				<path fill="#4A73A4" d="M230.341,16.106c0.766,0.213,1.61,0.377,2.742,0.456C232.9,16.206,231.881,16.062,230.341,16.106z"/>
				<path fill="#4A73A4" d="M94.615,75.065l0.264-0.159c0.081-0.19,0.17-0.399,0.267-0.596L94.615,75.065z"/>
				<path fill="#4A73A4" d="M37.643,165.369c-0.146,0.711-0.278,1.359-0.388,2.139C37.531,166.535,37.607,165.903,37.643,165.369z"
					/>
				<path fill="#4A73A4" d="M49.388,164.956c-0.179,0.722-0.326,1.421-0.373,1.99L49.388,164.956z"/>
				<path fill="#4A73A4" d="M25.908,273.948l0.935,4.362C26.577,276.152,26.254,274.877,25.908,273.948z"/>
				<path fill="#4A73A4" d="M43.073,174.842c0.09,0.298,0.171,0.593,0.276,0.808C43.43,175.043,43.31,174.699,43.073,174.842z"/>
				<polygon fill="#4A73A4" points="464.713,161.852 464.601,161.631 464.152,161.717 				"/>
				<path fill="#4A73A4" d="M473.687,168.972c0.549,1.069,1.073,2.203,1.603,3.314C474.825,171.003,474.255,169.8,473.687,168.972z"
					/>
				<path fill="#4A73A4" d="M293.082,21.446c1.06,0.674,3.582,1.702,2.273,2.154C297.597,23.109,297.738,21.16,293.082,21.446z"/>
				<path fill="#4A73A4" d="M434.997,155.617c0.735,0.255,1.426,0.705,2.11,1.162C435.981,155.847,434.997,155.042,434.997,155.617z
					"/>
				<path fill="#4A73A4" d="M437.11,156.779c0.563,0.458,1.155,0.956,1.694,1.351C438.265,157.623,437.689,157.168,437.11,156.779z"
					/>
				<path fill="#4A73A4" d="M264.454,51.339c-0.242-0.257-0.619-0.473-1.132-0.537C263.477,51.32,263.884,51.429,264.454,51.339z"/>
				<path fill="#4A73A4" d="M475.731,175.277c0.54,0.152,2.604,3.832,3.961,5.925c1.361,2.088,2.188,2.517,0.259-4.001
					c1.425-0.212,2.444,1.76,3.29,4.205c0.835,2.449,1.501,5.353,2.323,7.015c-0.09-2.741,2.109,0.775,2.864-0.273
					c-0.834-1.673-2.207-3.527-2.921-6.462c0.813-1.723,3.057,2.414,3.558,6.025c0.223-4.708,3.704,4.856,3.081-1.556
					c-2.351-6.404-4.686-11.742-7.343-16.373c-2.651-4.63-5.653-8.544-9.414-11.99c3.678,6.63,7.471,14.349,8.333,20.62
					l-3.152-1.679c-0.26-7.295-3.337-10.792-5.812-17.16c1.641,4.885,3.107,9.813,4.419,14.768c0.405,7.44-1.551,3.019-3.888-2.055
					C475.733,173.586,476.024,174.803,475.731,175.277z"/>
				<path fill="#4A73A4" d="M452.207,173.903l0.024,0.237c0.152,0.154,0.299,0.363,0.443,0.442L452.207,173.903z"/>
				<path fill="#4A73A4" d="M75.232,269.316l1.016,1.023C75.754,269.461,75.448,269.198,75.232,269.316z"/>
				<path fill="#4A73A4" d="M459.773,161.503l0.004,0.009C459.713,161.435,459.7,161.413,459.773,161.503z"/>
				<path fill="#4A73A4" d="M75.173,241.81c0.063,0.042,0.134,0.086,0.206,0.159C75.308,241.866,75.236,241.862,75.173,241.81z"/>
				<path fill="#4A73A4" d="M23.198,229.448c-0.116,0.053-0.229,0.062-0.354,0.202C22.914,230.403,23.061,230.055,23.198,229.448z"
					/>
				<path fill="#4A73A4" d="M74.948,241.776c0.074,0.004,0.147-0.009,0.227,0.035C75.095,241.785,75.021,241.732,74.948,241.776z"/>
				<path fill="#4A73A4" d="M118.979,114.957c0,0-0.605,0.042-1.374,0.291C117.593,115.6,117.973,115.576,118.979,114.957z"/>
				<path fill="#4A73A4" d="M98.882,134.466c-0.175,0.096-0.3,0.137-0.513,0.271L98.882,134.466z"/>
				<path fill="#4A73A4" d="M286.627,9.652c-1.64-0.174-2.873-0.224-3.92-0.195C283.899,9.606,285.191,9.714,286.627,9.652z"/>
				<path fill="#4A73A4" d="M75.378,241.969c0.241,0.29,0.484,0.696,0.78,1.356C75.847,242.599,75.6,242.207,75.378,241.969z"/>
				<path fill="#4A73A4" d="M143.016,77.025l-0.571,0.743c0.174-0.068,0.329-0.155,0.508-0.212L143.016,77.025z"/>
				<path fill="#4A73A4" d="M156.643,70.101c-0.295,0.506-0.345,0.873-0.454,1.243c2.014-1.856,5.31-3.798,8.102-5.555
					c2.792-1.76,5.069-3.376,5.005-4.797c-0.812,0.444-3.496,1.458-5.896,2.142c-2.395,0.688-4.511,1.045-4.181-0.031
					c-2.996,2.459-8.776,3.933-10.287,5.454c6.098-2.21,1.718,1.447-1.265,4.536c-3.604,1.543-0.582-2.147-3.6-0.652
					c-2.4,1.786-4.769,3.619-7.09,5.504c2.143-1.487,4.315-2.919,6.504-4.325l-0.466,3.405l0.502-0.649
					c4.999-4.251,5.798-3.577,6.521-3.052C150.793,73.881,151.467,74.29,156.643,70.101z"/>
				<path fill="#4A73A4" d="M156.189,71.344c-0.599,0.563-1.095,1.101-1.416,1.618C155.777,72.283,156.04,71.817,156.189,71.344z"/>
				<path fill="#4A73A4" d="M205.095,53.434c0.594-0.271,1.229-0.597,2.022-1.03C206.74,52.61,205.84,53.01,205.095,53.434z"/>
				<path fill="#4A73A4" d="M86.445,363.776c0.266-0.288-0.233-2.229-0.952-3.972c-0.726-1.739-1.688-3.29-2.5-2.772
					c0.897,2.036,1.814,4.088,2.776,6.133L86.445,363.776z"/>
				<path fill="#4A73A4" d="M346.815,49.638c-0.771-0.387-1.567-0.73-2.385-1.031c-0.208,0.018-0.413,0.048-0.579,0.087
					C344.234,49.157,345.948,49.475,346.815,49.638z"/>
				<path fill="#4A73A4" d="M160.838,61.134c-1.092,0.95-1.479,1.537-1.622,1.969C159.93,62.511,160.54,61.878,160.838,61.134z"/>
				<path fill="#4A73A4" d="M345.483,54.051c0.782,0.922,1.896,2.32,1.806,3.086c1.985,0.888,3.799,0.608,5.978,1.235
					C350.865,57.541,348.303,56.171,345.483,54.051z"/>
				<path fill="#4A73A4" d="M353.443,58.417c-0.063-0.011-0.125-0.03-0.18-0.045C353.32,58.398,353.381,58.402,353.443,58.417z"/>
				<path fill="#4A73A4" d="M88.062,368.014c0.464,0.476,0.932,0.969,1.402,1.479l-0.994-0.604l2.315,4.669
					c0.446,0.452,0.924,0.949,1.438,1.604c-0.238-0.243-0.553-0.345-0.816-0.361l0.744,1.505c1.985,1.152,4.75,3.592,7.406,5.873
					c2.65,2.291,5.195,4.43,6.563,5.191c3.071,2.462,6.487,5.677,8.343,7.955c-1.794-2.038-4.443-4.529-4.572-2.991
					c1.372,2.484,1.924,4.774,3.231,7.105c1.305,2.318,3.378,4.708,7.821,7.095c-1.358-1.313-2.696-2.648-4.021-4
					c3.979,2.068,7.981,3.996,12.019,5.761c1.021,2.132-0.491,1.486-2.557,0.257c-2.067-1.221-4.626-3.077-5.797-3.15
					c4.245,2.728,6.945,6.404,9.425,9.475c2.465,3.063,4.684,5.493,7.629,5.479c-0.854,2.096-2.326,5.73,3.173,9.538
					c-2.35-4.841,4.137,1.052,2.584-3.426c2.534,0.327,5.475,4.874,6.729,3.713l-1.019,0.409c3.633,4.587,7.123,6.147,10.189,6.656
					c3.082,0.511,5.795-0.037,8.268,0.322c5.95,2.765,10.168,4.957,14.157,6.993c3.986,2.029,7.747,3.896,12.813,5.605
					c-0.141,1.509,1.235,6.376,5.494,7.626c1.286-0.629,4.339-0.393,7.278-0.371c2.94,0.037,5.758-0.119,6.557-1.226
					c-3.563-1.496-5.191-1.44-6.547-1.063c-1.351,0.375-2.397,1.048-4.705,0.628c-2.824-3.735,0.459-2.601-3.932-5.801
					c1.796,1.19,6.395,2.379,11.02,3.529c4.627,1.165,9.278,2.306,11.254,4.021l-1.663-0.016c3.407,1.563,5.172,3.921,7.746,5.717
					c2.56,1.776,5.979,3.049,12.438,1.938c2.036-0.271,4.063-0.579,6.075-0.911c-0.308,0.227-0.369,0.521-0.543,0.73
					c4.826,0.585,6.544,1.452,8.423,2.04c1.872,0.563,3.936,0.864,9.35-0.218c-0.838,0.169-0.314,0.46-1.167,0.614
					c3.073,0.764,6.195,0.378,9.078-0.317c2.892-0.688,5.54-1.714,7.82-2.159c2.966,1.922-0.516,2.147-2.208,3.771
					c5.484,0.116,11.117-1.133,16.042-2.945c4.938-1.802,9.166-4.147,12.146-6.071c2.322-0.029,4.648-0.132,6.985-0.24
					c-3.759,1.8-8.308,4.96-6.825,5.978c3.72-1.196,2.772-1.986,8.181-2.821c-0.589,1.542-2.544,3.3-4.759,5.519
					c5.888-0.104,6.238-1.493,6.213-2.47c-0.021-1.005-0.427-1.622,3.979-0.604c3.507-0.901,4.958-3.415,4.858-5.099
					c2.26,0.088,4.525,0.126,6.81,0.135c0.021-1.106,1.906-2.313,4.36-3.538c2.456-1.229,5.479-2.501,7.826-3.624
					c0.24-1.053-4.684-0.533-6.227,0.895c-0.193-1.672,4.596-4.314,7.8-5.671c1.444,1.796,6.69-0.65,11.219-2.96
					c4.521-2.3,8.396-4.404,7.793-1.13c6.721-4.4,14.648-9.82,21.562-15.426c6.938-5.563,12.843-11.272,16.112-15.408
					c3.382-1.341,8.53-6.184,6.879-1.771c4.688-4.42,7.269-8.736,9.799-12.939c2.521-4.229,4.995-8.351,9.346-12.924
					c1.099-0.463-3.515,4.471-2.114,5.046c1.941-3.758,4.604-6.414,7.604-9.602c2.983-3.188,6.332-6.908,9.259-12.692
					c-1.085,1.878-0.671,2.897-0.446,3.402c-0.729-0.204,1.589-5.279,2.643-8.511c1.272-1.422-0.814,2.411,0.199,1.798
					c7.308-10.189,11.294-20.682,14.212-31.237c2.902-10.609,4.802-21.299,7.563-33.156c-1.597,6.753,0.438,10.047,1.578,10.446
					c0.629-2.23,1.209-4.479,1.768-6.729c-0.774-2.933,0.315-8.006-0.004-12.457c0.641-0.42,1.563-2.41,1.883-0.164
					c2.615-6.513,1.988-12.098,1.013-17.895c-0.988-5.831-2.287-11.869-1.513-20.1c1.949,6.663,3.601,13.5,4.919,20.493
					c0.837-1.623,1.65-3.264,2.446-4.92c0.676,3.088,1.296,6.211,1.838,9.36c2.211-5.343-1.21-10.403,1.032-10.903
					c0.549,1.199,0.148,3.988,1.319,4.172c1.253-5.254-0.386-5.785-0.639-9.771c2.052,5.317,2.636,13.282,2.268,21.278
					c-0.332,8.005-1.609,16.003-2.342,21.646c-0.051,1.816-0.712-1.729-1.103-2.129c-0.861,4.531-2.851,6.863-3.637,12.623
					c0.84,3.979,2.117-2.263,2.985-5.001c1.494,0.787,1.054,2.175,0.438,5.342c-1.158,0.043-2.506,4.229-4.241,8.729
					c-1.713,4.506-3.82,9.316-5.816,10.736c-2.771,7.999-1.319,7.907,0.12,7.708c0.704-0.104,1.366-0.243,1.39,0.595
					c0.02,0.833-0.579,2.664-2.54,6.406c-1.462,1.184-2.927,2.343-4.403,3.476c-1.228,4.785-2.992,10.183-5.347,15.497
					c-2.339,5.315-5.268,10.545-8.604,15l1.234-1.991c-0.037-1.891-2.011-0.112-3.097,0.513c-2.77,3.145-4.666,6.614-6.549,9.64
					c-1.876,3.017-3.739,5.565-6.309,6.716c-1.949,4.515-5.253,10.09-9.079,15.539c-3.82,5.45-8.183,10.748-11.886,14.944
					c-2.221-0.257,0.042-3.146,2.959-6.638c2.935-3.478,6.475-7.636,7.279-9.992c-2.278,2.39-4.607,4.728-6.989,7.013
					c4.375-4.283,5.145-6.941,6.253-10.858c-3.151,2.902-4.741,5.307-6.221,7.805c-1.479,2.488-2.835,5.076-5.614,8.141
					c-0.133-1.104-1.299-0.763-4.154,1.691l0.612,2.364c-0.172-0.092-0.601,0.056-1.582,0.709
					c-3.451,3.48-7.019,6.878-10.714,10.146c3.069-1.106,4.359,0.322,7.423-2.024c-1.873-0.167,0.546-2.356,3.521-4.771
					c-1.68,3.265,3.659-1.461,4.356-0.526c-5.913,5.032-13.356,11.005-17.232,14.393l-2.514-0.723
					c-6.331,3.755-12.4,8.757-17.073,10.688l0.836-1.71c-7.906,3.822-15.158,8.852-23.118,10.129
					c-6.233,5.259-14.981,10.469-20.577,14.683c-1.297,1.764-7.23,2.716-13.805,3.563c-6.581,0.896-13.767,1.656-17.969,4.161
					c-0.636-0.17,5.841-2.93,8.628-4.527c-5.896,0.757-10.137,4.648-12.396,2.189c6.701-0.518,6.427-1.104,5.22-1.657
					c-1.21-0.574-3.324-1.222-0.446-2.085c-6.095,1.079-12.521,2.277-15.479,3.53c5.017-0.499,4.231,0.499,3.438,1.41
					c-0.799,0.889-1.597,1.662,3.47,0.467c-7.646,3.313-18.756,4.997-28.383,4.031c0.098-1.201-1.085-1.723-4.627-2.293
					l-2.926,1.638c-2.24-0.233-0.046-0.666,1.563-1.164c1.612-0.512,2.639-1.048-1.819-1.501c-4.66,1.319-11.625,0.437-17.873-0.407
					c-6.264-0.832-11.851-1.563-14.353,0.742c-3.313-1.706,0.127-1.606,3.098-1.728c2.984-0.129,5.478-0.414,0.479-2.544
					c3.18-0.46,6.75,0.118,9.852,0.472c3.1,0.359,5.711,0.48,6.828-0.778c-5.987,0.188-1.923-2.501-5.689-2.938
					c-2.235,0.293-4.484,0.563-6.744,0.787l1.431,0.315c-5.671,0.489-12.876-0.428-20.292-2.129
					c-7.426-1.685-15.042-4.145-21.847-6.295c-6.158-0.7-11.571-1.042-17.146-2.038c-5.56-1.016-11.305-2.681-17.813-6.328
					c2.319,0.319-0.237-1.463-2.112-3.136c-1.876-1.689-3.085-3.192,1.651-2.229c-5.219-4.479-11.688-6.597-12.454-5.684
					c4.877,3.502,1.568,1.456,5.609,4.56c-3.695-0.462-10.396-4.778-12.521-7.409c1.183,0.934,0.869,0.377,1.392,0.188
					c-2.697-2.401-3.59-2.611-4.411-2.509c-0.82,0.103-1.553,0.512-3.851-0.771c-0.08-1.307-2.316-3.1-4.887-5.103
					c-2.57-1.997-5.479-4.206-6.953-6.136c-2.373-0.732-4.742-1.515-7.113-2.332c2.058,0.556,0.917-0.672-0.665-2.301
					c-1.583-1.633-3.587-3.7-3.381-4.703c-4.467-2.437-9.156-3.728-13.955-9.685c1.437,0.817,0.502-0.688-0.564-2.596
					c-1.08-1.899-2.293-4.199-1.606-4.875c-3.492-5.454-7.778-8.771-11.896-12.287c-4.099-3.501-8.017-7.211-10.199-13.13
					c0.59,0.082,2.979,1.46,1.456-1.797c-1.979-2.068-4.341-6.395-6.016-8.896l0.097,0.058c-0.044-0.042-0.082-0.063-0.125-0.109
					c-0.82-1.227-1.487-1.914-1.909-1.719c-2.075-1.796-3.859-3.066-5.878-4.954c-2.021-1.891-4.31-4.385-7.231-8.752
					c-1.7,1.632,2.943,9.234,5.417,12.218l3.476,1.839c-0.695,2.168,0.587,4.152,2.088,5.872c1.495,1.729,3.201,3.195,3.354,4.498
					c-3.289-1.612-7.056-6.472-10.67-12.105c-3.622-5.64-7.074-12.031-10.336-16.584c-0.067,3.671,1.33,8.931,3.707,14.595
					c2.354,5.675,5.698,11.729,9.196,17.118c-0.605-1.84-1.187-3.686-1.747-5.524c1.133,1.919,2.284,3.827,3.464,5.717
					c-0.467-2.242-0.896-4.485-1.299-6.725c2.804,5.637,6.217,9.91,9.271,14.677c-3.741-5.509-2.485-9.32-0.908-5.92
					c1.093,3.659,2.476,5.061,3.931,6.106c1.458,1.054,2.996,1.766,4.574,4.057c-1.667-2.624-3.904-5.961-1.402-4.546
					c2.054,5.228,3.988,8.164,5.84,10.979c1.87,2.816,3.659,5.52,5.854,10.265c0.99-1.66,3.076,0.666,5.397,3.235
					c2.313,2.581,4.895,5.396,6.49,4.896c-0.986-1.188-1.972-2.369-2.936-3.571c2.754,1.896,5.525,3.729,8.333,5.487
					c2.135,4.205,0.206,3.366-1.266,2.833c-1.449-0.536-2.478-0.721,1.781,4.869c4.534,4.546,7.496,5.938,10.195,7.026
					c2.723,1.075,5.21,1.845,9.185,4.818c-3.901-0.304-11.321-3.938-17.245-9.56c0.971,1.367,1.949,2.74,2.952,4.099
					c-1.398-0.398-4.163-2.56-7.013-5.188c-2.856-2.62-5.776-5.723-7.687-7.813c4.146,2.497,3.514,1.563,1.67-0.513
					c-1.844-2.08-4.832-5.413-5.502-7.638c-2.088,0.802,2.164,5.073-3.813,0.892c2.211,2.491,3.551,3.854,4.963,5.459
					c1.427,1.591,2.922,3.425,5.644,6.712c-6.112-6.853-10.133-8.74-14.008-10.529c-3.823-1.807-7.48-3.542-11.805-10.572
					c5.36,5.366,0.771-3.921,1.107-5.239c-2.313-2.636-6.8-8.163-8.835-10.335l-1.025,3.903c-3.229-3.591-3.893-7.02-4.769-10.438
					c-0.876-3.439-1.969-6.854-5.979-10.873c-1.135-0.19-0.12,2.007,1.078,4.024c1.185,2.024,2.539,3.867,1.882,3.109
					c-4.639-5.995-6.37-10.938-7.438-15.848c-1.038-4.938-1.409-9.879-2.914-16.33c-1.116-0.335-2.851,0.589-6.082-3.118
					c2.231,0.663,1.816-2.822,4.994,1.447c-0.962-4.321-4.041-8.662-5.999-12.098c1.039,4.484,0.13,3.841-1.283,1.896
					c-1.396-1.946-3.207-5.229-3.983-5.874c-1.188-4.664,2.159,0.843,3.63,3.419c-0.815-3.791,0.396-8.878-2.833-10.151
					c0.896-0.347,2.855,1.843,4.989,4.851c2.127,3.014,4.442,6.837,5.913,9.979c-0.463-1.486-0.896-2.981-1.332-4.479
					c2.024,2.68,1.944,3.333,3.361,7.741c-0.274-4.751,1.464-4.899,3.092-4.426c-0.056,0.646-0.54-0.141-0.599,0.479
					c0.87,3.597,2.446,5.995,3.061,4.819c3.61,2.036-0.437-5.269-0.054-8.021c-0.805-1.668-1.603-3.344-2.36-4.998
					c-4.669-4.99-9.167-10.271-13.486-15.818c-3.012-7.801-1.834-11.936-1.777-18.201l-2.479-1.273
					c-1.059-7.151-1.166-13.942,2.208-9.787c-0.691,0.354-0.396,1.263-0.271,2.806c0.332,0.156,0.6,0.479,0.841,0.894
					c0.149,0.126,0.289,0.188,0.435,0.287c-1.886-7.39-2.774-12.095-2.917-12.517c2.303,6.254,3.383,6.229,4.297,4.942
					c0.928-1.302,1.823-3.89,3.889-3.067c-0.908-4.141-1.714-8.313-2.406-12.518c-0.687,7.789-1.938,0.287-2.596-2.46
					c1.08-0.44,0.938-3.005,0.612-6.038c-0.326-3.031-0.841-6.544-0.657-8.794l0.45,0.334c0.761-4.15,0.803-11.393,0.611-16.612
					c-0.379,0.09-1.338-1.587-2.423-3.748c-1.078-2.158-2.26-4.806-3.148-6.562c-1.771,9.013-2.075,3.543-3.527,4.131
					c0.206-0.942,0.427-2.649,0.163-2.879c-0.479-1.388-1.021,1.703-1.771,1.895c0.016,9.943,0.07,20.109,3.154,24.084
					c1.4-2.957-1.269-5.109-0.225-8.436c1.896,4.891,1.365,11.015,1.593,19.062l-1.727,2.722c0.469,2.696,0.965,5.385,1.521,8.056
					c-0.627-1.648-1.365-1.938-2.085-2.875c-0.712-0.938-1.42-2.535-1.792-6.839c-0.846,0.585-0.65,2.729-0.25,5.377
					c0.419,2.647,1.04,5.792,1.014,8.451l2.71,2.433c-1.519-0.902-0.409,10.375-3.227,2.604c-1.167-4.277-2.226-8.603-3.173-12.964
					c-0.47,1.259-0.956,2.525-1.408,3.803c-0.444-3.732-0.813-7.479-1.101-11.229l1.37,2.604c-1.202-8.992,0.151-10.354,1.18-11.68
					c1.113-1.347,1.896-2.639,0.815-11.68c-2.683-5.768-2.66-12.028-0.494-23.01c-0.359,8.09,1.959,1.088,3.292,4.296
					c2.236-7.882,0.331-10.919-0.079-15.334c1.93-1.772,3.411-2.97,1.941,4.127c1.549,0.714,1.782-1.648,2.126-4.196
					c0.334-2.549,0.778-5.287,2.506-5.259c1.185-5.82,1.547-10.012,1.468-13.508c-0.063-3.49-0.538-6.27-0.813-9.159
					c-0.262-2.884-0.333-5.887,0.556-9.764c0.889-3.87,2.729-8.639,6.438-14.833l0.85,1.507c2.664-8.666,5.771-15.132,9.046-21.274
					c3.296-6.144,6.771-11.971,10.838-19.326c3.349-3.085,6.764-6.056,10.238-8.91c-0.641,1.338-1.541,3.986-1.819,6.035
					c-0.279,2.053,0.047,3.494,1.737,2.469c-6.413,3.224-8.927,9.574-13.893,14.542c0.455,1.051,2.389-1.03,3.479-1.777
					c-2.063,3.504-4.452,4.538-6.438,9.612c0.752,0.086,4.289-4.662,2.58-0.571c-1.768,1.814-3.53,3.654-5.254,5.539
					c-1.702,4.649-1.001,6.3-0.65,8.009c0.375,1.724,0.387,3.48-2.257,8.53c-0.977-2.673-1.821-7.817-0.33-12.099
					c-1.306,2.318-0.826,0.596-0.397-1.229c0.438-1.815,0.838-3.737-0.737-1.785c-0.365,4.093-1.386,6.728-2.624,9.636
					c-1.223,2.904-2.675,6.082-3.631,11.153c0.054-1.254-0.376-1.756,0.382-4.155c-2.181,4.444-4.239,8.962-6.155,13.552
					c1.37-1.484,0.823,1.568,0.387,4.918c-0.445,3.354-0.771,7,0.605,6.673c2.624-7.347,3.43-9.959,4.315-12.848
					c0.931-2.864,1.912-6.037,5.882-13.977c-1.407,4.856-1.245,11.773,0.014,15.31c-0.138,0.112-0.292,0.323-0.504,0.814
					c1.481,3.277,2.97,0.935,7.006,2.369c-0.211-4.12,0.778-7.211,2.026-10.359c1.257-3.155,2.771-6.368,3.823-10.887
					c-1.439-2.55-4.938,3.668-6.037,8.177c0.521-2.705,1.078-5.416,1.7-8.117l0.349,1.9c2.958-6.222,6.181-12.305,9.651-18.23
					c-1.724,3.507-1.102,5.313-1.08,7.57c1.254-2.313,2.998-4.344,4.906-6.438c-2.241-0.551-3.479-1.627-2.188-3.877
					c6.936-11.315,12.881-16.21,17.686-18.656l0.739-1.324c-1.563,0.224-1.087-2.261-0.063-5.386
					c1.016-3.125,2.602-6.871,2.988-9.211c1.708,1.632,5.418-4.416,8.871-6.454c-0.69-3.317-5.315-3.833-10.126-1.585
					c-2.008,4.34-2.28,5.746-2.116,6.747c0.174,0.999,0.813,1.616,0.9,4.385c-2.339,4.284-4.517,8.631-6.563,13.01l0.046-3.878
					c-4.971,5.374-6.167,12.813-8.278,10.863c0.406-4.273,4.864-8.937,5.533-13.132c-1.215,1.117-2.41,2.257-3.604,3.405
					c1.266-4.333,2.485-4.852,3.873-5.479c1.415-0.623,2.982-1.366,5.348-6.062c-4.211,1.581,0.393-0.869,1.926-5.344
					c-1.784,0.868-4.492,4.604-6.818,7.559c-2.332,2.948-4.35,5.116-5.112,2.645c0.854-2.769,4.557-5.831,8.243-9.059
					c3.688-3.25,7.368-6.653,8.229-10.714l0.11,0.568c3.717-3.842,5.857-6.762,7.277-9.262c1.43-2.489,2.129-4.55,3.063-6.494
					c4.183-2.291,7.56-7.958,11.273-11.361l0.688,0.979c1.665-1.661,3.354-3.302,5.067-4.917c-1.207,3.791-6.383,5.223-10.642,9.574
					l2.045,1.122c-3.438,1.366-5.313,3.633-6.59,6.162c-1.285,2.527-1.965,5.332-3.103,7.896c1.953-3.456,5.923-7.219,9.256-10.553
					c3.326-3.348,6.035-6.289,5.315-8.533c1.712-0.485,3.414-0.958,5.122-1.402l1.267-2.081c3.844-0.932,2.575,3.353-2.256,8.14
					c-1.258,0.354-1.887,0.54-1.919-0.045c-1.736,2.854-2.774,5.993-8.586,10.924l2.125-3.669
					c-7.058,6.429-12.271,13.471-12.758,17.32c9.684-9.577,19.476-18.581,29.313-26.652c-0.225-6.25,1.75-11.261,0.621-16.183
					c3.359-3.014,7.507-6.377,11.825-9.229c4.313-2.862,8.773-5.23,12.593-6.42l-0.169,1.149c3.529-1.476,6.479-3.348,8.833-5.163
					c4.114-0.749-1.302,3.431,1.478,2.742c3.521-2.407,7.116-4.727,10.786-6.956c0.07,1.12-2.33,2.775-5.26,4.521
					c-2.938,1.736-6.402,3.58-8.597,4.844c0.76-0.603,2.303-1.816,1.623-1.775c-2.819,0.987-6.207,3.625-9.271,5.899
					c-3.073,2.27-5.843,4.179-7.749,3.587c-2.157,2.009,3.76-5.072-4.592,0.11c-6.142,2.707-6.299,6.235-6.314,7.356
					c0.302,0.511,2.617-0.636,4.604-1.466c1.988-0.832,3.637-1.364,2.563,0.217c4.069-2.898,4.946-5.305,11.056-7.639
					c-4.248,2.661-8.542,8.349-11.734,8.312c-3.434,3.685-3.939,6.509-3.177,8.053c0.773,1.555,2.819,1.883,4.729,0.725
					c-0.944-0.41,2.294-3.348,4.416-5.452c2.115-2.096,3.025-3.523-2.886-0.984c1.731-2.519,4.823-5.206,8.248-7.816
					c3.422-2.617,7.18-5.143,10.185-7.543l-0.091,0.558c2.664-1.646,5.37-3.23,8.104-4.771c-0.927,1.129-3.213,2.884-2.758,3.974
					c3.35-2.896,6.808-5.708,10.365-8.438c-2.921,2.479-1.718,2.343,0.618,1.549c2.335-0.805,5.865-2.183,7.581-2.361
					c0.592-2.204,4.918-5.299-0.056-4.487c-5.648,0.846-2.644,2.101-7.204,4.189c1.794-1.819,3.629-3.621,5.505-5.395l0.677,0.03
					c1.052-1.264,2.128-2.504,3.216-3.755c4.674-1.635,4.116,0.046,3.79,1.274c-0.312,1.255-0.447,2.036,5.092-1.073l-2.582-2.503
					c7.023-2.178,15.361-3.554,23.108-4.579c7.757-1.043,14.924-1.771,19.888-3.246c-2.542,2.223-3.228,5.304,0.774,6.438
					c-4.346,0.051-12.876,1.732-18.814,3.473c-0.642-0.132,1.015-1.507,3.726-2.902c2.705-1.397,6.482-2.787,9.897-3.01
					c-2.063-2.307-6.209-0.762-9.931,0.844c-3.736,1.594-7.072,3.228-8.115,0.749c-8.721,1.271-11.485,3.578-13.918,5.492
					c-2.438,1.982-4.542,3.613-11.962,4.739c0.65,2.277-3.473,2.585-3.396,4.82c2.72,0.99,7.148-0.805,12.199-2.9
					c5.035-2.105,10.723-4.499,15.437-5.039c-0.844,0.403-2.529,1.228-2.75,1.763c6.607-1.103,9.14-2.211,13.521-4.079l-0.635-0.149
					c3.759-1.995,5.116-1.78,6.101-1.093c0.988,0.692,1.639,1.864,4.066,1.972c1.755-0.691,8.394-0.986,7.104-2.536
					c2.962,0.337,5.903,0.754,8.82,1.206l-0.684-2.596c4.865-0.638,6.047,1.042,10.354-0.848l0.07-2.379
					c-4.098-0.042-8.205,0.026-12.314,0.202c6.142-1.395,1.493-2.481,8.358-3.541c-3.759,1.595-2.354,1.808,0.069,1.904
					c2.43,0.089,5.901,0.147,6.326,1.233c1.65-0.527,3.313-1.022,4.984-1.517l-1.271,0.672c3.975,1.115,4.688-1.008,9.321-0.676
					c-5.426-1.338-9.141-2.978-16.048-0.901c2.5-0.824,6.281-1.688,9.771-2.287c3.484-0.608,6.672-0.965,7.925-0.983
					c5.44-0.894,9.161,1.091,14.151,1.717c-4.86,0.131-4.109,2.02-4.561,3.448c-0.222,0.725-0.733,1.332-2.364,1.622
					c-1.632,0.286-4.368,0.228-9.095-0.244c0.354-0.458,1.89-0.335,2.479-0.04c-1.231-1.547-4.104-1.524-7.145-0.923
					c-3.043,0.612-6.232,1.807-8.241,2.491c1.117,1.707-3.066,2.291,4.11,2.98c-1.188-0.512,0.278-1.556,2.938-2.251
					c2.654-0.701,6.51-1.042,9.926-0.235l-1.283,3.704c3.271,0.214,6.541,0.491,9.799,0.846l-0.929,0.125
					c1.771,1.303,4.36,1.375,7.362,1.406c2.996,0.031,6.408,0.057,9.65,1.213c2.501-0.349,8.339,0.494,12.618,0.948
					c4.271,0.445,7.068,0.368,3.489-2.41c5.505,3.548,11.384,1.925,18.047,3.35c-2.549-1.275-5.128-2.519-7.74-3.7
					c5.188-0.043,6.99,0.26,8.595,0.271c1.609,0.029,3.017-0.235,7.563-0.992c0.479,1.22,1.924,2.592,0.021,3.089
					c6.429,2.217,14.02,5.438,20.936,8.411c6.931,2.954,13.214,5.631,17.47,6.195c4.198,2.375,6.043,4.767,8.355,7.207
					c2.312,2.464,5.104,4.918,11.104,7.955c2.61,1.176,0.185-4.177,6.855,1.861c0.301,0.561-8.54-2.716-0.375,2.79
					c3.68,0.914,6.746,3.758,9.863,6.868c3.13,3.116,6.305,6.489,10.507,8.65c2.896,3.979,9.055,9.592,6.207,9.975
					c-2.478-2.86-5.772-6.027-8.734-8.448c-2.959-2.426-5.563-4.116-6.529-4.227c1.694-0.372-3.266-4.48,1.689-1.69
					c-3.833-4.369-5.57-5.224-7.163-5.965c-1.622-0.72-3.121-1.316-6.922-4.831c-1.091,0.321,2.75,5.131,4.944,5.855
					c-0.938,1.231-5.118-1.538-8.532-3.414c-3.421-1.888-5.955-2.978-3.365,1.089c4.273,3.188,7.943,4.059,11.292,5.186
					c3.327,1.128,6.331,2.529,8.81,6.837c-4.033-1.028-7.57-5.996-13.313-6.284c1.751,1.872,3.475,3.758,5.152,5.675
					c1.887,0.577,3.771,1.182,5.656,1.814l-0.55,0.135c4.146,5.451,6.869,6.979,9.941,8.029c3.044,1.063,6.396,1.637,11.181,5.55
					c-1.662-3.315-0.441-3.951,0.902-4.355c1.335-0.402,2.771-0.554,1.334-2.985c6.167,5.77,9.869,10.798,7.546,12.846
					c-6.066-5.021-6.873-4.528-7.563-4.001c-0.711,0.572-1.34,1.19-7.318-2.771c0.773,2.415-5.497,0.813-0.095,6.96
					c3.945,2.618,3.952,1.707,3.854,0.845c-0.11-0.841-0.313-1.627,3.18,1.502c0.158,0.597,0.324,1.21-0.231,1.27
					c4.03,2.172,2.829,4.117,7.479,7l-1.261-0.562c1.284,3.065,2.756,4.105,4.168,5.087c1.396,0.986,2.728,1.916,3.523,4.743
					c0.563-3.146,3.722,1.869,6.842,3.921c-1.231-2.58-1.651-4.956-2.621-7.836c-0.981-2.865-2.521-6.25-6.178-10.591
					c-2.278,0.103-2.521,1.352-6.154-1.586c1.625,1.794,3.229,3.61,4.798,5.457c-1.21-1.041-2.337-1.659-3.524-2.531
					c-1.241-1.979-2.499-3.955-3.806-5.903c3.401,2.895,4.774,3.322,5.822,3.184c1.042-0.129,1.737-0.813,3.686,0.071
					c2.305,3.451,3.424,4.729,4.356,5.679c0.916,0.961,1.644,1.592,2.946,3.86c-1.229,0.588,0.231,4.442,2.301,9.275
					c2.081,4.832,4.71,10.689,6.303,15.125c-0.634-1.298-1.661-2.848-2.122-3.742c-2.488-2.417-2.348-1.128-1.659,0.811
					c0.685,1.945,1.866,4.581,1.605,4.874c1.199,1.169,2.395,2.354,3.567,3.559c-0.607-0.714-1.762-1.51-1.089,0.484
					c1.813,2.745,3.221,3.749,4.642,4.762c1.418,1.015,2.84,2.046,4.532,4.923c-1.111,1.071-5.565-2.903-4.452,1.093
					c-0.263,0.91-0.676,2.738-0.445,5.222c0.229,2.49,1.077,5.627,3.326,9.313c0.758,0.34,1.899,2.272,3.063,4.59
					c-0.204-0.305-0.424-0.702-0.581-0.814c0.201,1.963,0.377,3.922,0.521,5.878c-2.004-1.83-2.598-4.184-3.233-6.555
					c-0.633-2.365-1.325-4.741-3.447-6.442l-2.346,0.592c-1.501-3.4-4.627-7.496-6.769-8.977c2.118,5.196,3.189,5.974,6.182,11.526
					c-1.035,1.391-3.821-2.174-4.236-2.667l1.618,0.287c-0.63-3.803-2.368-6.095-4.394-8.438c-2.039-2.344-4.354-4.742-6.415-8.848
					c-0.604-1.252-0.029-0.606,0.521-0.56c-2.845-2.672-4.546-5.917-6.406-9.074c-1.854-3.147-3.87-6.204-7.192-8.259l2.38,1.203
					c-3.615-3.493-11.179-9.826-19.047-15.373l-0.749,0.551c0.253,1.147-2.004-1.511-2.993-3.145l0.017-0.001
					c-3.973-2.706-7.832-5.154-10.962-7.13c0.427,1.221,1.133,2.6,2.223,3.898c0.892,0.129,2.642,1.863,4.263,3.278
					c1.62,1.415,3.131,2.51,3.662,1.25c1.521,3.875,7.204,7.33,8.263,10.206c-2.044-5.118,4.123,1.405,5.757,1.371
					c-0.146,2.35,4.778,6.3,2.646,6.965c0.161,1.174-0.363-2.946-2.739-4.005c-2.438-1.635-1.259,0.655-0.214,2.794
					c1.045,2.146,1.942,4.149-0.779,1.917c3.125,3.075,6.121,7.131,9.012,11.3c2.906,4.166,5.702,8.444,8.659,11.985
					c-0.531-1.624-1.084-3.245-1.658-4.861c0.855,1.829,2.493,4.796,3.795,7.473c1.31,2.673,2.274,5.049,1.972,5.585
					c-1.495-2.589-3.021-5.723-5.188-8.881c-1.089,0.48-0.011,2.477,1.149,4.521c1.172,2.039,2.428,4.132,1.853,4.639
					c2.758,2.736,5.459,5.575,8.099,8.514c-0.587-1.523-1.188-3.042-1.806-4.554c1.276,1.121,2.553,4.225,3.701,7.964
					c1.156,3.741,2.188,8.102,3.206,11.75c-2.229-1.55-3.153-4.206-4.097-7.364c-0.938-3.151-1.897-6.816-4.073-10.191
					c-3.416-4.737-1.467,4.464-4.335-0.142c-0.127,1.572,1.327,4.71,2.721,6.002l0.231,2.174c-2.243-1.668-4.224-4.973-6.394-8.485
					c-2.154-3.513-4.529-7.225-7.271-9.7c0.563,0.391,1.105,0.708,1.5,0.721c-1.454-5.285-4.224-10.07-7.657-14.093
					c0.669,2.837,1.753,3.445,2.854,4.638c-0.521,0.528-3.317-3.538-5.005-4.662c1.809,4.548-0.991,1.675,0.164,4.517
					c-2.212-2.292-3.36-4.517-5.204-7.838c-0.173-2.257,2.186,0.497,3.182-0.636c-2.913-2.773-1.063-6.3-5.896-10.005
					c2.054,3.294,1.078,3.35-0.646,2.393c-1.738-0.95-4.29-2.848-5.488-3.563l0.7,1.063c-2.822-0.85-4.127-2.351-3.969-4.629
					c2.521,1.942,3.971,4.633,4.802,2.863c-1.322-1.585-2.68-3.142-4.569-4.601l2.32,0.842c-2.262-2.583-4.585-5.105-6.971-7.564
					c-2.228-0.188-5.652-0.666-8.237-0.093c-0.649-2.698-3.853-4.259-5.852-5.43l1.203,0.271c-1.115-2.006-3.683-4.495-6.194-6.343
					c-2.511-1.854-4.943-3.078-5.69-2.815c-0.818-1.475,4.825,0.395,8.466,1.203c1.825,0.38,3.143,0.46,2.905-0.497
					c-0.245-0.94-2.036-2.957-6.644-6.392c-3.368-2.774-5.125-2.738-6.596-2.274c-1.476,0.469-2.688,1.362-5.065,0.514
					c-0.001,0,0.48-0.188,0.27-0.706c-2.805-2.463-4.088-1.328-6.956-2.482c1.438,1.79,3.992,3.668,5.188,3.783
					c-1.931,0.782-6.113-4.6-9.274-4.927c2.282-0.157,0.973-1.375-0.563-2.47c-1.527-1.101-3.258-2.083-1.669-1.939
					c-2.636-2.719-6.012-4.566-9.243-5.668c-3.233-1.107-6.321-1.476-8.479-1.393c-1.435-2.659-3.476-3.492-5.943-4.215
					c-2.483-0.715-5.384-1.327-8.819-3.529c1.109,0.536,3.388,0.881,4.834,1.898c2.539-0.123,0.749-1.227-0.811-2.145
					c-1.549-0.921-2.848-1.705,0.853-1.31c-1.551-0.25-0.546,1.049,1.025,1.332c2.615,0.818,5.371,1.007,5.159-0.207
					c-1.771-1.508-3.57-3.009-5.415-4.461l2.394,0.408c-2.813-2.173-5.7-4.281-8.668-6.318c-0.416,0.321,0.313,1.182,0.685,1.615
					c-5.444-2.643-11.667-4.521-17.78-5.92c-6.118-1.413-12.127-2.338-17.298-3.375c-1.504,2.931-7.879,2.559-15.039,2.315
					c-7.147-0.291-15.144-0.359-19.248,1.642c2.184-1.818,3.457-4.999,2.042-6.305c1.88-0.266,5.855-2.78,10.209-2.034
					c0.664,1.026,5.894,2.518,2.403,3.449c5.929,0.054,5.604-0.604,4.228-1.634c-1.37-1.023-3.837-2.274-1.972-3.321
					c-6.741-0.182-12.111,0.822-16.758,2.047c-4.649,1.24-8.588,2.726-12.645,3.77l-0.267-0.725
					c-2.042,0.639-4.066,1.285-6.071,1.985c2.547-0.072,3.833,0.828,3.66,1.628c-0.174,0.815-1.771,1.526-5.04,1.285l0.758-0.27
					c-1.912-0.528-4.738-0.11-7.765,0.594c-3.028,0.7-6.25,1.681-9.081,2.157c-1.129,0.944-2.244,1.881-3.341,2.843
					c-5.577,1.068-6.774-2.5-9.231-4.24c-4.483,1.097-7.751,2.896-10.532,4.879c-2.784,1.992-5.091,4.179-7.717,6.223
					c-1.653-0.259-5.657,0.835-8.5,1.51c-2.838,0.668-4.572,0.822-1.688-1.63c-3.472,2.401-3.795,5.492-5.064,8.144
					c-1.274,2.697-3.435,4.858-10.639,6.199c0.758-1.072,1.525-2.143,2.313-3.204c-5.744,3.415-12.084,8.535-17.47,13.253
					c-5.403,4.715-9.903,8.992-12.76,10.356c-0.024-3.793-4.171-2.246-8.982,0.226c-4.812,2.446-10.156,5.895-13.076,4.864
					c1.407,0.389-1.859,4.507-1.826,5.552c-1.259,0.397-3.024,1.409-3.447,3.712c2.195-1.683,2.689,0.023,3.263,0.95
					c0.591,0.939,1.188,1.115,3.737-3.421c-0.576,6.473-2.515,13.163-9.065,21.833l-1.826-1.524c1.9-2.217,3.848-4.387,5.837-6.509
					c-1.928-0.399,0.982-3.841,1.578-5.768c-2.878,2.929-4.458,4.131-5.428,4.432c-0.969,0.302-1.317-0.294-1.631-0.855
					c-0.313-0.56-0.592-1.083-1.438-0.606c-0.844,0.476-2.265,1.955-4.728,5.479c0.285,2.243,0.372,0.992-1.657,4.987
					c1.113-1.759-0.008-3.018-1.955-0.238c-0.078,1.258-0.163,2.499-0.217,3.749c-3.286,1.424-2.498-0.997-1.454-3.453
					c1.038-2.443,2.33-4.897-0.292-3.549c1.142-3.315,3.298-7.494,4.796-10.812c1.483-3.323,2.271-5.834,0.386-5.927
					c-3.994,4.081-4.379,7.025-4.799,9.916c-0.4,2.922-0.848,5.785-4.604,10.259l-1.759,0.339c-1.479,3.941-0.019,5.606-0.084,8.143
					c-0.732-0.208-1.735,0.392-3.224,2.548c-0.729,7.438-2.235,11.709-1.841,18.683c2.349-7.907,4.629-10.721,6.86-13.516
					c1.137-1.395,2.294-2.785,3.608-4.78c1.314-1.997,2.772-4.599,4.64-8.397c-0.323,1.365-1.946,4.612-3.07,7.847
					c-1.142,3.229-1.78,6.42-0.529,7.525l-1.988-1.3c-1.563,5.318-2.923,10.558-6.405,16.33c0.159-1.426,0.327-2.859,0.524-4.289
					c-1.188,4.385-3.472,7.409-5.368,10.422c-1.885,3-3.364,5.989-2.669,9.977c1.019-2.284,1.665-4.193,1.874-5.762
					c-0.662,4.674-2.752,10.005-4.545,14.693c0.271,3.676,0.646,7.313,1.124,10.904c-1.147-0.382-2.634,5.931-3.786,2.469
					c-1.686,3.429-1.785,6.226-1.469,8.649c0.313,2.429,1.024,4.495,1.017,6.634c-1.769,3.55-1.833,1.913-1.822-0.804
					c0.013-2.709,0.196-6.466-1.339-7.135c-1.501,5.104-2.28,10.541-2.405,15.432c-0.137,4.895,0.396,9.24,1.329,12.241
					c0.565-2.117,1.058-3.121,1.62-2.979c-0.773,0.269-0.798,4.486-0.867,6.832l1.512,1.64c-1.084,3.865-1.991,3.353-3.115-0.02
					c-0.369,3.8,2.646,8.193,0.598,12.116c-1.065-3.166-1.19-6.849-1.138-10.126c0.057-3.283,0.27-6.165-0.228-7.871
					c0.473,6.763-0.639,10.12-1.697,14.027c-0.516,1.951-0.996,4.033-1.133,6.707c-0.139,2.67,0.058,5.942,0.993,10.203
					c-0.712,0.295-2.45-2.508-2.117,0.85c0.712,3.854,1.594,4.244,2.499,3.971c0.908-0.279,1.876-1.221,2.881-0.146
					c-1.688-5.715-0.952-8.592,0.736-12.092l1.359,1.453c-0.637,0.281-0.363,3.914-0.863,5.049l2.637,0.666
					c-2.87-0.166-4.372,5.972-2.577,10.4c1.329-4.914,1.419-3.645,4.437-5.316c1.938,2.929,1.471,4.771,1.073,6.752
					c-0.401,1.972-0.743,4.09,1.558,7.242c-1.016-0.315-2.861-6.33-2.511-0.895c0.792,4.413,2.835,3.354,4.181,6.079
					c-3.043-2.729-4.563-1.488-8.063-4.563c-0.95-3.953-1.053-4.771-1.287-5.537c-0.209-0.775-0.543-1.496-1.646-5.363
					c-0.319,2.322-0.617,4.668-0.855,7.021c-1.582-6.813-3.479-4.604-4.485-5.032c-0.24,6.196,1.147,8.311,2.569,9.782
					c1.451,1.481,2.977,2.358,3.559,6.172c2.405,3.223-1.281-7.069,1.657-1.826c0.648,3.512,1.141,3.811,1.801,4.17
					c0.674,0.354,1.498,0.793,3.047,4.459l-1.396-0.987c-0.693,2.721,1.628,4.564,2.696,7.15c0.81,1.357,2.491-0.099,4.469-0.396
					c2.001-0.304,4.18,0.537,6.323,6.197c-0.82-0.332-1.288-0.396-1.547-0.305c-7.553-1.483-15.108-3.402-22.667-5.746
					c3.876,13.089,9.158,27.92,15.652,42.541c-0.783,2.579-2.877,0.473-4.847-2.166c-1.97-2.628-3.778-5.765-4.342-4.939
					c-0.847-2.346-1.639-4.705-2.404-7.068c0.833-0.14,2.521,3.345,4.081,5.896c1.561,2.561,2.881,4.208,2.711,0.605
					c-3.367-5.529-5.068-9.93-6.893-14.158c-1.813-4.248-3.748-8.323-7.265-13.682c-1.257,2.426,0.213,6.297,2.12,10.522
					c1.896,4.245,4.237,8.813,4.559,13.125c-1.178-3.216-2.692-5.691-4.255-8.096c2.414,7.291,5.369,15.004,9.021,23.018
					l1.768,1.278c-2.468-5.373-3.928-9.184-4.04-9.71c3.136,7.174,8.333,11.801,11.015,10.794l-0.583-1.227l2.14,1.937
					C86.513,364.793,87.283,366.409,88.062,368.014z M468.723,304.574c0.158,0.515,0.376,0.94,0.696,1.301
					C469.084,305.505,468.753,305.746,468.723,304.574z M48.097,223.937c-1.789,10.437-3.191,21.113-3.456,31.359
					c2.723-9.268,5.755-16.765,7.612-18.274c0.934-0.758,1.564-0.033,1.854,2.709c0.311,2.745,0.264,7.508,0.253,14.895l0.414,1.929
					c0.631-3.866,0.788-10.47,0.785-16.726c-0.845-2.575-2.729-8.111-4.277-13.146c-1.575-5.02-2.834-9.501-3.174-9.461
					c-1.842,1.61-0.563,4.57-1.462,7.875L48.097,223.937z M58.445,218.012c1.591-5.559,0.169-4.485-0.771-5.578
					c-0.241,2.032-0.445,4.063-0.639,6.069C57.436,217.788,57.893,217.481,58.445,218.012z M56.511,212.568
					c-0.148,0.639-0.295,1.18-0.495,1.441L56.511,212.568z M62.907,324.902c-0.108-0.239-0.161-0.32-0.26-0.551
					c0.354,1.346,0.733,2.685,1.138,4.079C63.771,327.84,63.525,326.791,62.907,324.902z M62.034,312.791L59.701,312l0.84,3.866
					C61.307,315.181,61.955,314.512,62.034,312.791z M61.775,275.02c-2.723-2.049-3.345-9.871-6.171-10.228
					c-0.75-0.472-0.939,1.214-1.061,3.108c0.076,2.103,0.156,4.348,0.296,6.727c0.419,0.044,0.842,0.479,1.285,1.225
					c0.127-2.367,0.7-3.972,2.507-3.184c-1.618,3.13-0.792,4.421,0.379,5.682c1.185,1.271,2.708,2.523,2.671,5.736
					c1.135,0.857,1.359-0.957,1.221-3.204C62.758,278.637,62.269,275.938,61.775,275.02z M398.836,86.65
					c-0.016,0.305,0.065,1.203,0.23,2.384c-1.462-0.636-2.932-1.249-4.399-1.843c-2.946-2.796-5.144-5.953-7.655-8.602
					c-2.507-2.64-5.335-4.773-9.369-5.32c-2.396-2.611-3.002-5.149-3.733-7.397c1.405,0.987,2.688,1.968,3.688,2.879
					c5.104,1.748,8.021,3.433,9.761,4.919c1.739,1.499,2.313,2.83,2.743,4.11c0.423,1.294,0.719,2.53,1.848,3.93
					C393.084,83.106,395.051,84.642,398.836,86.65z M316.527,39.11c0.887,0.044,1.305-0.325,1.305-0.325
					c-19.545,0.368-34.435,0.657-44.325,0.024c0.915,1.072,3.545,2.096,6.418,3.08c2.877,0.975,6.003,1.892,7.996,2.555
					c-1.296,0.642-2.578,1.29-3.852,1.958l-2.085-2.04c-2.153,0.524-4.294,1.103-6.407,1.695c1.652,1.656,6.682,1.668,9.875,3.242
					c0.164-0.203,2.972-0.72,6.172-1.214c3.193-0.502,6.795-0.978,8.422-1.41c-2.771-1.035-5.567-2.022-8.402-2.937
					c1.135,0.481,4.596,0.98,8.345,1.511c3.75,0.518,7.79,1.077,10.115,1.302c0.179-0.567-1.59-1.734-3.619-2.44
					c-2.024-0.708-4.3-0.937-5.021,0.231c-0.314-0.95,1.806-1.005,3.34-1.174c1.525-0.156,2.479-0.453-0.25-1.95
					c3.633-0.251,8.145,0.667,12.282,2.008c4.146,1.332,7.909,3.08,10.246,4.274l-0.061,3.062c4.941,2.836,4.764-2.203,10.514,1.707
					c-3.976-1.169-3.915-0.263-3.646,0.63c0.265,0.91,0.734,1.823-2.348,0.855c1.564,1.747-0.963,2.893,5.081,4.932
					c3.184-0.854,4.549,0.367,5.809,1.614c1.268,1.26,2.436,2.54,5.434,2.021c2.541,2.494-4.223,0.625,1.512,3.846
					c7.647,1.42,7.941,0.048,9.668-2.276c-3.036-2.02-5.29-2.073-7.36-2.027c-2.08,0.055-3.979,0.201-6.516-1.275
					c4.188,0.064,8.421,0.265,12.685,0.607c-1.646-1.596-3.089-2.372-4.403-2.779c2.281,0.773,4.426,1.035,6.438,0.954
					c1.14-0.033,2.188-0.037,3.134,0.012c-6.054-3.241-11.59-5.778-12.092-7.323l1.432-0.858c-1.729-2.17-5.844-2.847-7.924-2.595
					c-5.824-2.216-12.277-2.372-12.995-4.475l2.639-0.434c-3.689-1.054-5.769-1.537-8.063-2.135L316.527,39.11z M91.318,116.381
					c3.425-0.34,6.764-0.812,10.872-3.226c4.146-2.396,8.957-6.771,16.116-14.485l-0.931,1.412
					c4.851-2.621,7.854-6.843,11.347-11.181c3.479-4.306,7.453-8.736,13.725-11.134c-1.971,2.618-2.881,3.85-3.655,5.382
					c-0.774,1.525-1.433,3.354-2.661,7.163c1.386-1.745,2.793-3.489,4.245-5.199c0.238,3.271,4.507-1.858,8.542-4.485
					c-0.535,1.695-1.039,3.396-1.521,5.091c-2.86,0.88-8.892,5.198-8.229,5.666c0.516-0.644-2.03,0.064-5.21,1.636
					c-3.182,1.562-6.971,4.032-8.911,6.536c0.994,0.577,3.721-1.55,6.021-2.906c2.306-1.366,4.092-2.012,3.101,1.242
					c2.858-4.477,4.763-3.202,8.414-7.102c-3.025,4.342,0.877,3.129-0.992,6.722c2.024-1.998,4.099-3.956,6.216-5.872
					c0.307,0.223-1.919,2.423-3.258,4.342c-1.344,1.925-1.83,3.486,1.681,2.384c0.944-1.498,3.419-3.336,5.526-4.988
					c2.102-1.66,3.842-3.147,3.229-4.167l0.589,0.479c2.729-1.584,2.843-2.65,3.167-3.75c0.324-1.09,0.864-2.235,4.537-3.735
					c-0.542-1.056-2.271-0.983-4.507,0.765c-1.702,1.758-1.118,3.292-4.899,6.343c-2.872-0.275,4.961-3.158,0.388-3.818
					c-1.144-0.16-3.632,1.98-5.652,3.606c-2.023,1.615-3.648,2.683-3.278,0.178c1.824-1.173,3.667-2.319,5.521-3.432
					c-1.261-2.047,2.727-4.631,1.552-6.137c2.889-3.01,7.519-2.774,9.982-6.644c0.707-2.188-3.376-3.164,3.282-5.521
					c3.224,0.205,8.206-1.661,13.13-3.759c4.915-2.116,9.798-4.46,12.464-5.772c1.421-1.101,2.864-2.184,4.326-3.251
					c-0.458-0.613-2.79,0.295-4.676,1.028c-1.887,0.734-3.349,1.267-2.14-0.243c2.466-1.197,4.963-2.337,7.482-3.437l-0.291,1.07
					c2.618-0.722,4.935-2.526,7.159-3.776c-1.939,2.372-7.71,3.668-5.778,5.623c3.753-0.797,4.579-0.097,7.754-1.6
					c-0.673,0.395-1.223,0.821-1.024,1.123c3.797-0.639,5.364-1.782,6.208-2.989c0.841-1.206,0.941-2.427,1.776-3.072
					c3.377-2.538,1.299-2.794-1.645-2.682c-2.938,0.104-6.692,0.638-6.578-0.726c7.341-2.705,14.855-5.004,22.505-6.882
					c-1.838,1.153-3.646,2.345-2.706,3.191c2.912,0.002,3.028,0.489,3.401,0.74c0.371,0.263,0.988,0.29,4.9-0.413
					c-0.553-1.622,1.854-2.563,5.1-3.344c3.24-0.791,7.302-1.391,10.07-2.596c2.777,1.178,3.32,1.373-2.45,1.933
					c0.87,2.08,8.493,0.643,11.268,0.775c1.564-0.622,4.284-1.011,6.011-1.525c-2.336-1.037-1.404-2.489,3.709-3.427l0.3-0.456
					c-4.188-0.336-9.582-0.954-14.603-1.031c-5.018-0.089-9.637,0.37-12.124,1.801l1.361-1.253
					c-4.988-0.403-10.166,1.378-14.604,2.916c-4.455,1.54-8.207,2.829-10.887,1.331c0.023-1.695-2.006,0.1-2.408-2.247
					c-2.218,1.19-4.409,2.402-6.565,3.662l1.166-1.446c-3.938,1.27-7.833,2.655-11.681,4.146l0.168-0.524
					c-4.896,3.916-8.475,7.218-11.257,9.905c0.385,0.964,0.84,1.11-0.615,2.547c-1.555,1.208-2.834,1.862-4.063,2.256
					c-0.012,0.005-0.012,0.005-0.004,0.016l-0.008-0.012c-2.788,0.93-5.192,0.406-8.739,1.476c3.313-1.741,6.677-3.395,10.083-4.96
					c0.147-1.958-1.447-3.327-7.091-2.099c2.063-1.016,2.395-2.667-0.309-1.663c-0.116,0.531-6.347,4.273-3.246,4.335
					c-4.737,2.67-11.494,5.106-18.562,8.662c-7.059,3.525-14.415,8.198-19.934,14.613c4.115-4.414,1.89-3.442-0.167-2.426
					c-2.021,1.037-3.866,2.083,1.235-2.266c-4.579,1.704-5.745,3.54-6.69,5.583c-0.948,2.054-1.7,4.318-5.388,7.251
					c-1.271-0.238,3.939-3.271,4.367-6.172c-6.458,4.61-10.631,10.013-14.441,15.45c-3.811,5.468-7.271,10.97-12.413,16.454
					l-2.101-0.907C94.813,110.876,93.068,113.559,91.318,116.381z M77.214,142.661c-1.204,2.621-2.38,5.295-3.509,8.035
					c0.165-0.239,0.289-0.476,0.453-0.729c-0.807,2.816-1.563,5.631-2.242,8.457c1.512-2.187,3.215-3.758,4.244-3.903
					c1.029-0.146,1.357,1.105,0.295,4.584c-0.552-0.945-2.478,0.485-1.854-2.022c-1.664,1.898-3.908,5.178-5.146,7.864
					c-1.246,2.686-1.521,4.718,0.545,4.064c0.379-4.922,1.608-5.001,2.772-4.792c1.188,0.205,2.313,0.679,2.795-3.102
					c0.305,4.434-2.107,7.545-2.599,11.309c-0.21-4.211-4.175-0.775-7.036,4.422c-0.406,2.552-3.137,8.895-3.479,13.197
					c2.38-0.83,2.396,2.941,4.918-3.335c-0.267,2.521-0.984,6.261-3.107,10.121c0.1-1.734,0.692-4.666-0.063-4.674
					c-2.578,2.152-3.358,5.366-4.571,6.93c-0.243,1.437-0.504,2.88-0.714,4.293c0.265-0.375,0.575-0.679,0.917-0.866
					c0.213,1.697,0.438,3.383,0.687,5.061c0.454-6.409,1.563-2.644,2.688-2.308c-2.291-0.697-1.193,3.897-1.528,6.011
					c1.13-1.364,2.262-2.709,3.416-4.032c0.716,2.42-3.354,7.382-0.695,6.707c1.408-4.706,2.302-7.953,3-11.136
					c0.709-3.18,1.229-6.291,2.141-10.635c-0.968,0.959-1.932,1.931-2.878,2.917c0.729-5.037,2.03-6.28,3.5-7.583
					c1.479-1.306,3.112-2.686,4.997-7.916c-0.031-2.482,1.479-6.412,2.698-9.862c1.207-3.457,2.111-6.464,0.548-7.334
					c0.19,0.873,1.648-0.389,3.113-2.347c1.457-1.966,2.969-4.608,3.163-6.688c-0.443-2.647,0.856-6.887,1.958-10.09
					c1.096-3.203,1.929-5.401,0.238-4.1c-1.929,3.024-2.763,8.031-5.979,9.52c0.918-2.13,1.858-4.256,2.848-6.363
					c-1.285,1.006-2.558,2.035-3.828,3.077C81.643,143.667,80.031,142.993,77.214,142.661z M32.455,300.525l0.012,0.304
					c-0.011-0.115-0.032-0.226-0.053-0.329L32.455,300.525z"/>
				<path fill="#4A73A4" d="M466.095,165.857c1.565,1.584,3.313,6.416,4.567,4.852c-0.875,0.405-1.768-1.713-2.602-3.468
					C467.239,165.481,466.494,164.082,466.095,165.857z"/>
				<path fill="#4A73A4" d="M466.635,172.203c0.558,0.167,1.156-0.333,2.025,1.783c-0.894-1.906-1.802-3.802-2.75-5.677
					L466.635,172.203z"/>
				<path fill="#4A73A4" d="M456.503,182.547c2.354,2.389,3.765,3.989,5.063,8.632c-1.979,1.54-2.851-0.241-3.871-2.47
					c-1.009-2.233-2.22-4.92-4.628-5.188c1.229,4.12,2.938,6.504,4.688,8.733c1.729,2.23,3.5,4.3,4.604,7.741
					c0.506-1.971,0.043-6.596-1.136-10.595C460.061,185.396,458.215,182.068,456.503,182.547z"/>
				<path fill="#4A73A4" d="M449.636,180.984c0.884,1.35,1.755,2.714,2.604,4.093l0.104-0.534c-0.858-1.379-1.729-2.746-2.622-4.095
					L449.636,180.984z"/>
				<path fill="#4A73A4" d="M417.855,67.2c0.563-1.45-3.085-2.64-4.781-3.544C414.215,64.7,415.626,66.36,417.855,67.2z"/>
				<path fill="#4A73A4" d="M438.006,423.193c9.617-10.883,18.229-22.584,25.714-34.919c-3.248,5.313-6.601,10.286-10.614,15.853
					C449.065,409.674,444.361,415.821,438.006,423.193z"/>
				<path fill="#4A73A4" d="M286.431,21.206c5.632-0.146,9.786-0.566,13.987-0.802c4.196-0.226,8.452-0.271,14.207,0.66
					c-7.18-3.08-12.457-2.754-17.277-2.31c-4.854,0.479-9.281,1.08-15.507-0.905C283.393,18.953,284.923,20.067,286.431,21.206z"/>
				<path fill="#4A73A4" d="M291.667,10.028c0.81,1.481-1.529,2.011-3.857,2.507c-2.331,0.479-4.658,0.938-3.904,2.004
					c3.892-0.009,4.858-0.545,5.729-1.003c0.87-0.442,1.649-0.815,5.164-0.253C293.768,12.2,292.726,11.098,291.667,10.028z"/>
				<path fill="#4A73A4" d="M328.432,64.868c-1.063,0.126-2.125,0.272-3.181,0.42l2.351,0.253L328.432,64.868z"/>
				<path fill="#4A73A4" d="M238.469,12.433l1.213-0.759c-1.972-0.082-3.948-0.137-5.929-0.171
					C235.334,11.802,236.906,12.101,238.469,12.433z"/>
				<path fill="#4A73A4" d="M240.902,10.91l-1.219,0.764L240.902,10.91z"/>
				<path fill="#4A73A4" d="M323.073,69.276c1.25,0.625,2.494,1.252,3.729,1.9l2.359-0.484
					C327.14,70.178,325.104,69.721,323.073,69.276z"/>
				<path fill="#4A73A4" d="M289.168,46.632c1.36-0.135,2.729-0.244,4.1-0.352C292.46,46.32,287.125,44.518,289.168,46.632z"/>
				<path fill="#4A73A4" d="M203.144,17.97c-1.757,0.839-3.5,1.699-5.225,2.583l0.637,0.095c1.721-0.875,3.456-1.732,5.207-2.564
					L203.144,17.97z"/>
				<path fill="#4A73A4" d="M258.083,52.872c2.719,1.99-7.627,0.909-2.104,2.529C260.785,54.884,258.81,53.868,258.083,52.872z"/>
				<path fill="#4A73A4" d="M197.938,49.462c-0.646,0.214-1.296,0.53-1.868,0.98C196.815,50.084,197.429,49.749,197.938,49.462z"/>
				<path fill="#4A73A4" d="M197.938,49.462c2.083-0.714,4.416-0.609,5.669-1.636C200.707,47.727,199.856,48.392,197.938,49.462z"/>
				<path fill="#4A73A4" d="M174.889,59.47l1.857-0.721c-1.383,1.81-0.584,1.257,0.692-0.27c1.874-0.959,1.497-1.503,1.534-2.028
					l0.853-1.289c-0.487,0.516-0.911,1.001-1.271,1.416C175.566,57.929,173.822,58.914,174.889,59.47z"/>
				<path fill="#4A73A4" d="M74.735,94.711c6.027-6.131,7.852-7.439,8.761-6.029c2.849-2.842,3.587-4.459,3.938-5.914
					c0.36-1.446,0.343-2.711,1.811-4.708c-3.076,3.426-5.014,5.407-7.067,7.591C80.135,87.848,77.975,90.254,74.735,94.711z"/>
				<path fill="#4A73A4" d="M89.242,78.061l2.151-2.39C90.413,76.585,89.774,77.351,89.242,78.061z"/>
				<path fill="#4A73A4" d="M207.574,65.716c-1.066,1.223-2.112,2.449-3.138,3.687l1.317-0.814L207.574,65.716z"/>
				<path fill="#4A73A4" d="M66.339,104.307c1.019-1.227,2.488-3.318,3.698-3.97C68.975,98.953,65.302,105.526,66.339,104.307z"/>
				<path fill="#4A73A4" d="M110.868,101.074c1.24,0.137,4.139-3.709,5.816-4.781C114.559,98.077,110.781,97.619,110.868,101.074z"
					/>
				<path fill="#4A73A4" d="M58.695,128.339c0.869-1.292,3.057-2.744,3.688-1.164c0.225-1.163,0.128-2.767-0.441-3.142
					C61.371,123.657,60.291,124.517,58.695,128.339z"/>
				<path fill="#4A73A4" d="M101.525,111.091l1.115-0.459c0.835-1.529,1.688-3.053,2.563-4.571
					C103.955,107.726,102.722,109.396,101.525,111.091z"/>
				<path fill="#4A73A4" d="M131.083,114.663c1.114-2.515-1.147-1.916-3.095-1.578c-1.922,0.347-3.555,0.396-0.937-3.435
					c-4.871,3.479-4.176,3.85-3.104,4.017c1.083,0.186,2.562,0.243-0.481,3.265C127.376,113.682,130.89,113.758,131.083,114.663z"/>
				<path fill="#4A73A4" d="M123.467,116.931c-0.571,0.467-1.154,1.006-1.731,1.644
					C122.437,117.927,122.998,117.401,123.467,116.931z"/>
				<path fill="#4A73A4" d="M72.888,174.409c0.104-0.83,0.11-1.422,0.084-1.984C72.882,173.077,72.837,173.715,72.888,174.409z"/>
				<path fill="#4A73A4" d="M107.622,139.197c0.681-2.69,1.427-5.381,2.23-8.075c-0.815,2.691-3.162,6.686-4.81,10.205
					c-1.662,3.512-2.676,6.489-1.221,6.918c2.725-3.24,4.909-7.821,5.109-10.256L107.622,139.197z"/>
				<path fill="#4A73A4" d="M21.957,212.997l-0.435-4.404c-0.421,1.735-0.835,3.473-1.216,5.219
					C20.978,212.369,22.678,215.431,21.957,212.997z"/>
				<path fill="#4A73A4" d="M20.089,214.824l0.22-1.013C20.203,214.025,20.122,214.345,20.089,214.824z"/>
				<path fill="#4A73A4" d="M77.961,159.354c1.376-2.347,2.271-4.316,2.974-6.747C79.931,153.232,76.431,159.094,77.961,159.354z"/>
				<path fill="#4A73A4" d="M23.209,242.976c-0.073-2.305-0.111-4.614-0.116-6.926c-0.111,2.515-0.165,5.03-0.198,7.542
					L23.209,242.976z"/>
				<path fill="#4A73A4" d="M18.915,275.561l-0.443,1.26c0.522,1.91,1.071,3.813,1.631,5.705l0.417-1.281
					C19.961,279.357,19.431,277.464,18.915,275.561z"/>
				<path fill="#4A73A4" d="M76.338,237.365c0.612-3.644-1.66-6.818-2.324-5.915c-0.229,2.416-0.406,4.837-0.555,7.26
					c2.452-1.661,0.063-2.017,1.071-6.16C75.111,234.17,75.714,235.775,76.338,237.365z"/>
				<path fill="#4A73A4" d="M147.628,470.042c-1.271,0.175-3.986-1.191-6.307-2.837c-2.319-1.646-4.233-3.555-4.063-4.313
					c1.472,0.198,6.378,2.48,3.983-0.074c-2.886-0.29-5.778-0.645-8.685-1.056c-3.731-3.926-1.35-3.797,2.528-2.563
					c3.884,1.247,9.375,3.434,11.911,4.131c-4.4-2.865-7.521-4.271-10.758-5.711c-3.226-1.454-6.563-2.956-11.098-6.288
					c2.472,2.236,3.657,4.202,4.648,5.881c-0.59,1.202-2.921,0.063-5.85-1.978c-2.929-2.039-6.407-4.999-9.434-7.308
					c3.079,3.911,0.282,2.972-3.158,1.524c-0.549-0.344-0.979-0.493-1.329-0.548l-1.171-0.491l0.716,0.589
					c-0.237,0.188-0.314,0.604-0.107,1.407c5.515,3.506,8.156,8.255,11.581,10.764c-0.412-2.975,2.604-1.054,6.439,1.718
					c3.83,2.782,8.585,6.369,11.194,7.15c1.808,0.927,3.625,1.83,5.45,2.714l1.979,1.11c0.168,0.631-0.688,0.86-4.138-0.146
					c1.469,0.369,4.279,1.802,6.729,2.893s4.524,1.852,4.448,1.026c6.521,3.357,13.197,6.42,20.002,9.172
					c0.568,0.426,1.121,0.888,1.479,1.362c0.813,0.026,1.014-0.136,1-0.376c29.769,11.704,61.938,17.354,93.781,16.621
					c-4.729-0.255-8.785-1.278-13.594-1.926c3.666-1.321,1.688-1.505-0.905-1.712c-2.6-0.212-5.82-0.512-4.687-1.8
					c3.27-0.777,7.921-0.293,10.717,0.396c1.056-1.352-2.885-2.642-2.376-4.271c-5.767-1.033-9.14-0.063-12.579,0.979
					c-3.425,1.022-6.916,2.112-12.588,0.864c0.682-1.577,4.346-2.505-3.079-3.319l1.93-0.079c-6.056,0.072-8.207-1.314-9.833-2.203
					c-1.64-0.915-2.749-1.373-6.899,0.047l0.688-2.277c-2.819,0.32-6.813-0.136-10.806-0.908c-3.994-0.768-7.979-1.854-10.867-2.598
					l0.478-0.331c-8.365-1.24-10.632-2.028-13.061-2.964c-2.417-1.003-5.033-2.146-13.874-5.445
					c3.019,0.343,6.021,0.639,9.019,0.854c-5.479-3.505-7.995-1.37-12.098-3.607c0.496-0.284,0.265-2.272,4.389-0.867
					c-7.413-1.807-14.798-3.999-22.115-6.576C141.643,465.473,147.353,468.754,147.628,470.042z"/>
				<path fill="#4A73A4" d="M125.147,451.332c-0.897-0.813-1.959-1.68-3.304-2.582C123.043,449.751,124.106,450.573,125.147,451.332
					z"/>
				<path fill="#4A73A4" d="M276.131,504.188c-2.238,0.109-4.479,0.188-6.716,0.232
					C271.498,504.532,273.674,504.514,276.131,504.188z"/>
				<path fill="#4A73A4" d="M96.636,434.009c2.057,3.691-3.37-0.865-4.511-0.745c3.455,3.421,7.008,6.743,10.65,9.964
					c0.562-0.726,2.314-0.546,2.646-1.364C102.434,439.314,99.503,436.696,96.636,434.009z"/>
				<path fill="#4A73A4" d="M104.843,447.31c0.791-0.155,2.335,0.424,4.015,1.106c-2.058-1.693-4.076-3.432-6.078-5.188
					C102.361,443.773,102.61,444.841,104.843,447.31z"/>
				<path fill="#4A73A4" d="M135.646,409.459l1.646,1.301l2.875,1.492C138.652,411.34,137.143,410.412,135.646,409.459z"/>
				<path fill="#4A73A4" d="M159.909,432.25c-1.447-2.497-6.036-4.237-7.575-4.875c2.321,1.542,2.924,2.067,3.582,2.568
					C156.573,430.443,157.289,430.925,159.909,432.25z"/>
				<path fill="#4A73A4" d="M162.309,416.162c1.526,0.704,3.064,1.378,4.604,2.034l-0.247-0.479
					C165.21,417.224,163.757,416.704,162.309,416.162z"/>
				<path fill="#4A73A4" d="M322.927,487.787c0.983-0.301,1.936-0.602,2.921-0.931C324.493,487.216,323.625,487.512,322.927,487.787
					z"/>
				<path fill="#4A73A4" d="M269.849,497.317c3.78,0.576,5.079,0.976,4.948,1.367c-0.13,0.396-1.688,0.754-3.576,1.136
					c-3.771,0.762-8.915,1.459-6.51,3.178c2.796-0.386,5.579-0.792,8.349-1.272l-0.682,0.938c3.401-0.201,6.803-0.478,10.19-0.828
					c-2.2-1.405-3.759-1.422-3.404-3.09c6.731-0.109,7.841,0.193,8.518,0.818c0.681,0.594,0.914,1.465,6.022,1.918
					c5.054-0.713,10.087-1.566,15.083-2.6l-1.134,0.706c1.268-0.259,1.785-0.579,2.173-0.92c16.821-3.528,33.229-8.879,48.83-15.892
					c4.026-2.446,2.522-2.619,0.73-2.784c-1.808-0.177-3.907-0.395-1.288-2.825c-4.85,2.12-11.128,4.11-16.19,5.835
					c-5.063,1.745-8.926,3.279-8.89,4.987c0.214-0.537,0.618-1.602-1.546-1.358c-1.697,1.446-3.427,2.866-5.187,4.271
					c1.975-0.23,3.945-0.489,5.921-0.774c-2.604,2.188-8.897,4.469-15.082,5.813c-6.186,1.357-12.197,1.811-14.129,1.262
					c5.591-1.396,6.781-2.725,8.583-3.796c0.896-0.537,1.943-1.027,3.754-1.495c1.809-0.471,4.375-0.912,8.316-1.471
					c-0.901-0.628-4.031-1.339-0.729-2.65c-8.771,2.746-17.375,4.28-26.063,5.571C288.163,494.645,279.38,495.718,269.849,497.317z"
					/>
				<path fill="#4A73A4" d="M434.168,423.492l0.109,0.31C434.397,423.454,434.387,423.295,434.168,423.492z"/>
				<path fill="#4A73A4" d="M429.559,427.571c-1.366,2.848-2.795,5.688-4.3,8.507c3.403-3.234,6.726-6.554,9.933-9.978l-0.911-2.302
					c-0.419,1.294-3.092,5.58-5.083,6.27L429.559,427.571z"/>
				<path fill="#4A73A4" d="M418.609,444.476c2.503-2.728,3.191-4.558,2.813-5.464c-0.385-0.911-1.832-0.911-3.713-0.095
					c2.097-2.618,3.206-2.666,4.011-2.693c0.797-0.024,1.299-0.021,2.024-2.6c-0.697-0.65-2.354,0.595-3.996,2.169
					c-1.649,1.571-3.311,3.469-3.907,4.207L418.609,444.476z"/>
				<path fill="#4A73A4" d="M372.898,473.12l1.318-1.918c-1.537,0.688-3.074,1.371-4.622,2.029L372.898,473.12z"/>
				<path fill="#4A73A4" d="M374.217,471.202c1.521-0.691,3.042-1.388,4.551-2.108c-0.698-0.551-1.381-1.086-2.354-1.188
					L374.217,471.202z"/>
				<path fill="#4A73A4" d="M390.508,463.095c1.905-0.962,3.977-2.098,6.397-3.633C394.792,460.708,392.656,461.916,390.508,463.095
					z"/>
				<path fill="#4A73A4" d="M385.255,465.497l0.321,0.21c1.65-0.85,3.296-1.723,4.932-2.612
					C388.654,464.006,386.964,464.769,385.255,465.497z"/>
				<path fill="#4A73A4" d="M378.768,469.094c1.595,1.227,3.439,2.527,9.506-1.665l-2.694-1.722
					C383.323,466.875,381.054,468.003,378.768,469.094z"/>
				<path fill="#4A73A4" d="M193.153,435.729c1.538,0.257,3.076,0.488,4.612,0.706l-0.345-0.438
					c-1.531-0.221-3.066-0.457-4.604-0.713L193.153,435.729z"/>
				<path fill="#4A73A4" d="M217.659,445.675c1.18-0.024,2.099-0.163,2.938-0.32C219.391,445.275,218.396,445.343,217.659,445.675z"
					/>
				<path fill="#4A73A4" d="M238.837,437.002c4.78,2.584-7.351,1.43,1.923,3.604c0.631,1.839-4.195,3.49-8.56,1.815
					c0.647-1.538,4.524-0.292,2.07-2.396c-3.271,1.357-4.176-0.158-3.598,2.475c-5.309,0.538-6.252,2.092-10.079,2.854
					c3.2,0.223,7.903,1.612,12.943,2.558c5.026,0.951,10.389,1.433,14.504,0.202c4.61-2.597,2.243-6.862,2.641-11.13
					c-0.271-0.529-3.051-1.116-5.833-1.334C242.07,435.442,239.25,435.634,238.837,437.002z"/>
				<path fill="#4A73A4" d="M231.828,431.465c-2.194-0.646-2.903-0.628-4.351-0.575
					C227.537,432.402,230.018,431.183,231.828,431.465z"/>
				<path fill="#4A73A4" d="M287.609,465.653c0.457-0.643,5.192-2.008,4.014-2.923c-2.394,0.568-4.795,1.113-7.218,1.599
					C286.135,464.264,286.818,464.933,287.609,465.653z"/>
				<path fill="#4A73A4" d="M281.214,464.938l3.189-0.609C283.597,464.356,282.61,464.521,281.214,464.938z"/>
				<path fill="#4A73A4" d="M288.003,465.994c-0.132-0.113-0.25-0.23-0.396-0.341C287.519,465.795,287.554,465.926,288.003,465.994z
					"/>
				<path fill="#4A73A4" d="M408.299,452.188c0.613,1.02,3.26-1.868,4.545-3.345C411.553,449.739,409.582,450.774,408.299,452.188z"
					/>
				<path fill="#4A73A4" d="M487.997,336.117l1.979-2.829C489.071,334.222,488.604,334.694,487.997,336.117z"/>
				<path fill="#4A73A4" d="M468.092,282.309c-0.217-0.113-0.376-0.35-0.521-0.654C467.682,281.954,467.85,282.178,468.092,282.309z
					"/>
				<path fill="#4A73A4" d="M467.573,281.652c-0.688-2.053,1.469-7.916,0.141-10.217l0.429,0.313c-0.179-1.368-0.373-2.73-0.58-4.09
					c-0.053,1.889-0.297,4.804-0.418,7.533C467.014,277.92,467.016,280.471,467.573,281.652z"/>
			</g>
		</g>
		<g>
			<path fill="#FFFFFF" d="M439.793,358.707c0,0.568-0.738,2.325-2.207,5.285c-1.479,2.959-2.804,5.146-3.976,6.553
				c-0.594,0.845-1.694,1.271-3.311,1.271c-1.621,0-2.869,0.281-3.752,0.846c-7.656,4.512-11.852,7.332-12.581,8.455
				c-0.737,1.123-3.752,1.688-9.049,1.688s-10.449-0.634-15.449-1.899c-5.007-1.271-9.566-2.324-13.684-3.17
				c-4.713-0.849-10.373-1.618-16.995-2.325c-6.621-0.7-12.876-1.757-18.762-3.171c-12.357-3.659-22.291-5.918-29.796-6.767
				c-7.504-0.846-15.967-1.269-25.382-1.269c-6.477,0-16.629,1.553-30.458,4.648c-13.835,3.104-21.78,4.937-23.836,5.495
				c-3.828,0.567-8.021,1.06-12.581,1.479c-4.563,0.423-8.901,0.778-13.021,1.057c-0.595,0-1.324,0.568-2.207,1.691
				c-0.883,1.129-1.621,1.836-2.207,2.112c-2.359,1.405-5.373,2.535-9.049,3.383c-3.686,0.846-7.141,1.969-10.373,3.382
				c-2.063,0.562-4.711,1.058-7.945,1.479c-3.242,0.424-5.297,0.638-6.18,0.638c-0.885,0-3.389,1.268-7.504,3.805
				c-4.125,2.536-7.063,3.521-8.828,2.959c-1.769-0.846-3.828-1.341-6.183-1.479c-2.356-0.146-3.973-0.212-4.854-0.212
				s-1.478,0.142-1.768,0.423c-0.297,0.277-1.032,0.425-2.207,0.425c-0.884,0-4.564-1.129-11.033-3.384
				c-6.479-2.26-10.152-3.383-11.035-3.383c-2.945,0-6.332-1.13-10.153-3.382c-3.828-2.259-5.89-5.771-6.18-10.568
				c4.118-5.918,9.27-10,15.45-12.26c6.18-2.253,11.766-4.789,16.771-7.607c1.172-0.563,4.562-1.618,10.152-3.17
				c5.587-1.548,10.439-2.89,14.564-4.02c0.587-0.276,1.104-0.7,1.546-1.269c0.44-0.563,0.809-1.122,1.104-1.69
				c-1.767-1.407-2.725-2.887-2.869-4.438c-0.151-1.548-0.517-3.025-1.104-4.439c-0.298-1.407-0.738-2.603-1.324-3.593
				c-0.594-0.984-0.883-2.042-0.883-3.171c-0.299-0.563-0.738-1.123-1.324-1.691c-0.593-0.562-1.035-0.981-1.324-1.268
				c-1.476-7.042-2.8-11.903-3.973-14.585c-1.182-2.678-1.769-6.271-1.769-10.78c0-0.846,0.224-1.83,0.662-2.959
				c0.441-1.123,0.662-2.253,0.662-3.384c0-4.504,0.365-9.576,1.104-15.219c0.729-5.636,2.132-11.554,4.191-17.756
				c0.586-1.689,1.027-3.943,1.324-6.765c0.29-2.814,0.586-5.212,0.883-7.187c0.586-2.252,1.395-4.505,2.429-6.764
				c1.027-2.252,1.249-4.505,0.661-6.764c2.354-2.252,3.313-4.65,2.869-7.187c-0.439-2.536,1.249-3.805,5.076-3.805
				c0.883,0,2.428,0.634,4.635,1.902c2.207,1.269,3.752,2.325,4.636,3.171c0.587,0.284,1.613,0.707,3.092,1.268
				c1.469,0.568,2.496,1.268,3.09,2.114c2.352,2.537,4.778,6.203,7.282,10.992c2.496,4.795,4.191,8.739,5.075,11.837
				c0.586,0.284,1.104,0.707,1.545,1.268c0.44,0.568,0.809,1.127,1.104,1.691c0.586,1.689,0.808,3.527,0.662,5.496
				c-0.151,1.976-0.372,3.806-0.662,5.494c-0.296,1.414-0.221,3.033,0.221,4.861c0.441,1.838,0.952,3.454,1.546,4.86
				c0,0.284-0.075,0.78-0.222,1.479c-0.15,0.705-0.221,1.342-0.221,1.901c0.586,0.283,0.951,0.778,1.104,1.479
				c0.146,0.707,0.366,1.203,0.662,1.479c0.586,2.262,1.173,4.584,1.768,6.979c0.587,2.396,1.026,4.584,1.322,6.553
				c0.29,1.129,0.29,2.396,0,3.805c-0.296,1.413-0.296,2.82,0,4.229c0.29,0.845,0.885,1.552,1.769,2.111
				c0.883,0.567,1.322,1.131,1.322,1.69c0.29,0.846,1.471,4.089,3.53,9.724c2.057,5.644,4.414,8.454,7.063,8.454
				c0.883,0,2.868-0.485,5.959-1.479c3.09-0.984,5.663-2.041,7.725-3.171c-1.179-6.766-2.503-15.073-3.973-24.942
				c-1.478-9.859-2.207-15.219-2.207-16.063c0-0.847,0.807-7.396,2.428-19.656c1.614-12.26,2.869-21.488,3.752-27.69
				c1.47-7.325,4.118-15.919,7.946-25.788c3.82-9.862,5.737-15.78,5.737-17.755v-4.65c-0.298,0-0.737,0-1.323,0
				c-0.594,0-1.324,0-2.207,0c-0.594,0-2.869-0.912-6.842-2.748c-3.976-1.83-7.58-3.31-10.814-4.439
				c-2.063-0.846-4.71-1.479-7.944-1.902c-3.24-0.423-6.181-0.634-8.827-0.634c-0.298-0.277-0.737-0.562-1.323-0.845
				c-0.594-0.278-1.182-0.562-1.768-0.846c-5.594-1.407-11.406-4.016-17.437-7.821c-6.035-3.805-11.553-7.821-16.553-12.048v-3.382
				c1.469-0.278,3.09-0.846,4.854-1.691c1.768-0.845,3.235-1.407,4.415-1.691c5.883-1.123,11.767-2.114,17.656-2.959
				c5.883-0.846,11.622-1.969,17.215-3.382c2.055-0.562,5.146-1.757,9.271-3.593c4.117-1.83,7.944-3.17,11.479-4.016
				c10.297-3.098,20.747-6.196,31.341-9.3c10.595-3.098,22.07-6.764,34.431-10.992c2.647-0.845,7.648-1.691,15.011-2.537
				c7.352-0.845,11.477-1.268,12.356-1.268c5,0,8.39,1.202,10.152,3.593c1.766,2.398,3.38,3.593,4.854,3.593
				c0.885,0,1.471-0.211,1.768-0.634c0.29-0.423,0.586-0.634,0.883-0.634c0,0.284-0.076,0.779-0.221,1.479
				c-0.151,0.707-0.521,1.341-1.104,1.902c3.234,2.821,4.338,5.43,3.313,7.821c-1.034,2.397-0.372,4.161,1.983,5.284
				c-0.297,0.568-0.735,1.057-1.321,1.479c-0.596,0.423-1.479,0.918-2.648,1.479c0.586,0.846,1.173,1.691,1.767,2.537
				c0.586,0.846,0.885,1.691,0.885,2.537c0,0.846-0.662,1.975-1.986,3.382c-1.324,1.414-2.283,2.821-2.869,4.228
				c-0.297,0.284-0.813,0.568-1.545,0.846c-0.738,0.284-1.399,0.707-1.986,1.268c0.29,1.414,0.952,3.243,1.986,5.496
				c1.027,2.259,0.221,4.512-2.428,6.764c-0.883,0.568-1.986,1.202-3.313,1.902c-1.323,0.707-2.428,1.057-3.311,1.057
				s-1.918-0.139-3.09-0.423c-1.183-0.277-2.207-0.423-3.092-0.423c-0.884,0-3.826,0.568-8.826,1.691
				c-5.01,1.129-9.271,2.114-12.805,2.959c-2.062,0.568-4.124,1.691-6.18,3.382c-2.063,1.691-3.973,3.243-5.738,4.65
				c-0.296,0.845-0.221,1.975,0.224,3.382c0.438,1.414,0.364,2.682-0.224,3.805c0,0.284-0.221,0.779-0.661,1.479
				c-0.439,0.707-0.813,1.48-1.104,2.325c-0.593,4.228-1.104,8.739-1.545,13.528c-0.441,4.795-1.4,9.584-2.869,14.373
				c-1.18,4.512-2.579,8.951-4.193,13.317c-1.62,4.373-3.165,8.812-4.635,13.316l1.324,1.269c0.883,0,1.688-0.423,2.428-1.269
				c0.731-0.845,1.396-1.407,1.986-1.691c8.828-1.407,17.802-4.366,26.927-8.878c9.117-4.505,17.504-7.325,25.16-8.455
				c0.586-0.278,1.104-0.562,1.545-0.846c0.441-0.277,0.808-0.562,1.104-0.846c1.471-0.845,3.678-1.757,6.621-2.748
				c2.938-0.984,5.587-1.479,7.944-1.479c0.587,0,2.648,1.268,6.181,3.805c3.53,2.536,6.324,4.795,8.389,6.764
				c0.29,0.846,0.438,1.691,0.438,2.537c0,0.846-0.148,1.552-0.438,2.114c-0.296,0.284-0.296,0.423,0,0.423
				c0.29,0,0.438,0.423,0.438,1.268l-1.766,1.269c0,0.845,0.146,1.764,0.439,2.748c0.29,0.991,0.589,1.902,0.885,2.748
				c-0.296,0.568-0.441,1.414-0.441,2.537c0,1.129-0.296,1.975-0.883,2.536c-1.768,2.537-3.685,5.285-5.738,8.244
				c-2.062,2.958-4.124,5.569-6.18,7.821c0,0.284-0.075,0.778-0.223,1.479c-0.149,0.707-0.222,1.342-0.222,1.9
				c-2.941,1.691-6.18,3.243-9.711,4.65c-3.53,1.412-6.918,2.682-10.151,3.805c-1.767,0.284-3.605,1.059-5.519,2.325
				c-1.918,1.271-3.903,2.323-5.959,3.171c-2.063,0.566-4.932,1.059-8.606,1.479c-3.685,0.424-5.959,0.635-6.844,0.635
				c-0.883,0-2.724-0.276-5.518-0.846c-2.8-0.563-5.229-0.982-7.283-1.27c-1.179-0.563-2.357-1.193-3.531-1.9
				c-1.179-0.701-2.355-1.334-3.528-1.902c-0.885-0.846-1.845-1.83-2.869-2.959c-1.034-1.123-2.283-2.254-3.752-3.383h-2.648
				c-0.297,1.414-0.593,3.17-0.883,5.285c-0.297,2.111-0.441,3.592-0.441,4.438c0,6.764,1.546,13.178,4.638,19.233
				c3.09,6.063,3.601,10.779,1.545,14.162c1.173,1.129,3.014,1.554,5.518,1.27c2.497-0.277,4.78-0.423,6.842-0.423
				c3.235-0.563,6.69-0.847,10.373-0.847c3.679,0,7.284,0.146,10.815,0.423c6.469,0.282,16.035,1.27,28.689,2.959
				c12.648,1.689,25.011,3.526,37.078,5.495c0.884,0,2.132,0.356,3.753,1.06c1.612,0.706,3.016,1.202,4.192,1.479
				c2.646,0.284,5.519,0.568,8.605,0.849c3.092,0.281,5.81,0.845,8.166,1.688c4.414,1.414,8.896,3.104,13.465,5.073
				c4.56,1.976,9.05,3.95,13.462,5.918c1.174,0.567,3.313,3.667,6.399,9.301C438.246,353.357,439.793,357.017,439.793,358.707z"/>
		</g>
	</g>
	<g id="Layer_2">
		<g>
			<path fill="#FFFFFF" d="M389.974,286.975c-0.056,0.198-0.132,0.314-0.229,0.35c-0.1,0.031-0.176,0.08-0.229,0.146
				c0,0.032,0.014,0.082,0.041,0.148s0.055,0.132,0.083,0.197c-0.083,0.064-0.173,0.125-0.27,0.175
				c-0.101,0.05-0.201,0.091-0.313,0.124c-0.027,0.033-0.049,0.058-0.063,0.074c-0.017,0.016-0.034,0.041-0.063,0.074
				c-0.111,0.328-0.284,0.493-0.519,0.493c-0.235,0-0.45,0.021-0.646,0.052c-0.024,0.031-0.035,0.064-0.021,0.101
				c0.014,0.032,0.021,0.083,0.021,0.147h-0.581c-0.056,0-0.2-0.031-0.436-0.102c-0.235-0.063-0.396-0.102-0.479-0.102
				c-0.222,0-0.679,0.094-1.369,0.272c-0.689,0.183-1.063,0.29-1.118,0.321c-0.193,0.101-0.479,0.283-0.854,0.547
				c-0.373,0.266-0.671,0.629-0.892,1.092c-0.166,0.331-0.354,0.753-0.563,1.266c-0.207,0.516-0.38,0.969-0.519,1.363
				c-0.083,0.266-0.183,0.604-0.29,1.018c-0.111,0.414-0.194,0.787-0.249,1.117c-0.028,0.23-0.028,0.473,0,0.721
				c0.025,0.246,0.025,0.505,0,0.77c0,0.529,0,1.149,0,1.86s-0.069,1.381-0.207,2.01c-0.028,0.132-0.111,0.339-0.249,0.62
				c-0.14,0.28-0.265,0.537-0.374,0.769c-0.027,0.066-0.076,0.135-0.146,0.198c-0.066,0.066-0.132,0.132-0.188,0.199
				c-0.027,0.063-0.063,0.188-0.104,0.372c-0.04,0.181-0.132,0.305-0.27,0.372c-0.028,0-0.063,0-0.104,0
				c-0.042,0-0.092,0.016-0.146,0.049c-0.028,0.033-0.049,0.091-0.063,0.174c-0.015,0.082-0.049,0.144-0.104,0.174
				c-0.056,0.066-0.139,0.124-0.249,0.177c-0.11,0.05-0.207,0.071-0.29,0.071c-0.056,0-0.104-0.021-0.146-0.071
				c-0.04-0.053-0.091-0.074-0.146-0.074c-0.083,0-0.152,0.049-0.207,0.146c-0.056,0.103-0.111,0.148-0.166,0.148
				c-0.083,0-0.229-0.142-0.436-0.421c-0.208-0.282-0.313-0.439-0.313-0.474c0-0.165,0-0.349,0-0.547
				c0-0.195-0.026-0.361-0.083-0.495c-0.139-0.465-0.242-0.968-0.311-1.514c-0.069-0.546-0.134-1.084-0.188-1.611
				c-0.026-0.527-0.068-1.184-0.124-1.96c-0.056-0.774-0.083-1.217-0.083-1.313c0-0.331,0.048-0.887,0.146-1.662
				c0.097-0.775,0.27-1.527,0.519-2.258v-0.198c0-0.03-0.027-0.05-0.083-0.05c-0.11,0-0.679,0.257-1.701,0.771
				c-1.021,0.514-1.688,0.816-1.99,0.918c-0.804,0.229-1.625,0.438-2.471,0.621c-0.844,0.182-1.666,0.389-2.468,0.617
				c-0.057,0.033-0.166,0.082-0.332,0.146c-0.166,0.066-0.317,0.135-0.457,0.197c-0.471,0.135-0.954,0.248-1.452,0.351
				c-0.498,0.099-1.021,0.265-1.575,0.495c-0.083,0.031-0.229,0.041-0.437,0.023c-0.208-0.017-0.34-0.023-0.396-0.023
				c-0.083,0-0.216,0.01-0.396,0.023c-0.18,0.018-0.339,0.008-0.478-0.023c-0.083-0.032-0.183-0.092-0.291-0.176
				c-0.109-0.082-0.234-0.123-0.372-0.123v-0.299c0-0.063,0.04-0.154,0.123-0.271c0.083-0.117,0.14-0.289,0.166-0.521
				c0.057-0.064,0.098-0.105,0.125-0.123c0.025-0.019,0.056-0.041,0.083-0.074c0.056-0.166,0.166-0.381,0.332-0.646
				c0.166-0.265,0.305-0.445,0.414-0.546c0-0.065,0-0.147,0-0.248s0.025-0.182,0.083-0.248c0.108-0.163,0.271-0.329,0.479-0.495
				c0.208-0.164,0.366-0.313,0.479-0.445c0.14-0.166,0.282-0.363,0.438-0.596c0.15-0.23,0.283-0.432,0.395-0.598
				c0.141,0,0.275-0.018,0.414-0.049c0.142-0.033,0.235-0.051,0.291-0.051c0.141,0,0.271,0.1,0.396,0.299
				c0.125,0.197,0.201,0.297,0.229,0.297c0.083,0,0.349-0.105,0.788-0.322c0.442-0.215,0.804-0.372,1.079-0.471
				c0.525-0.166,1.162-0.34,1.908-0.521c0.747-0.183,1.438-0.373,2.075-0.57c0.221-0.064,0.512-0.196,0.871-0.396
				c0.356-0.196,0.719-0.36,1.077-0.493c0.14-0.066,0.323-0.143,0.562-0.226c0.233-0.082,0.422-0.144,0.561-0.175
				c0.141-0.064,0.29-0.147,0.456-0.247c0.166-0.103,0.317-0.165,0.456-0.198c0.083-0.064,0.183-0.102,0.291-0.102
				c0.11,0,0.207-0.018,0.29-0.051c0.525-0.164,1.094-0.388,1.701-0.668c0.608-0.281,1.217-0.539,1.826-0.771
				c1.078-0.363,2.178-0.694,3.298-0.992s2.275-0.431,3.465-0.396c0.056,0,0.117-0.025,0.188-0.076
				c0.066-0.049,0.146-0.073,0.229-0.073c0.056,0,0.083,0.019,0.083,0.05c0,0.033,0.041,0.051,0.124,0.051
				c0.057,0,0.14-0.041,0.249-0.125c0.11-0.082,0.208-0.123,0.291-0.123c0.027,0,0.055,0,0.083,0c0.055,0,0.117,0.023,0.188,0.073
				c0.066,0.05,0.198,0.175,0.395,0.372c0.166,0.133,0.346,0.23,0.54,0.299c0.193,0.065,0.373,0.147,0.539,0.248
				c0.055,0.032,0.117,0.106,0.188,0.223c0.068,0.117,0.146,0.226,0.229,0.322v1.092h0.012v0.004H389.974z M385.781,281.219
				c-0.108,0.033-0.222,0.074-0.329,0.124c-0.111,0.05-0.194,0.142-0.249,0.273c-0.028,0.032-0.059,0.116-0.083,0.247
				c-0.028,0.133-0.069,0.248-0.124,0.348c-0.083,0.133-0.201,0.257-0.354,0.372c-0.152,0.116-0.256,0.257-0.311,0.422
				c-0.277,0-0.633-0.017-1.062-0.05c-0.429-0.032-0.685-0.049-0.768-0.049c-0.059,0-0.29-0.116-0.705-0.348
				c-0.415-0.232-0.747-0.414-0.996-0.547c-0.359-0.164-0.72-0.3-1.078-0.396c-0.36-0.102-0.72-0.217-1.079-0.35
				c-0.056-0.031-0.373-0.146-0.954-0.349c-0.581-0.196-0.996-0.297-1.245-0.297c-0.471,0-0.903,0.049-1.307,0.147
				c-0.402,0.1-0.657,0.184-0.768,0.248c-0.249,0.196-0.521,0.396-0.813,0.596c-0.29,0.197-0.546,0.396-0.768,0.596
				c-0.442,0.464-0.854,1.011-1.227,1.639c-0.373,0.629-0.754,1.226-1.141,1.785c-0.028,0.033-0.077,0.124-0.146,0.271
				c-0.066,0.148-0.146,0.225-0.229,0.225s-0.104-0.008-0.063-0.023c0.041-0.017,0.021-0.023-0.063-0.023
				c-0.057,0-0.298,0.116-0.729,0.348c-0.43,0.232-0.686,0.348-0.769,0.348c-0.056,0-0.276-0.059-0.663-0.174
				c-0.388-0.115-0.608-0.174-0.664-0.174c-0.083,0-0.132,0.018-0.146,0.051c-0.018,0.031-0.051,0.049-0.104,0.049
				c-0.109,0-0.192-0.059-0.249-0.174c-0.056-0.114-0.083-0.224-0.083-0.32c0-0.065,0.027-0.239,0.083-0.521
				c0.057-0.281,0.099-0.488,0.124-0.621c0.141-0.496,0.283-1.022,0.438-1.588c0.15-0.563,0.365-1.107,0.644-1.638
				c0.138-0.229,0.283-0.528,0.438-0.894c0.149-0.362,0.298-0.66,0.437-0.895c0.193-0.331,0.38-0.637,0.563-0.918
				c0.181-0.28,0.354-0.555,0.52-0.816c0.166-0.23,0.359-0.479,0.581-0.744c0.221-0.267,0.415-0.515,0.581-0.744
				c0.025-0.065,0.048-0.115,0.062-0.148c0.017-0.031,0.034-0.066,0.063-0.1c0.607-0.727,1.251-1.555,1.93-2.48
				c0.677-0.926,1.361-1.802,2.056-2.629c0.637-0.761,1.342-1.629,2.114-2.604c0.773-0.979,1.286-1.877,1.535-2.705
				c0.026-0.032,0.063-0.09,0.104-0.174c0.041-0.082,0.089-0.155,0.145-0.226c0.083,0.034,0.152,0.075,0.208,0.124
				c0.055,0.053,0.11,0.105,0.166,0.175c0.166,0.101,0.359,0.197,0.581,0.3c0.221,0.1,0.428,0.229,0.622,0.396
				c0.083,0.034,0.159,0.133,0.229,0.298c0.068,0.166,0.117,0.299,0.146,0.396c0.027,0.033,0.063,0.064,0.104,0.1
				s0.075,0.066,0.104,0.1c0.083,0.268,0.158,0.557,0.228,0.869c0.07,0.313,0.104,0.702,0.104,1.166
				c0,0.065-0.008,0.313-0.021,0.743c-0.013,0.431-0.048,0.776-0.104,1.042c-0.027,0.133-0.097,0.223-0.207,0.271
				c-0.111,0.051-0.194,0.143-0.249,0.271c-0.028,0.033-0.035,0.094-0.021,0.176c0.017,0.081,0.009,0.154-0.021,0.223
				c-0.027,0.101-0.097,0.188-0.207,0.271c-0.111,0.083-0.208,0.157-0.29,0.226c0,0.033-0.015,0.084-0.042,0.146
				c-0.028,0.066-0.041,0.116-0.041,0.148c-0.194,0.197-0.367,0.404-0.52,0.619c-0.153,0.217-0.283,0.424-0.396,0.619
				c-0.028,0.066-0.104,0.158-0.229,0.272c-0.124,0.116-0.242,0.207-0.354,0.272c-0.028,0.032-0.063,0.105-0.104,0.224
				c-0.042,0.116-0.093,0.207-0.146,0.272c0,0.031,0.014,0.059,0.042,0.072c0.026,0.02,0.055,0.042,0.083,0.074
				c0.719,0.102,1.431,0.227,2.137,0.372c0.705,0.147,1.403,0.505,2.098,1.063c0.056,0.035,0.149,0.076,0.291,0.125
				c0.138,0.049,0.262,0.123,0.373,0.225c0.19,0.134,0.439,0.332,0.746,0.597c0.305,0.267,0.564,0.547,0.786,0.845
				c0.166,0.196,0.354,0.563,0.563,1.092C385.804,280.311,385.865,280.789,385.781,281.219z"/>
			<path fill="#FFFFFF" d="M432.957,283.65c-0.192-0.066-0.382-0.107-0.562-0.125c-0.181-0.019-0.313-0.024-0.396-0.024
				c-0.141,0-0.2,0.024-0.188,0.074s-0.035,0.142-0.146,0.272c-0.192,0.031-0.39,0.1-0.579,0.196
				c-0.194,0.103-0.374,0.218-0.54,0.351c-0.027,0.03-0.092,0.063-0.188,0.099c-0.098,0.032-0.173,0.083-0.229,0.149
				c-0.027,0.03-0.027,0.09,0,0.172c0.024,0.084,0.042,0.158,0.042,0.225c-0.111,0.033-0.258,0.083-0.438,0.148
				c-0.181,0.064-0.339,0.133-0.478,0.199c-0.027,0-0.059,0.03-0.083,0.098c-0.027,0.065-0.041,0.134-0.041,0.199
				c-0.249,0.1-0.547,0.183-0.896,0.248c-0.346,0.064-0.56,0.1-0.643,0.1c-0.057,0-0.257-0.018-0.604-0.051
				c-0.348-0.031-0.562-0.049-0.645-0.049c-0.057,0-0.098,0-0.124,0c-0.028,0-0.069,0-0.125,0c-0.193-0.134-0.388-0.289-0.581-0.474
				s-0.388-0.372-0.58-0.567c-0.027-0.066-0.049-0.166-0.063-0.301c-0.018-0.132-0.051-0.215-0.104-0.248
				c-0.11-0.298-0.276-0.486-0.498-0.568s-0.415-0.226-0.581-0.422c-0.025,0-0.042,0.031-0.042,0.1c0,0.1,0.035,0.207,0.104,0.322
				c0.066,0.117,0.117,0.224,0.145,0.322c-0.024,0-0.062,0.018-0.104,0.051c-0.041,0.033-0.09,0.049-0.146,0.049
				c-0.024-0.133-0.09-0.272-0.187-0.422c-0.099-0.148-0.159-0.308-0.188-0.473c-0.025-0.464-0.063-1.143-0.104-2.033
				c-0.042-0.895-0.133-1.557-0.271-1.983c-0.025-0.165-0.066-0.438-0.125-0.818c-0.056-0.38-0.083-0.62-0.083-0.72
				c0-0.064,0-0.266,0-0.596s0.027-0.76,0.083-1.289c0-0.102,0.042-0.182,0.125-0.248s0.151-0.199,0.207-0.397
				c0.059-0.165,0.104-0.362,0.146-0.596c0.041-0.229,0.063-0.396,0.063-0.496c0-0.065-0.008-0.124-0.021-0.173
				c-0.017-0.051-0.051-0.075-0.104-0.075s-0.166,0.116-0.332,0.349c-0.166,0.231-0.305,0.431-0.415,0.597
				c-0.024,0.065-0.056,0.174-0.083,0.321c-0.024,0.147-0.056,0.289-0.083,0.422c0,0.065-0.032,0.143-0.104,0.225
				c-0.069,0.083-0.132,0.154-0.188,0.225c-0.222,0.135-0.478,0.289-0.768,0.473c-0.29,0.183-0.574,0.354-0.851,0.521
				c-0.083,0.033-0.207,0.06-0.373,0.074c-0.166,0.019-0.318,0.06-0.457,0.124c-0.995,0.494-1.736,1.001-2.222,1.514
				c-0.482,0.514-0.727,1.248-0.727,2.207c0,0.066,0.034,0.258,0.104,0.571c0.067,0.313,0.146,0.569,0.229,0.771
				c0,0.031,0.063,0.101,0.188,0.196c0.124,0.101,0.216,0.147,0.271,0.147c0.083,0,0.117-0.018,0.104-0.049
				c-0.015-0.033,0.021-0.051,0.104-0.051c0.139,0,0.275,0.184,0.415,0.547c0.139,0.362,0.222,0.578,0.249,0.646
				c0.056,0.032,0.125,0.106,0.208,0.224c0.083,0.118,0.166,0.207,0.248,0.271c0.025,0.232,0,0.455-0.082,0.671
				c-0.083,0.216-0.059,0.454,0.082,0.72c0.108-0.064,0.188-0.154,0.229-0.271c0.042-0.114,0.091-0.207,0.146-0.271
				c0.055,0.133,0.083,0.258,0.083,0.372c0,0.115,0,0.24,0,0.372c-0.028,0-0.083,0-0.166,0s-0.152-0.018-0.208-0.05
				c-0.027,0.032-0.063,0.106-0.104,0.224c-0.041,0.116-0.049,0.207-0.021,0.272c-0.083,0.032-0.193,0.04-0.332,0.022
				c-0.14-0.017-0.235,0.01-0.29,0.074c-0.111,0.1-0.243,0.313-0.396,0.646c-0.15,0.33-0.323,0.496-0.52,0.496
				c-0.056,0-0.132-0.011-0.229-0.024c-0.098-0.017-0.188-0.024-0.271-0.024c-0.524,0-1.105,0.148-1.742,0.446
				s-1.286,0.744-1.95,1.339c-0.44,0.365-0.927,0.721-1.45,1.066c-0.525,0.348-1.012,0.703-1.451,1.064
				c-0.028-0.029-0.063-0.064-0.104-0.1c-0.042-0.032-0.118-0.05-0.229-0.05c-0.059,0-0.118,0.032-0.188,0.1
				c-0.067,0.063-0.132,0.134-0.188,0.198c-0.082,0.064-0.2,0.113-0.354,0.146c-0.151,0.033-0.27,0.051-0.353,0.051
				s-0.188-0.041-0.313-0.125c-0.125-0.082-0.215-0.237-0.271-0.471c-0.058-0.266-0.104-0.61-0.146-1.043
				c-0.042-0.43-0.063-0.692-0.063-0.793c0-0.065,0.025-0.265,0.083-0.596c0.055-0.331,0.124-0.596,0.207-0.794
				c0.222-0.597,0.519-1.308,0.893-2.134c0.373-0.826,0.728-1.588,1.06-2.282c0.14-0.265,0.357-0.67,0.663-1.216
				c0.306-0.545,0.597-1,0.871-1.363c0.607-0.859,1.244-1.662,1.908-2.406c0.663-0.744,1.301-1.496,1.908-2.258
				c-0.028-0.031-0.035-0.041-0.021-0.023c0.016,0.019-0.021,0.023-0.104,0.023s-0.691,0.166-1.826,0.496
				c-1.135,0.331-1.978,0.629-2.53,0.895c-0.331,0.131-0.829,0.404-1.492,0.817c-0.663,0.414-1.354,0.817-2.073,1.216
				c-0.249,0.133-0.498,0.33-0.747,0.596c-0.249,0.268-0.514,0.563-0.788,0.896c0,0.031,0.025,0.063,0.083,0.101
				c0.055,0.031,0.096,0.051,0.124,0.051c-0.276,0.297-0.563,0.65-0.853,1.063c-0.29,0.414-0.614,0.753-0.976,1.021
				c-0.083,0.033-0.229,0.063-0.438,0.099c-0.207,0.032-0.354,0.05-0.438,0.05c-0.056,0-0.249-0.082-0.58-0.248
				c-0.332-0.164-0.596-0.313-0.789-0.445c-0.024-0.064-0.062-0.142-0.104-0.225c-0.041-0.082-0.063-0.174-0.063-0.271
				c0-0.064,0.021-0.266,0.063-0.596s0.115-0.596,0.229-0.795c0.083-0.164,0.222-0.404,0.415-0.719
				c0.192-0.314,0.373-0.57,0.539-0.77c0.083-0.102,0.222-0.189,0.415-0.272c0.193-0.082,0.347-0.19,0.456-0.321
				c0.886-0.861,1.5-1.423,1.848-1.688c0.348-0.265,0.738-0.527,1.185-0.794c0.304-0.197,0.968-0.553,1.99-1.065
				c1.021-0.512,1.896-0.918,2.613-1.215c0.523-0.198,1.127-0.354,1.807-0.474c0.678-0.113,1.277-0.256,1.805-0.422
				c0.802-0.229,1.376-0.412,1.722-0.545c0.348-0.133,0.989-0.199,1.933-0.199c0.083,0,0.387,0,0.911,0
				c0.523,0,0.97,0.033,1.326,0.102c0.166,0.033,0.359,0.143,0.581,0.322c0.222,0.183,0.359,0.271,0.415,0.271
				s0.181-0.059,0.373-0.175c0.191-0.114,0.347-0.188,0.457-0.224c0.249-0.165,0.497-0.314,0.746-0.446s0.429-0.349,0.54-0.646
				c0.055-0.131,0.18-0.348,0.373-0.646c0.191-0.298,0.346-0.61,0.456-0.94c0.056-0.166,0.104-0.354,0.146-0.57
				c0.042-0.215,0.076-0.404,0.104-0.57c0.083-0.396,0.188-0.811,0.312-1.238c0.125-0.432,0.271-0.846,0.438-1.24
				c0.056-0.064,0.115-0.102,0.187-0.102s0.131-0.064,0.188-0.197c0.164-0.463,0.38-0.852,0.643-1.166
				c0.264-0.313,0.52-0.472,0.77-0.472c0.332,0,0.58,0.142,0.746,0.423c0.166,0.28,0.265,0.637,0.29,1.065
				c0.026,0.032,0.063,0.065,0.104,0.099c0.042,0.034,0.09,0.067,0.146,0.103c0,0.229,0.009,0.513,0.021,0.844
				c0.015,0.331,0.035,0.646,0.063,0.94c0.026,0.197,0.063,0.414,0.104,0.646c0.042,0.23,0.063,0.396,0.063,0.496
				c0,0.529-0.117,1.084-0.354,1.661c-0.235,0.58-0.367,1.002-0.396,1.267c-0.026,0.396-0.063,0.918-0.104,1.563
				c-0.041,0.645-0.118,1.216-0.229,1.711c-0.025,0.198-0.049,0.464-0.063,0.795c-0.016,0.33-0.021,0.528-0.021,0.595
				c0,0.299,0.058,0.795,0.166,1.488c0.109,0.693,0.317,1.092,0.623,1.189c0.057,0.033,0.083,0.115,0.083,0.248
				s0.016,0.23,0.041,0.297c0.109,0.231,0.224,0.438,0.332,0.621c0.109,0.183,0.233,0.354,0.373,0.521
				c0.72,0.693,1.271,1.166,1.659,1.413c0.388,0.248,0.886,0.539,1.493,0.868v0.296h0.023v-0.007H432.957z M417.399,269.064
				c0,0.063-0.066,0.265-0.208,0.595c-0.139,0.331-0.314,0.563-0.539,0.694c-0.139,0.1-0.346,0.142-0.622,0.123
				c-0.274-0.018-0.523,0.01-0.747,0.073c-0.249,0.101-0.519,0.19-0.809,0.272c-0.291,0.082-0.575,0.205-0.851,0.369
				c-0.166,0.066-0.401,0.272-0.706,0.621c-0.308,0.35-0.622,0.652-0.954,0.918c-0.308,0.23-0.622,0.455-0.954,0.67
				c-0.332,0.217-0.65,0.455-0.954,0.721h-0.208c0.193-0.33,0.408-0.661,0.644-0.992c0.234-0.33,0.449-0.628,0.646-0.895
				c0.222-0.328,0.449-0.678,0.685-1.043c0.235-0.36,0.463-0.741,0.688-1.141c-0.58-0.064-1.03-0.148-1.351-0.248
				c-0.315-0.1-0.754-0.248-1.308-0.447c-0.11-0.063-0.27-0.112-0.477-0.146c-0.208-0.03-0.354-0.05-0.438-0.05
				s-0.118,0.02-0.104,0.05c0.014,0.033-0.021,0.052-0.104,0.052c-0.056,0-0.201-0.033-0.436-0.102
				c-0.235-0.063-0.425-0.115-0.563-0.146c-0.356-0.164-0.809-0.529-1.348-1.094c-0.54-0.563-0.948-1.092-1.228-1.588
				c-0.056-0.102-0.166-0.188-0.332-0.271c-0.166-0.082-0.273-0.188-0.331-0.321c-0.057-0.165-0.098-0.33-0.125-0.496
				c-0.024-0.165-0.056-0.33-0.083-0.496c0.059-0.065,0.208-0.147,0.456-0.248c0.249-0.101,0.442-0.147,0.581-0.147
				c0.083,0,0.297,0.049,0.646,0.147c0.346,0.101,0.629,0.198,0.851,0.298c0.224,0.1,0.598,0.322,1.12,0.669
				c0.525,0.349,1.022,0.604,1.493,0.771c0.083,0.033,0.374,0.084,0.872,0.147c0.498,0.066,0.896,0.149,1.203,0.248
				c0.19,0.033,0.436,0.101,0.726,0.198c0.291,0.102,0.479,0.148,0.563,0.148s0.255-0.019,0.519-0.051
				c0.263-0.031,0.438-0.051,0.521-0.051c0.055,0,0.207-0.064,0.456-0.197s0.429-0.197,0.54-0.197c0.083,0,0.228,0.018,0.436,0.051
				c0.207,0.031,0.366,0.083,0.477,0.146c0.083,0.032,0.242,0.156,0.479,0.373c0.234,0.215,0.422,0.422,0.561,0.618
				c0.141,0.198,0.275,0.455,0.414,0.771C417.332,268.759,417.399,268.965,417.399,269.064z M414.619,285.089
				c0-0.065-0.041-0.422-0.124-1.065c-0.083-0.646-0.125-1.019-0.125-1.114c0-0.103,0.014-0.3,0.042-0.599
				c0.024-0.297,0.024-0.563,0-0.793c-0.225,0.432-0.456,0.854-0.705,1.267s-0.474,0.817-0.664,1.216
				c-0.111,0.23-0.188,0.464-0.229,0.691c-0.041,0.232-0.104,0.434-0.187,0.599c-0.059,0.133-0.152,0.269-0.29,0.396
				c-0.143,0.133-0.208,0.231-0.208,0.299v0.396c0.056,0,0.107,0.033,0.166,0.102c0.221-0.065,0.664-0.256,1.328-0.57
				S414.619,285.32,414.619,285.089z M438.021,284.939c0,0.133-0.042,0.313-0.125,0.545c-0.083,0.231-0.18,0.479-0.29,0.744
				c-0.111,0.23-0.207,0.486-0.29,0.771s-0.235,0.504-0.457,0.67c-0.276,0.231-0.56,0.413-0.851,0.545
				c-0.29,0.134-0.588,0.267-0.895,0.397c-0.108,0.033-0.256,0.058-0.436,0.074c-0.184,0.017-0.354,0.041-0.521,0.071
				c-0.025-0.03-0.057-0.082-0.083-0.146c-0.025-0.066-0.066-0.133-0.125-0.198c-0.273-0.065-0.605-0.101-0.996-0.101
				c-0.388,0-0.605,0-0.663,0c-0.056,0-0.248,0.043-0.578,0.125c-0.332,0.082-0.539,0.123-0.622,0.123s-0.3-0.023-0.646-0.074
				c-0.346-0.049-0.561-0.073-0.644-0.073c-0.027,0-0.438,0.106-1.227,0.321c-0.788,0.216-1.359,0.406-1.722,0.57
				c-0.637,0.329-1.238,0.596-1.806,0.795c-0.566,0.195-1.086,0.348-1.559,0.443c-0.165,0.033-0.439,0.157-0.829,0.372
				c-0.388,0.216-0.73,0.422-1.036,0.62c-0.248,0.133-0.49,0.32-0.728,0.568c-0.233,0.248-0.464,0.474-0.685,0.67
				c-0.111,0.102-0.201,0.226-0.271,0.371c-0.066,0.149-0.146,0.31-0.229,0.475c0.025,0.031,0.048,0.05,0.063,0.05
				c0.017,0,0.063,0,0.146,0s0.353-0.06,0.809-0.174c0.456-0.115,0.823-0.188,1.101-0.226c0.057-0.03,0.116-0.082,0.188-0.146
				s0.146-0.102,0.229-0.102c0.057,0,0.082,0.02,0.082,0.052c0,0.03,0.041,0.05,0.125,0.05c0.165,0,0.373-0.115,0.622-0.35
				c0.249-0.229,0.4-0.361,0.456-0.396c0.057-0.032,0.131-0.05,0.229-0.05c0.097,0,0.172-0.018,0.228-0.051
				c0.225-0.101,0.431-0.256,0.623-0.471c0.192-0.217,0.4-0.354,0.622-0.423c0.304-0.101,0.691-0.183,1.162-0.247
				c0.47-0.065,0.746-0.102,0.829-0.102c0.554,0,1.01,0.184,1.369,0.546c0.356,0.364,0.72,0.729,1.078,1.092
				c0.166,0.134,0.298,0.396,0.396,0.793c0.097,0.397,0.146,0.63,0.146,0.695c0,0.101-0.041,0.403-0.123,0.918
				c-0.084,0.515-0.152,0.937-0.209,1.267c-0.166,0.793-0.289,1.479-0.372,2.06s-0.124,1.199-0.124,1.857
				c0,0.496-0.021,1.145-0.063,1.938s-0.229,1.488-0.561,2.083c-0.027,0.063-0.027,0.157,0,0.271
				c0.025,0.115,0.014,0.226-0.041,0.322c-0.111,0.363-0.257,0.702-0.438,1.021c-0.181,0.313-0.324,0.636-0.436,0.967
				c-0.083,0.033-0.194,0.05-0.332,0.05c-0.14,0-0.235,0.032-0.291,0.1c-0.249,0.135-0.521,0.3-0.81,0.496
				c-0.291,0.198-0.549,0.28-0.77,0.248c-0.14-0.166-0.305-0.528-0.498-1.092s-0.29-1.092-0.29-1.588
				c0-0.066,0.013-0.272,0.041-0.62c0.027-0.347,0.056-0.637,0.083-0.868c0.027-0.198,0.021-0.446-0.021-0.744
				s-0.051-0.563-0.021-0.794c0-0.166,0-0.347,0-0.545c0-0.199,0-0.396,0-0.596c0-0.269,0.013-0.57,0.041-0.918
				c0.027-0.351,0.056-0.702,0.083-1.066c0.083-0.496,0.207-1.083,0.373-1.762s0.249-1.065,0.249-1.166
				c0-0.063-0.057-0.173-0.166-0.321c-0.11-0.148-0.223-0.224-0.332-0.224c-0.057,0-0.373,0.091-0.954,0.271
				c-0.581,0.186-1.063,0.31-1.452,0.373c-0.025,0.032-0.056,0.073-0.083,0.123c-0.024,0.051-0.067,0.092-0.124,0.125
				c-0.249,0.166-0.561,0.34-0.934,0.521c-0.374,0.183-0.604,0.271-0.687,0.271c-0.081,0-0.132-0.022-0.146-0.073
				c-0.015-0.05-0.063-0.074-0.146-0.074s-0.165,0.024-0.248,0.074c-0.083,0.051-0.165,0.073-0.248,0.073
				c-0.526,0.033-1.054,0.134-1.577,0.3c-0.525,0.166-1.053,0.33-1.576,0.494c-0.193,0.066-0.415,0.157-0.664,0.272
				c-0.249,0.116-0.471,0.224-0.664,0.322c-0.109,0.064-0.407,0.298-0.893,0.692c-0.483,0.396-0.878,0.597-1.184,0.597h-0.415
				c-0.109,0-0.233-0.065-0.374-0.197c-0.14-0.132-0.207-0.248-0.207-0.349c0-0.064,0.057-0.183,0.166-0.349
				c0.109-0.165,0.182-0.313,0.207-0.444c0.026-0.065,0.026-0.156,0-0.272c-0.025-0.115-0.041-0.206-0.041-0.272
				c0.057-0.03,0.132-0.091,0.229-0.174c0.096-0.082,0.158-0.154,0.188-0.225c0.057-0.063,0.09-0.141,0.104-0.223
				c0.014-0.082,0.034-0.156,0.063-0.226c0.057-0.063,0.14-0.132,0.249-0.196c0.108-0.066,0.191-0.134,0.247-0.199
				c0.142-0.164,0.341-0.43,0.604-0.793c0.262-0.363,0.519-0.678,0.768-0.941c0.14-0.133,0.354-0.28,0.646-0.446
				s0.561-0.362,0.81-0.596c0.192-0.165,0.472-0.438,0.829-0.818c0.359-0.381,0.678-0.687,0.955-0.918
				c0.082-0.101,0.207-0.215,0.373-0.348c0.166-0.132,0.346-0.248,0.539-0.349c0.968-0.66,1.94-1.24,2.926-1.735
				c0.979-0.496,1.832-0.909,2.551-1.24c0.388-0.164,0.856-0.388,1.411-0.67c0.553-0.279,1.063-0.554,1.535-0.817
				c0.192-0.132,0.407-0.271,0.644-0.423c0.234-0.146,0.464-0.289,0.688-0.422c0.106-0.063,0.27-0.196,0.477-0.396
				c0.208-0.198,0.408-0.363,0.604-0.496c0.273-0.198,0.623-0.391,1.036-0.57c0.414-0.182,0.664-0.271,0.746-0.271
				c0.058,0,0.084,0.01,0.084,0.023c0,0.018,0.041,0.023,0.125,0.023c0.056,0,0.232-0.092,0.537-0.271
				c0.307-0.183,0.566-0.34,0.788-0.474c0.166-0.063,0.359-0.164,0.581-0.297c0.223-0.133,0.431-0.266,0.622-0.396
				c0.058-0.064,0.11-0.154,0.166-0.271c0.058-0.115,0.11-0.189,0.166-0.224c0.11-0.134,0.271-0.226,0.479-0.272
				c0.207-0.049,0.364-0.074,0.478-0.074c0.056,0.066,0.118,0.184,0.188,0.348c0.066,0.166,0.156,0.299,0.271,0.396
				c0.138,0.1,0.283,0.199,0.437,0.298c0.15,0.101,0.282,0.216,0.396,0.349c0.026,0.032,0.041,0.09,0.041,0.174
				c0,0.082,0.014,0.156,0.041,0.225c0.056,0.031,0.104,0.064,0.146,0.101c0.042,0.033,0.076,0.052,0.104,0.052
				c0.056,0.099,0.104,0.223,0.146,0.371C438,284.667,438.021,284.809,438.021,284.939z M422.42,290.396
				c-0.083,0-0.146,0.018-0.188,0.051s-0.077,0.049-0.104,0.049c-0.276-0.032-0.608,0.107-0.995,0.422
				c-0.388,0.314-0.747,0.652-1.079,1.018c0.442-0.164,0.903-0.396,1.39-0.692c0.484-0.3,0.906-0.578,1.269-0.845h-0.291
				L422.42,290.396L422.42,290.396z M422.834,274.968l-0.082-0.05l0.082-0.197l0.084,0.049L422.834,274.968z"/>
		</g>
	</g>
</g>
</svg>
