<?xml version="1.0" encoding="utf-8"?>
<!-- Generator: Adobe Illustrator 15.0.0, SVG Export Plug-In . SVG Version: 6.00 Build 0)  -->
<!DOCTYPE svg PUBLIC "-//W3C//DTD SVG 1.1//EN" "http://www.w3.org/Graphics/SVG/1.1/DTD/svg11.dtd">
<svg version="1.1" xmlns="http://www.w3.org/2000/svg" xmlns:xlink="http://www.w3.org/1999/xlink" x="0px" y="0px" width="512px"
	 height="512px" viewBox="0 0 512 512" enable-background="new 0 0 512 512" xml:space="preserve">
<g id="Layer_2_1_">
	<rect x="0" y="0" fill="#FFFFFF" width="512" height="512"/>
</g>
<g id="Layer_1">
	<g id="Layer_2" display="none">
		<rect x="0" display="inline" fill="#FFFFFF" width="512" height="512"/>
	</g>
	<g id="Layer_1_1_">
		<g>
			<g>
				<path fill="#DBB335" d="M451.903,253.998c0,106.088-84.222,192.09-188.114,192.09S75.674,360.086,75.674,253.998
					c0-106.083,84.222-192.088,188.114-192.088C367.682,61.91,451.903,147.914,451.903,253.998z"/>
				<g>
					<path fill="#4A73A4" d="M459.545,223.198c0.638,2.786-0.286,5.397-0.971,4.41c1.107,2.755,1.202,4.234,1.413,5.059
						c0.214,0.828,0.528,1.014,2.006,1.249c1.775,3.609,0.064,7.723-1.414,3.592c0.871,3.5,1.653,7.037,2.345,10.605
						c0.09-2.148,0.148-4.3,0.173-6.455c1.254,0.806,1.222,3.409,1.161,6.033c-0.045,2.627-0.117,5.273,1.29,6.305
						c-0.08-3.928-0.27-7.853-0.564-11.768l0.835,0.545c-0.981-2.641-1.042-7.85-0.898-9.701c0.421,0.248,1.046,0,1.311,2.081
						c-0.587-7.157-1.853-7.974-3.08-8.471c-1.268-0.492-2.535-0.686-3.842-6.36C459.486,221.033,459.587,221.932,459.545,223.198z"
						/>
					<path fill="#4A73A4" d="M463.207,210.285c-1.328-1.432-2.672-2.837-4.029-4.213c-0.383-2.755-0.819-5.509-1.313-8.258
						c-1.019,0.168-3.514-5.367-3.258-1.201c0.375,0.717,1.107,2.144,1.342,3.396c-1.207-0.153-2.189-2.705-3.132-4.829
						c-0.932-2.127-1.784-3.828-2.51-2.346c2.462,5.964,2.19,7.048,4.972,10.433c1.252,5.807,1.577,10.151,1.277,13.002
						c0.646,1.656,2.062,1.655,2.702,3.823c-0.116-0.483-0.228-0.928-0.339-1.487l3.3-0.821c-1.036-1.745-1.029-3.564-1.519-5.615
						c1.938,2.917,3.815,5.909,5.625,8.973c1.334-1.823,1.116-5.108,0.568-8.418c-0.543-3.314-1.431-6.64-1.245-8.708
						c-0.835,2.704-1.401,1.828-1.771,1.518C463.494,205.217,463.366,205.46,463.207,210.285z"/>
					<path fill="#4A73A4" d="M459.26,220.093l0.048,0.231L459.26,220.093z"/>
					<path fill="#4A73A4" d="M117.434,358.537c1.091,1.489,2.07,1.463,2.548,1.448c-3.985-5.599-7.643-11.429-10.973-17.442
						c-0.492,0.987,1.532,6.752-0.918,3.529c0.003,2.067,3.574,6.347,5.021,6.354l-1.949-0.568c1.998,1.599,2.746,3.504,2.675,4.794
						c-0.074,1.285-0.973,1.939-2.275,0.885l0.242,0.335c4.343,2.556,8.735,4.885,13.154,6.991c-1.3-2.024-2.3-2.431-3.436-2.906
						C120.397,361.478,119.127,360.929,117.434,358.537z"/>
					<path fill="#4A73A4" d="M443.239,284.784c-0.143,2.754,0.1,3.146,0.481,2.896C443.655,286.665,443.517,285.691,443.239,284.784
						z"/>
					<path fill="#4A73A4" d="M128.064,366.299c1.389,0.628,2.779,1.231,4.167,1.816
						C130.773,367.239,129.299,366.606,128.064,366.299z"/>
					<path fill="#4A73A4" d="M84.648,358.608c-0.102,0.047-0.214,0.05-0.28,0.231l1.992,1.332l-0.026-0.048
						C85.737,359.56,85.179,359.061,84.648,358.608z"/>
					<path fill="#4A73A4" d="M203.875,413.324c0.404,0.102,0.743,0.219,1.23,0.327C204.668,413.506,204.263,413.398,203.875,413.324
						z"/>
					<path fill="#4A73A4" d="M50.219,300.676c1.426,3.522,2.936,6.995,4.528,10.411c-1.313-1.194,0.364,3.938-1.32,1.952
						c0.359,0.792,1.822,4.535,1.993,3.35l-0.683-2.175c2.136,2.459,3.228,2.727,4.371,3.482c1.146,0.749,2.325,1.993,4.83,6.17
						c-0.301-6.104-2.412-8.104-4.497-10.799c-0.466-0.978-0.786-1.814-1.117-2.662c-2.028-2.604-4.003-5.274-5.932-8.01
						L50.219,300.676z"/>
					<path fill="#4A73A4" d="M390.683,408.666l0.055,0.235C390.766,408.777,390.733,408.711,390.683,408.666z"/>
					<path fill="#4A73A4" d="M390.974,409.869l-0.236-0.968C390.611,409.598,389.275,411.29,390.974,409.869z"/>
					<path fill="#4A73A4" d="M125.725,366.231c0.486-0.222,1.303-0.19,2.339,0.066c-1.035-0.468-2.071-0.944-3.104-1.437
						C125.194,365.229,125.461,365.746,125.725,366.231z"/>
					<path fill="#4A73A4" d="M116.629,364.2c-1.651-2.073-3.258-4.185-4.824-6.329c-0.94-0.554-1.877-1.117-2.809-1.692
						C111.1,358.474,113.384,361.262,116.629,364.2z"/>
					<path fill="#4A73A4" d="M194.105,407.293c3.396,1.496,4.836,2.252,5.138,2.719c0.303,0.46-0.521,0.585-1.603,0.641
						c-2.152,0.104-5.345-0.145-2.335,1.674c4.014,1.385,5.988,0.489,8.57,0.999c-5.771-1.609-4.865-2.703-3.986-3.756
						c0.893-1.104,1.747-2.17-3.714-4.237c2.699-1.797,8.807,0.63,12.208,2.671c1.598,2.036,0.529,2.182-1.205,2.043
						c-1.733-0.126-4.101-0.575-5.086,0.452c4.563,1.376,3.98,0.578,6.37-0.123c3.34,1.578,7.223,1.988,10.608,2.521
						c3.396,0.549,6.311,1.229,8.017,3.56c5.327,0.592,5.252-0.782,8.468-1.613c0.55-1.375-1.274-2.088-3.39-2.837
						c-2.115-0.747-4.527-1.563-5.167-2.896c0.32,0.329,0.947,0.984,0.638,1.329c-1.39-0.54-2.766-1.11-4.133-1.691
						c3.807,2.056-1.312,2.673-3.593,2.227c-1.617-0.392-4.807-1.289-4.122-1.915l2.571,0.165c-1.399-0.907-3.237-0.954-5.09-1.114
						c-1.844-0.174-3.709-0.448-5.02-1.801c0.067-0.67,1.376-0.495,1.697-0.808c-4.253,0.501-7.652-0.969-13.41-2.136
						c1.409-0.392,2.808-0.805,4.19-1.229c-2.702,0.533-6.337-0.543-9.901-2.47c-3.57-1.921-7.042-4.685-9.594-7.292
						c0.403,0.836,1.448,1.868,0.424,1.893c-3.965-1.645-5.478-5.088-3.031-5.263c-2.347-0.125-5.28-2.743-8.242-5.521
						c-2.982-2.775-5.987-5.701-9.088-6.371c-9.621-1.948-19.372-4.944-29.064-8.994c0.953,0.566,1.896,1.23,2.741,2.018
						c-0.249,3.549,0.934,4.445-3.838,2.577c1.958,1.259,3.047,1.204,4.193,1.464c1.154,0.251,2.354,0.818,4.65,3.164
						c-2.672-1.005-5.331,0.478-1.043,5.333c6.571,4.859,13.202,7.438,19.741,9.392c6.564,1.942,13.058,3.276,19.918,5.411
						c-0.302,0.959,1.956,2.787,4.907,4.659c2.949,1.871,6.585,3.753,8.896,5.123c-2.757,0.981-6.647-0.329-10.513-2.049
						c2.228,1.429,6.213,3.632,9.217,5.179L194.105,407.293z"/>
					<path fill="#4A73A4" d="M160.521,394.233c0.204,0.374,0.462,0.701,0.74,1.021C161.18,394.997,160.971,394.676,160.521,394.233z
						"/>
					<path fill="#4A73A4" d="M180.803,404.518c-0.08,0.034-0.093,0.094-0.15,0.152l1.232,0.537
						C181.499,404.973,181.071,404.692,180.803,404.518z"/>
					<path fill="#4A73A4" d="M124.66,371.943c-1.048-0.407-1.614-0.884-2.666-1.303c0.526,0.355,1.115,0.854,1.701,1.319
						C124.337,372.335,124.751,372.422,124.66,371.943z"/>
					<path fill="#4A73A4" d="M125.301,367.263l0.943-0.09c-0.184-0.378-0.346-0.617-0.52-0.94
						C125.32,366.407,125.106,366.723,125.301,367.263z"/>
					<path fill="#4A73A4" d="M246.776,439.813l1.606-0.278C247.435,439.489,247.013,439.617,246.776,439.813z"/>
					<path fill="#4A73A4" d="M208.24,416.748c-2.504-0.806-2.904-0.194-3.559,0.31c-0.653,0.496-1.576,0.909-5.088-0.521
						l1.995,1.002c-2.759-0.426-6.305-1.747-9.841-3.394c-3.544-1.633-7.063-3.604-9.934-5.13c1.19-0.652-2.727-3.157-1.162-4.345
						c-3.995-1.813-7.837-3.828-10.764-3.561c-1.935-2.014-6.293-3.107-8.628-5.854c0.262,0.879-1.292,0.858-1.958,1.115
						c-0.667,0.251-0.461,0.859,3.412,2.891c-0.65-0.294-0.443,0.167-1.089-0.121c1.8,2.266,3.571,3.184,5.362,3.848
						c1.792,0.671,3.609,1.089,5.633,2.351c0.924,1.213-0.294,0.963-1.494,0.617c-1.193-0.354-2.371-0.788-1.341,0.13
						c2.792,1.231,6.652,3.963,10.118,5.815c3.458,1.862,6.45,2.86,7.174,0.976c3.985,1.676,4.156,2.69,5.021,3.919
						c4.014-0.498,9.591,2.388,14.664,4.5c5.047,2.146,9.477,3.549,10.194,0.914c-2.43-0.474-6.196-1.786-10.007-1.905
						L208.24,416.748z"/>
					<path fill="#4A73A4" d="M131.061,378.983c0.216,0.272,0.54,0.605,0.699,0.853C131.561,379.576,131.306,379.261,131.061,378.983
						z"/>
					<path fill="#4A73A4" d="M109.469,312.706c1.374,0.269,2.737,0.523,4.112,0.761c2.545,5.482,4.185,9.222,5.75,12.81
						c1.577,3.575,3.075,7.006,5.766,11.544c-0.027,0.947-0.932-0.011-1.393-0.499c2.017,3.139,4.366,7.149,6.891,10.752
						c2.511,3.604,5.172,6.801,7.48,8.415c0.703,0.941,1.811,2.785,2.473,4.253c0.669,1.459,0.878,2.56-0.288,1.994
						c0.991,0.684,2.083,1.484,2.877,2.558c-0.744,1.124-2.234-2.009-3.086-1.387c0.625,0.862,0.708,1.342,1.173,1.263
						c-1.002-0.317-1.529,0.748-2.479,1.091c-0.943,0.337-2.365-0.034-5.02-3.396c0.151-2.231,1.136-1.122,2.264,0.064
						c1.13,1.195,2.421,2.456,3.072,0.651c-1.759-2.146-2.541-1.096-3.011-1.022c-2.183-2.835-1.438-3.29-0.73-3.603
						c-1.674-0.435-3.188-4.859-5.535-5.489c-4.157-5.538,2.245-1.11-0.319-4.788c-1.41-0.083-2.826-0.186-4.241-0.308
						c-1.199-2.229-2.347-4.481-3.441-6.754c-3.25-4.419-4.287-3.433-5.558-2.496c-1.236,0.9-2.738,1.777-6.572-3.588
						c2.346,0.701,2.556-5.208,0.849-10.848c0.771,1.586,2.336,3.629,3.883,5.785c1.546,2.162,3.066,4.442,3.711,6.659
						c-0.34-3.423,0.749-1.521,2.096,0.64c1.353,2.168,2.997,4.581,3.471,2.414c-2.81-1.922-5.5-6.42-6.572-10.382l0.867,1.041
						c-0.796-1.99-2.324-3.331-3.809-4.961c-1.476-1.626-2.921-3.542-3.427-6.562c-1.21-2.712-0.104-2.543,0.813-2.352
						C110.146,314.848,108.772,312.965,109.469,312.706z M112.426,318.425c0.386,1.254,0.791,2.502,1.211,3.748
						C113.774,321.097,113.184,319.767,112.426,318.425z"/>
					<path fill="#4A73A4" d="M438.469,147.502c0.167,0.459,0.368,0.982,0.506,1.406
						C438.949,148.551,438.726,148.037,438.469,147.502z"/>
					<path fill="#4A73A4" d="M83.948,154.057l1.449-2.424C84.757,152.538,84.321,153.331,83.948,154.057z"/>
					<path fill="#4A73A4" d="M114.008,95.623c0.85-1.202,1.714-2.398,2.595-3.584C115.384,93.257,114.629,94.418,114.008,95.623z"/>
					<path fill="#4A73A4" d="M419.464,120.001l-0.069-0.12c-0.188-0.141-0.36-0.226-0.552-0.382L419.464,120.001z"/>
					<path fill="#4A73A4" d="M233.35,44.246c0.676,0.188,1.42,0.333,2.419,0.402C235.608,44.333,234.708,44.206,233.35,44.246z"/>
					<path fill="#4A73A4" d="M113.542,96.289l0.231-0.141c0.071-0.168,0.15-0.352,0.234-0.526L113.542,96.289z"/>
					<path fill="#4A73A4" d="M63.253,176c-0.13,0.628-0.246,1.2-0.342,1.888C63.154,177.029,63.222,176.472,63.253,176z"/>
					<path fill="#4A73A4" d="M73.621,175.636c-0.158,0.638-0.288,1.254-0.329,1.757L73.621,175.636z"/>
					<path fill="#4A73A4" d="M52.895,271.844l0.825,3.852C53.485,273.789,53.2,272.664,52.895,271.844z"/>
					<path fill="#4A73A4" d="M68.046,184.363c0.078,0.263,0.148,0.523,0.245,0.713C68.361,184.54,68.255,184.236,68.046,184.363z"/>
					<polygon fill="#4A73A4" points="440.231,172.896 440.133,172.701 439.736,172.777 					"/>
					<path fill="#4A73A4" d="M448.153,179.181c0.484,0.944,0.947,1.945,1.414,2.925
						C449.159,180.974,448.653,179.912,448.153,179.181z"/>
					<path fill="#4A73A4" d="M288.731,48.958c0.937,0.595,3.162,1.502,2.009,1.901C292.717,50.427,292.842,48.706,288.731,48.958z"
						/>
					<path fill="#4A73A4" d="M414.002,167.393c0.649,0.225,1.257,0.622,1.864,1.026
						C414.869,167.595,414.002,166.885,414.002,167.393z"/>
					<path fill="#4A73A4" d="M415.865,168.418c0.494,0.404,1.021,0.843,1.495,1.192
						C416.885,169.163,416.377,168.762,415.865,168.418z"/>
					<path fill="#4A73A4" d="M263.462,75.346c-0.215-0.227-0.547-0.417-0.998-0.474C262.6,75.329,262.958,75.425,263.462,75.346z"/>
					<path fill="#4A73A4" d="M449.957,184.746c0.477,0.135,2.298,3.382,3.495,5.23c1.202,1.843,1.932,2.222,0.229-3.532
						c1.256-0.188,2.158,1.554,2.904,3.712c0.736,2.162,1.324,4.725,2.051,6.192c-0.079-2.419,1.861,0.684,2.527-0.241
						c-0.735-1.477-1.947-3.113-2.577-5.704c0.718-1.521,2.697,2.131,3.141,5.318c0.195-4.155,3.27,4.287,2.72-1.374
						c-2.075-5.653-4.137-10.365-6.481-14.453c-2.341-4.087-4.99-7.542-8.311-10.583c3.246,5.853,6.595,12.666,7.355,18.201
						l-2.782-1.482c-0.229-6.439-2.945-9.527-5.13-15.147c1.448,4.312,2.745,8.662,3.899,13.036
						c0.357,6.568-1.368,2.665-3.432-1.813C449.959,183.254,450.216,184.328,449.957,184.746z"/>
					<path fill="#4A73A4" d="M429.192,183.534l0.023,0.209c0.135,0.136,0.264,0.32,0.392,0.391L429.192,183.534z"/>
					<path fill="#4A73A4" d="M96.434,267.755l0.896,0.906C96.894,267.883,96.623,267.65,96.434,267.755z"/>
					<path fill="#4A73A4" d="M435.87,172.588l0.003,0.008C435.817,172.528,435.809,172.509,435.87,172.588z"/>
					<path fill="#4A73A4" d="M96.381,243.476c0.056,0.037,0.118,0.076,0.182,0.14C96.501,243.525,96.437,243.521,96.381,243.476z"/>
					<path fill="#4A73A4" d="M50.502,232.563c-0.104,0.047-0.203,0.054-0.313,0.179C50.252,233.406,50.382,233.099,50.502,232.563z"
						/>
					<path fill="#4A73A4" d="M96.182,243.445c0.066,0.004,0.131-0.008,0.199,0.031C96.312,243.453,96.248,243.407,96.182,243.445z"
						/>
					<path fill="#4A73A4" d="M135.048,131.501c0,0-0.536,0.037-1.212,0.256C133.826,132.069,134.161,132.047,135.048,131.501z"/>
					<path fill="#4A73A4" d="M117.31,148.722c-0.155,0.084-0.266,0.121-0.454,0.238L117.31,148.722z"/>
					<path fill="#4A73A4" d="M283.032,38.548c-1.444-0.154-2.535-0.197-3.46-0.172C280.626,38.507,281.767,38.603,283.032,38.548z"
						/>
					<path fill="#4A73A4" d="M96.563,243.616c0.212,0.256,0.43,0.615,0.688,1.197C96.977,244.172,96.758,243.826,96.563,243.616z"/>
					<path fill="#4A73A4" d="M156.266,98.019l-0.503,0.656c0.152-0.06,0.291-0.137,0.446-0.187L156.266,98.019z"/>
					<path fill="#4A73A4" d="M168.295,91.907c-0.26,0.447-0.304,0.771-0.4,1.097c1.775-1.639,4.685-3.353,7.149-4.903
						c2.463-1.553,4.477-2.98,4.417-4.235c-0.714,0.392-3.086,1.287-5.205,1.891c-2.113,0.607-3.98,0.923-3.689-0.027
						c-2.645,2.17-7.747,3.472-9.08,4.814c5.383-1.951,1.517,1.277-1.116,4.004c-3.18,1.363-0.514-1.896-3.176-0.575
						c-2.121,1.576-4.21,3.194-6.258,4.859c1.89-1.313,3.811-2.577,5.741-3.818l-0.412,3.005l0.443-0.573
						c4.413-3.753,5.119-3.158,5.756-2.694C163.131,95.243,163.726,95.605,168.295,91.907z"/>
					<path fill="#4A73A4" d="M167.895,93.004c-0.528,0.496-0.966,0.972-1.25,1.428C167.531,93.833,167.763,93.421,167.895,93.004z"
						/>
					<path fill="#4A73A4" d="M211.065,77.194c0.524-0.24,1.084-0.527,1.784-0.91C212.516,76.467,211.722,76.82,211.065,77.194z"/>
					<path fill="#4A73A4" d="M106.331,351.136c0.231-0.255-0.208-1.965-0.844-3.504c-0.638-1.537-1.489-2.904-2.207-2.449
						c0.796,1.797,1.604,3.608,2.454,5.413L106.331,351.136z"/>
					<path fill="#4A73A4" d="M336.162,73.844c-0.684-0.341-1.387-0.645-2.105-0.91c-0.184,0.016-0.364,0.042-0.511,0.077
						C333.884,73.419,335.396,73.7,336.162,73.844z"/>
					<path fill="#4A73A4" d="M171.998,83.991c-0.964,0.838-1.307,1.357-1.432,1.738C171.196,85.207,171.736,84.648,171.998,83.991z"
						/>
					<path fill="#4A73A4" d="M334.986,77.74c0.69,0.814,1.675,2.047,1.592,2.724c1.756,0.784,3.354,0.537,5.276,1.09
						C339.737,80.82,337.475,79.611,334.986,77.74z"/>
					<path fill="#4A73A4" d="M342.013,81.594c-0.057-0.01-0.11-0.026-0.158-0.04C341.904,81.577,341.957,81.58,342.013,81.594z"/>
					<path fill="#4A73A4" d="M107.759,354.876c0.409,0.417,0.819,0.854,1.238,1.303l-0.877-0.53l2.043,4.12
						c0.396,0.399,0.814,0.839,1.27,1.416c-0.21-0.215-0.488-0.304-0.721-0.317l0.657,1.328c1.752,1.018,4.192,3.168,6.537,5.185
						c2.34,2.021,4.587,3.907,5.791,4.582c2.714,2.173,5.729,5.011,7.365,7.022c-1.584-1.801-3.922-3.998-4.036-2.642
						c1.21,2.192,1.698,4.214,2.854,6.271c1.151,2.05,2.98,4.156,6.906,6.263c-1.202-1.157-2.383-2.338-3.551-3.53
						c3.513,1.827,7.048,3.527,10.609,5.085c0.899,1.883-0.436,1.313-2.257,0.228c-1.826-1.077-4.084-2.716-5.117-2.783
						c3.746,2.407,6.13,5.655,8.318,8.363c2.176,2.702,4.134,4.849,6.733,4.836c-0.756,1.849-2.053,5.06,2.803,8.421
						c-2.074-4.273,3.648,0.926,2.28-3.024c2.236,0.289,4.831,4.304,5.938,3.277l-0.896,0.361c3.204,4.049,6.288,5.427,8.994,5.876
						c2.72,0.45,5.116-0.033,7.298,0.284c5.252,2.439,8.978,4.376,12.497,6.175c3.52,1.792,6.837,3.438,11.311,4.947
						c-0.122,1.332,1.093,5.63,4.851,6.731c1.137-0.555,3.83-0.346,6.426-0.327c2.596,0.033,5.083-0.104,5.786-1.082
						c-3.143-1.32-4.582-1.271-5.776-0.938c-1.191,0.331-2.118,0.925-4.154,0.555c-2.494-3.3,0.406-2.296-3.47-5.121
						c1.586,1.051,5.643,2.101,9.726,3.115c4.084,1.028,8.191,2.035,9.934,3.55l-1.469-0.014c3.008,1.381,4.565,3.461,6.837,5.047
						c2.26,1.566,5.281,2.689,10.979,1.708c1.797-0.236,3.585-0.511,5.362-0.804c-0.271,0.198-0.325,0.459-0.479,0.646
						c4.259,0.516,5.777,1.281,7.435,1.801c1.652,0.494,3.472,0.764,8.252-0.191c-0.737,0.147-0.278,0.404-1.03,0.542
						c2.715,0.674,5.471,0.333,8.016-0.28c2.55-0.609,4.89-1.513,6.903-1.906c2.617,1.696-0.455,1.896-1.949,3.329
						c4.841,0.104,9.813-1,14.16-2.6c4.357-1.59,8.091-3.663,10.722-5.36c2.053-0.027,4.106-0.115,6.169-0.213
						c-3.317,1.588-7.333,4.378-6.024,5.276c3.28-1.058,2.447-1.756,7.219-2.491c-0.521,1.36-2.245,2.91-4.199,4.869
						c5.196-0.093,5.508-1.318,5.483-2.181c-0.018-0.885-0.375-1.433,3.515-0.531c3.095-0.797,4.376-3.016,4.288-4.501
						c1.995,0.077,3.996,0.11,6.011,0.118c0.017-0.977,1.684-2.039,3.85-3.123c2.168-1.084,4.838-2.208,6.907-3.198
						c0.214-0.93-4.131-0.472-5.493,0.789c-0.173-1.476,4.056-3.811,6.885-5.006c1.275,1.584,5.906-0.575,9.9-2.611
						c3.994-2.03,7.413-3.892,6.879-0.998c5.934-3.887,12.934-8.671,19.032-13.616c6.122-4.912,11.336-9.951,14.224-13.601
						c2.984-1.185,7.529-5.459,6.071-1.566c4.141-3.901,6.415-7.712,8.649-11.422c2.224-3.735,4.409-7.371,8.249-11.408
						c0.969-0.408-3.104,3.946-1.867,4.454c1.715-3.316,4.063-5.661,6.714-8.476c2.634-2.813,5.589-6.099,8.173-11.203
						c-0.958,1.656-0.593,2.558-0.396,3.003c-0.643-0.181,1.4-4.66,2.331-7.511c1.125-1.255-0.72,2.129,0.177,1.585
						c6.45-8.994,9.969-18.254,12.545-27.573c2.563-9.364,4.237-18.8,6.678-29.267c-1.409,5.96,0.386,8.867,1.394,9.221
						c0.556-1.97,1.066-3.95,1.559-5.938c-0.686-2.589,0.28-7.066-0.003-10.996c0.563-0.371,1.381-2.127,1.661-0.146
						c2.31-5.748,1.757-10.679,0.894-15.796c-0.872-5.146-2.019-10.478-1.335-17.741c1.723,5.881,3.178,11.917,4.342,18.088
						c0.738-1.433,1.459-2.881,2.16-4.343c0.597,2.727,1.145,5.482,1.622,8.263c1.952-4.716-1.066-9.185,0.913-9.625
						c0.482,1.06,0.131,3.521,1.165,3.683c1.105-4.637-0.341-5.105-0.563-8.623c1.812,4.694,2.326,11.725,2.002,18.783
						c-0.293,7.065-1.422,14.125-2.067,19.108c-0.045,1.603-0.628-1.527-0.972-1.88c-0.763,4-2.516,6.059-3.209,11.143
						c0.74,3.514,1.869-1.997,2.636-4.414c1.317,0.694,0.93,1.92,0.389,4.715c-1.022,0.038-2.211,3.732-3.745,7.703
						c-1.511,3.979-3.373,8.228-5.135,9.479c-2.447,7.061-1.165,6.979,0.105,6.804c0.622-0.092,1.207-0.216,1.228,0.522
						c0.015,0.734-0.512,2.352-2.242,5.656c-1.291,1.043-2.584,2.065-3.889,3.065c-1.082,4.225-2.644,8.988-4.718,13.68
						c-2.064,4.694-4.65,9.31-7.599,13.24l1.094-1.757c-0.035-1.669-1.775-0.1-2.733,0.452c-2.444,2.772-4.119,5.839-5.781,8.507
						c-1.654,2.662-3.301,4.915-5.566,5.928c-1.722,3.985-4.636,8.906-8.015,13.717c-3.373,4.813-7.223,9.487-10.491,13.193
						c-1.959-0.227,0.037-2.779,2.611-5.858c2.59-3.069,5.715-6.739,6.428-8.819c-2.013,2.105-4.069,4.17-6.171,6.188
						c3.862-3.781,4.54-6.128,5.521-9.585c-2.784,2.563-4.188,4.686-5.49,6.891c-1.308,2.195-2.503,4.479-4.958,7.183
						c-0.115-0.973-1.146-0.671-3.668,1.496l0.542,2.087c-0.15-0.081-0.528,0.049-1.396,0.626c-3.048,3.072-6.194,6.07-9.457,8.957
						c2.711-0.978,3.85,0.286,6.552-1.788c-1.653-0.146,0.48-2.08,3.106-4.211c-1.482,2.879,3.229-1.29,3.847-0.467
						c-5.221,4.441-11.791,9.714-15.212,12.704l-2.219-0.639c-5.59,3.314-10.946,7.729-15.071,9.437l0.738-1.51
						c-6.979,3.374-13.382,7.811-20.407,8.94c-5.504,4.64-13.227,9.238-18.163,12.957c-1.146,1.559-6.385,2.397-12.187,3.148
						c-5.81,0.788-12.15,1.462-15.86,3.673c-0.562-0.149,5.156-2.586,7.616-3.998c-5.202,0.668-8.947,4.104-10.939,1.935
						c5.915-0.457,5.671-0.975,4.605-1.463c-1.068-0.509-2.937-1.078-0.396-1.84c-5.38,0.952-11.054,2.01-13.663,3.116
						c4.425-0.441,3.734,0.439,3.033,1.244c-0.705,0.784-1.408,1.468,3.063,0.412c-6.749,2.925-16.556,4.411-25.054,3.559
						c0.086-1.061-0.957-1.52-4.084-2.024l-2.583,1.446c-1.977-0.208-0.04-0.588,1.379-1.028c1.424-0.45,2.328-0.925-1.606-1.323
						c-4.114,1.164-10.263,0.383-15.777-0.359c-5.527-0.734-10.459-1.382-12.667,0.654c-2.924-1.506,0.113-1.42,2.734-1.524
						c2.636-0.114,4.834-0.365,0.423-2.246c2.807-0.404,5.959,0.106,8.696,0.417c2.732,0.317,5.04,0.427,6.026-0.688
						c-5.287,0.167-1.697-2.207-5.024-2.594c-1.973,0.259-3.958,0.497-5.953,0.694l1.264,0.28
						c-5.006,0.433-11.367-0.377-17.912-1.879c-6.556-1.486-13.278-3.658-19.284-5.558c-5.436-0.617-10.215-0.92-15.136-1.799
						c-4.908-0.896-9.979-2.365-15.725-5.586c2.048,0.282-0.208-1.291-1.864-2.768c-1.657-1.492-2.724-2.818,1.457-1.969
						c-4.605-3.954-10.313-5.821-10.992-5.017c4.305,3.091,1.384,1.285,4.951,4.023c-3.262-0.407-9.177-4.22-11.053-6.541
						c1.043,0.824,0.768,0.332,1.229,0.167c-2.383-2.121-3.169-2.308-3.896-2.215c-0.725,0.093-1.369,0.451-3.397-0.682
						c-0.07-1.15-2.046-2.733-4.313-4.502c-2.27-1.764-4.836-3.713-6.139-5.417c-2.095-0.646-4.186-1.335-6.278-2.058
						c1.813,0.49,0.809-0.594-0.588-2.031c-1.396-1.438-3.166-3.267-2.983-4.151c-3.943-2.147-8.082-3.287-12.318-8.546
						c1.266,0.722,0.444-0.607-0.5-2.292c-0.954-1.677-2.023-3.706-1.418-4.303c-3.082-4.813-6.866-7.743-10.502-10.846
						c-3.616-3.091-7.074-6.365-9.003-11.59c0.521,0.071,2.631,1.288,1.285-1.586c-1.744-1.826-3.832-5.645-5.308-7.854l0.083,0.049
						c-0.04-0.037-0.073-0.055-0.11-0.097c-0.723-1.082-1.313-1.689-1.686-1.517c-1.832-1.585-3.406-2.707-5.188-4.373
						c-1.782-1.669-3.801-3.87-6.383-7.727c-1.5,1.44,2.598,8.152,4.78,10.785l3.065,1.623c-0.614,1.913,0.519,3.665,1.844,5.183
						c1.32,1.526,2.826,2.821,2.961,3.972c-2.902-1.425-6.229-5.712-9.419-10.688c-3.196-4.976-6.245-10.62-9.124-14.639
						c-0.06,3.24,1.173,7.883,3.271,12.882c2.079,5.01,5.03,10.354,8.117,15.11c-0.534-1.623-1.045-3.25-1.542-4.876
						c1,1.693,2.016,3.378,3.058,5.046c-0.412-1.98-0.792-3.962-1.146-5.937c2.477,4.977,5.487,8.748,8.187,12.955
						c-3.303-4.862-2.196-8.228-0.803-5.226c0.963,3.229,2.184,4.466,3.469,5.391c1.288,0.93,2.645,1.559,4.038,3.581
						c-1.471-2.316-3.446-5.262-1.238-4.013c1.813,4.613,3.521,7.206,5.156,9.69c1.649,2.486,3.229,4.869,5.165,9.059
						c0.876-1.466,2.718,0.588,4.767,2.857c2.04,2.278,4.318,4.764,5.729,4.32c-0.87-1.048-1.74-2.092-2.589-3.152
						c2.429,1.671,4.878,3.29,7.355,4.843c1.882,3.713,0.182,2.973-1.117,2.502c-1.278-0.474-2.187-0.636,1.572,4.298
						c4.001,4.013,6.616,5.24,9,6.205c2.403,0.948,4.598,1.627,8.106,4.253c-3.443-0.269-9.993-3.476-15.223-8.438
						c0.857,1.209,1.722,2.421,2.605,3.617c-1.233-0.352-3.674-2.258-6.19-4.578c-2.521-2.313-5.099-5.051-6.783-6.896
						c3.659,2.203,3.101,1.38,1.476-0.453c-1.627-1.836-4.265-4.777-4.856-6.739c-1.843,0.706,1.909,4.479-3.367,0.785
						c1.953,2.199,3.135,3.402,4.383,4.817c1.259,1.404,2.579,3.023,4.979,5.926c-5.396-6.046-8.943-7.716-12.365-9.296
						c-3.375-1.594-6.604-3.126-10.42-9.331c4.733,4.736,0.682-3.462,0.979-4.628c-2.041-2.323-6.001-7.205-7.798-9.122
						l-0.908,3.447c-2.848-3.17-3.435-6.195-4.207-9.216c-0.773-3.036-1.738-6.051-5.278-9.598
						c-1.001-0.168-0.104,1.771,0.952,3.554c1.045,1.788,2.242,3.415,1.662,2.746c-4.094-5.292-5.623-9.654-6.564-13.989
						c-0.916-4.356-1.244-8.72-2.571-14.414c-0.987-0.296-2.518,0.521-5.368-2.753c1.97,0.586,1.603-2.491,4.408,1.277
						c-0.851-3.814-3.566-7.646-5.295-10.676c0.917,3.958,0.114,3.389-1.135,1.672c-1.232-1.72-2.831-4.615-3.517-5.187
						c-1.047-4.117,1.906,0.744,3.205,3.019c-0.72-3.347,0.348-7.836-2.501-8.96c0.792-0.308,2.521,1.625,4.404,4.278
						c1.878,2.66,3.923,6.034,5.219,8.809c-0.408-1.313-0.791-2.635-1.176-3.954c1.789,2.365,1.719,2.941,2.97,6.834
						c-0.245-4.193,1.291-4.325,2.728-3.905c-0.047,0.569-0.477-0.124-0.526,0.423c0.768,3.176,2.159,5.292,2.7,4.255
						c3.188,1.8-0.384-4.647-0.046-7.08c-0.711-1.474-1.415-2.952-2.086-4.412c-4.122-4.405-8.091-9.065-11.903-13.963
						c-2.659-6.887-1.619-10.536-1.569-16.068l-2.189-1.125c-0.934-6.313-1.028-12.307,1.948-8.641
						c-0.609,0.314-0.349,1.115-0.236,2.479c0.293,0.137,0.526,0.419,0.74,0.786c0.134,0.11,0.255,0.165,0.384,0.254
						c-1.665-6.521-2.449-10.676-2.575-11.047c2.033,5.521,2.985,5.499,3.793,4.362c0.818-1.148,1.608-3.434,3.433-2.707
						c-0.805-3.655-1.514-7.34-2.126-11.051c-0.604,6.877-1.711,0.254-2.289-2.17c0.953-0.391,0.825-2.652,0.541-5.33
						c-0.288-2.676-0.743-5.776-0.58-7.763l0.397,0.295c0.672-3.663,0.708-10.057,0.539-14.664c-0.334,0.08-1.182-1.401-2.14-3.308
						c-0.95-1.904-1.991-4.242-2.778-5.792c-1.564,7.956-1.832,3.127-3.113,3.646c0.182-0.832,0.375-2.338,0.144-2.542
						c-0.426-1.225-0.9,1.503-1.563,1.672c0.014,8.776,0.063,17.75,2.785,21.259c1.237-2.61-1.118-4.51-0.197-7.446
						c1.672,4.317,1.205,9.723,1.406,16.825l-1.524,2.401c0.414,2.381,0.853,4.752,1.343,7.109c-0.552-1.457-1.206-1.709-1.84-2.538
						c-0.629-0.828-1.253-2.237-1.582-6.036c-0.747,0.516-0.577,2.408-0.221,4.746c0.369,2.338,0.918,5.112,0.893,7.459l2.394,2.148
						c-1.338-0.799-0.361,9.156-2.846,2.297c-1.03-3.775-1.966-7.592-2.802-11.441c-0.415,1.109-0.844,2.23-1.241,3.354
						c-0.396-3.296-0.72-6.601-0.973-9.912l1.209,2.298c-1.061-7.937,0.134-9.139,1.042-10.31c0.983-1.189,1.671-2.33,0.72-10.31
						c-2.365-5.091-2.348-10.617-0.436-20.311c-0.317,7.141,1.729,0.96,2.906,3.792c1.975-6.958,0.292-9.638-0.069-13.536
						c1.704-1.564,3.011-2.621,1.715,3.643c1.367,0.63,1.574-1.455,1.876-3.704c0.295-2.25,0.688-4.667,2.211-4.643
						c1.046-5.137,1.365-8.837,1.295-11.924c-0.054-3.081-0.475-5.535-0.716-8.085c-0.229-2.545-0.294-5.196,0.49-8.618
						c0.785-3.416,2.409-7.626,5.686-13.093l0.748,1.33c2.352-7.649,5.097-13.357,7.985-18.779
						c2.91-5.423,5.979-10.566,9.567-17.059c2.955-2.723,5.97-5.346,9.037-7.865c-0.563,1.181-1.36,3.519-1.606,5.327
						c-0.247,1.812,0.042,3.084,1.534,2.18c-5.662,2.846-7.879,8.451-12.261,12.836c0.4,0.928,2.105-0.909,3.069-1.568
						c-1.819,3.093-3.93,4.005-5.683,8.485c0.664,0.076,3.785-4.115,2.276-0.504c-1.561,1.601-3.117,3.226-4.638,4.89
						c-1.502,4.104-0.883,5.561-0.575,7.069c0.331,1.522,0.342,3.072-1.99,7.529c-0.862-2.36-1.609-6.9-0.291-10.68
						c-1.153,2.046-0.73,0.526-0.354-1.085c0.387-1.603,0.74-3.298-0.65-1.576c-0.322,3.613-1.224,5.938-2.316,8.505
						c-1.079,2.564-2.361,5.368-3.205,9.845c0.048-1.107-0.332-1.55,0.337-3.668c-1.925,3.923-3.743,7.912-5.434,11.962
						c1.209-1.31,0.727,1.384,0.339,4.342c-0.394,2.96-0.679,6.179,0.537,5.891c2.315-6.485,3.025-8.792,3.809-11.341
						c0.822-2.528,1.688-5.329,5.192-12.337c-1.242,4.287-1.1,10.392,0.012,13.515c-0.122,0.099-0.257,0.285-0.445,0.718
						c1.308,2.893,2.62,0.825,6.186,2.091c-0.188-3.637,0.687-6.365,1.789-9.144c1.108-2.785,2.444-5.621,3.375-9.61
						c-1.271-2.251-4.359,3.238-5.329,7.217c0.46-2.388,0.952-4.78,1.501-7.165l0.308,1.678c2.61-5.493,5.456-10.862,8.52-16.092
						c-1.52,3.095-0.971,4.689-0.953,6.682c1.106-2.041,2.646-3.834,4.332-5.683c-1.979-0.486-3.071-1.436-1.931-3.423
						c6.121-9.988,11.37-14.309,15.609-16.468l0.654-1.169c-1.381,0.197-0.96-1.996-0.057-4.754
						c0.897-2.759,2.298-6.065,2.639-8.131c1.507,1.44,4.783-3.897,7.832-5.697c-0.611-2.928-4.694-3.384-8.938-1.399
						c-1.772,3.831-2.016,5.072-1.871,5.956c0.153,0.882,0.72,1.426,0.796,3.871c-2.063,3.781-3.987,7.619-5.793,11.484l0.041-3.423
						c-4.388,4.744-5.443,11.309-7.309,9.588c0.359-3.772,4.294-7.889,4.884-11.591c-1.072,0.986-2.126,1.993-3.181,3.006
						c1.115-3.825,2.192-4.283,3.419-4.836c1.249-0.55,2.632-1.206,4.718-5.351c-3.717,1.396,0.347-0.767,1.7-4.717
						c-1.576,0.766-3.965,4.063-6.02,6.672c-2.059,2.603-3.839,4.516-4.516,2.335c0.753-2.444,4.022-5.147,7.278-7.996
						c3.254-2.869,6.504-5.873,7.262-9.458l0.099,0.501c3.28-3.392,5.171-5.969,6.425-8.176c1.26-2.197,1.88-4.016,2.702-5.732
						c3.691-2.022,6.673-7.024,9.953-10.028l0.606,0.864c1.47-1.466,2.961-2.915,4.475-4.341c-1.065,3.346-5.634,4.61-9.393,8.451
						l1.805,0.99c-3.037,1.206-4.692,3.207-5.817,5.439c-1.135,2.23-1.734,4.707-2.739,6.97c1.726-3.051,5.229-6.373,8.17-9.315
						c2.936-2.956,5.327-5.552,4.692-7.532c1.512-0.428,3.014-0.846,4.521-1.237l1.116-1.836c3.392-0.822,2.274,2.959-1.99,7.186
						c-1.11,0.312-1.666,0.477-1.693-0.04c-1.533,2.52-2.45,5.29-7.579,9.642l1.875-3.238c-6.228,5.678-10.831,11.894-11.26,15.292
						c8.546-8.453,17.189-16.401,25.873-23.526c-0.196-5.517,1.545-9.94,0.548-14.285c2.967-2.66,6.626-5.629,10.44-8.146
						c3.805-2.526,7.743-4.617,11.114-5.667l-0.149,1.014c3.116-1.302,5.719-2.955,7.797-4.557c3.633-0.661-1.146,3.029,1.303,2.42
						c3.107-2.125,6.282-4.173,9.521-6.14c0.062,0.989-2.057,2.449-4.642,3.991c-2.592,1.533-5.652,3.16-7.588,4.275
						c0.67-0.532,2.031-1.604,1.434-1.567c-2.49,0.871-5.479,3.2-8.184,5.208c-2.713,2.003-5.156,3.689-6.84,3.167
						c-1.903,1.773,3.318-4.478-4.053,0.097c-5.419,2.39-5.559,5.504-5.575,6.494c0.268,0.451,2.312-0.561,4.064-1.294
						c1.757-0.734,3.21-1.204,2.264,0.192c3.593-2.558,4.366-4.683,9.759-6.743c-3.75,2.349-7.54,7.37-10.36,7.337
						c-3.027,3.252-3.478,5.746-2.804,7.108c0.686,1.373,2.49,1.662,4.177,0.64c-0.833-0.362,2.025-2.956,3.897-4.813
						c1.867-1.851,2.671-3.11-2.546-0.869c1.531-2.224,4.258-4.595,7.281-6.899c3.021-2.31,6.336-4.54,8.989-6.658l-0.079,0.492
						c2.351-1.453,4.738-2.851,7.154-4.211c-0.816,0.996-2.836,2.545-2.435,3.508c2.955-2.557,6.008-5.039,9.15-7.448
						c-2.579,2.188-1.518,2.068,0.544,1.368c2.062-0.711,5.178-1.927,6.691-2.084c0.522-1.946,4.342-4.678-0.049-3.96
						c-4.986,0.747-2.331,1.854-6.358,3.698c1.583-1.605,3.203-3.196,4.859-4.762l0.596,0.027c0.93-1.115,1.878-2.21,2.839-3.314
						c4.125-1.443,3.634,0.041,3.346,1.125c-0.275,1.108-0.396,1.797,4.495-0.947l-2.278-2.21c6.2-1.923,13.559-3.137,20.396-4.042
						c6.848-0.92,13.174-1.563,17.556-2.865c-2.244,1.962-2.85,4.682,0.684,5.683c-3.836,0.045-11.367,1.529-16.607,3.065
						c-0.567-0.117,0.894-1.331,3.288-2.562c2.388-1.233,5.723-2.46,8.736-2.657c-1.821-2.036-5.479-0.672-8.767,0.746
						c-3.297,1.407-6.243,2.849-7.163,0.661c-7.699,1.122-10.138,3.158-12.287,4.847c-2.15,1.75-4.008,3.19-10.559,4.184
						c0.574,2.01-3.064,2.282-2.997,4.254c2.399,0.874,6.312-0.71,10.77-2.56c4.444-1.859,9.464-3.971,13.623-4.448
						c-0.744,0.356-2.23,1.083-2.427,1.557c5.835-0.973,8.066-1.952,11.936-3.601l-0.562-0.132c3.317-1.761,4.517-1.572,5.384-0.965
						c0.874,0.611,1.445,1.646,3.59,1.741c1.548-0.61,7.408-0.871,6.271-2.238c2.614,0.297,5.213,0.666,7.787,1.064l-0.604-2.292
						c4.296-0.563,5.338,0.919,9.143-0.749l0.062-2.1c-3.616-0.037-7.242,0.022-10.87,0.178c5.419-1.231,1.318-2.19,7.379-3.125
						c-3.318,1.408-2.078,1.596,0.062,1.681c2.144,0.079,5.209,0.13,5.584,1.088c1.458-0.465,2.926-0.902,4.4-1.339l-1.122,0.593
						c3.509,0.984,4.139-0.89,8.229-0.597c-4.788-1.181-8.067-2.628-14.165-0.795c2.208-0.727,5.544-1.49,8.623-2.019
						c3.077-0.537,5.89-0.852,6.995-0.868c4.803-0.789,8.086,0.963,12.492,1.516c-4.291,0.116-3.629,1.783-4.023,3.043
						c-0.196,0.64-0.649,1.175-2.088,1.432c-1.439,0.252-3.857,0.201-8.027-0.215c0.313-0.404,1.667-0.296,2.187-0.035
						c-1.088-1.365-3.623-1.346-6.306-0.814c-2.687,0.54-5.503,1.595-7.275,2.199c0.985,1.507-2.708,2.022,3.629,2.631
						c-1.048-0.452,0.247-1.374,2.595-1.988c2.345-0.619,5.745-0.919,8.761-0.207l-1.133,3.27c2.89,0.189,5.773,0.434,8.649,0.747
						l-0.819,0.11c1.563,1.15,3.85,1.213,6.5,1.241c2.646,0.027,5.656,0.05,8.52,1.071c2.208-0.308,7.36,0.437,11.139,0.837
						c3.771,0.393,6.24,0.325,3.081-2.127c4.858,3.131,10.047,1.699,15.93,2.957c-2.25-1.125-4.525-2.223-6.833-3.266
						c4.579-0.039,6.171,0.229,7.586,0.238c1.421,0.026,2.661-0.208,6.675-0.876c0.423,1.077,1.697,2.288,0.021,2.727
						c5.674,1.957,12.374,4.8,18.479,7.424c6.117,2.607,11.663,4.97,15.42,5.468c3.707,2.097,5.334,4.208,7.378,6.362
						c2.038,2.175,4.507,4.341,9.8,7.021c2.305,1.039,0.162-3.687,6.053,1.643c0.265,0.496-7.539-2.397-0.331,2.463
						c3.247,0.807,5.955,3.317,8.707,6.062c2.763,2.751,5.564,5.728,9.275,7.636c2.558,3.513,7.989,8.467,5.479,8.805
						c-2.186-2.525-5.097-5.32-7.711-7.457c-2.612-2.142-4.91-3.634-5.765-3.731c1.496-0.329-2.882-3.955,1.491-1.492
						c-3.384-3.857-4.918-4.611-6.322-5.266c-1.433-0.636-2.755-1.162-6.109-4.264c-0.963,0.283,2.427,4.53,4.365,5.169
						c-0.827,1.086-4.52-1.357-7.533-3.014c-3.019-1.667-5.256-2.628-2.97,0.961c3.771,2.814,7.013,3.583,9.967,4.578
						c2.938,0.996,5.589,2.232,7.775,6.035c-3.562-0.908-6.684-5.292-11.752-5.546c1.546,1.652,3.065,3.317,4.55,5.009
						c1.664,0.51,3.329,1.043,4.993,1.602l-0.485,0.119c3.659,4.812,6.063,6.161,8.777,7.087c2.687,0.938,5.646,1.445,9.867,4.899
						c-1.467-2.926-0.391-3.488,0.799-3.844c1.178-0.355,2.444-0.489,1.177-2.635c5.444,5.092,8.712,9.532,6.661,11.339
						c-5.355-4.432-6.066-3.997-6.676-3.532c-0.628,0.504-1.183,1.05-6.462-2.445c0.686,2.131-4.852,0.718-0.082,6.144
						c3.483,2.311,3.489,1.506,3.401,0.746c-0.099-0.742-0.274-1.437,2.807,1.326c0.141,0.527,0.286,1.068-0.205,1.121
						c3.559,1.917,2.497,3.634,6.602,6.18l-1.112-0.496c1.135,2.706,2.432,3.624,3.679,4.49c1.231,0.87,2.406,1.691,3.111,4.186
						c0.495-2.777,3.284,1.649,6.038,3.461c-1.087-2.277-1.458-4.375-2.313-6.917c-0.866-2.529-2.224-5.517-5.451-9.349
						c-2.013,0.09-2.227,1.193-5.435-1.4c1.436,1.584,2.851,3.187,4.234,4.817c-1.066-0.919-2.063-1.464-3.111-2.234
						c-1.096-1.747-2.206-3.491-3.357-5.211c3.003,2.556,4.216,2.933,5.14,2.811c0.92-0.114,1.535-0.718,3.252,0.063
						c2.034,3.046,3.022,4.174,3.847,5.013c0.81,0.848,1.45,1.406,2.603,3.407c-1.084,0.52,0.205,3.921,2.03,8.187
						c1.837,4.265,4.156,9.435,5.563,13.351c-0.559-1.146-1.466-2.514-1.873-3.303c-2.197-2.134-2.071-0.996-1.465,0.716
						c0.604,1.717,1.646,4.043,1.419,4.302c1.059,1.032,2.111,2.078,3.149,3.141c-0.537-0.63-1.556-1.333-0.962,0.427
						c1.602,2.423,2.844,3.309,4.098,4.204c1.252,0.896,2.506,1.806,4.001,4.345c-0.982,0.946-4.914-2.562-3.93,0.965
						c-0.232,0.803-0.598,2.417-0.396,4.609c0.201,2.198,0.952,4.967,2.938,8.221c0.668,0.3,1.679,2.006,2.705,4.052
						c-0.182-0.269-0.374-0.62-0.514-0.719c0.178,1.733,0.333,3.462,0.462,5.188c-1.77-1.615-2.292-3.693-2.854-5.786
						c-0.56-2.088-1.172-4.185-3.045-5.687l-2.068,0.522c-1.325-3.001-4.084-6.617-5.975-7.924c1.87,4.587,2.816,5.273,5.455,10.174
						c-0.912,1.228-3.373-1.919-3.739-2.355l1.43,0.253c-0.556-3.357-2.092-5.38-3.878-7.447c-1.8-2.069-3.844-4.186-5.662-7.81
						c-0.533-1.106-0.026-0.535,0.458-0.495c-2.511-2.358-4.012-5.223-5.655-8.009c-1.637-2.778-3.416-5.476-6.35-7.291l2.101,1.062
						c-3.191-3.083-9.866-8.673-16.813-13.569l-0.661,0.486c0.225,1.013-1.769-1.333-2.643-2.775l0.014-0.001
						c-3.506-2.389-6.914-4.549-9.676-6.293c0.376,1.078,0.999,2.295,1.961,3.44c0.786,0.114,2.33,1.645,3.763,2.894
						c1.431,1.249,2.764,2.216,3.232,1.104c1.344,3.421,6.358,6.47,7.293,9.008c-1.804-4.517,3.64,1.241,5.081,1.21
						c-0.129,2.074,4.219,5.561,2.336,6.148c0.144,1.037-0.32-2.601-2.418-3.535c-2.151-1.443-1.11,0.579-0.188,2.466
						c0.922,1.896,1.716,3.662-0.688,1.692c2.758,2.715,5.402,6.294,7.954,9.975c2.564,3.677,5.032,7.454,7.644,10.58
						c-0.469-1.434-0.957-2.865-1.464-4.292c0.756,1.614,2.201,4.234,3.35,6.596c1.154,2.36,2.008,4.458,1.739,4.93
						c-1.32-2.286-2.668-5.052-4.581-7.84c-0.961,0.424-0.01,2.187,1.016,3.991c1.034,1.8,2.144,3.647,1.636,4.095
						c2.434,2.415,4.817,4.921,7.146,7.515c-0.518-1.345-1.048-2.685-1.593-4.02c1.127,0.989,2.252,3.729,3.267,7.03
						c1.021,3.302,1.934,7.152,2.83,10.372c-1.965-1.369-2.783-3.712-3.615-6.5c-0.826-2.781-1.676-6.017-3.596-8.996
						c-3.015-4.182-1.295,3.94-3.826-0.125c-0.111,1.387,1.172,4.158,2.4,5.298l0.205,1.919c-1.979-1.473-3.727-4.39-5.643-7.49
						c-1.902-3.101-3.999-6.377-6.417-8.562c0.497,0.345,0.977,0.625,1.323,0.637c-1.282-4.666-3.728-8.889-6.76-12.44
						c0.591,2.505,1.547,3.042,2.521,4.094c-0.459,0.466-2.93-3.123-4.418-4.115c1.596,4.015-0.875,1.479,0.146,3.987
						c-1.952-2.023-2.968-3.987-4.595-6.918c-0.151-1.992,1.929,0.438,2.808-0.562c-2.57-2.448-0.938-5.561-5.203-8.832
						c1.813,2.908,0.953,2.957-0.567,2.112c-1.535-0.839-3.788-2.514-4.847-3.146l0.618,0.938c-2.491-0.75-3.643-2.075-3.502-4.086
						c2.224,1.714,3.504,4.09,4.237,2.527c-1.168-1.399-2.364-2.773-4.034-4.062l2.049,0.744c-1.995-2.28-4.047-4.506-6.151-6.677
						c-1.965-0.167-4.99-0.588-7.271-0.082c-0.574-2.382-3.399-3.76-5.165-4.793l1.063,0.239c-0.985-1.771-3.25-3.968-5.47-5.6
						c-2.217-1.637-4.363-2.717-5.023-2.485c-0.724-1.302,4.26,0.349,7.473,1.062c1.611,0.335,2.772,0.406,2.565-0.439
						c-0.218-0.83-1.799-2.61-5.863-5.642c-2.974-2.449-4.523-2.417-5.821-2.008c-1.302,0.414-2.373,1.202-4.473,0.454
						c-0.001,0,0.425-0.167,0.236-0.624c-2.476-2.174-3.607-1.172-6.141-2.191c1.271,1.58,3.524,3.238,4.581,3.34
						c-1.704,0.69-5.396-4.06-8.188-4.349c2.016-0.138,0.857-1.213-0.498-2.18c-1.35-0.972-2.876-1.839-1.474-1.712
						c-2.325-2.4-5.307-4.031-8.158-5.003c-2.856-0.978-5.581-1.303-7.486-1.229c-1.265-2.347-3.066-3.083-5.247-3.721
						c-2.192-0.631-4.751-1.171-7.785-3.115c0.979,0.473,2.989,0.777,4.268,1.675c2.24-0.108,0.66-1.083-0.716-1.893
						c-1.365-0.813-2.513-1.504,0.753-1.156c-1.368-0.221-0.481,0.926,0.905,1.175c2.311,0.722,4.741,0.889,4.556-0.182
						c-1.563-1.331-3.152-2.656-4.781-3.938l2.112,0.36c-2.48-1.918-5.031-3.779-7.651-5.577c-0.367,0.284,0.274,1.043,0.604,1.426
						c-4.807-2.333-10.299-3.991-15.694-5.226c-5.4-1.247-10.705-2.064-15.27-2.979c-1.327,2.587-6.954,2.259-13.274,2.043
						c-6.312-0.257-13.365-0.317-16.99,1.449c1.926-1.604,3.051-4.413,1.803-5.565c1.658-0.235,5.17-2.454,9.011-1.795
						c0.588,0.906,5.201,2.223,2.122,3.044c5.232,0.047,4.947-0.533,3.731-1.442c-1.211-0.904-3.387-2.007-1.74-2.932
						c-5.951-0.16-10.69,0.726-14.791,1.807c-4.105,1.095-7.581,2.406-11.162,3.328l-0.234-0.64
						c-1.802,0.564-3.59,1.134-5.359,1.752c2.249-0.063,3.383,0.73,3.231,1.438c-0.154,0.719-1.565,1.347-4.45,1.134l0.669-0.238
						c-1.688-0.466-4.184-0.097-6.854,0.524c-2.674,0.618-5.517,1.484-8.015,1.904c-0.997,0.833-1.982,1.661-2.95,2.51
						c-4.922,0.943-5.979-2.207-8.147-3.742c-3.958,0.968-6.843,2.556-9.297,4.307c-2.458,1.758-4.494,3.689-6.813,5.493
						c-1.46-0.229-4.994,0.737-7.503,1.333c-2.505,0.59-4.036,0.726-1.489-1.439c-3.063,2.119-3.349,4.848-4.471,7.188
						c-1.126,2.381-3.031,4.288-9.391,5.472c0.669-0.946,1.348-1.892,2.043-2.828c-5.07,3.014-10.667,7.534-15.42,11.698
						c-4.771,4.162-8.743,7.938-11.264,9.142c-0.022-3.349-3.683-1.982-7.931,0.199c-4.246,2.16-8.965,5.204-11.542,4.293
						c1.243,0.343-1.643,3.978-1.612,4.901c-1.112,0.351-2.67,1.244-3.044,3.277c1.939-1.485,2.375,0.021,2.879,0.839
						c0.521,0.829,1.047,0.984,3.299-3.02c-0.508,5.714-2.219,11.619-8.003,19.271l-1.611-1.345c1.677-1.957,3.396-3.873,5.15-5.746
						c-1.702-0.352,0.868-3.391,1.394-5.091c-2.54,2.585-3.936,3.646-4.791,3.912c-0.854,0.267-1.164-0.26-1.44-0.755
						c-0.276-0.494-0.521-0.956-1.267-0.535c-0.745,0.42-1.998,1.726-4.172,4.836c0.251,1.979,0.327,0.875-1.465,4.402
						c0.984-1.553-0.005-2.664-1.725-0.21c-0.069,1.11-0.144,2.206-0.19,3.31c-2.9,1.257-2.204-0.88-1.283-3.048
						c0.917-2.156,2.057-4.323-0.257-3.133c1.007-2.927,2.91-6.615,4.232-9.543c1.31-2.933,2.004-5.15,0.34-5.232
						c-3.525,3.602-3.864,6.201-4.235,8.752c-0.354,2.58-0.749,5.106-4.064,9.055l-1.553,0.299
						c-1.306,3.479-0.017,4.949-0.074,7.188c-0.646-0.183-1.532,0.346-2.844,2.249c-0.645,6.565-1.974,10.335-1.625,16.492
						c2.073-6.979,4.085-9.464,6.057-11.93c1.002-1.231,2.025-2.458,3.186-4.219c1.161-1.763,2.447-4.06,4.096-7.413
						c-0.286,1.205-1.719,4.071-2.712,6.927c-1.007,2.85-1.571,5.667-0.467,6.643l-1.759-1.147c-1.38,4.695-2.58,9.32-5.654,14.415
						c0.141-1.259,0.29-2.524,0.463-3.786c-1.047,3.871-3.063,6.54-4.737,9.2c-1.665,2.648-2.972,5.287-2.356,8.807
						c0.897-2.017,1.471-3.701,1.653-5.086c-0.584,4.126-2.43,8.832-4.013,12.969c0.24,3.245,0.571,6.455,0.992,9.625
						c-1.016-0.337-2.325,5.235-3.343,2.179c-1.487,3.027-1.576,5.496-1.296,7.635c0.278,2.145,0.905,3.968,0.896,5.856
						c-1.561,3.133-1.618,1.688-1.608-0.709c0.011-2.392,0.173-5.708-1.183-6.298c-1.325,4.505-2.012,9.304-2.123,13.622
						c-0.122,4.32,0.349,8.156,1.173,10.805c0.501-1.868,0.933-2.754,1.429-2.63c-0.683,0.237-0.702,3.96-0.765,6.031l1.334,1.447
						c-0.957,3.412-1.758,2.959-2.75-0.018c-0.327,3.354,2.336,7.233,0.526,10.694c-0.941-2.794-1.053-6.044-1.002-8.938
						c0.048-2.898,0.235-5.441-0.202-6.948c0.417,5.969-0.563,8.933-1.497,12.384c-0.455,1.723-0.879,3.559-1,5.919
						c-0.122,2.357,0.051,5.246,0.877,9.007c-0.628,0.262-2.163-2.213-1.87,0.748c0.629,3.402,1.407,3.748,2.206,3.504
						c0.802-0.246,1.656-1.076,2.542-0.129c-1.488-5.045-0.84-7.584,0.651-10.674l1.199,1.282c-0.561,0.25-0.32,3.457-0.763,4.458
						l2.327,0.586c-2.533-0.145-3.858,5.271-2.275,9.184c1.173-4.34,1.253-3.217,3.915-4.693c1.714,2.583,1.298,4.21,0.949,5.96
						c-0.355,1.737-0.657,3.608,1.373,6.392c-0.895-0.279-2.526-5.587-2.215-0.787c0.698,3.896,2.503,2.961,3.688,5.365
						c-2.686-2.408-4.028-1.314-7.118-4.027c-0.84-3.49-0.93-4.211-1.136-4.89c-0.185-0.685-0.479-1.319-1.456-4.733
						c-0.28,2.051-0.544,4.119-0.754,6.198c-1.396-6.014-3.072-4.065-3.961-4.442c-0.212,5.471,1.015,7.334,2.271,8.637
						c1.28,1.308,2.626,2.082,3.14,5.447c2.125,2.844-1.132-6.242,1.462-1.612c0.573,3.098,1.006,3.362,1.59,3.68
						c0.596,0.314,1.322,0.7,2.689,3.938l-1.23-0.873c-0.613,2.4,1.438,4.031,2.38,6.313c0.715,1.198,2.198-0.087,3.945-0.348
						c1.766-0.27,3.688,0.474,5.581,5.47c-0.723-0.293-1.136-0.351-1.366-0.267c-6.667-1.313-13.335-3.005-20.009-5.072
						c3.422,11.553,8.084,24.646,13.817,37.551c-0.69,2.277-2.54,0.416-4.276-1.912c-1.739-2.318-3.337-5.088-3.833-4.36
						c-0.747-2.069-1.446-4.154-2.122-6.24c0.735-0.122,2.223,2.951,3.603,5.204c1.375,2.26,2.543,3.715,2.393,0.536
						c-2.974-4.882-4.476-8.766-6.084-12.498c-1.6-3.75-3.308-7.349-6.412-12.076c-1.109,2.141,0.188,5.559,1.872,9.289
						c1.673,3.748,3.741,7.778,4.022,11.585c-1.039-2.837-2.377-5.024-3.756-7.144c2.132,6.436,4.738,13.242,7.965,20.314
						l1.559,1.13c-2.178-4.743-3.467-8.104-3.566-8.57c2.768,6.33,7.355,10.416,9.724,9.526l-0.517-1.081l1.889,1.708
						C106.391,352.033,107.071,353.459,107.759,354.876z M443.771,298.877c0.14,0.455,0.332,0.833,0.614,1.148
						C444.09,299.699,443.797,299.912,443.771,298.877z M72.481,227.699c-1.579,9.213-2.816,18.637-3.05,27.681
						c2.403-8.181,5.08-14.798,6.719-16.13c0.824-0.669,1.384-0.029,1.639,2.392c0.271,2.423,0.229,6.627,0.223,13.148l0.366,1.703
						c0.556-3.413,0.695-9.242,0.692-14.764c-0.747-2.272-2.41-7.16-3.775-11.604c-1.393-4.431-2.501-8.387-2.801-8.352
						c-1.626,1.421-0.499,4.034-1.291,6.951L72.481,227.699z M81.615,222.469c1.402-4.907,0.148-3.958-0.681-4.924
						c-0.212,1.793-0.393,3.586-0.563,5.357C80.724,222.271,81.127,222,81.615,222.469z M79.909,217.664
						c-0.134,0.564-0.261,1.042-0.438,1.272L79.909,217.664z M85.553,316.821c-0.095-0.211-0.142-0.283-0.227-0.484
						c0.312,1.187,0.646,2.367,1.002,3.603C86.317,319.414,86.1,318.488,85.553,316.821z M84.783,306.13l-2.061-0.698l0.741,3.413
						C84.141,308.239,84.713,307.649,84.783,306.13z M84.555,272.79c-2.403-1.81-2.953-8.714-5.447-9.028
						c-0.663-0.414-0.832,1.072-0.937,2.745c0.066,1.854,0.138,3.837,0.262,5.937c0.37,0.039,0.743,0.423,1.135,1.08
						c0.112-2.09,0.617-3.504,2.213-2.809c-1.429,2.762-0.698,3.902,0.336,5.016c1.045,1.121,2.39,2.228,2.357,5.063
						c1.002,0.758,1.199-0.845,1.078-2.828C85.422,275.98,84.991,273.6,84.555,272.79z M382.081,106.515
						c-0.013,0.269,0.061,1.062,0.206,2.104c-1.291-0.562-2.589-1.103-3.887-1.626c-2.602-2.469-4.538-5.255-6.758-7.593
						c-2.213-2.331-4.709-4.213-8.271-4.696c-2.114-2.305-2.649-4.545-3.299-6.529c1.243,0.871,2.372,1.737,3.258,2.541
						c4.506,1.543,7.079,3.03,8.615,4.342c1.535,1.323,2.038,2.499,2.422,3.628c0.372,1.143,0.635,2.233,1.63,3.469
						C377.004,103.386,378.74,104.742,382.081,106.515z M309.427,64.551c0.78,0.039,1.148-0.287,1.148-0.287
						c-17.253,0.324-30.394,0.58-39.125,0.021c0.807,0.946,3.129,1.85,5.663,2.718c2.54,0.86,5.3,1.67,7.06,2.255
						c-1.145,0.566-2.275,1.139-3.397,1.729l-1.84-1.8c-1.903,0.463-3.79,0.973-5.659,1.496c1.462,1.461,5.898,1.473,8.719,2.862
						c0.146-0.179,2.623-0.635,5.446-1.072c2.821-0.444,5.998-0.864,7.436-1.245c-2.443-0.914-4.915-1.786-7.417-2.592
						c1.002,0.424,4.057,0.865,7.366,1.333c3.31,0.457,6.876,0.95,8.929,1.149c0.157-0.501-1.403-1.531-3.195-2.154
						c-1.789-0.625-3.795-0.826-4.432,0.204c-0.277-0.838,1.595-0.888,2.947-1.036c1.348-0.138,2.188-0.4-0.221-1.722
						c3.207-0.222,7.189,0.589,10.842,1.773c3.659,1.176,6.981,2.718,9.045,3.773l-0.052,2.703c4.362,2.503,4.203-1.944,9.278,1.506
						c-3.507-1.032-3.456-0.231-3.219,0.556c0.232,0.803,0.647,1.609-2.072,0.755c1.384,1.542-0.85,2.554,4.485,4.353
						c2.81-0.753,4.015,0.324,5.127,1.425c1.118,1.112,2.148,2.242,4.796,1.783c2.243,2.202-3.728,0.552,1.332,3.395
						c6.753,1.253,7.013,0.042,8.533-2.009c-2.68-1.783-4.67-1.83-6.496-1.789c-1.837,0.048-3.516,0.177-5.751-1.125
						c3.696,0.057,7.433,0.234,11.195,0.536c-1.456-1.408-2.727-2.094-3.887-2.453c2.014,0.683,3.904,0.914,5.683,0.842
						c1.007-0.029,1.932-0.033,2.767,0.01c-5.345-2.861-10.23-5.101-10.673-6.464l1.264-0.758c-1.526-1.916-5.158-2.513-6.995-2.291
						c-5.141-1.956-10.837-2.094-11.471-3.95l2.327-0.383c-3.258-0.93-5.091-1.356-7.117-1.885L309.427,64.551z M110.633,132.759
						c3.021-0.3,5.968-0.716,9.596-2.847c3.659-2.114,7.907-5.975,14.227-12.786l-0.822,1.247c4.281-2.313,6.935-6.041,10.015-9.87
						c3.069-3.801,6.579-7.712,12.115-9.828c-1.739,2.311-2.542,3.398-3.228,4.751c-0.685,1.346-1.263,2.961-2.35,6.323
						c1.225-1.54,2.465-3.08,3.748-4.589c0.211,2.889,3.979-1.641,7.539-3.959c-0.472,1.496-0.917,2.998-1.34,4.494
						c-2.526,0.777-7.849,4.588-7.264,5.001c0.455-0.568-1.792,0.057-4.6,1.444c-2.806,1.378-6.15,3.559-7.866,5.77
						c0.877,0.509,3.285-1.368,5.317-2.565c2.033-1.206,3.609-1.776,2.734,1.097c2.525-3.952,4.205-2.826,7.427-6.269
						c-2.67,3.833,0.773,2.762-0.876,5.934c1.789-1.763,3.619-3.492,5.487-5.183c0.271,0.197-1.694,2.139-2.875,3.833
						c-1.188,1.7-1.615,3.078,1.482,2.104c0.834-1.322,3.02-2.945,4.879-4.403c1.855-1.465,3.392-2.778,2.852-3.678l0.519,0.422
						c2.409-1.398,2.508-2.339,2.795-3.31c0.286-0.962,0.765-1.973,4.005-3.297c-0.478-0.933-2.003-0.868-3.978,0.675
						c-1.502,1.552-0.987,2.906-4.327,5.599c-2.535-0.243,4.38-2.788,0.342-3.37c-1.009-0.141-3.207,1.748-4.99,3.184
						c-1.787,1.426-3.223,2.368-2.896,0.157c1.613-1.035,3.237-2.047,4.877-3.029c-1.114-1.807,2.405-4.087,1.369-5.417
						c2.548-2.657,6.634-2.449,8.812-5.864c0.624-1.931-2.979-2.793,2.897-4.874c2.846,0.181,7.244-1.466,11.59-3.318
						c4.339-1.868,8.649-3.937,11.003-5.095c1.255-0.972,2.528-1.927,3.819-2.87c-0.403-0.541-2.462,0.261-4.127,0.908
						c-1.664,0.647-2.953,1.118-1.887-0.214c2.178-1.057,4.382-2.063,6.605-3.034l-0.257,0.945c2.311-0.637,4.355-2.23,6.317-3.333
						c-1.712,2.093-6.806,3.238-5.1,4.963c3.313-0.704,4.041-0.086,6.845-1.413c-0.595,0.349-1.08,0.725-0.904,0.991
						c3.35-0.563,4.735-1.573,5.479-2.639c0.741-1.064,0.831-2.143,1.569-2.711c2.98-2.24,1.146-2.467-1.452-2.368
						c-2.591,0.092-5.908,0.563-5.807-0.641c6.479-2.388,13.114-4.417,19.865-6.075c-1.624,1.018-3.218,2.07-2.39,2.817
						c2.571,0.002,2.674,0.432,3.002,0.654c0.329,0.232,0.875,0.256,4.328-0.365c-0.488-1.432,1.636-2.263,4.5-2.952
						c2.862-0.698,6.445-1.229,8.891-2.291c2.452,1.04,2.932,1.212-2.164,1.706c0.77,1.836,7.498,0.568,9.945,0.685
						c1.384-0.549,3.782-0.893,5.306-1.346c-2.062-0.916-1.238-2.197,3.274-3.025l0.265-0.402c-3.696-0.296-8.458-0.842-12.891-0.91
						c-4.427-0.079-8.506,0.326-10.701,1.59l1.201-1.106c-4.402-0.355-8.973,1.217-12.89,2.574c-3.933,1.359-7.244,2.497-9.61,1.175
						c0.022-1.497-1.771,0.088-2.126-1.983c-1.958,1.05-3.893,2.12-5.795,3.232l1.028-1.277c-3.476,1.121-6.912,2.344-10.311,3.66
						l0.149-0.463c-4.322,3.456-7.481,6.371-9.938,8.743c0.34,0.852,0.741,0.98-0.543,2.249c-1.373,1.066-2.501,1.644-3.588,1.991
						c-0.007,0.004-0.007,0.004-0.003,0.015l-0.004-0.011c-2.461,0.82-4.586,0.358-7.717,1.303c2.926-1.537,5.894-2.997,8.899-4.378
						c0.133-1.728-1.276-2.936-6.256-1.852c1.82-0.897,2.112-2.354-0.272-1.468c-0.103,0.469-5.603,3.772-2.864,3.827
						c-4.183,2.356-10.146,4.507-16.384,7.646c-6.229,3.111-12.726,7.236-17.595,12.899c3.633-3.896,1.666-3.038-0.146-2.141
						c-1.788,0.916-3.414,1.839,1.09-2c-4.042,1.504-5.071,3.125-5.905,4.929c-0.839,1.813-1.502,3.812-4.756,6.4
						c-1.123-0.21,3.479-2.887,3.855-5.448c-5.7,4.069-9.385,8.839-12.747,13.638c-3.365,4.826-6.419,9.683-10.957,14.523
						l-1.855-0.801C113.717,127.899,112.177,130.268,110.633,132.759z M98.184,155.956c-1.063,2.313-2.102,4.674-3.098,7.092
						c0.146-0.211,0.255-0.42,0.399-0.644c-0.709,2.486-1.377,4.971-1.979,7.465c1.334-1.931,2.838-3.317,3.747-3.446
						c0.911-0.129,1.201,0.976,0.26,4.046c-0.485-0.834-2.184,0.429-1.636-1.785c-1.469,1.675-3.45,4.571-4.542,6.942
						c-1.101,2.371-1.341,4.165,0.48,3.587c0.334-4.344,1.422-4.415,2.45-4.23c1.047,0.181,2.043,0.599,2.468-2.738
						c0.268,3.914-1.862,6.66-2.293,9.982c-0.187-3.717-3.686-0.684-6.212,3.904c-0.357,2.252-2.769,7.851-3.072,11.649
						c2.101-0.732,2.115,2.596,4.341-2.944c-0.233,2.225-0.868,5.526-2.742,8.934c0.086-1.531,0.61-4.119-0.055-4.126
						c-2.275,1.9-2.965,4.736-4.036,6.117c-0.214,1.268-0.445,2.542-0.63,3.79c0.232-0.331,0.508-0.599,0.81-0.765
						c0.188,1.498,0.386,2.986,0.606,4.467c0.4-5.657,1.376-2.334,2.373-2.037c-2.022-0.616-1.054,3.44-1.35,5.306
						c0.998-1.205,1.998-2.392,3.017-3.559c0.632,2.137-2.964,6.516-0.614,5.92c1.243-4.154,2.03-7.02,2.646-9.83
						c0.627-2.807,1.083-5.553,1.889-9.388c-0.854,0.847-1.703,1.704-2.541,2.575c0.646-4.446,1.795-5.543,3.089-6.693
						c1.307-1.153,2.749-2.371,4.41-6.987c-0.027-2.191,1.306-5.66,2.384-8.706c1.064-3.051,1.864-5.706,0.482-6.474
						c0.17,0.77,1.457-0.343,2.749-2.072c1.285-1.735,2.62-4.067,2.792-5.904c-0.393-2.336,0.756-6.079,1.729-8.907
						c0.967-2.827,1.703-4.767,0.21-3.619c-1.703,2.67-2.439,7.089-5.278,8.403c0.811-1.88,1.642-3.756,2.512-5.616
						c-1.135,0.888-2.256,1.796-3.379,2.716C102.092,156.844,100.67,156.249,98.184,155.956z M58.674,295.305l0.01,0.268
						c-0.01-0.102-0.028-0.197-0.046-0.29L58.674,295.305z"/>
					<path fill="#4A73A4" d="M441.45,176.432c1.384,1.398,2.927,5.663,4.033,4.283c-0.771,0.357-1.56-1.512-2.296-3.061
						C442.461,176.099,441.805,174.865,441.45,176.432z"/>
					<path fill="#4A73A4" d="M441.928,182.033c0.492,0.147,1.021-0.294,1.79,1.574c-0.789-1.683-1.59-3.356-2.429-5.011
						L441.928,182.033z"/>
					<path fill="#4A73A4" d="M432.984,191.164c2.08,2.108,3.322,3.521,4.47,7.619c-1.748,1.359-2.516-0.213-3.417-2.18
						c-0.891-1.972-1.959-4.343-4.085-4.579c1.083,3.636,2.593,5.741,4.137,7.709c1.527,1.968,3.09,3.795,4.063,6.833
						c0.447-1.739,0.038-5.822-1.002-9.352C436.125,193.678,434.494,190.741,432.984,191.164z"/>
					<path fill="#4A73A4" d="M426.922,189.784c0.779,1.192,1.55,2.396,2.302,3.613l0.092-0.471
						c-0.758-1.217-1.526-2.423-2.313-3.615L426.922,189.784z"/>
					<path fill="#4A73A4" d="M398.87,89.346c0.492-1.28-2.725-2.331-4.223-3.128C395.656,87.14,396.901,88.605,398.87,89.346z"/>
					<path fill="#4A73A4" d="M416.656,403.583c8.489-9.604,16.091-19.935,22.698-30.823c-2.867,4.689-5.824,9.082-9.369,13.993
						C426.419,391.649,422.267,397.076,416.656,403.583z"/>
					<path fill="#4A73A4" d="M282.86,48.747c4.972-0.129,8.639-0.5,12.348-0.708c3.706-0.199,7.461-0.239,12.54,0.583
						c-6.336-2.719-10.995-2.432-15.25-2.039c-4.287,0.422-8.193,0.953-13.688-0.799C280.179,46.758,281.529,47.742,282.86,48.747z"
						/>
					<path fill="#4A73A4" d="M287.482,38.88c0.715,1.308-1.351,1.775-3.404,2.213c-2.059,0.423-4.111,0.828-3.447,1.77
						c3.434-0.008,4.29-0.481,5.058-0.885c0.77-0.391,1.456-0.719,4.56-0.224C289.337,40.797,288.418,39.825,287.482,38.88z"/>
					<path fill="#4A73A4" d="M319.935,87.288c-0.938,0.111-1.876,0.241-2.808,0.371l2.075,0.223L319.935,87.288z"/>
					<path fill="#4A73A4" d="M240.523,41.002l1.071-0.67c-1.74-0.072-3.485-0.121-5.233-0.151
						C237.756,40.446,239.143,40.709,240.523,41.002z"/>
					<path fill="#4A73A4" d="M242.671,39.658l-1.077,0.674L242.671,39.658z"/>
					<path fill="#4A73A4" d="M315.206,91.178c1.103,0.551,2.201,1.105,3.291,1.678l2.082-0.427
						C318.794,91.975,316.998,91.571,315.206,91.178z"/>
					<path fill="#4A73A4" d="M285.276,71.191c1.202-0.12,2.408-0.216,3.619-0.311C288.183,70.916,283.473,69.324,285.276,71.191z"/>
					<path fill="#4A73A4" d="M209.342,45.891c-1.551,0.741-3.089,1.5-4.612,2.28l0.563,0.084c1.519-0.772,3.05-1.529,4.596-2.264
						L209.342,45.891z"/>
					<path fill="#4A73A4" d="M257.837,76.699c2.399,1.756-6.733,0.802-1.856,2.232C260.223,78.475,258.479,77.578,257.837,76.699z"
						/>
					<path fill="#4A73A4" d="M204.746,73.688c-0.569,0.189-1.144,0.468-1.648,0.865C203.755,74.238,204.297,73.942,204.746,73.688z"
						/>
					<path fill="#4A73A4" d="M204.746,73.688c1.839-0.63,3.897-0.538,5.005-1.444C207.191,72.158,206.44,72.744,204.746,73.688z"/>
					<path fill="#4A73A4" d="M184.401,82.523l1.641-0.636c-1.22,1.597-0.517,1.11,0.612-0.238c1.654-0.847,1.321-1.327,1.354-1.791
						l0.75-1.137c-0.429,0.455-0.803,0.884-1.119,1.25C184.999,81.163,183.458,82.032,184.401,82.523z"/>
					<path fill="#4A73A4" d="M95.995,113.63c5.319-5.412,6.928-6.567,7.729-5.321c2.515-2.509,3.167-3.937,3.479-5.22
						c0.318-1.277,0.303-2.394,1.596-4.155c-2.715,3.024-4.423,4.773-6.237,6.701C100.761,107.572,98.854,109.696,95.995,113.63z"/>
					<path fill="#4A73A4" d="M108.8,98.934l1.902-2.109C109.834,97.63,109.27,98.306,108.8,98.934z"/>
					<path fill="#4A73A4" d="M213.252,88.036c-0.941,1.079-1.864,2.161-2.768,3.253l1.162-0.719L213.252,88.036z"/>
					<path fill="#4A73A4" d="M88.584,122.1c0.898-1.083,2.194-2.929,3.264-3.504C90.91,117.375,87.667,123.177,88.584,122.1z"/>
					<path fill="#4A73A4" d="M127.889,119.247c1.098,0.121,3.653-3.274,5.137-4.22C131.147,116.602,127.813,116.197,127.889,119.247
						z"/>
					<path fill="#4A73A4" d="M81.836,143.313c0.768-1.141,2.697-2.422,3.252-1.027c0.198-1.027,0.113-2.442-0.391-2.773
						C84.198,139.181,83.245,139.94,81.836,143.313z"/>
					<path fill="#4A73A4" d="M119.643,128.089l0.983-0.405c0.736-1.35,1.491-2.695,2.261-4.035
						C121.787,125.118,120.698,126.593,119.643,128.089z"/>
					<path fill="#4A73A4" d="M145.733,131.242c0.985-2.22-1.013-1.691-2.729-1.393c-1.697,0.306-3.139,0.35-0.826-3.032
						c-4.3,3.071-3.686,3.398-2.74,3.545c0.956,0.164,2.259,0.215-0.427,2.882C142.462,130.375,145.563,130.443,145.733,131.242z"/>
					<path fill="#4A73A4" d="M139.01,133.244c-0.504,0.412-1.019,0.888-1.527,1.451C138.102,134.123,138.597,133.659,139.01,133.244
						z"/>
					<path fill="#4A73A4" d="M94.364,183.98c0.091-0.732,0.099-1.256,0.075-1.752C94.359,182.805,94.32,183.367,94.364,183.98z"/>
					<path fill="#4A73A4" d="M125.024,152.898c0.602-2.375,1.261-4.75,1.973-7.128c-0.724,2.375-2.792,5.901-4.246,9.008
						c-1.466,3.1-2.363,5.728-1.077,6.107c2.405-2.86,4.334-6.904,4.512-9.053L125.024,152.898z"/>
					<path fill="#4A73A4" d="M49.407,218.042l-0.382-3.888c-0.372,1.531-0.736,3.066-1.073,4.607
						C48.543,217.488,50.043,220.19,49.407,218.042z"/>
					<path fill="#4A73A4" d="M47.758,219.655l0.194-0.894C47.858,218.949,47.788,219.231,47.758,219.655z"/>
					<path fill="#4A73A4" d="M98.842,170.691c1.215-2.072,2.004-3.81,2.626-5.955C100.582,165.288,97.491,170.461,98.842,170.691z"
						/>
					<path fill="#4A73A4" d="M50.512,244.505c-0.065-2.035-0.099-4.073-0.102-6.114c-0.099,2.22-0.146,4.44-0.176,6.658
						L50.512,244.505z"/>
					<path fill="#4A73A4" d="M46.722,273.268l-0.391,1.111c0.461,1.688,0.944,3.366,1.439,5.037l0.368-1.135
						C47.646,276.619,47.177,274.947,46.722,273.268z"/>
					<path fill="#4A73A4" d="M97.409,239.552c0.542-3.216-1.466-6.019-2.052-5.221c-0.204,2.133-0.358,4.27-0.489,6.408
						c2.165-1.466,0.059-1.78,0.946-5.438C96.327,236.732,96.858,238.148,97.409,239.552z"/>
					<path fill="#4A73A4" d="M160.337,444.937c-1.122,0.154-3.52-1.052-5.566-2.504c-2.048-1.45-3.737-3.138-3.586-3.806
						c1.3,0.176,5.63,2.19,3.518-0.067c-2.547-0.256-5.103-0.565-7.664-0.93c-3.296-3.465-1.192-3.352,2.23-2.264
						c3.428,1.102,8.275,3.031,10.514,3.646c-3.884-2.528-6.639-3.768-9.495-5.041c-2.847-1.282-5.792-2.608-9.794-5.55
						c2.18,1.975,3.229,3.709,4.104,5.19c-0.521,1.062-2.579,0.057-5.163-1.745c-2.584-1.8-5.657-4.413-8.326-6.448
						c2.718,3.452,0.249,2.62-2.788,1.346c-0.483-0.304-0.864-0.436-1.172-0.482l-1.034-0.435l0.632,0.521
						c-0.21,0.165-0.278,0.53-0.098,1.242c4.869,3.095,7.201,7.287,10.225,9.501c-0.364-2.626,2.298-0.931,5.686,1.516
						c3.38,2.457,7.578,5.623,9.881,6.313c1.596,0.817,3.2,1.614,4.812,2.396l1.749,0.98c0.147,0.557-0.609,0.761-3.652-0.127
						c1.296,0.325,3.776,1.589,5.938,2.551c2.163,0.963,3.994,1.635,3.927,0.907c5.756,2.965,11.648,5.667,17.656,8.097
						c0.5,0.374,0.988,0.781,1.306,1.203c0.717,0.022,0.895-0.12,0.883-0.332c26.277,10.331,54.676,15.315,82.783,14.672
						c-4.173-0.227-7.757-1.129-12-1.7c3.236-1.166,1.488-1.328-0.8-1.511c-2.293-0.188-5.14-0.451-4.136-1.588
						c2.886-0.688,6.992-0.26,9.46,0.348c0.932-1.192-2.546-2.331-2.097-3.771c-5.091-0.913-8.067-0.056-11.104,0.865
						c-3.022,0.903-6.104,1.864-11.11,0.764c0.6-1.394,3.834-2.211-2.718-2.931l1.702-0.069c-5.346,0.063-7.245-1.163-8.682-1.944
						c-1.444-0.809-2.426-1.213-6.089,0.04l0.608-2.012c-2.489,0.282-6.014-0.119-9.537-0.803c-3.526-0.677-7.044-1.637-9.593-2.293
						l0.419-0.292c-7.383-1.095-9.385-1.791-11.527-2.614c-2.133-0.887-4.444-1.895-12.246-4.809
						c2.663,0.304,5.313,0.563,7.958,0.755c-4.836-3.093-7.057-1.21-10.678-3.186c0.438-0.251,0.232-2.006,3.873-0.766
						c-6.543-1.596-13.063-3.53-19.521-5.806C155.054,440.903,160.095,443.8,160.337,444.937z"/>
					<path fill="#4A73A4" d="M140.494,428.422c-0.794-0.717-1.73-1.482-2.916-2.279
						C138.636,427.025,139.575,427.752,140.494,428.422z"/>
					<path fill="#4A73A4" d="M273.769,475.077c-1.977,0.1-3.951,0.169-5.928,0.208C269.679,475.382,271.6,475.365,273.769,475.077z"
						/>
					<path fill="#4A73A4" d="M115.327,413.13c1.814,3.259-2.977-0.765-3.982-0.657c3.05,3.021,6.186,5.952,9.404,8.794
						c0.493-0.64,2.042-0.479,2.336-1.206C120.444,417.813,117.858,415.502,115.327,413.13z"/>
					<path fill="#4A73A4" d="M122.571,424.87c0.697-0.139,2.062,0.372,3.544,0.978c-1.816-1.495-3.599-3.028-5.365-4.581
						C120.38,421.749,120.6,422.691,122.571,424.87z"/>
					<path fill="#4A73A4" d="M149.761,391.46l1.451,1.148l2.539,1.315C152.415,393.12,151.082,392.301,149.761,391.46z"/>
					<path fill="#4A73A4" d="M171.177,411.577c-1.276-2.204-5.327-3.74-6.686-4.303c2.05,1.36,2.58,1.824,3.161,2.267
						C168.233,409.982,168.865,410.408,171.177,411.577z"/>
					<path fill="#4A73A4" d="M173.297,397.377c1.348,0.621,2.705,1.216,4.063,1.795l-0.218-0.42
						C175.858,398.313,174.576,397.855,173.297,397.377z"/>
					<path fill="#4A73A4" d="M315.075,460.601c0.867-0.266,1.709-0.528,2.577-0.82C316.458,460.097,315.691,460.357,315.075,460.601
						z"/>
					<path fill="#4A73A4" d="M268.224,469.013c3.336,0.512,4.482,0.861,4.367,1.209c-0.115,0.352-1.488,0.664-3.156,1.001
						c-3.33,0.673-7.869,1.287-5.746,2.806c2.467-0.342,4.924-0.699,7.369-1.123l-0.602,0.825c3.004-0.178,6.005-0.419,8.997-0.73
						c-1.944-1.24-3.317-1.255-3.008-2.728c5.944-0.098,6.922,0.171,7.519,0.723c0.602,0.522,0.808,1.293,5.315,1.691
						c4.462-0.627,8.904-1.382,13.314-2.291l-1,0.622c1.117-0.228,1.577-0.511,1.917-0.812c14.851-3.114,29.334-7.838,43.104-14.027
						c3.556-2.16,2.228-2.313,0.646-2.458c-1.596-0.155-3.449-0.346-1.138-2.494c-4.28,1.872-9.822,3.63-14.294,5.151
						c-4.468,1.54-7.876,2.896-7.845,4.402c0.188-0.476,0.546-1.411-1.364-1.199c-1.498,1.276-3.024,2.529-4.578,3.767
						c1.743-0.203,3.484-0.432,5.227-0.684c-2.297,1.931-7.854,3.944-13.313,5.131c-5.458,1.201-10.768,1.599-12.473,1.114
						c4.936-1.232,5.987-2.404,7.576-3.353c0.794-0.474,1.718-0.905,3.313-1.318c1.597-0.415,3.861-0.806,7.344-1.298
						c-0.799-0.554-3.563-1.182-0.645-2.341c-7.739,2.425-15.337,3.778-23.005,4.918
						C284.39,466.653,276.637,467.601,268.224,469.013z"/>
					<path fill="#4A73A4" d="M413.269,403.847l0.101,0.273C413.472,403.813,413.462,403.673,413.269,403.847z"/>
					<path fill="#4A73A4" d="M409.2,407.447c-1.206,2.514-2.468,5.021-3.797,7.51c3.007-2.855,5.938-5.785,8.769-8.806l-0.804-2.031
						c-0.37,1.143-2.729,4.926-4.487,5.531L409.2,407.447z"/>
					<path fill="#4A73A4" d="M399.535,422.369c2.209-2.407,2.816-4.023,2.481-4.823c-0.338-0.804-1.617-0.804-3.277-0.083
						c1.852-2.312,2.83-2.354,3.54-2.378c0.704-0.024,1.146-0.021,1.79-2.295c-0.617-0.573-2.076,0.525-3.529,1.915
						c-1.456,1.387-2.92,3.062-3.449,3.714L399.535,422.369z"/>
					<path fill="#4A73A4" d="M359.186,447.654l1.164-1.693c-1.355,0.607-2.714,1.21-4.08,1.791L359.186,447.654z"/>
					<path fill="#4A73A4" d="M360.35,445.961c1.342-0.61,2.686-1.225,4.018-1.861c-0.616-0.485-1.22-0.958-2.081-1.048
						L360.35,445.961z"/>
					<path fill="#4A73A4" d="M374.729,438.805c1.683-0.85,3.511-1.852,5.649-3.207C378.512,436.697,376.627,437.764,374.729,438.805
						z"/>
					<path fill="#4A73A4" d="M370.093,440.925l0.284,0.187c1.459-0.75,2.909-1.521,4.353-2.307
						C373.094,439.608,371.602,440.282,370.093,440.925z"/>
					<path fill="#4A73A4" d="M364.365,444.1c1.408,1.08,3.036,2.231,8.393-1.47l-2.381-1.52
						C368.389,442.142,366.385,443.137,364.365,444.1z"/>
					<path fill="#4A73A4" d="M200.523,414.649c1.358,0.227,2.715,0.434,4.071,0.624l-0.305-0.389
						c-1.353-0.193-2.706-0.402-4.063-0.629L200.523,414.649z"/>
					<path fill="#4A73A4" d="M222.155,423.428c1.042-0.023,1.853-0.144,2.594-0.282
						C223.683,423.075,222.805,423.135,222.155,423.428z"/>
					<path fill="#4A73A4" d="M240.849,415.772c4.219,2.279-6.487,1.262,1.697,3.181c0.558,1.623-3.702,3.083-7.557,1.604
						c0.574-1.356,3.997-0.257,1.829-2.116c-2.888,1.199-3.686-0.141-3.175,2.184c-4.685,0.476-5.519,1.847-8.896,2.521
						c2.824,0.196,6.976,1.427,11.425,2.258c4.438,0.84,9.17,1.265,12.803,0.179c4.071-2.29,1.98-6.059,2.332-9.824
						c-0.241-0.468-2.693-0.984-5.149-1.178C243.703,414.396,241.213,414.564,240.849,415.772z"/>
					<path fill="#4A73A4" d="M234.662,410.885c-1.938-0.57-2.563-0.555-3.838-0.508
						C230.874,411.712,233.063,410.636,234.662,410.885z"/>
					<path fill="#4A73A4" d="M283.9,441.063c0.403-0.564,4.583-1.771,3.54-2.58c-2.108,0.505-4.231,0.984-6.368,1.41
						C282.599,439.836,283.202,440.427,283.9,441.063z"/>
					<path fill="#4A73A4" d="M278.255,440.432l2.816-0.538C280.358,439.918,279.488,440.063,278.255,440.432z"/>
					<path fill="#4A73A4" d="M284.248,441.363c-0.116-0.101-0.222-0.203-0.349-0.302
						C283.821,441.188,283.852,441.304,284.248,441.363z"/>
					<path fill="#4A73A4" d="M390.434,429.177c0.542,0.899,2.878-1.648,4.012-2.95C393.307,427.016,391.566,427.929,390.434,429.177
						z"/>
					<path fill="#4A73A4" d="M460.785,326.721l1.746-2.497C461.732,325.047,461.32,325.465,460.785,326.721z"/>
					<path fill="#4A73A4" d="M443.214,279.223c-0.19-0.1-0.332-0.309-0.457-0.578C442.852,278.91,443,279.107,443.214,279.223z"/>
					<path fill="#4A73A4" d="M442.757,278.645c-0.61-1.812,1.295-6.986,0.121-9.018l0.379,0.273
						c-0.158-1.207-0.329-2.41-0.513-3.609c-0.047,1.668-0.263,4.24-0.369,6.65C442.262,275.35,442.264,277.6,442.757,278.645z"/>
				</g>
			</g>
			<g>
				<path fill="#FFFFFF" d="M418.234,346.661c0,0.501-0.651,2.052-1.947,4.665c-1.305,2.61-2.474,4.542-3.508,5.784
					c-0.523,0.745-1.498,1.119-2.923,1.119c-1.431,0-2.532,0.25-3.312,0.745c-6.758,3.982-10.46,6.473-11.105,7.464
					c-0.649,0.991-3.312,1.491-7.986,1.491c-4.676,0-9.225-0.56-13.638-1.679c-4.42-1.119-8.443-2.052-12.079-2.798
					c-4.157-0.747-9.155-1.429-15.002-2.053c-5.844-0.618-11.364-1.552-16.559-2.8c-10.91-3.229-19.677-5.225-26.301-5.971
					c-6.623-0.746-14.095-1.12-22.404-1.12c-5.717,0-14.679,1.371-26.886,4.105c-12.212,2.74-19.227,4.354-21.04,4.852
					c-3.379,0.501-7.081,0.934-11.104,1.307c-4.03,0.372-7.859,0.688-11.494,0.933c-0.523,0-1.169,0.502-1.947,1.493
					c-0.779,0.996-1.432,1.62-1.948,1.865c-2.083,1.241-4.743,2.238-7.987,2.984c-3.251,0.746-6.301,1.738-9.156,2.985
					c-1.82,0.495-4.158,0.934-7.014,1.306c-2.862,0.373-4.676,0.562-5.456,0.562c-0.779,0-2.989,1.118-6.624,3.357
					c-3.641,2.238-6.233,3.107-7.793,2.611c-1.559-0.746-3.379-1.184-5.455-1.306c-2.082-0.129-3.507-0.187-4.287-0.187
					c-0.778,0-1.302,0.122-1.559,0.372c-0.261,0.245-0.912,0.373-1.948,0.373c-0.778,0-4.029-0.996-9.741-2.985
					c-5.717-1.993-8.961-2.984-9.74-2.984c-2.601,0-5.588-0.997-8.961-2.984c-3.379-1.994-5.2-5.097-5.455-9.33
					c3.634-5.224,8.183-8.827,13.637-10.821c5.455-1.987,10.387-4.227,14.806-6.717c1.035-0.496,4.025-1.429,8.961-2.799
					c4.934-1.364,9.22-2.548,12.859-3.545c0.518-0.245,0.974-0.618,1.364-1.12c0.39-0.495,0.713-0.99,0.974-1.492
					c-1.559-1.242-2.404-2.548-2.533-3.918c-0.134-1.364-0.456-2.67-0.974-3.919c-0.261-1.242-0.651-2.297-1.169-3.171
					c-0.523-0.869-0.779-1.803-0.779-2.799c-0.262-0.496-0.65-0.991-1.169-1.493c-0.522-0.496-0.913-0.869-1.169-1.119
					c-1.302-6.216-2.471-10.507-3.506-12.874c-1.042-2.361-1.56-5.533-1.56-9.516c0-0.747,0.195-1.615,0.584-2.612
					c0.391-0.99,0.585-1.988,0.585-2.986c0-3.977,0.321-8.453,0.974-13.434c0.646-4.975,1.881-10.197,3.701-15.671
					c0.518-1.493,0.906-3.481,1.169-5.971c0.256-2.484,0.517-4.601,0.778-6.344c0.518-1.988,1.23-3.977,2.144-5.971
					c0.908-1.988,1.103-3.977,0.584-5.97c2.077-1.988,2.922-4.105,2.533-6.344c-0.391-2.239,1.103-3.358,4.479-3.358
					c0.779,0,2.144,0.56,4.091,1.679c1.948,1.12,3.313,2.053,4.093,2.799c0.518,0.25,1.424,0.624,2.728,1.12
					c1.296,0.501,2.204,1.119,2.729,1.866c2.075,2.239,4.219,5.475,6.429,9.703c2.204,4.233,3.702,7.713,4.48,10.448
					c0.518,0.25,0.975,0.624,1.364,1.12c0.391,0.501,0.712,0.998,0.975,1.494c0.517,1.492,0.712,3.113,0.584,4.851
					c-0.136,1.744-0.33,3.356-0.584,4.853c-0.263,1.246-0.195,2.676,0.194,4.291c0.391,1.62,0.839,3.049,1.364,4.291
					c0,0.25-0.067,0.688-0.195,1.307c-0.135,0.623-0.194,1.184-0.194,1.68c0.517,0.25,0.839,0.688,0.974,1.305
					c0.127,0.625,0.322,1.063,0.584,1.307c0.517,1.994,1.034,4.048,1.558,6.158c0.519,2.115,0.907,4.047,1.169,5.783
					c0.256,0.997,0.256,2.116,0,3.358c-0.262,1.247-0.262,2.489,0,3.73c0.256,0.746,0.779,1.37,1.56,1.866
					c0.779,0.501,1.169,0.997,1.169,1.492c0.255,0.746,1.296,3.609,3.117,8.583c1.813,4.979,3.896,7.463,6.233,7.463
					c0.779,0,2.533-0.431,5.261-1.306c2.728-0.869,4.998-1.802,6.817-2.799c-1.041-5.972-2.21-13.307-3.506-22.019
					c-1.304-8.704-1.948-13.433-1.948-14.18c0-0.745,0.712-6.53,2.144-17.353c1.425-10.821,2.531-18.967,3.312-24.441
					c1.296-6.466,3.634-14.052,7.015-22.763c3.372-8.705,5.064-13.929,5.064-15.673v-4.105c-0.262,0-0.651,0-1.169,0
					c-0.523,0-1.169,0-1.948,0c-0.522,0-2.533-0.805-6.04-2.425c-3.507-1.616-6.69-2.922-9.546-3.918
					c-1.82-0.747-4.159-1.306-7.014-1.679c-2.862-0.374-5.455-0.56-7.792-0.56c-0.262-0.245-0.652-0.496-1.169-0.746
					c-0.524-0.245-1.041-0.496-1.56-0.747c-4.938-1.242-10.069-3.545-15.39-6.903c-5.328-3.358-10.198-6.903-14.612-10.635v-2.985
					c1.297-0.246,2.729-0.747,4.286-1.493c1.56-0.746,2.856-1.242,3.897-1.493c5.192-0.991,10.386-1.866,15.585-2.612
					c5.192-0.747,10.258-1.738,15.195-2.986c1.813-0.496,4.541-1.551,8.183-3.171c3.634-1.615,7.013-2.799,10.13-3.545
					c9.089-2.734,18.313-5.469,27.665-8.209c9.353-2.734,19.481-5.971,30.392-9.702c2.338-0.746,6.753-1.493,13.249-2.239
					c6.489-0.746,10.13-1.119,10.909-1.119c4.414,0,7.403,1.061,8.962,3.172c1.56,2.117,2.983,3.171,4.286,3.171
					c0.779,0,1.296-0.186,1.559-0.559c0.257-0.374,0.518-0.56,0.779-0.56c0,0.251-0.066,0.688-0.195,1.306
					c-0.134,0.624-0.456,1.184-0.974,1.679c2.854,2.49,3.829,4.792,2.922,6.904c-0.913,2.116-0.328,3.673,1.753,4.664
					c-0.262,0.501-0.65,0.933-1.168,1.306c-0.522,0.374-1.303,0.811-2.338,1.306c0.518,0.747,1.035,1.493,1.56,2.239
					c0.517,0.747,0.778,1.493,0.778,2.239c0,0.746-0.585,1.744-1.754,2.985c-1.169,1.248-2.016,2.49-2.532,3.731
					c-0.263,0.251-0.719,0.502-1.363,0.747c-0.651,0.25-1.236,0.624-1.753,1.119c0.256,1.248,0.84,2.863,1.753,4.851
					c0.906,1.995,0.194,3.982-2.144,5.971c-0.779,0.501-1.754,1.062-2.923,1.679c-1.169,0.625-2.143,0.933-2.922,0.933
					s-1.693-0.123-2.729-0.373c-1.041-0.245-1.947-0.373-2.728-0.373s-3.379,0.501-7.792,1.492
					c-4.421,0.997-8.183,1.866-11.301,2.612c-1.819,0.501-3.641,1.493-5.455,2.985c-1.819,1.493-3.506,2.863-5.064,4.105
					c-0.262,0.746-0.194,1.744,0.194,2.985c0.39,1.248,0.323,2.367-0.194,3.358c0,0.25-0.194,0.688-0.585,1.306
					c-0.39,0.624-0.718,1.307-0.974,2.053c-0.523,3.731-0.976,7.714-1.364,11.941c-0.39,4.233-1.234,8.46-2.532,12.687
					c-1.041,3.983-2.275,7.901-3.7,11.755c-1.433,3.86-2.796,7.778-4.093,11.755l1.169,1.12c0.779,0,1.491-0.374,2.145-1.12
					c0.646-0.746,1.229-1.242,1.753-1.493c7.793-1.242,15.714-3.854,23.769-7.837c8.049-3.976,15.451-6.466,22.209-7.463
					c0.519-0.245,0.975-0.496,1.363-0.747c0.39-0.245,0.713-0.496,0.976-0.746c1.296-0.746,3.243-1.551,5.845-2.425
					c2.594-0.869,4.932-1.306,7.013-1.306c0.52,0,2.338,1.119,5.455,3.358c3.117,2.239,5.583,4.233,7.403,5.97
					c0.256,0.747,0.39,1.493,0.39,2.239s-0.134,1.37-0.39,1.866c-0.263,0.251-0.263,0.374,0,0.374c0.256,0,0.39,0.373,0.39,1.119
					l-1.559,1.12c0,0.746,0.128,1.557,0.39,2.425c0.256,0.875,0.518,1.679,0.779,2.426c-0.263,0.501-0.391,1.248-0.391,2.239
					c0,0.997-0.262,1.743-0.778,2.239c-1.56,2.239-3.251,4.665-5.065,7.276c-1.819,2.612-3.641,4.916-5.455,6.903
					c0,0.25-0.065,0.688-0.193,1.306c-0.135,0.624-0.195,1.185-0.195,1.679c-2.6,1.494-5.454,2.863-8.571,4.105
					c-3.117,1.248-6.105,2.367-8.962,3.357c-1.559,0.252-3.185,0.934-4.87,2.054c-1.692,1.12-3.446,2.052-5.261,2.799
					c-1.82,0.501-4.354,0.933-7.598,1.306c-3.251,0.373-5.261,0.561-6.04,0.561s-2.404-0.245-4.87-0.745
					c-2.473-0.496-4.614-0.869-6.43-1.12c-1.041-0.495-2.082-1.057-3.116-1.679c-1.041-0.619-2.082-1.179-3.117-1.681
					c-0.779-0.746-1.626-1.615-2.532-2.61c-0.913-0.992-2.016-1.989-3.313-2.986h-2.339c-0.262,1.248-0.522,2.8-0.778,4.665
					c-0.263,1.865-0.39,3.171-0.39,3.918c0,5.971,1.363,11.633,4.091,16.979c2.729,5.354,3.179,9.518,1.363,12.502
					c1.035,0.997,2.66,1.37,4.87,1.119c2.204-0.244,4.22-0.373,6.04-0.373c2.855-0.495,5.905-0.746,9.156-0.746
					c3.245,0,6.43,0.128,9.547,0.374c5.71,0.25,14.154,1.117,25.326,2.61c11.165,1.492,22.075,3.114,32.729,4.852
					c0.779,0,1.881,0.314,3.313,0.934c1.425,0.623,2.661,1.063,3.702,1.308c2.338,0.25,4.87,0.501,7.598,0.745
					c2.728,0.25,5.126,0.745,7.208,1.492c3.896,1.248,7.854,2.74,11.884,4.479c4.025,1.742,7.988,3.485,11.885,5.224
					c1.034,0.502,2.923,3.236,5.649,8.21C416.87,341.938,418.234,345.169,418.234,346.661z"/>
			</g>
			<g>
				<path fill="#FFFFFF" d="M374.439,283.854c-0.05,0.176-0.116,0.278-0.202,0.308c-0.085,0.028-0.151,0.073-0.2,0.131
					c0,0.028,0.013,0.073,0.036,0.132s0.049,0.116,0.073,0.176c-0.073,0.059-0.152,0.108-0.238,0.153
					c-0.086,0.043-0.178,0.08-0.274,0.108c-0.023,0.029-0.043,0.052-0.055,0.064c-0.013,0.016-0.03,0.037-0.056,0.066
					c-0.098,0.292-0.251,0.438-0.457,0.438c-0.208,0-0.396,0.016-0.567,0.045c-0.024,0.028-0.031,0.059-0.02,0.088
					c0.012,0.028,0.02,0.072,0.02,0.131h-0.514c-0.05,0-0.177-0.028-0.385-0.088c-0.208-0.059-0.348-0.088-0.421-0.088
					c-0.195,0-0.599,0.08-1.208,0.24c-0.611,0.162-0.94,0.256-0.99,0.285c-0.17,0.088-0.42,0.249-0.751,0.48
					c-0.329,0.235-0.592,0.557-0.786,0.965c-0.146,0.293-0.312,0.664-0.495,1.115c-0.183,0.453-0.335,0.854-0.458,1.205
					c-0.072,0.233-0.157,0.533-0.256,0.897s-0.172,0.694-0.22,0.985c-0.025,0.203-0.025,0.416,0,0.636
					c0.024,0.219,0.024,0.444,0,0.678c0,0.468,0,1.015,0,1.644c0,0.627-0.062,1.219-0.183,1.772c-0.025,0.117-0.1,0.3-0.221,0.548
					c-0.123,0.247-0.232,0.475-0.33,0.679c-0.023,0.06-0.066,0.116-0.128,0.176c-0.062,0.059-0.115,0.115-0.166,0.176
					c-0.022,0.058-0.054,0.167-0.091,0.328c-0.036,0.16-0.116,0.27-0.237,0.328c-0.024,0-0.056,0-0.092,0
					c-0.037,0-0.08,0.015-0.129,0.044c-0.023,0.028-0.043,0.08-0.055,0.152c-0.013,0.072-0.043,0.124-0.092,0.153
					c-0.049,0.059-0.122,0.109-0.221,0.153c-0.098,0.044-0.183,0.064-0.256,0.064c-0.049,0-0.092-0.021-0.129-0.064
					c-0.036-0.044-0.079-0.065-0.128-0.065c-0.073,0-0.135,0.043-0.183,0.131c-0.05,0.088-0.1,0.132-0.146,0.132
					c-0.073,0-0.202-0.124-0.385-0.371c-0.184-0.249-0.275-0.389-0.275-0.417c0-0.146,0-0.308,0-0.481s-0.022-0.321-0.072-0.438
					c-0.122-0.41-0.215-0.854-0.273-1.336c-0.062-0.481-0.117-0.957-0.166-1.424c-0.023-0.467-0.061-1.043-0.109-1.729
					c-0.049-0.685-0.072-1.073-0.072-1.16c0-0.292,0.042-0.78,0.129-1.467c0.085-0.687,0.236-1.351,0.457-1.993v-0.175
					c0-0.028-0.024-0.044-0.073-0.044c-0.098,0-0.599,0.227-1.501,0.679c-0.903,0.453-1.49,0.724-1.759,0.81
					c-0.708,0.205-1.436,0.389-2.181,0.549c-0.743,0.16-1.471,0.344-2.178,0.547c-0.05,0.029-0.146,0.072-0.293,0.132
					c-0.146,0.06-0.281,0.116-0.403,0.176c-0.416,0.117-0.843,0.22-1.281,0.308c-0.439,0.086-0.903,0.232-1.393,0.438
					c-0.072,0.029-0.201,0.037-0.384,0.021c-0.184-0.015-0.301-0.021-0.349-0.021c-0.073,0-0.189,0.008-0.35,0.021
					c-0.157,0.016-0.299,0.008-0.42-0.021c-0.073-0.029-0.16-0.08-0.257-0.152c-0.098-0.072-0.208-0.109-0.33-0.109v-0.264
					c0-0.058,0.036-0.138,0.109-0.24c0.073-0.104,0.123-0.256,0.146-0.461c0.049-0.058,0.085-0.094,0.109-0.108
					c0.023-0.015,0.049-0.036,0.074-0.065c0.048-0.146,0.146-0.334,0.293-0.568c0.146-0.233,0.268-0.396,0.366-0.481
					c0-0.059,0-0.132,0-0.219c0-0.088,0.022-0.16,0.072-0.22c0.098-0.146,0.237-0.291,0.421-0.438
					c0.185-0.146,0.323-0.277,0.421-0.395c0.122-0.146,0.25-0.32,0.386-0.525c0.134-0.204,0.25-0.379,0.349-0.525
					c0.121,0,0.242-0.014,0.365-0.043c0.122-0.028,0.208-0.045,0.257-0.045c0.121,0,0.237,0.088,0.348,0.264
					s0.178,0.263,0.201,0.263c0.073,0,0.306-0.094,0.695-0.284c0.391-0.189,0.709-0.328,0.953-0.415
					c0.464-0.146,1.024-0.3,1.685-0.461c0.659-0.159,1.271-0.327,1.831-0.504c0.195-0.06,0.452-0.174,0.771-0.351
					c0.317-0.176,0.634-0.32,0.951-0.438c0.122-0.058,0.286-0.124,0.494-0.195c0.207-0.072,0.372-0.125,0.495-0.154
					c0.121-0.057,0.256-0.131,0.402-0.219c0.146-0.088,0.279-0.146,0.401-0.176c0.073-0.059,0.159-0.088,0.258-0.088
					c0.098,0,0.183-0.015,0.256-0.044c0.464-0.146,0.965-0.342,1.502-0.59c0.537-0.249,1.074-0.476,1.611-0.681
					c0.951-0.319,1.923-0.612,2.911-0.875c0.988-0.264,2.009-0.381,3.059-0.352c0.049,0,0.104-0.021,0.165-0.066
					c0.062-0.043,0.129-0.063,0.202-0.063c0.048,0,0.072,0.017,0.072,0.043c0,0.029,0.036,0.045,0.109,0.045
					c0.049,0,0.122-0.036,0.22-0.108c0.099-0.072,0.185-0.109,0.257-0.109c0.024,0,0.049,0,0.073,0c0.048,0,0.104,0.021,0.164,0.064
					c0.062,0.045,0.177,0.153,0.348,0.328c0.146,0.117,0.307,0.205,0.478,0.264s0.33,0.131,0.477,0.219
					c0.048,0.029,0.104,0.096,0.164,0.197c0.063,0.104,0.129,0.197,0.202,0.285v0.957H374.439z M370.74,278.773
					c-0.099,0.028-0.194,0.064-0.293,0.108s-0.172,0.125-0.22,0.241c-0.024,0.029-0.049,0.104-0.073,0.22
					c-0.024,0.115-0.062,0.22-0.108,0.306c-0.073,0.117-0.179,0.228-0.313,0.328c-0.135,0.104-0.226,0.228-0.273,0.373
					c-0.244,0-0.557-0.015-0.935-0.043c-0.379-0.029-0.604-0.045-0.678-0.045c-0.05,0-0.256-0.103-0.623-0.307
					c-0.366-0.204-0.659-0.364-0.879-0.48c-0.317-0.146-0.635-0.265-0.951-0.352c-0.317-0.088-0.636-0.189-0.953-0.307
					c-0.049-0.028-0.329-0.133-0.842-0.309c-0.513-0.174-0.88-0.262-1.1-0.262c-0.415,0-0.801,0.043-1.153,0.131
					c-0.354,0.088-0.58,0.162-0.678,0.219c-0.221,0.176-0.457,0.352-0.714,0.526s-0.482,0.351-0.679,0.524
					c-0.391,0.41-0.751,0.893-1.08,1.445c-0.329,0.557-0.666,1.08-1.007,1.577c-0.024,0.029-0.067,0.108-0.129,0.24
					c-0.061,0.131-0.128,0.196-0.201,0.196c-0.072,0-0.092-0.006-0.055-0.021c0.036-0.014,0.019-0.021-0.055-0.021
					c-0.05,0-0.265,0.104-0.643,0.307c-0.379,0.205-0.604,0.307-0.678,0.307c-0.049,0-0.244-0.051-0.585-0.152
					c-0.343-0.103-0.538-0.153-0.586-0.153c-0.073,0-0.117,0.016-0.129,0.045c-0.013,0.028-0.043,0.043-0.092,0.043
					c-0.099,0-0.171-0.051-0.221-0.153c-0.049-0.102-0.072-0.195-0.072-0.283c0-0.06,0.023-0.211,0.072-0.459
					c0.05-0.25,0.086-0.433,0.109-0.549c0.123-0.438,0.25-0.904,0.385-1.4c0.135-0.497,0.324-0.979,0.568-1.445
					c0.121-0.204,0.25-0.467,0.385-0.789c0.133-0.32,0.262-0.583,0.384-0.787c0.171-0.293,0.336-0.563,0.495-0.811
					c0.158-0.248,0.313-0.488,0.458-0.723c0.146-0.205,0.316-0.424,0.513-0.658c0.194-0.232,0.366-0.451,0.514-0.656
					c0.022-0.059,0.042-0.102,0.055-0.131c0.012-0.028,0.03-0.059,0.055-0.088c0.537-0.643,1.104-1.371,1.703-2.189
					c0.599-0.816,1.202-1.591,1.813-2.32c0.561-0.672,1.184-1.438,1.868-2.299c0.683-0.861,1.135-1.656,1.354-2.388
					c0.023-0.029,0.055-0.08,0.092-0.153c0.036-0.072,0.078-0.138,0.127-0.197c0.073,0.03,0.136,0.066,0.185,0.109
					c0.049,0.044,0.098,0.096,0.146,0.153c0.146,0.088,0.317,0.175,0.515,0.263c0.193,0.088,0.377,0.205,0.549,0.352
					c0.073,0.029,0.141,0.117,0.201,0.263s0.104,0.263,0.128,0.351c0.023,0.029,0.056,0.061,0.093,0.088
					c0.036,0.028,0.066,0.061,0.091,0.088c0.073,0.233,0.141,0.488,0.201,0.767c0.062,0.278,0.092,0.62,0.092,1.028
					c0,0.06-0.007,0.278-0.019,0.658c-0.013,0.379-0.042,0.686-0.093,0.92c-0.022,0.115-0.085,0.195-0.183,0.239
					s-0.171,0.125-0.22,0.241c-0.025,0.029-0.031,0.08-0.019,0.152s0.005,0.14-0.02,0.197c-0.024,0.088-0.085,0.168-0.184,0.24
					s-0.184,0.139-0.256,0.197c0,0.029-0.013,0.072-0.037,0.131c-0.024,0.061-0.035,0.104-0.035,0.132
					c-0.173,0.175-0.324,0.358-0.459,0.548c-0.136,0.19-0.25,0.372-0.349,0.547c-0.023,0.06-0.091,0.14-0.201,0.24
					c-0.108,0.104-0.214,0.184-0.312,0.242c-0.024,0.029-0.055,0.094-0.091,0.195c-0.037,0.104-0.08,0.184-0.129,0.242
					c0,0.028,0.012,0.051,0.036,0.064c0.023,0.016,0.05,0.037,0.073,0.064c0.635,0.089,1.264,0.197,1.886,0.328
					c0.623,0.133,1.239,0.446,1.851,0.941c0.049,0.03,0.135,0.066,0.257,0.109c0.121,0.045,0.231,0.109,0.329,0.197
					c0.171,0.116,0.391,0.293,0.659,0.525c0.268,0.232,0.5,0.48,0.695,0.744c0.146,0.175,0.312,0.497,0.494,0.964
					C370.752,277.968,370.813,278.395,370.74,278.773z"/>
				<path fill="#FFFFFF" d="M412.382,280.92c-0.171-0.059-0.335-0.096-0.494-0.109c-0.159-0.016-0.274-0.021-0.348-0.021
					c-0.123,0-0.179,0.021-0.165,0.064c0.012,0.045-0.031,0.125-0.129,0.242c-0.17,0.028-0.343,0.086-0.513,0.174
					c-0.172,0.088-0.33,0.191-0.477,0.308c-0.024,0.028-0.079,0.059-0.165,0.088c-0.086,0.028-0.152,0.071-0.201,0.131
					c-0.023,0.029-0.023,0.081,0,0.153s0.037,0.14,0.037,0.197c-0.099,0.028-0.227,0.072-0.385,0.131
					c-0.159,0.06-0.299,0.117-0.422,0.177c-0.023,0-0.05,0.028-0.073,0.086c-0.023,0.062-0.036,0.117-0.036,0.176
					c-0.22,0.089-0.482,0.16-0.787,0.22c-0.306,0.059-0.494,0.088-0.566,0.088c-0.051,0-0.228-0.016-0.531-0.045
					c-0.307-0.027-0.495-0.043-0.568-0.043c-0.049,0-0.086,0-0.108,0c-0.024,0-0.063,0-0.11,0c-0.171-0.115-0.342-0.256-0.513-0.416
					c-0.172-0.16-0.343-0.328-0.513-0.504c-0.024-0.059-0.044-0.146-0.056-0.263c-0.013-0.116-0.043-0.188-0.091-0.219
					c-0.1-0.265-0.245-0.433-0.44-0.504c-0.194-0.073-0.366-0.197-0.513-0.373c-0.024,0-0.037,0.028-0.037,0.088
					c0,0.088,0.031,0.183,0.093,0.285c0.061,0.103,0.104,0.196,0.127,0.284c-0.022,0-0.054,0.015-0.091,0.043
					c-0.036,0.029-0.079,0.043-0.129,0.043c-0.024-0.115-0.079-0.239-0.164-0.37c-0.086-0.132-0.141-0.271-0.165-0.416
					c-0.024-0.409-0.055-1.009-0.092-1.796c-0.037-0.788-0.116-1.372-0.237-1.752c-0.024-0.146-0.062-0.387-0.109-0.723
					c-0.05-0.336-0.073-0.548-0.073-0.636c0-0.058,0-0.233,0-0.526c0-0.291,0.023-0.67,0.073-1.137c0-0.088,0.036-0.16,0.109-0.22
					s0.134-0.177,0.184-0.351c0.049-0.146,0.092-0.32,0.129-0.525c0.036-0.204,0.055-0.352,0.055-0.438
					c0-0.059-0.007-0.109-0.019-0.152c-0.014-0.045-0.045-0.066-0.093-0.066c-0.049,0-0.146,0.104-0.293,0.307
					c-0.146,0.205-0.27,0.381-0.365,0.526c-0.024,0.06-0.051,0.152-0.073,0.284c-0.024,0.131-0.05,0.256-0.073,0.372
					c0,0.06-0.03,0.124-0.092,0.196c-0.063,0.072-0.116,0.14-0.164,0.197c-0.196,0.117-0.422,0.256-0.678,0.416
					c-0.257,0.16-0.508,0.313-0.751,0.459c-0.073,0.029-0.184,0.053-0.329,0.066c-0.146,0.016-0.281,0.051-0.403,0.109
					c-0.879,0.438-1.533,0.883-1.96,1.336c-0.428,0.451-0.641,1.102-0.641,1.947c0,0.061,0.029,0.228,0.092,0.504
					c0.061,0.278,0.128,0.504,0.201,0.68c0,0.029,0.055,0.088,0.165,0.175c0.108,0.088,0.188,0.132,0.237,0.132
					c0.073,0,0.104-0.016,0.091-0.044c-0.012-0.028,0.02-0.044,0.093-0.044c0.122,0,0.244,0.161,0.365,0.482
					c0.122,0.319,0.195,0.511,0.221,0.567c0.049,0.029,0.109,0.097,0.184,0.197c0.073,0.103,0.146,0.183,0.219,0.239
					c0.024,0.205,0,0.402-0.071,0.593c-0.073,0.19-0.051,0.401,0.071,0.635c0.099-0.06,0.166-0.138,0.202-0.239
					c0.037-0.104,0.079-0.184,0.128-0.242c0.049,0.117,0.073,0.228,0.073,0.33c0,0.102,0,0.211,0,0.328c-0.024,0-0.073,0-0.146,0
					c-0.073,0-0.135-0.017-0.185-0.046c-0.022,0.029-0.054,0.097-0.091,0.198c-0.036,0.104-0.043,0.184-0.02,0.24
					c-0.072,0.029-0.171,0.037-0.293,0.021c-0.121-0.015-0.208,0.008-0.256,0.065c-0.099,0.087-0.215,0.278-0.349,0.569
					s-0.287,0.438-0.457,0.438c-0.05,0-0.117-0.007-0.202-0.021c-0.085-0.014-0.165-0.021-0.238-0.021
					c-0.464,0-0.977,0.131-1.536,0.396c-0.563,0.262-1.137,0.655-1.723,1.182c-0.392,0.322-0.817,0.635-1.282,0.941
					c-0.464,0.306-0.891,0.621-1.28,0.94c-0.025-0.028-0.057-0.06-0.093-0.088s-0.104-0.043-0.2-0.043
					c-0.051,0-0.104,0.028-0.165,0.087c-0.063,0.061-0.116,0.118-0.166,0.175c-0.072,0.062-0.177,0.104-0.312,0.134
					c-0.135,0.028-0.237,0.043-0.312,0.043s-0.164-0.035-0.274-0.109c-0.108-0.072-0.188-0.213-0.238-0.416
					c-0.049-0.233-0.092-0.539-0.128-0.92c-0.036-0.379-0.055-0.613-0.055-0.701c0-0.057,0.024-0.232,0.073-0.523
					c0.048-0.293,0.108-0.527,0.183-0.701c0.195-0.525,0.458-1.153,0.788-1.885c0.329-0.729,0.642-1.4,0.935-2.014
					c0.121-0.232,0.316-0.592,0.586-1.072c0.269-0.482,0.524-0.883,0.769-1.205c0.537-0.759,1.1-1.467,1.687-2.123
					c0.585-0.656,1.146-1.32,1.685-1.994c-0.025-0.026-0.031-0.035-0.019-0.021c0.013,0.017-0.019,0.021-0.092,0.021
					c-0.072,0-0.61,0.147-1.611,0.438c-1.002,0.292-1.745,0.556-2.234,0.789c-0.292,0.116-0.731,0.356-1.317,0.722
					c-0.587,0.366-1.196,0.723-1.831,1.074c-0.22,0.115-0.439,0.291-0.659,0.523c-0.221,0.234-0.452,0.498-0.695,0.789
					c0,0.028,0.023,0.06,0.073,0.088c0.048,0.029,0.085,0.043,0.108,0.043c-0.244,0.264-0.495,0.578-0.751,0.941
					c-0.256,0.365-0.544,0.665-0.859,0.897c-0.073,0.028-0.201,0.059-0.386,0.088c-0.183,0.028-0.312,0.044-0.385,0.044
					c-0.049,0-0.22-0.073-0.512-0.221c-0.293-0.145-0.526-0.275-0.696-0.394c-0.023-0.059-0.055-0.124-0.092-0.196
					c-0.036-0.072-0.056-0.153-0.056-0.24c0-0.061,0.02-0.233,0.056-0.526c0.037-0.291,0.104-0.524,0.202-0.7
					c0.073-0.146,0.193-0.356,0.366-0.635c0.17-0.277,0.328-0.503,0.476-0.679c0.073-0.089,0.194-0.168,0.366-0.241
					c0.171-0.072,0.306-0.168,0.401-0.284c0.781-0.76,1.324-1.256,1.631-1.489c0.306-0.232,0.652-0.467,1.044-0.699
					c0.269-0.176,0.854-0.488,1.758-0.942c0.903-0.452,1.673-0.812,2.308-1.071c0.463-0.177,0.995-0.313,1.594-0.418
					c0.599-0.102,1.13-0.225,1.594-0.371c0.708-0.203,1.215-0.365,1.52-0.481c0.307-0.117,0.873-0.177,1.703-0.177
					c0.073,0,0.342,0,0.807,0c0.464,0,0.854,0.029,1.172,0.089c0.146,0.028,0.316,0.125,0.513,0.284
					c0.195,0.162,0.316,0.24,0.367,0.24c0.048,0,0.157-0.05,0.329-0.151c0.17-0.103,0.305-0.168,0.402-0.197
					c0.221-0.146,0.438-0.276,0.658-0.396c0.22-0.115,0.379-0.307,0.477-0.568c0.05-0.116,0.159-0.307,0.33-0.568
					c0.17-0.264,0.306-0.539,0.402-0.832c0.049-0.146,0.092-0.313,0.128-0.505c0.037-0.188,0.067-0.356,0.092-0.504
					c0.073-0.351,0.165-0.714,0.274-1.094s0.238-0.745,0.385-1.097c0.049-0.057,0.104-0.088,0.165-0.088
					c0.062,0,0.115-0.057,0.165-0.174c0.146-0.408,0.336-0.752,0.567-1.029c0.23-0.276,0.458-0.416,0.678-0.416
					c0.293,0,0.513,0.125,0.659,0.373c0.146,0.248,0.231,0.563,0.256,0.94c0.023,0.029,0.056,0.06,0.092,0.087
					c0.037,0.03,0.079,0.061,0.128,0.088c0,0.205,0.007,0.453,0.02,0.745c0.012,0.292,0.03,0.569,0.055,0.832
					c0.024,0.175,0.056,0.365,0.092,0.569c0.037,0.205,0.055,0.35,0.055,0.438c0,0.469-0.104,0.957-0.311,1.467
					c-0.208,0.513-0.324,0.885-0.349,1.117c-0.024,0.351-0.055,0.812-0.092,1.379c-0.035,0.569-0.104,1.074-0.201,1.512
					c-0.024,0.176-0.042,0.408-0.056,0.701c-0.013,0.291-0.019,0.468-0.019,0.524c0,0.263,0.049,0.701,0.146,1.313
					c0.099,0.613,0.281,0.963,0.551,1.053c0.049,0.029,0.072,0.102,0.072,0.219c0,0.115,0.014,0.203,0.036,0.262
					c0.098,0.205,0.196,0.389,0.293,0.547c0.099,0.162,0.207,0.314,0.33,0.461c0.635,0.613,1.123,1.029,1.465,1.248
					c0.342,0.22,0.781,0.476,1.318,0.767v0.263H412.382z M398.648,268.045c0,0.059-0.062,0.232-0.184,0.525
					c-0.123,0.291-0.28,0.496-0.478,0.611c-0.122,0.088-0.305,0.125-0.549,0.109c-0.245-0.014-0.465,0.008-0.659,0.066
					c-0.22,0.086-0.458,0.168-0.714,0.24c-0.257,0.072-0.508,0.183-0.751,0.328c-0.146,0.059-0.354,0.24-0.623,0.547
					c-0.27,0.308-0.549,0.576-0.842,0.812c-0.27,0.204-0.55,0.401-0.843,0.592c-0.293,0.188-0.574,0.399-0.842,0.634h-0.185
					c0.17-0.291,0.36-0.582,0.567-0.876c0.207-0.29,0.396-0.555,0.566-0.786c0.196-0.293,0.396-0.6,0.604-0.92
					c0.208-0.322,0.408-0.658,0.604-1.009c-0.513-0.06-0.908-0.131-1.188-0.219c-0.281-0.089-0.666-0.22-1.154-0.396
					c-0.098-0.058-0.237-0.102-0.421-0.131c-0.184-0.027-0.312-0.044-0.385-0.044s-0.104,0.017-0.092,0.044
					c0.012,0.029-0.02,0.045-0.093,0.045c-0.049,0-0.178-0.029-0.384-0.089c-0.208-0.058-0.373-0.103-0.495-0.132
					c-0.316-0.145-0.714-0.467-1.188-0.963c-0.478-0.496-0.837-0.964-1.081-1.402c-0.05-0.086-0.146-0.166-0.293-0.24
					c-0.146-0.071-0.244-0.166-0.293-0.283c-0.05-0.146-0.086-0.293-0.11-0.438c-0.022-0.146-0.049-0.291-0.073-0.438
					c0.051-0.059,0.185-0.131,0.403-0.219c0.22-0.088,0.392-0.132,0.513-0.132c0.073,0,0.263,0.044,0.568,0.132
					c0.305,0.088,0.555,0.176,0.75,0.264c0.195,0.087,0.525,0.283,0.989,0.591s0.901,0.532,1.317,0.68
					c0.073,0.029,0.33,0.072,0.771,0.132c0.439,0.059,0.793,0.131,1.062,0.219c0.172,0.029,0.386,0.088,0.642,0.175
					c0.257,0.088,0.422,0.132,0.495,0.132c0.072,0,0.225-0.016,0.458-0.044c0.23-0.028,0.384-0.044,0.457-0.044
					c0.049,0,0.183-0.059,0.401-0.176c0.222-0.115,0.379-0.174,0.479-0.174c0.073,0,0.2,0.014,0.384,0.043
					c0.183,0.028,0.323,0.074,0.421,0.131c0.073,0.029,0.214,0.14,0.422,0.328c0.207,0.19,0.372,0.373,0.494,0.549
					c0.122,0.175,0.243,0.4,0.366,0.679C398.587,267.775,398.648,267.957,398.648,268.045z M396.194,282.189
					c0-0.06-0.037-0.373-0.109-0.941c-0.073-0.57-0.11-0.898-0.11-0.984c0-0.089,0.013-0.264,0.037-0.525s0.024-0.497,0-0.701
					c-0.195,0.38-0.402,0.752-0.622,1.115c-0.22,0.365-0.415,0.725-0.586,1.074c-0.099,0.205-0.165,0.408-0.202,0.612
					c-0.036,0.205-0.091,0.38-0.164,0.525c-0.05,0.118-0.135,0.235-0.256,0.351c-0.124,0.117-0.184,0.205-0.184,0.264v0.351
					c0.049,0,0.097,0.028,0.146,0.088c0.194-0.06,0.586-0.228,1.172-0.504C395.9,282.635,396.194,282.395,396.194,282.189z
					 M416.851,282.059c0,0.116-0.037,0.277-0.109,0.48c-0.073,0.205-0.159,0.424-0.257,0.656c-0.099,0.205-0.183,0.432-0.256,0.68
					c-0.073,0.249-0.208,0.445-0.403,0.592c-0.243,0.205-0.493,0.365-0.75,0.48c-0.258,0.117-0.521,0.234-0.787,0.352
					c-0.1,0.029-0.228,0.051-0.386,0.065s-0.312,0.036-0.458,0.065c-0.023-0.029-0.05-0.072-0.072-0.132
					c-0.024-0.059-0.062-0.116-0.11-0.175c-0.244-0.059-0.537-0.088-0.879-0.088s-0.537,0-0.585,0c-0.05,0-0.22,0.035-0.514,0.109
					c-0.293,0.072-0.477,0.108-0.55,0.108c-0.072,0-0.263-0.021-0.567-0.065c-0.306-0.043-0.494-0.064-0.567-0.064
					c-0.023,0-0.385,0.095-1.08,0.284c-0.695,0.188-1.203,0.356-1.521,0.504c-0.563,0.292-1.093,0.524-1.593,0.7
					c-0.502,0.175-0.958,0.308-1.374,0.394c-0.146,0.029-0.392,0.14-0.731,0.329c-0.343,0.189-0.647,0.372-0.916,0.548
					c-0.22,0.117-0.435,0.284-0.641,0.503c-0.208,0.219-0.41,0.418-0.604,0.592c-0.099,0.088-0.178,0.197-0.238,0.328
					c-0.062,0.133-0.128,0.271-0.2,0.416c0.022,0.029,0.042,0.045,0.055,0.045c0.012,0,0.056,0,0.129,0s0.312-0.052,0.714-0.154
					c0.402-0.102,0.728-0.168,0.97-0.196c0.05-0.028,0.104-0.071,0.165-0.131c0.062-0.06,0.13-0.089,0.202-0.089
					c0.048,0,0.073,0.017,0.073,0.045c0,0.029,0.036,0.044,0.109,0.044c0.146,0,0.33-0.103,0.55-0.308
					c0.22-0.203,0.354-0.32,0.401-0.351c0.049-0.03,0.115-0.044,0.202-0.044c0.085,0,0.151-0.016,0.2-0.044
					c0.196-0.087,0.379-0.226,0.55-0.416c0.17-0.188,0.354-0.313,0.551-0.371c0.268-0.089,0.609-0.161,1.024-0.22
					s0.659-0.088,0.732-0.088c0.487,0,0.891,0.16,1.208,0.48c0.316,0.322,0.636,0.643,0.953,0.965
					c0.146,0.116,0.262,0.35,0.348,0.699c0.086,0.352,0.128,0.557,0.128,0.614c0,0.087-0.036,0.356-0.109,0.81
					c-0.072,0.453-0.135,0.825-0.184,1.116c-0.146,0.701-0.256,1.308-0.329,1.817c-0.074,0.512-0.11,1.059-0.11,1.643
					c0,0.438-0.019,1.008-0.055,1.708c-0.037,0.701-0.202,1.314-0.495,1.839c-0.022,0.06-0.022,0.14,0,0.241
					c0.024,0.102,0.014,0.196-0.036,0.285c-0.098,0.32-0.226,0.619-0.385,0.896s-0.287,0.563-0.384,0.854
					c-0.073,0.029-0.172,0.044-0.293,0.044c-0.123,0-0.208,0.028-0.257,0.088c-0.221,0.116-0.458,0.263-0.714,0.438
					c-0.258,0.175-0.483,0.247-0.679,0.219c-0.122-0.146-0.269-0.468-0.438-0.964c-0.172-0.496-0.256-0.964-0.256-1.401
					c0-0.059,0.011-0.241,0.035-0.548c0.023-0.306,0.049-0.563,0.073-0.768c0.023-0.175,0.019-0.394-0.019-0.655
					c-0.037-0.264-0.043-0.497-0.019-0.701c0-0.146,0-0.307,0-0.48c0-0.176,0-0.352,0-0.525c0-0.234,0.012-0.504,0.036-0.811
					c0.023-0.308,0.048-0.619,0.073-0.94c0.073-0.438,0.183-0.956,0.329-1.556c0.146-0.599,0.22-0.941,0.22-1.029
					c0-0.059-0.049-0.152-0.146-0.284c-0.099-0.131-0.195-0.196-0.293-0.196c-0.05,0-0.329,0.08-0.844,0.24
					c-0.513,0.161-0.938,0.271-1.28,0.328c-0.024,0.029-0.05,0.064-0.073,0.109c-0.024,0.043-0.063,0.08-0.109,0.108
					c-0.22,0.146-0.495,0.302-0.824,0.46c-0.329,0.161-0.53,0.241-0.604,0.241s-0.116-0.022-0.128-0.065
					c-0.014-0.044-0.056-0.066-0.129-0.066s-0.146,0.022-0.22,0.066c-0.073,0.043-0.146,0.065-0.22,0.065
					c-0.465,0.028-0.929,0.116-1.393,0.263s-0.929,0.293-1.393,0.438c-0.171,0.06-0.365,0.14-0.586,0.24
					c-0.22,0.104-0.415,0.197-0.586,0.284c-0.099,0.06-0.359,0.263-0.788,0.614c-0.427,0.35-0.773,0.523-1.043,0.523h-0.365
					c-0.1,0-0.208-0.059-0.33-0.174c-0.122-0.117-0.184-0.22-0.184-0.308c0-0.058,0.048-0.159,0.146-0.306
					c0.098-0.146,0.158-0.278,0.183-0.396c0.024-0.059,0.024-0.139,0-0.241c-0.023-0.102-0.036-0.182-0.036-0.24
					c0.048-0.028,0.115-0.079,0.201-0.152c0.085-0.073,0.14-0.139,0.165-0.198c0.048-0.058,0.078-0.122,0.092-0.196
					c0.013-0.071,0.029-0.139,0.056-0.196c0.048-0.058,0.122-0.116,0.22-0.175c0.097-0.06,0.17-0.116,0.219-0.176
					c0.123-0.146,0.3-0.379,0.532-0.701c0.23-0.319,0.458-0.599,0.678-0.832c0.121-0.115,0.312-0.248,0.567-0.395
					c0.257-0.146,0.494-0.32,0.714-0.525c0.17-0.146,0.415-0.387,0.731-0.723c0.317-0.336,0.599-0.605,0.844-0.81
					c0.071-0.089,0.183-0.19,0.329-0.308c0.146-0.115,0.306-0.22,0.477-0.308c0.854-0.583,1.715-1.094,2.582-1.532
					c0.866-0.438,1.617-0.803,2.252-1.095c0.342-0.146,0.757-0.343,1.245-0.593c0.488-0.246,0.938-0.486,1.354-0.723
					c0.172-0.115,0.36-0.24,0.568-0.371c0.206-0.131,0.408-0.256,0.604-0.373c0.097-0.058,0.237-0.174,0.421-0.35
					s0.359-0.32,0.53-0.438c0.244-0.176,0.551-0.344,0.915-0.504c0.366-0.16,0.588-0.241,0.66-0.241
					c0.049,0,0.073,0.008,0.073,0.022c0,0.014,0.037,0.021,0.11,0.021c0.048,0,0.206-0.08,0.476-0.24
					c0.269-0.161,0.5-0.3,0.695-0.417c0.146-0.058,0.316-0.146,0.513-0.263s0.379-0.232,0.55-0.35
					c0.049-0.06,0.098-0.14,0.146-0.242s0.097-0.168,0.146-0.196c0.099-0.116,0.237-0.197,0.421-0.241
					c0.185-0.043,0.323-0.066,0.421-0.066c0.051,0.062,0.104,0.162,0.166,0.309c0.061,0.146,0.141,0.263,0.237,0.352
					c0.122,0.088,0.25,0.176,0.385,0.262c0.135,0.088,0.25,0.19,0.35,0.308c0.021,0.028,0.036,0.08,0.036,0.153
					c0,0.072,0.012,0.139,0.035,0.195c0.05,0.029,0.093,0.06,0.129,0.088c0.036,0.029,0.066,0.045,0.092,0.045
					c0.049,0.088,0.092,0.197,0.128,0.328C416.832,281.816,416.851,281.941,416.851,282.059z M403.08,286.875
					c-0.073,0-0.129,0.016-0.165,0.045c-0.037,0.029-0.068,0.043-0.093,0.043c-0.243-0.029-0.536,0.096-0.879,0.372
					c-0.342,0.276-0.658,0.577-0.952,0.897c0.392-0.146,0.8-0.351,1.228-0.613c0.428-0.262,0.8-0.51,1.117-0.744H403.08
					L403.08,286.875z M403.446,273.256l-0.072-0.045l0.072-0.174l0.073,0.043L403.446,273.256z"/>
			</g>
		</g>
	</g>
</g>
</svg>
